<svg width="81" height="31" viewBox="0 0 81 31" fill="none" xmlns="http://www.w3.org/2000/svg">
<path d="M11.2855 15.0203C11.2855 17.05 9.66169 18.6739 7.63192 18.6739C5.60216 18.6739 3.97834 17.05 3.97834 15.0203C3.97834 12.9905 5.60216 11.3667 7.63192 11.3667H11.2855V15.0203ZM15.345 0H11.2855V7.38835C9.90526 7.38835 8.52502 7.38835 7.63192 7.38835C3.41001 7.38835 0 10.7984 0 15.0203C0 19.2422 3.41001 22.6522 7.63192 22.6522C11.8538 22.6522 15.2638 19.2422 15.2638 15.0203C15.2638 12.9093 15.2638 7.38835 15.2638 7.38835L15.345 0Z" fill="white"/>
<path d="M55.6972 18.6732C57.727 18.6732 59.3508 17.0494 59.3508 15.0196C59.3508 12.9899 57.727 11.366 55.6972 11.366C53.6674 11.366 52.0436 12.9899 52.0436 15.0196C52.1248 17.0494 53.7486 18.6732 55.6972 18.6732ZM48.1465 15.0196C48.1465 10.7977 51.5565 7.3877 55.7784 7.3877C60.0003 7.3877 63.4103 10.7977 63.4103 15.0196C63.4103 19.2415 60.0003 22.6515 55.7784 22.6515C51.5565 22.6515 48.1465 19.2415 48.1465 15.0196Z" fill="white"/>
<path d="M76.1573 15.0196C76.1573 13.071 74.5335 11.4472 72.5849 11.4472C70.6363 11.4472 69.0125 13.071 69.0125 15.0196C69.0125 15.9939 69.0125 22.3268 69.0125 22.3268C66.9828 22.3268 65.0342 22.3268 65.0342 22.3268C65.0342 22.3268 65.0342 17.1306 65.0342 15.0196C65.0342 10.7977 68.4442 7.3877 72.6661 7.3877C76.888 7.3877 80.298 10.7977 80.298 15.0196C80.298 17.1306 80.298 22.3268 80.298 22.3268C80.298 22.3268 78.3495 22.3268 76.3197 22.3268C76.1573 22.3268 76.1573 15.9939 76.1573 15.0196Z" fill="white"/>
<path d="M38.8102 12.4219C38.2419 12.016 38.4043 11.3665 39.3785 11.1229C40.5964 10.7981 42.7074 11.0417 44.4936 11.8536L46.3609 9.2555C45.549 8.60598 43.7628 7.71288 41.1647 7.5505C41.1647 7.5505 36.7804 6.98216 34.9943 10.311C34.9943 10.311 33.4516 13.3962 36.5369 15.3448C38.4043 16.4815 41.6519 16.9686 42.7074 17.4558C43.5193 17.9429 43.2757 18.836 42.0578 19.0796C39.9469 19.5667 37.1864 18.3489 36.2933 17.6993L34.3447 20.3786C35.6438 21.3529 37.2676 22.246 39.8657 22.652C39.8657 22.652 44.0064 23.3827 46.2798 20.541C46.6857 20.0539 48.5531 16.5627 44.8183 14.5329C42.8697 13.4774 39.7845 12.9903 38.8102 12.4219Z" fill="white"/>
<path d="M20.1353 25.2501C20.2977 25.3313 22.1651 26.6303 23.9513 26.6303C28.3356 26.7115 28.5792 22.1648 28.5792 21.1094C27.7673 22.0024 26.0623 22.5708 25.0068 22.5708C20.7849 22.5708 17.4561 19.3232 17.4561 15.1012C17.4561 12.9903 17.4561 7.71289 17.4561 7.71289C17.4561 7.71289 19.4046 7.71289 21.4344 7.71289C21.4344 7.71289 21.4344 14.2081 21.4344 15.1012C21.4344 17.0498 23.0582 18.6736 25.0068 18.6736C26.9554 18.6736 28.5792 17.0498 28.5792 15.1012C28.5792 14.2893 28.5792 7.71289 28.5792 7.71289C30.6089 7.71289 32.5575 7.71289 32.5575 7.71289V15.1012C32.5575 21.6777 32.8823 28.4165 26.4682 29.9591C21.678 31.0958 18.268 28.0917 18.0244 27.9294L20.1353 25.2501Z" fill="white"/>
</svg>
