<svg width="89" height="29" viewBox="0 0 89 29" fill="none" xmlns="http://www.w3.org/2000/svg">
<path fill-rule="evenodd" clip-rule="evenodd" d="M0 1.53711V26.9406H12.1531C17.4974 26.9406 24.3418 23.5354 24.3418 14.224C24.3418 4.04172 16.3861 1.53711 9.1163 1.53711H0ZM8.97988 9.38413C8.97988 9.38413 10.5457 9.38412 10.5457 9.38413C13.0006 9.38413 15.0921 11.5015 15.1246 14.3486C15.1246 14.3504 15.1247 14.3526 15.1246 14.3545C15.0921 17.2016 13.2259 19.313 10.7711 19.313H8.97988V9.38413Z" fill="white"/>
<path fill-rule="evenodd" clip-rule="evenodd" d="M53.123 1.53711V26.942H69.9446V18.9093H62.023V1.53711H53.123Z" fill="white"/>
<path fill-rule="evenodd" clip-rule="evenodd" d="M45.1295 5.39346L32.7031 13.2279L30.5385 11.7719L30.5434 11.7726L43.2536 3.67779L43.2774 3.69435L37.4654 0L15.3281 14.0791L37.5782 28.1213L59.5612 14.1138L53.1954 10.227L40.5229 18.2112L38.3934 16.7608L50.7103 8.93595L45.1295 5.39346Z" fill="white"/>
<path fill-rule="evenodd" clip-rule="evenodd" d="M71.5439 1.53516V26.9127H88.3655V18.9096H80.4439V1.53516H71.5439Z" fill="white"/>
<path fill-rule="evenodd" clip-rule="evenodd" d="M84.8594 1.49512H86.3547V1.85075H85.805V3.4592H85.409V1.85075H84.8594V1.49512Z" fill="white"/>
<path fill-rule="evenodd" clip-rule="evenodd" d="M87.3979 3.22745L86.9187 2.04005V3.44166H86.5498V1.49609H87.1573L87.5759 2.68011L87.9946 1.49609H88.6021V3.44166H88.2332V2.04005L87.754 3.22745H87.3979Z" fill="white"/>
</svg>
