<svg width="98" height="21" viewBox="0 0 98 21" fill="none" xmlns="http://www.w3.org/2000/svg">
<path d="M40.7343 4.30273C38.9793 4.30273 36.9834 5.11627 35.764 6.745L35.7648 6.7417L35.764 6.74253L35.7648 4.55851H31.5791V19.8012H35.764V11.1279C35.764 9.56681 36.9744 7.90755 39.2153 7.90755C40.9472 7.90755 42.7393 9.11218 42.7393 11.1279V19.8012H46.925V10.3523C46.925 6.84649 44.4167 4.30273 40.7343 4.30273Z" fill="white"/>
<path d="M76.6733 4.55859L72.8895 14.9415L69.1056 4.55859H64.3242L70.5957 19.7964H75.1824L81.4539 4.55859H76.6733Z" fill="white"/>
<path d="M19.0844 9.15081C19.7972 8.19371 20.9326 7.63182 22.3039 7.63182C23.8121 7.63182 24.9565 8.49322 25.5481 9.76468L18.2353 12.7985C18.0357 11.2416 18.4342 10.0238 19.0844 9.15081ZM27.1257 15.1146C25.3641 16.4182 24.3575 16.7293 22.7511 16.7293C21.3055 16.7293 20.1735 16.2804 19.3756 15.4933L30.0762 11.0543C29.8427 9.39999 29.2148 7.92225 28.2486 6.79848C26.8427 5.16563 24.7618 4.30176 22.228 4.30176C17.6256 4.30176 14.1553 7.697 14.1553 12.1814C14.1553 16.7821 17.6339 20.0602 22.6892 20.0602C25.5217 20.0602 28.4178 18.7177 29.7726 17.1492L27.1257 15.1146Z" fill="white"/>
<path d="M13.7559 15.9581H4.24261V0H0V19.8013H13.7559V15.9581Z" fill="white"/>
<path d="M88.9709 7.88842C86.6334 7.88842 84.9362 9.65989 84.9362 12.1797C84.9362 14.5857 86.7341 16.471 89.027 16.471C91.3653 16.471 93.0617 14.6509 93.0617 12.1797C93.0617 9.77376 91.2647 7.88842 88.9709 7.88842ZM88.9709 20.0577C84.3933 20.0577 80.8066 16.6476 80.8066 12.1797C80.8066 7.76219 84.4181 4.30176 89.027 4.30176C93.6046 4.30176 97.1905 7.71186 97.1905 12.1797C97.1905 16.5964 93.5799 20.0577 88.9709 20.0577Z" fill="white"/>
<path d="M56.7445 7.88842C54.407 7.88842 52.7106 9.65989 52.7106 12.1797C52.7106 14.5857 54.5077 16.471 56.8014 16.471C59.1389 16.471 60.8353 14.6509 60.8353 12.1797C60.8353 9.77376 59.0382 7.88842 56.7445 7.88842ZM56.7445 20.0577C52.1669 20.0577 48.5811 16.6476 48.5811 12.1797C48.5811 7.76219 52.1916 4.30176 56.8014 4.30176C61.3782 4.30176 64.9649 7.71186 64.9649 12.1797C64.9649 16.5964 61.3534 20.0577 56.7445 20.0577Z" fill="white"/>
</svg>
