<svg width="103" height="45" viewBox="0 0 103 45" fill="none" xmlns="http://www.w3.org/2000/svg">
<path d="M53.4183 14.8789C52.3795 14.8615 51.3482 15.0571 50.387 15.4538C49.4258 15.8505 48.5549 16.44 47.8274 17.1864C47.0999 17.9328 46.531 18.8205 46.1554 19.7954C45.7798 20.7702 45.6053 21.8119 45.6426 22.8568V37.9918L49.5528 35.7148V29.0918C50.6884 29.9536 52.0802 30.4035 53.502 30.3681C54.5299 30.3915 55.552 30.2075 56.508 29.8268C57.464 29.4462 58.3345 28.8766 59.0683 28.1518C59.802 27.4269 60.384 26.5615 60.78 25.6066C61.176 24.6516 61.3779 23.6265 61.3737 22.5917C61.3696 21.557 61.1596 20.5335 60.7561 19.5818C60.3526 18.6301 59.7637 17.7693 59.0242 17.0504C58.2848 16.3315 57.4097 15.769 56.4507 15.396C55.4917 15.0231 54.4682 14.8472 53.4406 14.8789H53.4183ZM53.4183 26.4775C52.6604 26.4775 51.9195 26.2513 51.2893 25.8275C50.6592 25.4037 50.168 24.8014 49.878 24.0966C49.588 23.3919 49.5121 22.6164 49.6599 21.8683C49.8078 21.1201 50.1727 20.4329 50.7087 19.8935C51.2446 19.3541 51.9274 18.9868 52.6707 18.838C53.414 18.6892 54.1845 18.7655 54.8847 19.0575C55.5849 19.3494 56.1834 19.8437 56.6044 20.478C57.0255 21.1122 57.2502 21.8579 57.2502 22.6207C57.2758 23.134 57.1943 23.647 57.0108 24.1266C56.8273 24.6062 56.5459 25.0418 56.1848 25.4052C55.8238 25.7686 55.391 26.0518 54.9145 26.2365C54.438 26.4212 53.9283 26.5033 53.4183 26.4775ZM80.1861 10.0326L84.0963 7.75V29.7834H80.1861V10.0326ZM70.433 14.8789C68.9138 14.8945 67.4331 15.3622 66.1775 16.2231C64.9219 17.084 63.9475 18.2997 63.377 19.717C62.8066 21.1342 62.6656 22.6897 62.9718 24.1875C63.278 25.6853 64.0178 27.0583 65.0979 28.1337C66.178 29.2091 67.5502 29.9388 69.0415 30.2307C70.5329 30.5227 72.0767 30.364 73.4786 29.7745C74.8804 29.185 76.0776 28.1912 76.9194 26.9181C77.7611 25.6451 78.2097 24.1499 78.2087 22.6207C78.214 21.5964 78.0162 20.5812 77.627 19.6348C77.2378 18.6883 76.6649 17.8295 75.9419 17.1086C75.2188 16.3876 74.3602 15.8191 73.4162 15.4363C72.4722 15.0535 71.4618 14.864 70.4442 14.8789H70.433ZM70.433 26.4775C69.6752 26.4775 68.9343 26.2513 68.3041 25.8275C67.674 25.4037 67.1828 24.8014 66.8928 24.0966C66.6027 23.3919 66.5269 22.6164 66.6747 21.8683C66.8226 21.1201 67.1875 20.4329 67.7234 19.8935C68.2594 19.3541 68.9421 18.9868 69.6855 18.838C70.4288 18.6892 71.1993 18.7655 71.8995 19.0575C72.5997 19.3494 73.1981 19.8437 73.6192 20.478C74.0403 21.1122 74.265 21.8579 74.265 22.6207C74.2905 23.133 74.2092 23.645 74.0264 24.1238C73.8435 24.6026 73.5632 25.0376 73.2033 25.4009C72.8435 25.7641 72.4121 26.0475 71.9369 26.233C71.4618 26.4184 70.9533 26.5017 70.4442 26.4775H70.433ZM102.016 15.4636L92.8718 36.5019H88.6935L91.8607 29.4629L85.7162 15.4636H89.9838L94.0169 24.6447L97.8488 15.4636H102.016Z" fill="white"/>
<path d="M33.4095 19.5736L25.3825 24.24L25.4216 24.0208V23.824V23.5035V23.4529V23.0594V22.3173V21.8675L25.3881 21.4571L25.349 21.0129L25.3155 20.7655L25.254 20.3326L25.1758 19.911L25.092 19.4949L24.9915 19.0845L24.9245 18.8315L24.8072 18.438L24.6787 18.0556L24.5614 17.7408L24.4106 17.3641L24.2486 17.0043L24.081 16.6501L23.8967 16.2959L23.6956 15.9529V15.9192L23.4833 15.5819L23.2599 15.2445L23.0252 14.9185L22.7739 14.5924L22.5058 14.2663L22.4722 14.2326L22.1929 13.9177L21.8913 13.6029L21.5785 13.288L21.2433 12.9788L20.8914 12.6696L20.5172 12.3604L20.1373 12.068L19.7184 11.7532L19.2603 11.4327L18.9196 11.2022L18.3945 10.8649L17.8024 10.4994L17.6069 10.3813L16.8863 9.94845L16.702 9.84725L16.2495 9.57738L0 0.115234V6.04102L8.02699 10.7018L7.82032 10.7805L7.64157 10.8592L7.3511 10.9942L7.00477 11.1797L6.6361 11.3934L6.36797 11.5508L5.99371 11.7925L5.65297 12.0286L5.28989 12.2873L5.09438 12.4391L4.75364 12.7089L4.42407 12.9844L4.11125 13.2712L3.80961 13.5579L3.62528 13.7434L3.34598 14.0414L3.07785 14.3506L2.86559 14.6092L2.61981 14.9241L2.39078 15.2445L2.16735 15.5706L1.96067 15.908L1.75957 16.2565V16.2846L1.57523 16.6388L1.39648 17.0043L1.23449 17.3754L1.07809 17.752L0.938438 18.1456V18.1962L0.804377 18.601L0.68707 19.017L0.575353 19.4443L0.474806 19.8885V19.9278L0.385431 20.3889L0.307226 20.8724L0.240196 21.3502L0.184337 21.8731L0.134063 22.4353V22.8514L0.100547 23.4754V24.1726V44.8679L5.20051 41.9106V32.6003L5.36809 32.7408L5.52449 32.8589L5.79262 33.0444L6.12219 33.2524L6.49645 33.4717L6.76458 33.6235L7.16676 33.8315L7.52985 34.0114L7.93762 34.1969L8.14989 34.2869L8.55766 34.4499L8.96543 34.5961L9.36762 34.731L9.76981 34.8491L10.0156 34.9166L10.4178 35.0122L10.8144 35.0909L11.1384 35.1471L11.5406 35.2033L11.9372 35.2483L12.317 35.2764H12.7192H13.1437H13.5403L13.9481 35.2483L14.3503 35.2033L14.7581 35.1471L15.1714 35.074H15.2105L15.6295 34.9841L16.0484 34.8829L16.4785 34.7592L16.9198 34.6242L17.3611 34.4668L17.8191 34.2925L18.2549 34.1126L18.7408 33.899L19.2492 33.6572L19.6122 33.4773L20.1708 33.1906L20.7853 32.8589L20.9808 32.752L21.7181 32.3304L21.8913 32.2292L22.3493 31.9649L38.5933 22.5253L33.4095 19.5736ZM12.8253 30.1546C11.3237 30.1557 9.85542 29.7085 8.6063 28.8697C7.35718 28.0308 6.38332 26.8379 5.8079 25.4418C5.23247 24.0458 5.08134 22.5094 5.37362 21.0269C5.6659 19.5444 6.38847 18.1825 7.4499 17.1133C8.51134 16.0442 9.86397 15.316 11.3367 15.0207C12.8094 14.7254 14.3361 14.8764 15.7235 15.4545C17.111 16.0327 18.2969 17.012 19.1313 18.2686C19.9657 19.5252 20.411 21.0026 20.411 22.514C20.411 24.5395 19.612 26.482 18.1896 27.9147C16.7671 29.3475 14.8377 30.1531 12.8253 30.1546Z" fill="white"/>
</svg>
