<svg width="72" height="34" viewBox="0 0 72 34" fill="none" xmlns="http://www.w3.org/2000/svg">
<path d="M35.9943 5.43995C36.5423 5.44139 37.0785 5.28309 37.5348 4.98509C37.9912 4.68709 38.3473 4.26279 38.5581 3.76591C38.7688 3.26903 38.8247 2.7219 38.7187 2.19379C38.6127 1.66569 38.3495 1.18036 37.9625 0.799235C37.5755 0.418112 37.0821 0.158338 36.5447 0.0527975C36.0073 -0.0527433 35.4501 0.000699641 34.9437 0.206354C34.4372 0.412007 34.0043 0.760628 33.6996 1.20808C33.395 1.65554 33.2324 2.1817 33.2324 2.71997C33.2324 3.4401 33.5232 4.13084 34.0409 4.64073C34.5586 5.15062 35.2611 5.43803 35.9943 5.43995V5.43995Z" fill="white"/>
<path d="M64.4021 9.52469C64.9157 9.66599 65.4626 9.65225 65.9677 9.48535C66.4727 9.31845 66.9112 9.00659 67.2227 8.59263C67.2977 8.47466 67.4098 8.38222 67.543 8.32845C67.6763 8.27468 67.824 8.26232 67.9651 8.29313C68.0464 11.3527 67.9651 14.0017 67.8892 17.0974H67.4963C66.7539 13.7771 64.4021 10.5704 60.9935 9.11675C59.4681 8.6675 57.3113 8.51775 55.943 9.41367C53.3608 11.1642 52.8514 14.2237 52.4206 17.0225C51.9925 20.8953 51.7947 25.4885 52.8894 29.2581C53.2253 30.2493 53.8172 31.1442 54.6106 31.8606C55.4041 32.577 56.3737 33.0919 57.4305 33.3581C59.1131 33.6938 60.8391 33.322 61.8958 32.0543C63.1855 30.0765 62.4377 27.1306 62.6761 24.9283L62.4404 24.8172H59.0427C59.1971 24.5926 58.9641 24.4067 59.1565 24.2234H71.9616C72.0375 24.4067 71.9616 24.5926 71.9995 24.7811C70.8643 24.856 69.6125 24.7062 68.5937 24.8921C68.4772 27.8768 68.5151 30.4122 68.3959 33.322C67.6914 33.5466 67.6508 32.6894 67.0655 32.5009C63.9333 31.7264 61.5462 34.143 58.3761 33.9933C53.0519 34.0294 48.4729 30.4122 46.5572 25.9765C44.5603 20.8256 46.0858 14.6343 50.4291 10.9809C53.4855 8.65717 57.6337 7.39979 61.6248 8.65718L64.4021 9.52469Z" fill="white"/>
<path d="M0.00263584 31.985H3.8167V8.66787H0.478079V8.06243H12.5938V8.66787H9.49291V18.8077H17.578V8.66787H14.6937V8.06243H26.5796V8.66787H23.4206V31.985H26.0434L36.0038 6.7998H36.614L46.7937 31.985H49.847V32.6396H37.3958V31.985H40.3568L37.1872 23.9953H30.2431L27.1422 31.985H30.3884V32.6396H14.4533V31.985H17.578V19.5347H9.49291V31.985H12.784V32.6396H0L0.00263584 31.985ZM36.96 23.3226L33.7165 14.9111C32.6071 17.7132 31.4634 20.5179 30.5099 23.3226H36.96Z" fill="white"/>
</svg>
