<svg width="132" height="19" viewBox="0 0 132 19" fill="none" xmlns="http://www.w3.org/2000/svg">
<path d="M0 18.5842V0H1.63873V8.1488H11.635V0H13.2737V18.5842H11.635V9.72866H1.63873V18.6258H0V18.5842Z" fill="white"/>
<path d="M24.868 5.6543H26.3839V15.674C26.3839 16.6718 26.4658 17.7112 26.5068 18.5843H24.95L24.868 16.6718L24.7861 16.6302C23.8848 18.2101 22.4509 18.9585 20.8122 18.9585C16.6334 18.9585 16.3057 15.2167 16.3057 13.7199V5.6543H17.8215V14.011C17.8215 16.256 19.0915 17.5865 21.1809 17.5865C23.68 17.5865 24.8271 15.4661 24.8271 13.1379V5.6543H24.868Z" fill="white"/>
<path d="M30.3985 7.56693L30.4395 7.6085C31.3408 6.02863 32.7747 5.28027 34.4134 5.28027C36.4208 5.28027 37.9776 6.40281 38.5512 8.10741C39.4935 6.56911 40.9683 5.28027 42.9348 5.28027C47.1136 5.28027 47.4413 9.02207 47.4413 10.5188V18.626H45.9255V10.2693C45.9255 8.02426 44.6555 6.69384 42.5661 6.69384C40.067 6.69384 38.9199 8.81419 38.9199 11.1424V18.5844H37.4041V10.2693C37.4041 8.02426 36.1341 6.69384 34.0447 6.69384C31.5456 6.69384 30.3985 8.81419 30.3985 11.1424V18.5844H28.8827V8.56474C28.8827 7.56693 28.8007 6.52754 28.7598 5.65445H30.3166L30.3985 7.56693Z" fill="white"/>
<path d="M51.7842 15.0089C51.7842 11.766 56.2907 12.1818 58.462 12.0987C58.6259 14.8011 57.9704 17.5866 54.652 17.5866C53.0952 17.5866 51.7842 16.7551 51.7842 15.0089ZM58.462 10.6851C56.6185 10.7682 54.4062 10.5188 52.6855 11.2671C51.1697 11.8908 50.1045 13.2628 50.1045 15.0089C50.1045 17.545 51.989 19.0002 54.3242 19.0002C56.0449 19.0002 57.7656 17.9608 58.2982 16.8798L58.3801 16.7135H58.4211L58.462 18.626H60.0188C59.9779 17.7529 59.855 16.7135 59.8959 15.7157V9.56255C59.9369 6.61069 58.1753 5.28027 55.3894 5.28027C52.9723 5.28027 51.0058 6.27809 50.5961 8.93892H52.2348C52.4397 7.19275 53.7507 6.69384 55.3484 6.69384C57.151 6.69384 58.2162 7.35905 58.3801 9.4794V10.6851H58.462Z" fill="white"/>
<path d="M64.4434 18.5844H62.9276V8.56474C62.9276 7.56693 62.8457 6.52754 62.8047 5.65445H64.3615L64.4434 7.56693L64.4844 7.6085C65.3857 6.02863 66.8196 5.28027 68.4583 5.28027C72.6371 5.28027 72.9648 9.02207 72.9648 10.5188V18.626H71.449V10.2693C71.449 8.02426 70.179 6.69384 68.0896 6.69384C65.5905 6.69384 64.4434 8.81419 64.4434 11.1424V18.5844Z" fill="white"/>
<path d="M80.5029 5.28027C82.92 5.28027 84.9274 6.11178 85.1323 8.85577H83.4936C83.3297 7.23432 81.9368 6.69384 80.339 6.69384C78.9051 6.69384 77.4712 7.2759 77.4712 8.77262C77.4712 10.6851 79.9293 10.5188 83.3706 11.7245C84.6816 12.1818 85.542 13.3459 85.542 14.7595C85.542 17.6698 82.879 19.0002 80.1751 19.0002C77.9628 19.0002 75.4228 17.9608 75.3818 15.0921H77.0206C77.1435 17.0046 78.8232 17.5866 80.5438 17.5866C82.1826 17.5866 83.8623 16.7967 83.8623 15.0089C83.8623 13.138 81.8548 12.847 79.8064 12.3897C77.799 11.8908 75.7505 11.3087 75.7505 8.89734C75.8325 6.19493 78.2906 5.28027 80.5029 5.28027Z" fill="white"/>
<path d="M95.9888 9.64626C95.8659 7.65064 94.6368 6.6944 92.5065 6.6944C90.1713 6.6944 88.7374 9.14735 88.7374 12.0992C88.7374 15.0511 90.1713 17.5456 92.5065 17.5456C94.4729 17.5456 95.8659 16.2983 95.9888 14.5106H97.6275C97.2178 17.4625 95.5381 18.9592 92.6703 18.9592C88.8603 18.9592 87.0986 15.6331 87.0986 12.0992C87.0986 8.60687 88.9832 5.23926 92.7932 5.23926C95.4152 5.23926 97.5456 6.81913 97.6685 9.60468H95.9888V9.64626Z" fill="white"/>
<path d="M101.192 15.0089C101.192 11.766 105.699 12.1818 107.87 12.0987C108.034 14.8011 107.379 17.5866 104.06 17.5866C102.503 17.5866 101.192 16.7551 101.192 15.0089ZM107.829 10.6851C105.986 10.7682 103.773 10.5188 102.053 11.2671C100.537 11.8908 99.4717 13.2628 99.4717 15.0089C99.4717 17.545 101.356 19.0002 103.732 19.0002C105.453 19.0002 107.174 17.9608 107.706 16.8798L107.788 16.7135H107.829L107.87 18.626H109.427C109.386 17.7529 109.263 16.7135 109.304 15.7157V9.56255C109.345 6.61069 107.583 5.28027 104.798 5.28027C102.339 5.28027 100.414 6.27809 100.004 8.93892H101.643C101.848 7.19275 103.159 6.69384 104.757 6.69384C106.559 6.69384 107.624 7.35905 107.788 9.4794V10.6851H107.829Z" fill="white"/>
<path d="M113.851 18.5842H112.335V0H113.851V18.5842Z" fill="white"/>
<path d="M118.111 11.0593C118.316 8.77262 119.627 6.69384 122.126 6.69384C124.748 6.69384 126.1 8.56474 126.264 11.0593H118.111ZM127.944 12.5144C127.944 8.48159 126.387 5.28027 122.126 5.28027C118.357 5.28027 116.432 8.64789 116.432 12.1402C116.432 15.6741 118.193 19.0002 122.003 19.0002C125.076 19.0002 126.96 17.5866 127.78 14.51H126.182C125.813 16.2978 124.298 17.5866 122.495 17.5866C119.381 17.5866 118.111 15.2584 118.07 12.5144H127.944Z" fill="white"/>
<path d="M128.067 1.99604C128.067 0.873502 128.969 0.0419922 130.034 0.0419922C131.099 0.0419922 132 0.873502 132 1.99604C132 3.11858 131.099 3.95009 130.034 3.95009C128.969 3.95009 128.067 3.11858 128.067 1.99604ZM130.034 3.61748C130.894 3.61748 131.591 2.9107 131.591 1.99604C131.591 1.08138 130.894 0.374596 130.034 0.374596C129.133 0.374596 128.477 1.08138 128.477 1.99604C128.477 2.95228 129.174 3.61748 130.034 3.61748ZM129.624 3.11858H129.296V0.873502H130.157C130.689 0.873502 130.935 1.08138 130.935 1.49713C130.935 1.91289 130.689 2.07919 130.362 2.12077L130.976 3.11858H130.607L130.034 2.12077H129.665V3.11858H129.624ZM130.034 1.87131C130.321 1.87131 130.566 1.87131 130.566 1.49713C130.566 1.20611 130.321 1.16453 130.075 1.16453H129.624V1.87131H130.034Z" fill="white"/>
</svg>
