<svg width="80" height="28" viewBox="0 0 80 28" fill="none" xmlns="http://www.w3.org/2000/svg">
<g clip-path="url(#clip0)">
<path d="M0.318359 11H6.52182L10.2307 19.3284L14.1046 11H20.2244L12.1406 27.1769H8.31627L0.318359 11Z" fill="white"/>
<path d="M26.7246 27.1769V11H20.9355V27.1769H26.7246Z" fill="white"/>
<path d="M23.8593 8.88642C25.9461 8.88642 27.6373 7.1165 27.6373 4.93139C27.6373 2.74628 25.9461 0.976562 23.8593 0.976562C21.7734 0.976562 20.082 2.74649 20.082 4.9316C20.082 7.11671 21.7734 8.88642 23.8593 8.88642Z" fill="white"/>
<path d="M29.7627 5.98585L35.3434 5.94238L35.3418 11.0006H38.6784L38.7159 15.6665L35.3436 15.7091L35.3077 27.1775H29.6847L29.7206 15.7091H28.0555L28.0547 11.0006H29.732L29.7627 5.98585Z" fill="white"/>
<path d="M40.0898 11.0001H45.8773L45.8366 13.3112C45.8366 13.3112 47.5236 10.3017 51.5605 10.6513C51.5409 13.3761 51.5621 13.8774 51.5605 16.1451C49.7693 15.2729 45.8414 16.0854 45.8252 18.718C45.8138 20.4624 45.8138 27.1769 45.8138 27.1769H40.0947L40.0898 11.0001Z" fill="white"/>
<path d="M57.7814 10.7041C60.2419 10.1226 62.8328 10.9565 64.5948 12.7262C64.5769 12.155 64.5802 10.9998 64.5802 10.9998H69.7992L69.7226 27.1767H64.5118C64.5118 27.1767 64.4612 26.0139 64.5166 25.3898C62.3068 28.2679 58.2602 28.5953 55.2948 26.6013C53.0916 25.1187 52.007 22.9023 51.665 20.3249C51.1016 16.0769 53.5916 11.6957 57.7814 10.7041ZM61.0025 23.175C63.0902 23.175 64.7805 21.4034 64.7805 19.2194C64.7805 17.0351 63.0902 15.2643 61.0025 15.2643C58.9166 15.2643 57.2263 17.0351 57.2263 19.2194C57.2263 21.4034 58.9164 23.175 61.0025 23.175Z" fill="white"/>
<path d="M75.5415 27.977C77.6276 27.977 79.3179 26.2054 79.3179 24.0213C79.3179 21.837 77.6276 20.0654 75.5415 20.0654C73.454 20.0654 71.7637 21.837 71.7637 24.0213C71.7637 26.2054 73.454 27.977 75.5415 27.977Z" fill="white"/>
</g>
<defs>
<clipPath id="clip0">
<rect width="79" height="27" fill="white" transform="translate(0.318359 0.976562)"/>
</clipPath>
</defs>
</svg>
