<svg width="69" height="27" viewBox="0 0 69 27" fill="none" xmlns="http://www.w3.org/2000/svg">
<path d="M68.9934 20.7396C69.0164 20.9097 68.9704 21.1025 68.9589 21.2839C68.8094 22.1911 68.6368 23.087 68.1422 23.8694C67.8432 24.3911 67.4751 24.856 67.0265 25.2869C66.7389 25.5818 66.4054 25.8312 66.0603 26.024C65.3356 26.4209 64.5304 26.6704 63.7023 26.8292C63.0006 26.9312 62.276 26.9426 61.5743 26.8632C61.0567 26.7838 60.5621 26.6704 60.079 26.5116C59.1703 26.2168 58.3191 25.7859 57.5139 25.2642C57.3414 25.1508 57.1918 24.9808 57.1688 24.7766L57.1573 24.1983L57.0768 21.9643L57.0078 20.1499C57.0308 20.0592 57.0653 19.9458 57.1573 19.9118C57.2494 19.8891 57.3529 19.8664 57.4334 19.9231C57.5829 19.9912 57.6059 20.1499 57.6519 20.286C57.951 21.2726 58.2041 22.2705 58.6527 23.189C59.1473 24.1983 60.0445 25.1962 61.0567 25.6385C61.6778 25.956 62.3795 26.1147 63.1156 26.1374C63.8633 26.1034 64.588 25.956 65.2091 25.5818C65.9798 25.1168 66.7619 24.3571 67.038 23.4725C67.199 22.9849 67.3486 22.486 67.3141 21.9303C67.245 21.1478 67.13 20.3994 66.7504 19.753C66.5319 19.3675 66.2788 19.0159 65.9913 18.6757L64.1624 16.6345C64.1279 16.5325 64.0128 16.4985 63.9323 16.4077L60.5276 12.6089C59.7339 11.7357 58.9747 10.8171 58.2846 9.87593C58.0085 9.44501 57.7555 9.02544 57.5714 8.5605C57.3644 8.06154 57.2149 7.55124 57.1458 6.99559C57.0653 6.49663 57.0653 5.95231 57.0768 5.43067C57.1688 4.54615 57.4219 3.71834 57.8705 2.98124C58.1236 2.50496 58.5491 2.09672 58.9402 1.69983C59.1703 1.50705 59.4118 1.35963 59.6534 1.20087C60.217 0.883349 60.8151 0.64521 61.4593 0.50913C62.368 0.282331 63.3802 0.270991 64.3004 0.47511C64.9905 0.622529 65.6347 0.872009 66.2558 1.18953C66.6469 1.40499 67.0495 1.63179 67.3716 1.96064C67.5096 2.07404 67.5326 2.2328 67.5556 2.39156L67.6361 3.21938C67.6936 4.11523 67.8087 4.96573 67.8662 5.86159C67.8547 5.99767 67.7741 6.14509 67.6361 6.19045C67.5556 6.19045 67.4751 6.16777 67.4291 6.09973C67.291 5.89561 67.268 5.63479 67.1875 5.40799C66.9805 4.68223 66.7389 3.9905 66.3133 3.3668V3.33278C66.1063 3.06062 65.8992 2.76578 65.6347 2.5163C65.1401 1.99466 64.565 1.65447 63.9668 1.39365C63.0466 1.04211 61.8159 1.06479 60.9187 1.42767C60.2515 1.68849 59.5729 2.24414 59.2278 2.93588C58.8827 3.5369 58.8022 4.31935 58.8597 5.04511C58.8137 5.09047 58.8942 5.09047 58.8827 5.14717C58.9517 5.80489 59.2163 6.37189 59.5269 6.92755C59.7914 7.35846 60.102 7.7667 60.4356 8.17494L61.8044 9.69449L63.6563 11.713L65.2091 13.4027C66.6124 14.9222 68.0847 16.4304 68.6598 18.3469C68.8669 19.0953 68.9934 19.9118 68.9474 20.7283L68.9934 20.7396Z" fill="white"/>
<path d="M26.5364 26.3075C26.4789 26.4776 26.3063 26.4889 26.1568 26.5003L24.3739 26.4889L21.7859 26.5116L18.1971 26.4776L15.1029 26.5003C14.8153 26.4889 14.5278 26.5456 14.2517 26.4776C14.1712 26.4549 14.1022 26.3755 14.0677 26.2848C14.0447 26.1941 14.0332 26.0807 14.0907 26.0127C14.1827 25.8766 14.3437 25.8652 14.4818 25.8085C15.0224 25.7292 15.563 25.7405 16.0116 25.4116C16.3337 25.1055 16.4947 24.6972 16.5407 24.255L16.5292 17.1448L16.5177 11.6109L16.5752 2.78844C16.5292 2.35752 16.4602 1.9266 16.0691 1.66578C15.586 1.26888 14.9074 1.33692 14.3552 1.15549C14.2747 1.08745 14.2402 0.996725 14.2402 0.894666C14.2402 0.803946 14.2632 0.713226 14.3322 0.667867C14.4358 0.611167 14.5508 0.577148 14.6773 0.577148L21.2797 0.611167C21.3373 0.611167 21.3488 0.611168 21.3948 0.599828C21.6133 0.622508 21.9239 0.531788 22.0619 0.792607C22.0849 0.871987 22.1194 0.996726 22.0734 1.07611C21.9929 1.22353 21.8434 1.22352 21.7053 1.23486C21.0382 1.23486 20.3825 1.29156 19.8189 1.5864C19.6234 1.67712 19.4393 1.84722 19.3013 2.04C19.2208 2.23278 19.1403 2.42556 19.1518 2.65236L19.1173 5.63477L19.0483 12.2119C19.0253 13.2892 19.0483 14.4006 19.0368 15.4778V21.3293L19.0598 24.7653C19.1173 25.0714 18.9447 25.4343 19.2783 25.5931C19.5774 25.6838 19.9109 25.6498 20.2215 25.6384C21.1072 25.5817 21.9584 25.5591 22.7751 25.3323C23.4767 25.1508 24.1554 24.9127 24.765 24.4704C25.6277 23.7447 25.8577 22.7127 26.2488 21.7715L26.6399 20.6148C26.6859 20.5355 26.7549 20.4674 26.847 20.4674C26.962 20.4788 27.0655 20.5355 27.123 20.6375L27.1575 20.7849L27.077 21.488L26.5364 26.3075Z" fill="white"/>
<path d="M11.8481 6.20164C11.7676 6.26968 11.6296 6.26968 11.5376 6.23566C11.4225 6.1903 11.3765 6.04288 11.342 5.94082C11.089 5.09033 10.8244 4.26251 10.4793 3.45737C10.2493 2.95841 9.9387 2.40276 9.43259 2.11926C8.28234 1.46154 6.83303 1.49556 5.46423 1.46154C5.39522 1.48422 5.28019 1.46154 5.24568 1.54092L5.22268 1.7337L5.16517 5.02229L5.15367 6.1903L5.08465 11.985L5.09615 12.552C5.10766 12.6087 5.17667 12.6314 5.22268 12.6427C6.14288 12.6654 7.08609 12.7108 7.92577 12.4613C8.56991 12.2118 8.90348 11.5428 9.09902 10.9304C9.26006 10.3861 9.39809 9.83043 9.57063 9.29745C9.62814 9.20673 9.73166 9.13869 9.83518 9.15003C9.9272 9.17271 10.0307 9.22941 10.0767 9.32013L10.1112 9.46755L10.0422 12.5634L10.0307 13.7994L10.0997 16.9292C10.0882 17.054 10.0077 17.1674 9.89269 17.2014C9.80067 17.2354 9.69715 17.2014 9.62814 17.1334C9.55912 17.0653 9.52461 16.9859 9.50161 16.9066C9.29456 16.2829 9.20255 15.6251 8.96099 15.0241C8.78846 14.5819 8.56991 14.0489 8.0868 13.8448C7.69572 13.6293 7.20111 13.6293 6.72951 13.584C6.20039 13.5499 5.67128 13.5726 5.14216 13.618C5.09615 13.6293 5.07315 13.6747 5.07315 13.72L5.00413 17.6323V17.8138L5.02714 21.1137L5.07315 23.8693C5.09615 24.1301 5.08465 24.4249 5.18817 24.6631C5.26869 25.0486 5.61376 25.4115 5.99335 25.5363C6.52246 25.7744 7.1436 25.7857 7.71872 25.9105C7.79924 25.9332 7.86825 26.0012 7.89126 26.0806C7.91426 26.1713 7.93727 26.2847 7.86826 26.3527C7.79924 26.4661 7.69572 26.4661 7.59219 26.4888L3.80787 26.4775H0.633183C0.414635 26.4661 0.150077 26.5115 0.0235499 26.2847C-0.0109576 26.194 -0.0109575 26.0806 0.046555 25.9899C0.06956 25.9105 0.138575 25.8991 0.20759 25.8765C0.782715 25.7857 1.36934 25.6837 1.86395 25.3548C2.17452 25.0713 2.30104 24.6744 2.38156 24.2775C2.46208 23.5518 2.48509 22.8147 2.50809 22.0662L2.53109 21.0797L2.60011 14.7746L2.61161 13.4365L2.63462 11.2252L2.62312 8.76447L2.60011 8.03871L2.5771 4.88621L2.5426 2.76563C2.48508 2.34606 2.41607 1.9038 2.03649 1.63164C1.58789 1.31412 1.04727 1.24608 0.506655 1.14402C0.426137 1.11 0.34562 1.01928 0.334117 0.939903C0.311112 0.860523 0.34562 0.781143 0.368625 0.713103C0.43764 0.599704 0.552665 0.599704 0.66769 0.577024C1.74892 0.599704 2.81866 0.554343 3.9229 0.588363L5.94734 0.599704L10.2838 0.588363L11.411 0.577024C11.5261 0.599704 11.6066 0.667744 11.6526 0.769803L11.6756 0.883203L11.7906 3.17387L11.9746 5.86144C11.9401 5.99752 11.9401 6.12226 11.8481 6.20164Z" fill="white"/>
<path d="M31.7111 19.05C34.5292 24.0169 41.5342 28.1786 47.7686 24.3911C54.2445 20.4561 53.6003 11.9852 51.0813 8.02752C47.1014 1.75653 40.568 -0.5795 35.0353 2.65239C29.8592 5.66881 28.3984 13.1985 31.7111 19.05ZM53.8074 6.51931C57.4077 12.6769 55.6593 21.0911 48.2057 25.1622C41.4537 28.8477 32.6313 26.8178 28.9965 20.6149C24.7521 13.3686 28.2488 5.51005 34.6097 1.89261C41.3617 -1.94029 50.1496 0.270997 53.8074 6.51931Z" fill="white"/>
</svg>
