<svg width="100" height="30" viewBox="0 0 100 30" fill="none" xmlns="http://www.w3.org/2000/svg">
<path d="M0 21.1511V0.438477H3.6901V21.1511H0Z" fill="white"/>
<path d="M13.1361 6.12402C8.40491 6.12402 5.13086 9.71076 5.13086 13.8161C5.13086 18.398 8.69265 21.5544 13.1729 21.5544C17.4248 21.5544 21.1146 18.456 21.1146 13.8062C21.1146 9.89618 18.0571 6.12402 13.1361 6.12402ZM13.0926 9.63391C15.5686 9.63391 17.3911 11.5342 17.3911 13.8293C17.3911 16.2627 15.3818 18.0379 13.1595 18.0379C10.5336 18.0379 8.88112 15.9858 8.88112 13.8359C8.88112 11.4793 10.7468 9.63391 13.0926 9.63391Z" fill="white"/>
<path d="M30.3851 6.12402C25.6539 6.12402 22.3799 9.71076 22.3799 13.8161C22.3799 18.398 25.9417 21.5544 30.4219 21.5544C34.6739 21.5544 38.3636 18.456 38.3636 13.8062C38.3636 11.0681 37.161 9.85314 37.161 9.85314L38.1838 9.50732V6.5544H32.9428C32.9428 6.5544 31.8066 6.12402 30.3851 6.12402ZM30.3417 9.63391C32.8176 9.63391 34.6401 11.5342 34.6401 13.8293C34.6401 16.2627 32.6308 18.0379 30.4085 18.0379C27.7827 18.0379 26.1301 15.9858 26.1301 13.8359C26.1301 11.4793 27.9959 9.63391 30.3417 9.63391Z" fill="white"/>
<path d="M34.6137 22.1631C34.6137 24.5965 32.6044 26.3848 30.3821 26.3848C27.7563 26.3848 26.0971 24.313 26.0971 22.1631H22.3535C22.3535 26.7449 25.9153 29.9013 30.3955 29.9013C34.6475 29.9013 38.3372 26.8129 38.3372 22.1631H34.6137Z" fill="white"/>
<path d="M39.8418 21.1515V6.55566H43.5319V21.1515H39.8418Z" fill="white"/>
<path d="M47.1155 21.1512V9.82466H45.1367V6.55535H47.1155V2.07324H50.8056V6.55535H52.8378V9.82466H50.8056V21.1512H47.1155Z" fill="white"/>
<path d="M44.1225 2.40935C44.1225 3.74 43.0285 4.8187 41.6789 4.8187C40.3294 4.8187 39.2354 3.74 39.2354 2.40935C39.2354 1.0787 40.3294 0 41.6789 0C43.0285 0 44.1225 1.0787 44.1225 2.40935Z" fill="white"/>
<path d="M61.1335 6.11426C56.3799 6.11426 53.3154 9.70287 53.3154 13.9481C53.3154 18.335 56.3901 21.5644 61.2104 21.5644C65.7069 21.5644 67.9187 18.796 67.9187 18.796L65.452 16.3605C65.452 16.3605 63.5895 18.3412 61.2572 18.3412C59.3129 18.3412 57.7584 17.2712 57.2161 15.3092H68.7142V14.3073C68.7142 10.3096 66.3675 6.11426 61.1335 6.11426ZM61.0165 9.31765C62.7164 9.31765 64.4548 10.2143 64.8436 12.3563H57.1158C57.4219 10.8506 58.7578 9.31765 61.0165 9.31765Z" fill="white"/>
<path d="M77.9439 21.567C73.1769 21.567 69.9287 17.9871 69.9287 13.7662C69.9287 9.41019 73.5997 6.1123 77.9286 6.1123C82.1134 6.1123 84.2555 9.02515 84.2555 9.02515L81.6813 11.5518C81.6813 11.5518 80.1902 9.65214 77.9111 9.65214C75.3852 9.65214 73.658 11.5574 73.658 13.8221C73.658 16.2133 75.4953 18.048 77.8827 18.048C80.1985 18.048 81.6777 16.1514 81.6777 16.1514L84.2776 18.6767C84.2776 18.6767 82.1564 21.567 77.9439 21.567Z" fill="white"/>
<path d="M85.6201 21.1616V0.385742H89.3102V8.01891C89.3102 8.01891 90.7232 6.11222 93.7967 6.11222C97.6607 6.11222 99.8992 8.94433 99.8992 12.5665V21.1616H96.2091V13.1165C96.2091 10.683 94.6725 9.6734 92.9703 9.6734C91.0309 9.6734 89.3102 10.7617 89.3102 13.3048V21.1616H85.6201Z" fill="white"/>
</svg>
