<svg width="139" height="21" viewBox="0 0 139 21" fill="none" xmlns="http://www.w3.org/2000/svg">
<g clip-path="url(#clip0)">
<path d="M66.5926 5.77465C64.8468 10.3472 63.1803 14.5619 61.5932 18.8164C61.2757 19.6912 60.8393 20.0092 59.887 20.0092C58.9744 20.0092 58.4983 19.7309 58.1809 18.8164C56.7128 14.8403 55.1653 10.8641 53.6179 6.92774C53.4989 6.60964 53.3401 6.33131 53.1418 5.9337C53.1418 10.6653 53.1418 15.2379 53.1418 19.89C52.1498 19.89 51.1579 19.89 50.0469 19.89C50.0469 13.5281 50.0469 7.16631 50.0469 0.605668C51.2769 0.605668 52.5069 0.526145 53.7369 0.645429C54.094 0.685191 54.5702 1.24185 54.7289 1.67923C56.2366 5.57585 57.7047 9.51223 59.2125 13.4486C59.4109 13.9655 59.6093 14.4426 59.9267 15.2379C60.2441 14.4824 60.4822 13.9257 60.6806 13.3691C62.109 9.51223 63.6167 5.69513 65.0055 1.83827C65.3229 0.923759 65.7594 0.446622 66.791 0.565907C67.7433 0.685191 68.7352 0.605668 69.8065 0.605668C69.8065 7.08678 69.8065 13.4486 69.8065 19.89C68.7352 19.89 67.7036 19.89 66.6323 19.89C66.5926 15.2776 66.5926 10.7051 66.5926 5.77465Z" fill="white"/>
<path d="M87.2252 19.9687C86.1142 19.9687 85.2809 20.088 84.4874 19.9289C83.9716 19.8494 83.297 19.4915 83.059 19.0542C82.1067 17.4239 81.1941 15.7937 80.4402 14.084C79.8847 12.8514 79.1705 12.2947 77.8612 12.5333C77.3057 12.6128 76.7105 12.5333 75.9169 12.5333C75.9169 15.0383 75.9169 17.4239 75.9169 19.8891C74.7266 19.8891 73.695 19.8891 72.584 19.8891C72.584 13.4876 72.584 7.12573 72.584 0.803658C75.6392 0.803658 78.6547 0.56509 81.6306 0.883181C84.289 1.16151 85.8364 2.87125 86.2332 5.05813C86.749 7.96072 85.9158 9.86926 83.5351 11.42C83.3367 11.5392 83.1383 11.6983 82.8606 11.8573C84.289 14.4816 85.6777 17.1058 87.2252 19.9687ZM75.9566 3.46767C75.9566 5.57503 75.9566 7.60286 75.9566 9.86927C77.5041 9.78974 78.9721 9.8295 80.4402 9.6307C82.1464 9.35237 83.0193 8.11976 82.9399 6.48954C82.9003 4.85932 82.067 3.70624 80.4005 3.50744C78.9721 3.34839 77.5041 3.46767 75.9566 3.46767Z" fill="white"/>
<path d="M15.3678 19.9291C14.2568 19.9291 13.2649 19.9291 12.0745 19.9291C12.0745 17.106 12.0745 14.3227 12.0745 11.4599C9.13838 11.4599 6.36092 11.4599 3.46443 11.4599C3.46443 14.2432 3.46443 16.9868 3.46443 19.8496C2.27409 19.8496 1.24246 19.8496 0.0917969 19.8496C0.0917969 13.4878 0.0917969 7.16568 0.0917969 0.724332C1.12342 0.724332 2.11537 0.724332 3.30571 0.724332C3.30571 3.26906 3.30571 5.85356 3.30571 8.55733C6.28156 8.55733 9.05902 8.55733 11.9952 8.55733C11.9952 5.93308 11.9952 3.34859 11.9952 0.68457C13.1855 0.68457 14.2172 0.68457 15.3281 0.68457C15.3678 7.08616 15.3678 13.4082 15.3678 19.9291Z" fill="white"/>
<path d="M17.3125 10.1085C17.6299 8.518 17.7886 6.88778 18.3044 5.33709C19.4551 2.07665 22.1532 0.327148 25.6052 0.327148C29.0572 0.327148 31.7156 2.11641 32.8663 5.37685C34.0169 8.59753 34.0169 11.8977 32.8663 15.1582C31.5966 18.8162 28.3827 20.6452 24.4149 20.2079C20.8438 19.8103 18.0664 16.8281 17.6299 12.852C17.5109 11.9772 17.5109 11.0627 17.4712 10.188C17.4315 10.1482 17.3919 10.1482 17.3125 10.1085ZM30.4459 10.2277C30.1285 8.71681 29.9301 7.08659 29.4143 5.61542C28.8191 3.9852 27.4304 3.22973 25.6846 3.22973C23.9387 3.22973 22.55 3.94544 21.8755 5.5359C20.5264 8.67705 20.5264 11.8977 21.8358 15.0389C22.55 16.7486 24.0181 17.5041 25.8829 17.4643C27.7081 17.3848 29.0175 16.4703 29.573 14.7605C29.9698 13.3291 30.1285 11.858 30.4459 10.2277Z" fill="white"/>
<path d="M94.5661 14.1239C95.7168 14.1239 96.6691 14.1239 97.661 14.1239C98.772 17.1458 100.954 18.3386 103.732 17.2651C104.486 16.947 105.398 15.9927 105.478 15.1975C105.557 14.442 104.882 13.3287 104.248 12.8118C103.414 12.1756 102.264 12.0166 101.272 11.5394C99.8036 10.8635 98.2165 10.3068 96.9468 9.35255C94.6058 7.60305 94.4868 4.34261 96.5103 2.27502C99.1688 -0.508285 105.001 -0.468523 107.541 2.43406C108.374 3.38834 108.771 4.70046 109.485 6.13187C107.977 6.13187 106.946 6.13187 105.914 6.13187C104.644 3.34857 103.057 2.47382 100.518 3.22929C99.4068 3.54738 98.5339 4.26309 98.653 5.37641C98.7323 6.17164 99.3275 7.16567 100.002 7.60305C100.954 8.23923 102.184 8.43804 103.256 8.95494C104.684 9.63088 106.231 10.1478 107.422 11.1418C110.08 13.3287 109.604 17.4639 106.628 19.2134C103.851 20.8436 99.1688 20.5255 96.6691 18.4977C95.2406 17.4241 94.4074 16.0722 94.5661 14.1239Z" fill="white"/>
<path d="M39.0954 17.3048C42.1903 17.3048 44.9677 17.3048 47.8642 17.3048C47.8642 18.1796 47.8642 18.9748 47.8642 19.8496C43.8964 19.8496 39.9286 19.8496 35.8418 19.8496C35.8418 13.4878 35.8418 7.12592 35.8418 0.68457C36.8734 0.68457 37.8654 0.68457 39.0954 0.68457C39.0954 6.17165 39.0954 11.619 39.0954 17.3048Z" fill="white"/>
<path d="M89.2871 0.644531C90.3584 0.644531 91.3504 0.644531 92.4217 0.644531C92.4217 7.04612 92.4217 13.4079 92.4217 19.8493C91.39 19.8493 90.3981 19.8493 89.2871 19.8493C89.2871 13.5272 89.2871 7.16541 89.2871 0.644531Z" fill="white"/>
<path d="M115.158 19.8889C115.158 13.4078 115.158 7.08575 115.158 0.485352C117.301 0.604636 119.364 0.604636 121.388 0.882966C123.372 1.1613 124.76 2.3939 125.078 4.42173C125.435 6.56885 124.998 8.4774 122.856 9.59072C122.737 9.67024 122.657 9.78953 122.499 9.94857C124.403 10.7438 125.832 11.9764 126.03 14.1235C126.308 17.1454 124.522 19.4913 121.467 19.8094C119.404 20.048 117.34 19.8889 115.158 19.8889ZM115.952 19.0937C117.817 19.0937 119.562 19.213 121.269 19.0539C123.411 18.8949 124.959 17.3442 125.157 15.4356C125.435 13.209 124.443 11.3005 122.34 10.8631C120.277 10.4257 118.094 10.5052 115.872 10.3064C115.872 13.1295 115.872 15.5947 115.872 18.0599C115.912 18.378 115.952 18.6563 115.952 19.0937ZM115.991 9.74976C117.975 9.59072 119.84 9.63048 121.586 9.27263C123.53 8.87501 124.324 7.60265 124.324 5.61458C124.324 3.6265 123.53 2.27462 121.665 1.877C119.84 1.47939 117.936 1.51915 115.991 1.32034C115.991 4.26269 115.991 6.84718 115.991 9.74976Z" fill="white"/>
<path d="M134.758 10.0677C137.734 12.1353 138.607 14.0041 137.814 16.7476C137.179 18.9742 135.155 20.2864 132.417 20.2864C129.719 20.2864 127.735 19.0538 127.061 16.9067C126.188 14.2029 127.061 12.0955 129.997 10.0677C126.981 7.76153 126.386 4.34204 128.529 1.95636C130.433 -0.190761 134.282 -0.190761 136.266 1.87683C138.488 4.26252 137.893 7.64224 134.758 10.0677ZM132.378 19.4116C135.314 19.4116 137.258 17.7019 137.298 15.0776C137.337 12.4534 135.234 10.4653 132.378 10.4653C129.521 10.4653 127.458 12.4136 127.458 15.0776C127.497 17.7019 129.402 19.4116 132.378 19.4116ZM132.338 9.63031C134.957 9.63031 136.742 8.00009 136.782 5.49512C136.782 2.95039 134.957 1.16113 132.338 1.16113C129.759 1.16113 128.053 2.83111 128.013 5.4156C128.013 7.96033 129.68 9.63031 132.338 9.63031Z" fill="white"/>
</g>
<defs>
<clipPath id="clip0">
<rect width="138" height="20" fill="white" transform="translate(0.0917969 0.287109)"/>
</clipPath>
</defs>
</svg>
