<svg width="40" height="33" viewBox="0 0 40 33" fill="none" xmlns="http://www.w3.org/2000/svg">
<path d="M14.291 32.6514C14.291 29.6056 14.291 26.6003 14.291 23.5545C16.7026 23.9809 18.8165 23.4123 20.5533 21.6458C21.9327 20.2345 22.5679 18.4984 22.4984 16.4983C22.3793 12.7621 18.9951 9.14767 14.291 10.0513C14.291 6.711 14.291 3.37073 14.291 0C17.7645 0 21.2083 0 24.7115 0C24.7115 4.5383 24.7115 9.04614 24.7115 13.6961C24.92 13.5235 25.039 13.422 25.1482 13.3205C26.4185 12.1224 27.8079 11.1376 29.5149 10.7417C31.5395 10.2645 33.5243 10.3559 35.3901 11.3813C37.4841 12.5285 38.5361 14.3967 38.8636 16.742C38.9728 17.544 39.0025 18.3563 39.0025 19.1685C39.0125 23.4834 39.0125 27.7984 39.0125 32.1133C39.0125 32.2757 39.0125 32.4483 39.0125 32.6514C35.5191 32.6514 32.0754 32.6514 28.5622 32.6514C28.5522 32.4686 28.5423 32.2757 28.5324 32.0828C28.5324 28.3771 28.5324 24.6713 28.5225 20.9655C28.5225 20.6 28.4828 20.2142 28.3637 19.869C28.0858 19.0568 27.2919 18.5796 26.4483 18.6608C25.6047 18.7421 24.92 19.3614 24.7711 20.2041C24.7215 20.468 24.7115 20.7422 24.7115 21.0061C24.7115 24.6814 24.7115 28.3466 24.7115 32.0219C24.7115 32.225 24.7115 32.4179 24.7115 32.6412C21.2182 32.6514 17.7546 32.6514 14.291 32.6514Z" fill="white"/>
<path d="M10.4801 32.6516C6.95694 32.6516 3.49336 32.6516 0 32.6516C0 25.2706 0 17.9199 0 10.5186C3.46358 10.5186 6.92717 10.5186 10.4801 10.5186C10.4801 11.1785 10.4801 11.8486 10.4801 12.5187C10.4801 12.9045 10.4801 13.27 10.9167 13.4426C11.3336 13.6152 11.6015 13.3715 11.8695 13.0974C13.5169 11.3612 15.5117 10.8942 17.6851 11.7166C19.8189 12.5288 20.9502 14.2243 21.109 16.5595C21.2579 18.7017 19.9479 20.8846 18.0325 21.7475C15.869 22.7222 13.4971 22.2552 11.929 20.5597C11.8298 20.448 11.7405 20.3262 11.6214 20.2348C11.1649 19.8896 10.5793 20.1434 10.5098 20.712C10.49 20.8744 10.4999 21.047 10.4999 21.2196C10.4999 24.8238 10.4999 28.4281 10.4999 32.0323C10.4801 32.2252 10.4801 32.4283 10.4801 32.6516Z" fill="white"/>
</svg>
