<svg width="340" height="240" viewBox="0 0 340 240" fill="none" xmlns="http://www.w3.org/2000/svg">
<g clip-path="url(#clip0)">
<path fill-rule="evenodd" clip-rule="evenodd" d="M275.173 47.9361C278.115 42.0826 279.446 35.4758 277.327 28.973C271.221 10.2368 245.48 21.1114 242.67 32.0369C239.859 42.9624 246.566 67.2261 253.73 67.2676C256.586 67.2841 261.889 64.1769 266.844 59.2464L269.579 85.7859L291.16 80.4052L275.173 47.9361Z" fill="#B28B67"/>
<path fill-rule="evenodd" clip-rule="evenodd" d="M241.723 36.8663C241.625 35.5653 241.802 34.0494 241.93 32.7637C242.094 31.1064 242.574 29.5292 243.157 28.0104C244.254 25.1508 245.75 22.4426 247.552 20.0551C250.843 15.6942 255.612 12.4632 260.928 11.8009C263.612 11.4664 266.387 11.8209 268.949 12.9238C271.263 13.9203 273.678 15.6346 276.236 15.1633C279.019 14.6504 280.933 11.6266 282.762 9.59788C284.824 7.31075 287.157 5.43711 289.935 4.24217C294.59 2.24061 299.553 2.72894 303.881 5.84078C308.486 9.15226 312.608 14.6647 311.658 20.8105C311.481 21.953 311.14 22.9641 310.518 23.8867C309.948 24.7326 309 25.7177 308.966 26.8508C308.93 28.0552 310.238 29.2711 310.858 30.1951C311.747 31.5189 312.559 32.9384 312.8 34.5581C313.195 37.2179 312.167 40.1076 310.854 42.248C309.517 44.4262 307.588 45.9651 305.376 47.0042C303.9 47.698 302.355 48.2629 300.748 48.5413C299.95 48.6796 299.205 48.6363 298.403 48.654C297.623 48.6712 297.259 48.9684 296.732 49.5259C294.287 52.1159 291.338 53.6174 287.909 54.1778C285.015 54.6507 281.577 54.7845 278.784 53.4355C275.681 51.9373 274.997 48.9753 274.816 45.6736C274.254 46.1479 272.531 46.7844 273.277 45.2665C273.573 44.6652 274.315 44.2655 274.78 43.8392C275.322 43.3429 275.849 42.7447 276.197 42.0685C277.603 39.3385 274.482 35.2743 271.825 35.1388C267.878 34.9374 268.338 40.2854 266.051 42.2688C264.736 43.4092 262.9 42.7565 261.505 41.9702C259.637 40.917 258.135 39.2792 256.765 37.5729C255.636 36.1679 254.553 34.7278 253.412 33.3341C252.88 32.6833 251.153 30.8986 251.551 29.9133C248.793 30.0491 246.136 31.8614 244.227 33.8452C243.438 34.6653 242.886 35.49 242.645 36.6504C242.593 36.8991 242.525 37.617 242.24 37.7169C241.708 37.9029 241.747 37.1932 241.723 36.8663Z" fill="#191847"/>
<path fill-rule="evenodd" clip-rule="evenodd" d="M273.384 70.3822L265.348 69.1546C236.067 95.2276 224.713 144.533 188.728 171.175L197.688 181.84C260.767 172.948 275.39 112.794 273.384 70.3822Z" fill="#191847"/>
<path fill-rule="evenodd" clip-rule="evenodd" d="M310.067 169.967C277.941 170.527 254.31 170.94 239.173 171.204C235.934 171.261 236.463 166.595 236.89 164.238C241.822 137.036 262.409 107.447 261.736 68.8601L282.129 65.3123C299.516 92.086 305.947 125.311 310.067 169.967Z" fill="#DDE3E9"/>
<path d="M315.128 85.1206C313.448 88.264 311.131 90.2864 308.176 91.1878C332.167 122.891 345.885 177.59 336.115 194.571C326.346 211.553 261.667 186.458 256.908 172.459C252.15 158.46 258.136 127.899 275.422 65.637L281.818 65.1618C282.392 65.0654 283.025 65.0111 283.717 64.9991C296.444 64.7769 303.48 59.6498 311.51 61.9391C319.54 64.2284 322.368 71.5701 315.128 85.1206Z" fill="#2F3676"/>
<mask id="mask0" mask-type="alpha" maskUnits="userSpaceOnUse" x="182" y="93" width="86" height="71">
<path d="M252.06 163.789L250.326 163.281L184.389 143.932L187.444 133.521L186.074 133.119L188.084 126.27L189.453 126.671L192.848 118.146L190.656 117.502L195.215 107.037L196.768 107.492L199.715 97.4465L198.163 96.9909L199.235 93.338L228.915 102.047L266.612 114.2L265.995 116.3L267.367 116.703L264.258 127.296L261.609 126.519L257.506 137.119L261.069 138.164L258.497 146.931L255.847 146.154L253.837 153.003L255.115 153.378L252.06 163.789Z" fill="#F5F5F5"/>
</mask>
<g mask="url(#mask0)">
<path d="M252.06 163.789L250.326 163.281L184.389 143.932L187.444 133.521L186.074 133.119L188.084 126.27L189.453 126.671L192.848 118.146L190.656 117.502L195.215 107.037L196.768 107.492L199.715 97.4465L198.163 96.9909L199.235 93.338L228.915 102.047L266.612 114.2L265.995 116.3L267.367 116.703L264.258 127.296L261.609 126.519L257.506 137.119L261.069 138.164L258.497 146.931L255.847 146.154L253.837 153.003L255.115 153.378L252.06 163.789Z" fill="#F5F5F5"/>
<path d="M201.17 188.434L199.618 187.978L197.509 195.166L184.783 191.432L197.253 196.037L195.491 202.042L242.734 215.905L273.173 112.172L227.907 98.8889L226.218 104.644L196.391 95.892L226.918 106.698L226.174 109.233L201.476 102.168L225.928 110.071L224.422 115.206L222.159 114.542L218.074 125.083L189.822 116.793L220.327 127.864L217.956 134.615L215.84 134.266L214.386 141.032L184.796 132.349L214.462 143.137L211.943 151.721L210.391 151.266L209.191 155.353L183.966 147.951L208.867 156.459L206.719 163.777L205.715 163.483L204.509 167.592L175.65 159.124L204.682 169.032L203.53 172.959L176.954 165.16L205.97 175.46L204.165 180.703L183.389 174.352L203.57 181.947L201.17 188.434Z" fill="#D5D6D8"/>
<path d="M215.017 141.294L259.619 154.282L258.316 166.02L211.951 151.743L215.017 141.294Z" fill="#CDCDCD"/>
<path d="M222.203 114.66L266.484 127.654L265.253 139.442L218.016 125.581L222.203 114.66Z" fill="#CDCDCD"/>
<path d="M229.507 93.4529L274.693 106.712L273.461 118.499L226.225 104.639L229.507 93.4529Z" fill="#C4C4C4"/>
<path d="M204.889 163.586L250.96 179.129L250.993 177.114L204.889 163.586Z" fill="#AEAEAE"/>
<path d="M209.554 151.132L255.889 165.777L255.658 164.661L209.554 151.132Z" fill="#AEAEAE"/>
<path d="M214.124 133.969L260.459 148.614L260.228 147.498L214.124 133.969Z" fill="#AEAEAE"/>
<path d="M219.141 113.978L265.476 128.623L265.244 127.507L219.141 113.978Z" fill="#AEAEAE"/>
</g>
<path fill-rule="evenodd" clip-rule="evenodd" d="M254.318 159.519C244.68 163.096 235.824 164.751 227.477 163.163C225.396 162.758 216.792 159.511 225.339 158.041C227.321 158.121 228.997 158.061 230.512 157.962C230.618 157.978 230.8 157.982 230.892 157.907C230.892 157.907 230.943 157.899 230.998 157.922C233.478 157.682 235.417 157.516 237.359 156.678C243.161 154.174 249.808 150.064 256.781 148.825L289.328 160.142L293.723 173.312L254.318 159.519Z" fill="#B28B67"/>
<path fill-rule="evenodd" clip-rule="evenodd" d="M278.558 167.587L255.301 158.278C246.241 159.551 240.47 162.987 233.611 162.052C231.816 161.429 229.228 159.719 234.735 157.853C240.241 155.987 244.474 152.167 244.416 150.034C244.358 147.901 240.186 147.103 240.601 144.013C240.879 141.954 247.348 144.057 260.008 150.324L275.681 153.364L278.558 167.587Z" fill="#B28B67"/>
<path fill-rule="evenodd" clip-rule="evenodd" d="M313.021 163.35C300.02 152.137 291.488 142.705 287.425 135.053L275.573 152.037C286.357 154.859 298.84 158.63 313.021 163.35V163.35Z" fill="black" fill-opacity="0.2"/>
<path d="M281.463 122.601L297.454 132.382L321.325 120.637C321.325 120.637 283.392 106.95 284.434 110.907C286.408 118.401 281.463 122.601 281.463 122.601Z" fill="#2F3676"/>
<path d="M27.918 229.629L115.675 207.902L142.675 205.23L140.145 175.426L27.1205 218.487L27.918 229.629Z" fill="#997659"/>
<path d="M51.0493 208.729L60.5939 220.82C79.423 220.401 156.68 207.457 156.68 207.457C156.68 207.457 251.148 230.965 269.947 230.046L176.089 161.959C145.112 167.403 92.7287 189.957 51.0493 208.729Z" fill="#69A1AC"/>
<path fill-rule="evenodd" clip-rule="evenodd" d="M57.9253 214.818C59.0726 217.898 59.6764 220.192 59.6764 221.702C59.6764 223.574 59.3745 226.291 58.7707 229.793C56.597 229.793 37.275 229.793 0.804847 229.793C-0.704681 224.781 0.140647 222.124 3.40123 221.702C6.66181 221.279 9.31855 220.917 11.4923 220.615L38.4223 208.599C38.9657 208.357 39.5695 208.599 39.7507 209.142L41.5017 213.369C44.5207 214.758 46.936 215.482 48.8078 215.482C50.3173 215.482 52.4307 214.879 55.1478 213.611C56.1743 213.128 57.3819 213.611 57.865 214.637C57.865 214.698 57.9253 214.758 57.9253 214.818Z" fill="#232746"/>
<path fill-rule="evenodd" clip-rule="evenodd" d="M263.252 225.718C236.915 230.739 179.308 183.868 176.984 183.726C175.95 183.662 119.044 200.422 60.6047 215.205L45.952 212.526C107.957 180.557 163.584 146.822 170.785 147.064C181.095 147.41 199.107 152.676 268.477 198.828L263.252 225.718Z" fill="#B28B67"/>
<path fill-rule="evenodd" clip-rule="evenodd" d="M80.0144 211.74L71.697 196.495C116.876 168.666 165.94 136.669 173.563 136.669C188.704 136.669 226.679 152.732 257.22 173.413C287.761 194.095 315.921 199.98 315.921 199.98C286.176 275.863 179.987 185.701 177.032 184.867C174.077 184.033 135.178 206.152 80.0144 211.74Z" fill="#89C5CC"/>
<path fill-rule="evenodd" clip-rule="evenodd" d="M71.7147 213.741C72.9349 216.999 73.5451 219.436 73.5451 221.054C73.5451 223.021 73.2174 225.891 72.562 229.664C70.2803 229.664 49.7735 229.664 11.0417 229.664C9.44303 224.379 10.3659 221.526 13.8103 221.104C17.2547 220.683 20.116 220.302 22.3943 219.963L50.9884 207.215C51.5386 206.97 52.1834 207.217 52.4287 207.768C52.4329 207.777 52.437 207.786 52.4409 207.796L54.2789 212.255C57.4675 213.742 60.0586 214.486 62.0522 214.486C63.6719 214.486 65.9087 213.832 68.7627 212.524L68.7627 212.524C69.8579 212.022 71.1528 212.502 71.6548 213.598C71.6765 213.645 71.6964 213.693 71.7147 213.741Z" fill="#393D64"/>
</g>
<defs>
<clipPath id="clip0">
<rect width="340" height="240" fill="white" transform="matrix(-1 0 0 1 340 0)"/>
</clipPath>
</defs>
</svg>
