<svg width="43" height="42" viewBox="0 0 43 42" fill="none" xmlns="http://www.w3.org/2000/svg">
<path d="M2.27661 31.952L19.911 41.5593C20.3142 41.8457 20.7999 42 21.2984 42C21.797 42 22.2827 41.8457 22.6859 41.5593L41.4025 31.2881C42.0546 30.8816 42.5124 30.5564 42.5124 29.8246C42.4945 29.5524 42.4011 29.2901 42.2422 29.0657C42.0834 28.8413 41.865 28.6634 41.6106 28.5509L36.588 25.3394L41.3747 22.6971C41.8218 22.4971 42.2064 22.1847 42.4891 21.7918C42.7719 21.399 42.9428 20.9398 42.9841 20.4613V13.3338C43.0471 12.77 42.9216 12.2015 42.6266 11.7131C42.3315 11.2246 41.8827 10.8425 41.347 10.6237C41.347 10.6237 22.9772 0.528592 22.9772 0.528592C22.4753 0.184574 21.877 0 21.2637 0C20.6505 0 20.0522 0.184574 19.5503 0.528592L1.16666 10.7592C0.843794 10.9201 0.572228 11.1643 0.381443 11.4653C0.190657 11.7663 0.0879443 12.1125 0.0844544 12.4665C0.0844544 13.3338 1.02791 13.9977 1.16666 14.1061L5.95333 16.8162L0.889171 19.7567C0.649373 19.9021 0.447873 20.1005 0.300878 20.3358C0.153883 20.5712 0.0654973 20.8369 0.0428311 21.1117V21.1117C0.0428311 21.5047 0.0428311 27.9953 0.0428311 27.9953C-0.0823582 28.803 0.0686672 29.6284 0.472509 30.3437C0.876351 31.0591 1.51047 31.6244 2.27661 31.952V31.952ZM39.2103 29.9466L21.2984 39.5538L3.99704 30.2176L9.40806 27.25L20.6463 33.4019C20.84 33.4972 21.0538 33.5469 21.2707 33.5469C21.4875 33.5469 21.7014 33.4972 21.895 33.4019L34.0351 26.6267L39.2103 29.9466ZM40.7087 19.716L35.8804 16.884L40.7087 14.1739V19.716ZM22.672 3.17093L39.0993 12.3988L33.6883 15.5696L22.5888 9.11957L22.672 3.17093ZM21.2846 11.125L31.288 16.9517L21.2846 22.4667L11.073 16.8162L21.3262 11.125H21.2846ZM3.1507 12.4665L19.9804 3.17093V9.11957L8.29811 15.4476L3.1507 12.4665ZM8.4646 18.2526L20.6463 24.9329C20.8453 25.035 21.0667 25.0883 21.2915 25.0883C21.5163 25.0883 21.7377 25.035 21.9367 24.9329L33.6189 18.2526L38.8912 21.3285L21.2707 30.9222L3.35882 21.0575L8.4646 18.2526ZM2.34598 23.2933L7.07716 25.8679L2.34598 28.456V23.2933Z" fill="#F7AB1B"/>
</svg>
