<svg xmlns="http://www.w3.org/2000/svg" width="182" height="178" fill="none" xmlns:v="https://vecta.io/nano"><style><![CDATA[.B{fill-opacity:.75}.C{fill-rule:evenodd}]]></style><g fill="#ecf0f1" class="B"><ellipse cx="46.783" cy="22.211" rx="2.216" ry="2.211"/><ellipse cx="46.782" cy="44.32" rx="2.216" ry="2.211"/><ellipse cx="46.782" cy="66.429" rx="2.216" ry="2.211"/><ellipse cx="46.782" cy="88.537" rx="2.216" ry="2.211"/><ellipse cx="46.782" cy="110.646" rx="2.216" ry="2.211"/><ellipse cx="46.782" cy="132.754" rx="2.216" ry="2.211"/><ellipse cx="46.782" cy="154.863" rx="2.216" ry="2.211"/><ellipse cx="68.946" cy="22.211" rx="2.216" ry="2.211"/><ellipse cx="68.946" cy="44.32" rx="2.216" ry="2.211"/><ellipse cx="68.946" cy="66.429" rx="2.216" ry="2.211"/><ellipse cx="68.946" cy="88.537" rx="2.216" ry="2.211"/><ellipse cx="68.946" cy="110.646" rx="2.216" ry="2.211"/><ellipse cx="68.946" cy="132.754" rx="2.216" ry="2.211"/><ellipse cx="68.946" cy="154.863" rx="2.216" ry="2.211"/><ellipse cx="91.109" cy="22.211" rx="2.216" ry="2.211"/><ellipse cx="91.109" cy="44.32" rx="2.216" ry="2.211"/><ellipse cx="91.109" cy="66.429" rx="2.216" ry="2.211"/><ellipse cx="91.109" cy="88.537" rx="2.216" ry="2.211"/><ellipse cx="91.109" cy="110.646" rx="2.216" ry="2.211"/><ellipse cx="91.109" cy="132.754" rx="2.216" ry="2.211"/><ellipse cx="91.109" cy="154.863" rx="2.216" ry="2.211"/><ellipse cx="113.275" cy="22.211" rx="2.216" ry="2.211"/><ellipse cx="113.275" cy="44.32" rx="2.216" ry="2.211"/><ellipse cx="113.275" cy="66.429" rx="2.216" ry="2.211"/><ellipse cx="113.275" cy="88.537" rx="2.216" ry="2.211"/><ellipse cx="113.275" cy="110.646" rx="2.216" ry="2.211"/><ellipse cx="113.275" cy="132.754" rx="2.216" ry="2.211"/><ellipse cx="113.275" cy="154.863" rx="2.216" ry="2.211"/><ellipse cx="135.434" cy="22.211" rx="2.216" ry="2.211"/><ellipse cx="135.434" cy="44.32" rx="2.216" ry="2.211"/><ellipse cx="135.434" cy="66.429" rx="2.216" ry="2.211"/><ellipse cx="135.434" cy="88.537" rx="2.216" ry="2.211"/><ellipse cx="135.434" cy="110.646" rx="2.216" ry="2.211"/><ellipse cx="135.434" cy="132.755" rx="2.216" ry="2.211"/><ellipse cx="135.434" cy="154.863" rx="2.216" ry="2.211"/><ellipse cx="157.602" cy="22.211" rx="2.216" ry="2.211"/><ellipse cx="157.602" cy="44.32" rx="2.216" ry="2.211"/><ellipse cx="157.602" cy="66.429" rx="2.216" ry="2.211"/><ellipse cx="157.602" cy="88.537" rx="2.216" ry="2.211"/><ellipse cx="157.602" cy="110.646" rx="2.216" ry="2.211"/><ellipse cx="157.602" cy="132.755" rx="2.216" ry="2.211"/><ellipse cx="157.602" cy="154.863" rx="2.216" ry="2.211"/><ellipse cx="179.766" cy="22.211" rx="2.216" ry="2.211"/><ellipse cx="179.766" cy="44.32" rx="2.216" ry="2.211"/><ellipse cx="179.766" cy="66.429" rx="2.216" ry="2.211"/><ellipse cx="179.766" cy="88.537" rx="2.216" ry="2.211"/><ellipse cx="179.766" cy="110.646" rx="2.216" ry="2.211"/><ellipse cx="179.766" cy="132.755" rx="2.216" ry="2.211"/><ellipse cx="179.766" cy="154.863" rx="2.216" ry="2.211"/></g><circle cx="89.14" cy="88.935" r="48.182" transform="rotate(45 89.14 88.935)" fill="#fff"/><path d="M88.866 41.262v47.158l48.501-13.43v-8.394l-3.213-10.378-22.797-14.956H88.866z" fill="url(#B)"/><g filter="url(#A)" class="C"><path d="M46.502 131.364c23.54 23.481 61.705 23.481 85.246 0s23.539-61.551 0-85.032-61.706-23.481-85.246 0-23.54 61.551 0 85.032zm10.891-10.863c17.525 17.481 45.939 17.481 63.464 0s17.525-45.824 0-63.305-45.939-17.481-63.464 0-17.525 45.824 0 63.305z" fill="url(#C)"/></g><g class="C"><path d="M128.984 49.102c-22.008-21.952-57.689-21.952-79.696 0s-22.007 57.544 0 79.496 57.688 21.953 79.696 0 22.007-57.544 0-79.496zm-75.075 74.886c19.455 19.406 50.998 19.406 70.454 0s19.455-50.871 0-70.277-50.999-19.406-70.454 0-19.455 50.87 0 70.277z" fill="url(#D)"/><path d="M107.016 123.612c12.64-6.477 21.287-19.612 21.287-34.762 0-21.57-17.53-39.056-39.154-39.056a39.06 39.06 0 0 0-25.724 9.611c5.913-3.619 12.871-5.705 20.317-5.705 21.488 0 38.908 17.376 38.908 38.81 0 12.729-6.143 24.026-15.633 31.103z" fill="url(#E)" class="B"/></g><g fill="#c5c8d1" class="B"><rect x="91.706" y="57.426" width="33.959" height="5.794" rx="2.897" transform="rotate(90 91.706 57.426)"/><rect width="34.002" height="5.787" rx="2.893" transform="matrix(-.707993 -.70622 .707993 -.70622 108.784 112.22)"/></g><defs><filter id="A" x=".19" y=".065" width="177.868" height="177.566" filterUnits="userSpaceOnUse" color-interpolation-filters="sRGB"><feFlood flood-opacity="0" result="A"/><feColorMatrix in="SourceAlpha" values="0 0 0 0 0 0 0 0 0 0 0 0 0 0 0 0 0 0 127 0"/><feOffset/><feGaussianBlur stdDeviation="14.328"/><feColorMatrix values="0 0 0 0 0.49049 0 0 0 0 0.49891 0 0 0 0 0.54943 0 0 0 0.25 0"/><feBlend in2="A"/><feBlend in="SourceGraphic"/></filter><linearGradient id="B" x1="110.879" y1="74.638" x2="92.593" y2="52.315" gradientUnits="userSpaceOnUse"><stop stop-color="#f0f0f2"/><stop offset="1" stop-color="#f4f4f4" stop-opacity="0"/></linearGradient><linearGradient id="C" x1="131.747" y1="46.332" x2="46.716" y2="131.576" gradientUnits="userSpaceOnUse"><stop stop-color="#d9dce5"/><stop offset="1" stop-color="#c4c7d0"/></linearGradient><linearGradient id="D" x1="51.357" y1="126.539" x2="126.734" y2="50.973" gradientUnits="userSpaceOnUse"><stop stop-color="#d9dce5"/><stop offset="1" stop-color="#c3c6ce"/></linearGradient><linearGradient id="E" x1="89.162" y1="53.708" x2="89.162" y2="124.019" gradientUnits="userSpaceOnUse"><stop stop-color="#fff"/><stop offset="1" stop-color="#f1f3f2"/></linearGradient></defs></svg>