<svg xmlns="http://www.w3.org/2000/svg" xmlns:xlink="http://www.w3.org/1999/xlink" width="356" height="213" fill="none" xmlns:v="https://vecta.io/nano"><style><![CDATA[.B{fill:#fcb048}]]></style><path d="M27.786 177.828v22.189c0 7.171 44.657 12.983 99.747 12.983s99.746-5.812 99.746-12.983v-22.189H27.786z" fill="url(#A)"/><path d="M227.279 177.829c0 7.171-44.657 12.982-99.746 12.982S27.786 185 27.786 177.829s44.657-12.981 99.747-12.981 99.746 5.812 99.746 12.981z" fill="url(#B)"/><path d="M127.535 191.707c-48.788 0-99.805-4.663-99.805-13.687 0-.491.176-1.367.67-1.367s.281.682.281 1.175c0 5.719 40.598 12.087 98.863 12.087s98.864-6.381 98.864-12.087c0-.49.083-.957.577-.957s.374.66.374 1.156c-.019 9.015-51.036 13.68-99.824 13.68z" fill="url(#C)"/><path d="M118.107 178.552l3.135-2.01a19.7 19.7 0 0 1 4.285-1.791 40.56 40.56 0 0 1 6.575-1.303 82.49 82.49 0 0 1 9.85-.535c3.855-.018 7.473.104 10.855.368 2.998.214 5.98.609 8.93 1.185 2.561.527 4.65 1.181 6.267 1.963s2.572 1.67 2.865 2.663l11.23.116a11.12 11.12 0 0 1 2.154.198c.628.128.932.29.932.491v.928l-14.438-.137c-.507 1.133-1.798 2.172-3.871 3.116s-4.713 1.763-7.919 2.455l-5.259-.737a6.08 6.08 0 0 1-1.16-.274c-.303-.111-.45-.231-.45-.364 0-.179.404-.38 1.223-.611s1.733-.51 2.753-.849a28.12 28.12 0 0 0 3.015-1.195c.979-.459 1.635-1.009 1.977-1.647l-34.08-.339c-.967.705-1.972 1.355-3.01 1.949a19.69 19.69 0 0 1-4.422 1.718c-2.25.587-4.54 1.003-6.852 1.244-3.436.353-6.888.522-10.342.506a102.1 102.1 0 0 1-9.142-.354c-2.667-.209-5.317-.589-7.936-1.136-2.31-.504-4.207-1.126-5.692-1.868-1.468-.736-2.305-1.595-2.476-2.559l-9.248-.096c-.733.003-1.464-.062-2.185-.194-.636-.123-.962-.287-.962-.491v-.927l12.642.12c.558-.982 1.713-1.829 3.455-2.553a39.46 39.46 0 0 1 6.416-1.936l4.233.584c1.285.182 1.924.393 1.926.636 0 .132-.259.294-.793.491l-1.897.699c-.723.27-1.427.588-2.107.952-.598.29-1.123.709-1.539 1.227l31.061.297zm-31.188 1.264c.245.609.82 1.132 1.679 1.574 1.021.497 2.1.862 3.213 1.087a32.74 32.74 0 0 0 4.329.626 58.49 58.49 0 0 0 5.046.186 52.08 52.08 0 0 0 5.356-.265c1.35-.14 2.689-.368 4.009-.682 1.031-.246 2.039-.58 3.014-.997a16.55 16.55 0 0 0 2.303-1.227l-28.949-.302zm74.191-.829c-.244-.616-.873-1.156-1.835-1.62-1.182-.534-2.422-.926-3.695-1.168-1.729-.349-3.478-.585-5.237-.707-1.984-.152-4.178-.223-6.583-.211a50.33 50.33 0 0 0-5.516.285c-1.351.148-2.689.395-4.005.736a14.58 14.58 0 0 0-2.881 1.067c-.761.388-1.496.823-2.202 1.304l31.954.314z" class="B"/><path d="M127.545 166.252c-44.474 0-90.788 3.927-98.19 11.535a8.6 8.6 0 0 1 .81.854c6.243-5.277 44.481-10.588 97.381-10.588 54.259 0 93.11 5.589 97.815 10.995a9.55 9.55 0 0 1 .747-.849c-6.118-7.875-53.296-11.947-98.562-11.947z" fill="url(#D)"/><path d="M.06 154.523v22.189c0 7.169 44.657 12.983 99.747 12.983s99.744-5.814 99.744-12.983v-22.189H.06z" fill="url(#E)"/><path d="M199.55 154.523c0 7.169-44.657 12.983-99.744 12.983S.06 161.692.06 154.523s44.657-12.983 99.747-12.983 99.744 5.814 99.744 12.983z" fill="url(#F)"/><path d="M99.803 168.399C51.017 168.399 0 163.736 0 154.712c0-.491.176-1.364.668-1.364s.281.679.281 1.175c0 5.716 40.6 12.087 98.863 12.087s98.863-6.381 98.863-12.087c0-.491.085-.959.58-.959s.374.662.374 1.156c-.02 9.014-51.039 13.679-99.827 13.679z" fill="url(#G)"/><path d="M90.378 155.247l3.135-2.012c1.353-.764 2.792-1.365 4.285-1.792 2.153-.613 4.352-1.049 6.576-1.303a83.33 83.33 0 0 1 9.849-.533c3.855-.019 7.474.103 10.856.368 2.997.213 5.978.609 8.927 1.186 2.563.525 4.652 1.175 6.267 1.948s2.57 1.663 2.865 2.666l11.233.113c.722-.005 1.444.062 2.153.201.626.127.93.289.932.491v.927l-14.438-.139c-.507 1.137-1.797 2.176-3.871 3.116s-4.712 1.759-7.916 2.455l-5.259-.737c-.395-.054-.783-.147-1.16-.277-.303-.11-.45-.231-.453-.361 0-.18.408-.383 1.224-.611s1.733-.511 2.753-.851a27.85 27.85 0 0 0 3.012-1.193c.979-.459 1.637-1.009 1.977-1.647l-34.08-.339c-.966.705-1.971 1.355-3.01 1.947a19.59 19.59 0 0 1-4.419 1.717c-2.25.586-4.54 1.001-6.852 1.242a96.49 96.49 0 0 1-10.339.508c-3.123.015-6.164-.103-9.142-.356a62.44 62.44 0 0 1-7.936-1.133c-2.31-.506-4.207-1.129-5.692-1.87s-2.311-1.595-2.479-2.56l-9.245-.096a12.22 12.22 0 0 1-2.185-.191c-.639-.123-.962-.29-.964-.491v-.928l12.644.12c.558-.981 1.713-1.828 3.455-2.555a39.68 39.68 0 0 1 6.416-1.933l4.233.581c1.285.182 1.923.393 1.923.638 0 .13-.259.292-.79.491l-1.899.697a18 18 0 0 0-2.105.952 4.51 4.51 0 0 0-1.539 1.227l31.059.317zm-31.191 1.264c.245.609.822 1.131 1.681 1.571 1.02.498 2.099.864 3.211 1.089 1.428.303 2.874.512 4.329.624a58.57 58.57 0 0 0 5.048.186 52.08 52.08 0 0 0 5.357-.265 30.73 30.73 0 0 0 4.008-.68c1.031-.246 2.04-.58 3.015-.998a16.88 16.88 0 0 0 2.303-1.228l-28.952-.299zm74.204-.83c-.245-.616-.874-1.155-1.838-1.619a16.52 16.52 0 0 0-3.693-1.171 40.69 40.69 0 0 0-5.237-.704c-1.987-.156-4.181-.227-6.582-.214a50.06 50.06 0 0 0-5.516.287c-1.352.149-2.692.395-4.009.737-.993.254-1.958.612-2.877 1.067-.761.388-1.497.824-2.203 1.306l31.955.311z" class="B"/><path d="M99.819 142.947c-44.476 0-90.788 3.926-98.19 11.522.288.268.558.554.81.857 6.243-5.277 44.481-10.588 97.38-10.588 54.257 0 93.11 5.588 97.816 10.993a8.57 8.57 0 0 1 .734-.847c-6.108-7.868-53.286-11.937-98.55-11.937z" fill="url(#H)"/><path d="M23.982 131.284v22.189c0 7.171 44.657 12.982 99.747 12.982s99.746-5.811 99.746-12.982v-22.189H23.982z" fill="url(#I)"/><path d="M223.475 131.284c0 7.171-44.657 12.983-99.746 12.983s-99.747-5.812-99.747-12.983 44.657-12.98 99.747-12.98 99.746 5.811 99.746 12.98z" fill="url(#J)"/><path d="M123.731 145.163c-48.788 0-99.805-4.663-99.805-13.688 0-.49.176-1.367.671-1.367s.281.683.281 1.176c0 5.718 40.598 12.087 98.863 12.087s98.863-6.381 98.863-12.087c0-.491.083-.957.577-.957s.375.66.375 1.156c-.02 9.012-51.037 13.68-99.825 13.68z" fill="url(#K)"/><path d="M114.304 132.008l3.135-2.01c1.353-.764 2.791-1.366 4.285-1.792 2.152-.614 4.351-1.051 6.575-1.305 3.27-.372 6.559-.55 9.85-.533 3.855-.019 7.473.103 10.855.368 2.998.214 5.98.61 8.93 1.186 2.561.528 4.65 1.183 6.267 1.963s2.571 1.668 2.865 2.663l11.23.113a11.27 11.27 0 0 1 2.153.201c.629.128.933.29.933.491v.928l-14.438-.138c-.508 1.134-1.798 2.173-3.872 3.117s-4.707 1.759-7.901 2.445l-5.259-.737a6.08 6.08 0 0 1-1.16-.275c-.303-.11-.45-.245-.45-.363 0-.178.408-.382 1.223-.611s1.734-.512 2.753-.849a28.12 28.12 0 0 0 3.015-1.195c.979-.459 1.635-1.009 1.977-1.647l-34.081-.339c-.966.705-1.971 1.355-3.009 1.949a19.74 19.74 0 0 1-4.422 1.718c-2.25.587-4.54 1.003-6.852 1.244-3.436.353-6.888.522-10.342.506-3.123.014-6.164-.103-9.142-.356-2.667-.208-5.317-.587-7.936-1.134-2.31-.504-4.207-1.127-5.692-1.868-1.468-.736-2.305-1.595-2.476-2.559l-9.248-.096c-.732.003-1.463-.062-2.183-.194-.639-.123-.964-.287-.964-.491v-.928l12.642.121c.558-.982 1.713-1.829 3.455-2.553 2.08-.826 4.227-1.474 6.416-1.936l4.234.584c1.287.182 1.923.393 1.926.636 0 .132-.259.294-.793.49l-1.897.7a17.12 17.12 0 0 0-2.107.952c-.598.289-1.123.709-1.539 1.227l31.044.307zm-31.188 1.264c.245.609.82 1.131 1.679 1.573 1.021.498 2.1.863 3.213 1.087a32.41 32.41 0 0 0 4.329.626c1.607.133 3.289.195 5.046.187a52.97 52.97 0 0 0 5.359-.265 31.43 31.43 0 0 0 4.009-.683c1.031-.246 2.038-.58 3.012-.998a16.78 16.78 0 0 0 2.303-1.228l-28.949-.299zm74.191-.83c-.245-.616-.874-1.155-1.835-1.619a16.48 16.48 0 0 0-3.695-1.169 40.87 40.87 0 0 0-5.237-.706c-1.986-.153-4.18-.224-6.583-.214-1.842-.003-3.684.092-5.516.287a28.23 28.23 0 0 0-4.006.737c-.995.252-1.96.61-2.88 1.067a20.06 20.06 0 0 0-2.202 1.303l31.954.314z" class="B"/><path d="M123.741 119.708c-44.474 0-90.788 3.926-98.19 11.522.289.267.559.553.81.857 6.242-5.277 44.481-10.588 97.38-10.588 54.26 0 93.11 5.588 97.816 10.995a9.25 9.25 0 0 1 .734-.849c-6.106-7.866-53.284-11.937-98.55-11.937z" fill="url(#L)"/><path d="M38.503 107.979v22.188c0 7.169 44.657 12.983 99.746 12.983s99.747-5.814 99.747-12.983v-22.188H38.503z" fill="url(#M)"/><path d="M138.249 120.962c55.089 0 99.747-5.813 99.747-12.983s-44.658-12.983-99.747-12.983-99.746 5.812-99.746 12.983 44.658 12.983 99.746 12.983z" fill="url(#N)"/><path d="M138.248 121.855c-48.788 0-99.806-4.663-99.806-13.687 0-.491.176-1.365.671-1.365s.281.68.281 1.176c0 5.716 40.598 12.084 98.863 12.084s98.863-6.368 98.863-12.084c0-.491.084-.96.578-.96s.374.66.374 1.156c-.019 9.015-51.037 13.68-99.824 13.68z" fill="url(#O)"/><path d="M128.824 108.703l3.135-2.013a19.89 19.89 0 0 1 4.285-1.791c2.152-.614 4.352-1.049 6.575-1.304 3.27-.372 6.559-.549 9.85-.532 3.855-.02 7.474.103 10.858.368a73.72 73.72 0 0 1 8.927 1.185c2.561.526 4.65 1.175 6.267 1.949s2.571 1.662 2.865 2.665l11.23.113c.723-.005 1.444.063 2.153.201.629.128.933.29.933.491v.928l-14.438-.14c-.508 1.136-1.798 2.175-3.872 3.117s-4.712 1.761-7.916 2.454l-5.259-.736c-.395-.054-.785-.147-1.162-.277-.304-.111-.45-.231-.45-.364 0-.176.407-.379 1.223-.608s1.734-.513 2.753-.852a27.23 27.23 0 0 0 3.015-1.195c.979-.459 1.635-1.006 1.977-1.644l-34.081-.339a32.39 32.39 0 0 1-3.01 1.946 19.57 19.57 0 0 1-4.421 1.718c-2.25.586-4.541 1.001-6.852 1.242a96.03 96.03 0 0 1-10.342.508 102.09 102.09 0 0 1-9.142-.356c-2.666-.207-5.316-.586-7.934-1.134-2.312-.505-4.21-1.129-5.694-1.87-1.468-.736-2.305-1.595-2.476-2.56l-9.248-.095c-.732.002-1.463-.062-2.183-.192-.639-.125-.964-.289-.964-.491v-.927l12.642.12c.56-.982 1.713-1.828 3.455-2.555 2.081-.825 4.227-1.472 6.416-1.934l4.234.582c1.287.181 1.926.392 1.926.638 0 .13-.26.294-.791.491l-1.899.697c-.722.271-1.426.589-2.107.952a4.46 4.46 0 0 0-1.539 1.227l31.061.317zm-31.188 1.264c.245.608.82 1.131 1.679 1.57 1.021.499 2.101.865 3.213 1.09a33.09 33.09 0 0 0 4.329.623 58.09 58.09 0 0 0 5.046.187 52.43 52.43 0 0 0 5.36-.265 31.09 31.09 0 0 0 4.008-.68c1.031-.246 2.04-.581 3.015-.999.798-.349 1.568-.759 2.302-1.227l-28.951-.299zm74.191-.83c-.245-.616-.871-1.156-1.835-1.62-1.181-.533-2.421-.926-3.693-1.17-1.729-.348-3.479-.583-5.239-.705-1.984-.155-4.178-.226-6.583-.213-1.842-.006-3.682.089-5.513.287a28.41 28.41 0 0 0-4.009.736c-.994.254-1.958.611-2.877 1.068-.761.389-1.496.825-2.203 1.305l31.952.312z" class="B"/><path d="M138.264 96.402c-44.476 0-90.788 3.927-98.193 11.535.292.263.565.545.82.844 6.245-5.274 44.481-10.585 97.395-10.585 54.257 0 93.107 5.588 97.813 10.993a9.53 9.53 0 0 1 .746-.847c-6.139-7.871-53.317-11.94-98.581-11.94z" fill="url(#P)"/><path d="M27.786 82.833v22.188c0 7.172 44.657 12.983 99.747 12.983s99.746-5.811 99.746-12.983V82.833H27.786z" fill="url(#Q)"/><path d="M227.279 82.833c0 7.171-44.657 12.983-99.746 12.983s-99.747-5.812-99.747-12.983 44.657-12.98 99.747-12.98 99.746 5.812 99.746 12.98z" fill="url(#R)"/><path d="M127.535 96.711c-48.788 0-99.805-4.663-99.805-13.687 0-.491.176-1.367.67-1.367s.281.682.281 1.176c0 5.718 40.598 12.087 98.863 12.087s98.864-6.369 98.864-12.087c0-.491.083-.957.577-.957s.374.66.374 1.156c-.019 9.012-51.036 13.68-99.824 13.68z" fill="url(#S)"/><path d="M118.107 83.557l3.135-2.01a19.67 19.67 0 0 1 4.285-1.792 40.9 40.9 0 0 1 6.575-1.306 83.29 83.29 0 0 1 9.85-.533c3.855-.02 7.473.103 10.855.368 2.998.214 5.98.61 8.93 1.185 2.561.527 4.65 1.177 6.267 1.951s2.572 1.662 2.865 2.663l11.23.113c.723-.003 1.444.064 2.154.201.628.128.932.29.932.491v.928l-14.438-.137c-.507 1.134-1.798 2.173-3.871 3.117s-4.713 1.762-7.919 2.454l-5.259-.736a6.14 6.14 0 0 1-1.16-.275c-.303-.11-.45-.245-.45-.363 0-.178.408-.382 1.223-.611s1.733-.513 2.753-.849c1.027-.34 2.034-.739 3.015-1.195s1.635-1.009 1.977-1.647l-34.08-.353c-.967.704-1.972 1.355-3.01 1.949a19.66 19.66 0 0 1-4.422 1.718c-2.25.587-4.54 1.003-6.852 1.244-3.436.353-6.888.522-10.342.506a101.35 101.35 0 0 1-9.142-.356 62.5 62.5 0 0 1-7.936-1.134c-2.31-.504-4.207-1.127-5.692-1.868-1.468-.736-2.305-1.595-2.476-2.56l-9.248-.096c-.733.003-1.464-.062-2.185-.194-.636-.123-.962-.287-.962-.491v-.928l12.642.12c.558-.982 1.713-1.828 3.455-2.552 2.08-.827 4.227-1.475 6.416-1.936l4.233.584c1.285.182 1.924.393 1.926.636 0 .133-.259.294-.793.491l-1.897.697c-.722.271-1.426.59-2.107.955-.598.289-1.123.708-1.539 1.227l31.061.324zm-31.188 1.264c.245.609.82 1.131 1.679 1.573a13.38 13.38 0 0 0 3.213 1.087 32.54 32.54 0 0 0 4.329.626c1.609.132 3.29.195 5.046.186 1.788.002 3.576-.086 5.356-.265a31.2 31.2 0 0 0 4.009-.682c1.031-.246 2.04-.58 3.014-.999.799-.348 1.569-.759 2.303-1.227l-28.949-.299zm74.191-.83c-.244-.616-.873-1.156-1.835-1.62a16.47 16.47 0 0 0-3.695-1.168c-1.729-.349-3.478-.585-5.237-.707-1.984-.152-4.178-.223-6.583-.213-1.842-.004-3.683.092-5.516.287-1.351.149-2.689.395-4.005.736-.995.253-1.961.611-2.881 1.068-.761.387-1.496.822-2.202 1.303l31.954.314z" class="B"/><path d="M127.545 71.256c-44.474 0-90.788 3.927-98.19 11.535.289.267.559.553.81.856 6.243-5.277 44.481-10.588 97.381-10.588 54.259 0 93.11 5.588 97.815 10.995.232-.298.481-.581.747-.849-6.118-7.878-53.296-11.95-98.562-11.95z" fill="url(#T)"/><path d="M.06 59.527v22.189c0 7.169 44.657 12.983 99.747 12.983s99.744-5.814 99.744-12.983V59.527H.06z" fill="url(#U)"/><path d="M99.806 72.51c55.088 0 99.746-5.813 99.746-12.983s-44.658-12.983-99.746-12.983S.06 52.357.06 59.527 44.718 72.51 99.806 72.51z" fill="url(#V)"/><path d="M99.803 73.404C51.017 73.404 0 68.741 0 59.716c0-.491.176-1.365.668-1.365s.281.68.281 1.176c0 5.716 40.6 12.087 98.863 12.087s98.863-6.381 98.863-12.087c0-.491.085-.96.58-.96s.374.66.374 1.156c-.02 9.014-51.039 13.68-99.827 13.68z" fill="url(#W)"/><path d="M90.379 60.251l3.135-2.012a19.79 19.79 0 0 1 4.285-1.792c2.153-.614 4.352-1.049 6.575-1.303a83.25 83.25 0 0 1 9.85-.533c3.855-.02 7.473.103 10.855.368 2.997.212 5.978.608 8.927 1.185 2.563.525 4.652 1.175 6.267 1.951s2.571 1.663 2.866 2.663l11.232.113a11.08 11.08 0 0 1 2.154.199c.626.13.929.292.932.491v.928l-14.438-.14c-.507 1.137-1.798 2.176-3.871 3.117s-4.713 1.759-7.917 2.454l-5.259-.736a5.98 5.98 0 0 1-1.16-.275c-.303-.11-.45-.231-.452-.363 0-.177.408-.38 1.223-.609s1.734-.513 2.753-.852a27.22 27.22 0 0 0 3.013-1.195c.979-.459 1.637-1.006 1.977-1.644l-34.081-.341c-.965.706-1.97 1.357-3.01 1.949a19.56 19.56 0 0 1-4.419 1.718c-2.25.586-4.54 1.001-6.852 1.242a96.05 96.05 0 0 1-10.339.508 102.28 102.28 0 0 1-9.142-.356c-2.667-.208-5.317-.586-7.936-1.134-2.31-.506-4.207-1.129-5.692-1.87s-2.313-1.597-2.486-2.567l-9.245-.096a12.15 12.15 0 0 1-2.185-.191c-.639-.125-.962-.29-.964-.491v-.928l12.644.12c.558-.982 1.713-1.828 3.455-2.555 2.081-.825 4.227-1.471 6.416-1.934l4.233.582c1.285.182 1.923.393 1.923.638 0 .13-.259.292-.79.491l-1.899.697c-.721.272-1.424.59-2.105.952a4.47 4.47 0 0 0-1.539 1.227l31.066.324zm-31.191 1.264c.245.609.822 1.132 1.681 1.571a13.39 13.39 0 0 0 3.211 1.09c1.428.303 2.874.511 4.329.623 1.61.133 3.293.195 5.048.186a52.28 52.28 0 0 0 5.357-.265 30.8 30.8 0 0 0 4.008-.68c1.032-.246 2.04-.58 3.015-.999.798-.348 1.568-.758 2.303-1.227l-28.952-.299zm74.203-.837c-.245-.616-.874-1.156-1.838-1.622-1.181-.532-2.42-.924-3.692-1.168a40.85 40.85 0 0 0-5.237-.704c-1.987-.155-4.182-.227-6.583-.213-1.842-.006-3.684.09-5.516.287-1.352.149-2.691.395-4.008.736-.994.255-1.958.613-2.878 1.068-.761.388-1.496.824-2.202 1.306l31.954.312z" class="B"/><path d="M99.819 47.951c-44.476 0-90.788 3.927-98.19 11.535.287.268.558.553.81.854 6.243-5.274 44.481-10.585 97.38-10.585 54.257 0 93.11 5.588 97.816 10.993a8.6 8.6 0 0 1 .734-.847c-6.108-7.881-53.286-11.95-98.55-11.95z" fill="url(#X)"/><path d="M23.982 36.288V58.47c0 7.171 44.657 12.983 99.747 12.983s99.746-5.812 99.746-12.983V36.281l-199.493.007z" fill="url(#Y)"/><path d="M123.729 49.271c55.088 0 99.746-5.813 99.746-12.983s-44.658-12.983-99.746-12.983-99.747 5.813-99.747 12.983 44.658 12.983 99.747 12.983z" fill="url(#Z)"/><path d="M123.731 50.167c-48.788 0-99.805-4.675-99.805-13.687 0-.491.176-1.367.671-1.367s.281.682.281 1.176c0 5.718 40.598 12.087 98.863 12.087s98.863-6.369 98.863-12.087c0-.491.083-.957.577-.957s.375.66.375 1.153c-.02 9.014-51.037 13.682-99.825 13.682z" fill="url(#a)"/><path d="M114.304 37.012l3.134-2.01a19.66 19.66 0 0 1 4.285-1.791c2.153-.614 4.352-1.051 6.576-1.306a83.24 83.24 0 0 1 9.849-.533c3.855-.02 7.474.103 10.856.368 2.997.214 5.979.61 8.929 1.185 2.561.529 4.65 1.179 6.267 1.951s2.572 1.66 2.866 2.663l11.229.113c.723-.002 1.444.065 2.154.201.629.128.932.29.932.491v.928l-14.438-.14c-.507 1.137-1.798 2.177-3.871 3.119s-4.713 1.761-7.919 2.454l-5.259-.736a6.16 6.16 0 0 1-1.16-.275c-.303-.11-.45-.233-.45-.363 0-.18.408-.384 1.224-.611s1.733-.51 2.753-.849a28.4 28.4 0 0 0 3.014-1.195c.979-.459 1.635-1.009 1.978-1.647l-34.081-.339a32.59 32.59 0 0 1-3.01 1.946 19.58 19.58 0 0 1-4.422 1.718c-2.249.587-4.54 1.002-6.852 1.242a96.09 96.09 0 0 1-10.341.508 102.28 102.28 0 0 1-9.142-.356 62.5 62.5 0 0 1-7.936-1.134c-2.31-.502-4.207-1.125-5.692-1.868-1.468-.736-2.305-1.598-2.476-2.562l-9.248-.093c-.732.003-1.463-.062-2.183-.194-.639-.123-.964-.287-.964-.491v-.928l12.642.12c.558-.982 1.713-1.828 3.455-2.552 2.08-.827 4.227-1.474 6.416-1.936l4.234.584c1.287.179 1.923.393 1.926.636 0 .133-.259.294-.793.491l-1.897.699c-.723.27-1.427.588-2.107.952a4.47 4.47 0 0 0-1.539 1.227l31.061.312zm-31.189 1.264c.245.609.82 1.131 1.679 1.573 1.021.497 2.101.863 3.213 1.087a32.59 32.59 0 0 0 4.329.626 58.15 58.15 0 0 0 5.046.187c1.79.002 3.578-.086 5.359-.265 1.349-.141 2.688-.368 4.008-.682a18.52 18.52 0 0 0 3.013-.999c.798-.348 1.568-.759 2.302-1.227l-28.949-.299zm74.192-.83c-.245-.616-.874-1.156-1.836-1.62-1.181-.534-2.422-.926-3.695-1.168-1.728-.349-3.478-.585-5.237-.707-1.985-.152-4.179-.223-6.582-.214-1.843-.004-3.684.092-5.516.287-1.351.149-2.69.395-4.006.736a14.48 14.48 0 0 0-2.88 1.068c-.761.387-1.497.822-2.203 1.303l31.955.314z" class="B"/><path d="M123.741 24.712c-44.474 0-90.788 3.927-98.19 11.535.289.267.559.553.81.857 6.242-5.277 44.481-10.587 97.38-10.587 54.26 0 93.11 5.588 97.816 10.992a9.65 9.65 0 0 1 .734-.847c-6.106-7.888-53.284-11.95-98.55-11.95z" fill="url(#b)"/><path d="M11.539 12.983v22.189c0 7.169 44.66 12.983 99.747 12.983s99.746-5.814 99.746-12.983V12.983H11.539z" fill="url(#c)"/><path d="M111.286 25.966c55.089 0 99.747-5.813 99.747-12.983S166.375 0 111.286 0 11.54 5.813 11.54 12.983s44.658 12.983 99.746 12.983z" fill="url(#d)"/><path d="M111.283 26.859c-48.788 0-99.803-4.663-99.803-13.687 0-.491.176-1.365.668-1.365s.281.68.281 1.176c0 5.716 40.598 12.085 98.863 12.085s98.863-6.381 98.863-12.085c0-.491.086-.96.578-.96s.374.66.374 1.156c-.02 9.014-51.044 13.68-99.825 13.68z" fill="url(#e)"/><path d="M101.861 13.707l3.135-2.012a19.77 19.77 0 0 1 4.285-1.792 40.93 40.93 0 0 1 6.575-1.303 83.22 83.22 0 0 1 9.847-.533c3.857-.02 7.476.103 10.858.368 2.997.213 5.978.608 8.927 1.185 2.563.525 4.652 1.175 6.267 1.949s2.57 1.662 2.866 2.665l11.232.113c.723-.004 1.444.063 2.153.199.627.13.93.292.93.491v.928l-14.438-.14c-.507 1.137-1.797 2.176-3.871 3.117s-4.712 1.759-7.916 2.454l-5.259-.736a6 6 0 0 1-1.163-.275c-.303-.11-.45-.231-.45-.363 0-.177.408-.38 1.224-.609s1.734-.513 2.755-.852c1.027-.338 2.033-.738 3.013-1.195s1.634-1.006 1.977-1.644l-34.081-.341c-.966.706-1.971 1.357-3.01 1.949-1.398.75-2.882 1.327-4.419 1.718-2.25.586-4.541 1.001-6.852 1.242-3.435.353-6.886.522-10.339.508-3.125.015-6.164-.103-9.145-.356-2.666-.207-5.316-.586-7.933-1.134-2.313-.506-4.211-1.129-5.692-1.87-1.468-.736-2.308-1.595-2.479-2.56l-9.245-.096a12.15 12.15 0 0 1-2.185-.192c-.639-.125-.962-.29-.964-.491v-.928l12.642.12c.56-.982 1.713-1.828 3.458-2.555a39.54 39.54 0 0 1 6.414-1.934l4.233.582c1.287.182 1.926.393 1.926.638 0 .13-.259.292-.79.491l-1.899.697c-.721.271-1.424.589-2.105.952A4.48 4.48 0 0 0 70.8 13.39l31.061.317zM70.67 14.971c.245.609.822 1.131 1.681 1.571 1.02.498 2.099.864 3.211 1.09a33.1 33.1 0 0 0 4.329.623 58.25 58.25 0 0 0 5.046.186 52.3 52.3 0 0 0 5.359-.265c1.35-.138 2.689-.365 4.008-.68 1.031-.247 2.04-.581 3.015-.999a16.88 16.88 0 0 0 2.303-1.227l-28.952-.3zm74.192-.83c-.245-.616-.871-1.156-1.836-1.622a16.55 16.55 0 0 0-3.692-1.168 40.41 40.41 0 0 0-5.237-.704c-1.987-.154-4.182-.225-6.585-.213-1.842-.006-3.683.09-5.514.287-1.352.149-2.691.395-4.008.736-.994.254-1.958.612-2.878 1.068-.76.389-1.496.825-2.202 1.306l31.952.312z" class="B"/><path d="M111.299 1.406c-44.477 0-90.788 3.927-98.191 11.535.287.267.557.552.808.854C20.161 8.521 58.397 3.21 111.311 3.21c54.257 0 93.107 5.588 97.815 10.992a9.02 9.02 0 0 1 .735-.847c-6.121-7.881-53.298-11.95-98.562-11.95z" fill="url(#f)"/><path d="M239.406 28.624l-18.031 12.863c-5.824 4.155 15.339 44.022 47.269 89.042s62.538 78.15 68.364 73.995l18.028-12.863-115.63-163.036z" fill="url(#g)"/><path d="M355.035 191.661c-5.824 4.155-36.433-28.96-68.365-73.993s-53.102-84.887-47.266-89.044 36.433 28.972 68.362 73.995 53.095 84.887 47.269 89.042z" fill="url(#h)"/><path d="M285.945 118.186c-28.279-39.872-54.052-84.274-46.74-89.498.401-.287 1.224-.648 1.498-.245s-.389.626-.793.913c-4.65 3.313 13.704 40.183 47.474 87.793s62.472 77.097 67.116 73.784c.404-.288.83-.491 1.116-.084s-.32.687-.734.982c-7.295 5.218-40.649-33.773-68.937-73.644z" fill="url(#i)"/><path d="M291.167 102.859l3.451 1.397c1.404.66 2.726 1.484 3.939 2.454a41.13 41.13 0 0 1 4.873 4.616c2.201 2.464 4.255 5.056 6.152 7.763 2.249 3.138 4.247 6.165 5.993 9.08 1.563 2.574 2.97 5.24 4.211 7.984 1.057 2.4 1.74 4.485 2.048 6.253s.141 3.064-.504 3.886l6.416 9.245c.424.587.788 1.215 1.087 1.875.259.586.303.93.144 1.043l-.751.542-8.254-11.881c-1.215.246-2.808-.207-4.777-1.357s-4.166-2.836-6.592-5.058l-2.447-4.722a6.17 6.17 0 0 1-.451-1.109c-.085-.312-.071-.491.035-.58.145-.103.545.112 1.201.643s1.419 1.118 2.288 1.758 1.779 1.235 2.719 1.772 1.767.75 2.484.66l-19.479-28.05c-1.133-.38-2.245-.825-3.328-1.33a19.47 19.47 0 0 1-3.962-2.614 46.62 46.62 0 0 1-4.985-4.883c-2.278-2.604-4.417-5.327-6.406-8.158-1.821-2.543-3.491-5.102-5.01-7.677-1.375-2.3-2.601-4.686-3.67-7.144-.93-2.182-1.522-4.089-1.782-5.735s-.039-2.81.644-3.51l-5.281-7.608c-.426-.598-.797-1.233-1.109-1.897-.269-.594-.325-.952-.159-1.073l.752-.542 7.228 10.401c1.119-.108 2.474.334 4.08 1.345a39.69 39.69 0 0 1 5.29 4.121l1.982 3.799c.598 1.156.796 1.799.598 1.941-.106.076-.39-.042-.857-.363l-1.666-1.146a16.91 16.91 0 0 0-1.995-1.168 4.43 4.43 0 0 0-1.899-.542l17.749 25.571zm-19.104-24.756c-.348.56-.446 1.325-.304 2.282.187 1.123.516 2.217.979 3.257a33.15 33.15 0 0 0 2.002 3.9c.825 1.392 1.75 2.803 2.775 4.231 1.033 1.465 2.141 2.876 3.32 4.226a31.47 31.47 0 0 0 2.876 2.881 18.72 18.72 0 0 0 2.559 1.885c.748.449 1.529.838 2.337 1.165l-16.544-23.828zm43.678 60.151c.352-.565.433-1.382.245-2.44-.252-1.274-.652-2.514-1.192-3.696-.72-1.613-1.542-3.179-2.462-4.687-1.028-1.713-2.242-3.548-3.644-5.505-1.062-1.508-2.206-2.958-3.426-4.342-.903-1.018-1.878-1.971-2.916-2.851-.782-.666-1.632-1.247-2.536-1.733-.757-.398-1.538-.748-2.339-1.048l18.27 26.302z" class="B"/><path d="M306.647 103.443c-25.78-36.347-55.809-71.909-66.277-73.568-.049.391-.125.778-.225 1.158 7.906 2.044 34.384 30.217 65.046 73.447 31.45 44.343 49.432 79.333 47.765 86.313a8.97 8.97 0 0 1 1.121.118c2.834-9.559-21.204-50.471-47.43-87.469z" fill="url(#j)"/><defs><linearGradient id="A" x1="10.732" y1="195.415" x2="240.236" y2="195.415" xlink:href="#k"><stop stop-color="#fcb148"/><stop offset=".05" stop-color="#fdba46"/><stop offset=".14" stop-color="#ffc244"/><stop offset=".32" stop-color="#ffc444"/><stop offset=".48" stop-color="#fdb946"/><stop offset=".78" stop-color="#f99c4d"/><stop offset=".87" stop-color="#f8924f"/></linearGradient><linearGradient id="B" x1="126.539" y1="169.487" x2="138.707" y2="271.061" xlink:href="#k"><stop stop-color="#ffdb44"/><stop offset="1" stop-color="#feef06"/></linearGradient><linearGradient id="C" x1="212418" y1="49086" x2="212435" y2="51026.9" xlink:href="#k"><stop stop-color="#ffdb44"/><stop offset="1" stop-color="#feef06"/></linearGradient><linearGradient id="D" x1="129.505" y1="192.885" x2="125.781" y2="161.8" xlink:href="#k"><stop stop-color="#f36f56"/><stop offset=".31" stop-color="#f99c4c"/><stop offset=".55" stop-color="#fdb946"/><stop offset=".68" stop-color="#ffc444"/><stop offset=".8" stop-color="#ffc244"/><stop offset=".87" stop-color="#feba46"/><stop offset=".92" stop-color="#fcad49"/><stop offset=".96" stop-color="#f99a4d"/><stop offset="1" stop-color="#f57e53"/></linearGradient><linearGradient id="E" x1="95643.8" y1="115448" x2="282740" y2="115448" xlink:href="#k"><stop stop-color="#fcb148"/><stop offset=".05" stop-color="#fdba46"/><stop offset=".14" stop-color="#ffc244"/><stop offset=".32" stop-color="#ffc444"/><stop offset=".48" stop-color="#fdb946"/><stop offset=".78" stop-color="#f99c4d"/><stop offset=".87" stop-color="#f8924f"/></linearGradient><linearGradient id="F" x1="190051" y1="82515" x2="190220" y2="93413.3" xlink:href="#k"><stop stop-color="#ffdb44"/><stop offset="1" stop-color="#feef06"/></linearGradient><linearGradient id="G" x1="189768" y1="47625.5" x2="189786" y2="49566" xlink:href="#k"><stop stop-color="#ffdb44"/><stop offset="1" stop-color="#feef06"/></linearGradient><linearGradient id="H" x1="138593" y1="11138.8" x2="138606" y2="12781.2" xlink:href="#k"><stop stop-color="#f36f56"/><stop offset=".31" stop-color="#f99c4c"/><stop offset=".55" stop-color="#fdb946"/><stop offset=".68" stop-color="#ffc444"/><stop offset=".8" stop-color="#ffc244"/><stop offset=".87" stop-color="#feba46"/><stop offset=".92" stop-color="#fcad49"/><stop offset=".96" stop-color="#f99a4d"/><stop offset="1" stop-color="#f57e53"/></linearGradient><linearGradient id="I" x1="115175" y1="112095" x2="302272" y2="112095" xlink:href="#k"><stop stop-color="#fcb148"/><stop offset=".05" stop-color="#fdba46"/><stop offset=".14" stop-color="#ffc244"/><stop offset=".32" stop-color="#ffc444"/><stop offset=".48" stop-color="#fdb946"/><stop offset=".78" stop-color="#f99c4d"/><stop offset=".87" stop-color="#f8924f"/></linearGradient><linearGradient id="J" x1="209583" y1="80025.5" x2="209753" y2="90922.7" xlink:href="#k"><stop stop-color="#ffdb44"/><stop offset="1" stop-color="#feef06"/></linearGradient><linearGradient id="K" x1="209311" y1="46184.7" x2="209329" y2="48125.5" xlink:href="#k"><stop stop-color="#ffdb44"/><stop offset="1" stop-color="#feef06"/></linearGradient><linearGradient id="L" x1="119382" y1="12328.4" x2="119395" y2="13971" xlink:href="#k"><stop stop-color="#f36f56"/><stop offset=".31" stop-color="#f99c4c"/><stop offset=".55" stop-color="#fdb946"/><stop offset=".68" stop-color="#ffc444"/><stop offset=".8" stop-color="#ffc244"/><stop offset=".87" stop-color="#feba46"/><stop offset=".92" stop-color="#fcad49"/><stop offset=".96" stop-color="#f99a4d"/><stop offset="1" stop-color="#f57e53"/></linearGradient><linearGradient id="M" x1="127026" y1="108731" x2="314122" y2="108731" xlink:href="#k"><stop stop-color="#fcb148"/><stop offset=".05" stop-color="#fdba46"/><stop offset=".14" stop-color="#ffc244"/><stop offset=".32" stop-color="#ffc444"/><stop offset=".48" stop-color="#fdb946"/><stop offset=".78" stop-color="#f99c4d"/><stop offset=".87" stop-color="#f8924f"/></linearGradient><linearGradient id="N" x1="111932" y1="10636.3" x2="112102" y2="21534.6" xlink:href="#k"><stop stop-color="#ffdb44"/><stop offset="1" stop-color="#feef06"/></linearGradient><linearGradient id="O" x1="221171" y1="44724.4" x2="221188" y2="46664.9" xlink:href="#k"><stop stop-color="#ffdb44"/><stop offset="1" stop-color="#feef06"/></linearGradient><linearGradient id="P" x1="107740" y1="13519.3" x2="107753" y2="15162" xlink:href="#k"><stop stop-color="#f36f56"/><stop offset=".31" stop-color="#f99c4c"/><stop offset=".55" stop-color="#fdb946"/><stop offset=".68" stop-color="#ffc444"/><stop offset=".8" stop-color="#ffc244"/><stop offset=".87" stop-color="#feba46"/><stop offset=".92" stop-color="#fcad49"/><stop offset=".96" stop-color="#f99a4d"/><stop offset="1" stop-color="#f57e53"/></linearGradient><linearGradient id="Q" x1="118279" y1="105103" x2="305376" y2="105103" xlink:href="#k"><stop stop-color="#fcb148"/><stop offset=".05" stop-color="#fdba46"/><stop offset=".14" stop-color="#ffc244"/><stop offset=".32" stop-color="#ffc444"/><stop offset=".48" stop-color="#fdb946"/><stop offset=".78" stop-color="#f99c4d"/><stop offset=".87" stop-color="#f8924f"/></linearGradient><linearGradient id="R" x1="212687" y1="74851.4" x2="212857" y2="85748.5" xlink:href="#k"><stop stop-color="#ffdb44"/><stop offset="1" stop-color="#feef06"/></linearGradient><linearGradient id="S" x1="212418" y1="43164.2" x2="212435" y2="45105.1" xlink:href="#k"><stop stop-color="#ffdb44"/><stop offset="1" stop-color="#feef06"/></linearGradient><linearGradient id="T" x1="116335" y1="14818.4" x2="116348" y2="16462.5" xlink:href="#k"><stop stop-color="#f36f56"/><stop offset=".31" stop-color="#f99c4c"/><stop offset=".55" stop-color="#fdb946"/><stop offset=".68" stop-color="#ffc444"/><stop offset=".8" stop-color="#ffc244"/><stop offset=".87" stop-color="#feba46"/><stop offset=".92" stop-color="#fcad49"/><stop offset=".96" stop-color="#f99a4d"/><stop offset="1" stop-color="#f57e53"/></linearGradient><linearGradient id="U" x1="95643.8" y1="101739" x2="282740" y2="101739" xlink:href="#k"><stop stop-color="#fcb148"/><stop offset=".05" stop-color="#fdba46"/><stop offset=".14" stop-color="#ffc244"/><stop offset=".32" stop-color="#ffc444"/><stop offset=".48" stop-color="#fdb946"/><stop offset=".78" stop-color="#f99c4d"/><stop offset=".87" stop-color="#f8924f"/></linearGradient><linearGradient id="V" x1="80553.3" y1="5461.7" x2="80722.7" y2="16360.1" xlink:href="#k"><stop stop-color="#ffdb44"/><stop offset="1" stop-color="#feef06"/></linearGradient><linearGradient id="W" x1="189768" y1="41704.6" x2="189786" y2="43645.1" xlink:href="#k"><stop stop-color="#ffdb44"/><stop offset="1" stop-color="#feef06"/></linearGradient><linearGradient id="X" x1="138593" y1="16007.5" x2="138606" y2="17651.4" xlink:href="#k"><stop stop-color="#f36f56"/><stop offset=".31" stop-color="#f99c4c"/><stop offset=".55" stop-color="#fdb946"/><stop offset=".68" stop-color="#ffc444"/><stop offset=".8" stop-color="#ffc244"/><stop offset=".87" stop-color="#feba46"/><stop offset=".92" stop-color="#fcad49"/><stop offset=".96" stop-color="#f99a4d"/><stop offset="1" stop-color="#f57e53"/></linearGradient><linearGradient id="Y" x1="115175" y1="98385.6" x2="302272" y2="98385.6" xlink:href="#k"><stop stop-color="#fcb148"/><stop offset=".05" stop-color="#fdba46"/><stop offset=".14" stop-color="#ffc244"/><stop offset=".32" stop-color="#ffc444"/><stop offset=".48" stop-color="#fdb946"/><stop offset=".78" stop-color="#f99c4d"/><stop offset=".87" stop-color="#f8924f"/></linearGradient><linearGradient id="Z" x1="100082" y1="2980.02" x2="100251" y2="13878.2" xlink:href="#k"><stop stop-color="#ffdb44"/><stop offset="1" stop-color="#feef06"/></linearGradient><linearGradient id="a" x1="209311" y1="40262.5" x2="209329" y2="42203.3" xlink:href="#k"><stop stop-color="#ffdb44"/><stop offset="1" stop-color="#feef06"/></linearGradient><linearGradient id="b" x1="119382" y1="17195.9" x2="119395" y2="18839.7" xlink:href="#k"><stop stop-color="#f36f56"/><stop offset=".31" stop-color="#f99c4c"/><stop offset=".55" stop-color="#fdb946"/><stop offset=".68" stop-color="#ffc444"/><stop offset=".8" stop-color="#ffc244"/><stop offset=".87" stop-color="#feba46"/><stop offset=".92" stop-color="#fcad49"/><stop offset=".96" stop-color="#f99a4d"/><stop offset="1" stop-color="#f57e53"/></linearGradient><linearGradient id="c" x1="105017" y1="95022.3" x2="292113" y2="95022.3" xlink:href="#k"><stop stop-color="#fcb148"/><stop offset=".05" stop-color="#fdba46"/><stop offset=".14" stop-color="#ffc244"/><stop offset=".32" stop-color="#ffc444"/><stop offset=".48" stop-color="#fdb946"/><stop offset=".78" stop-color="#f99c4d"/><stop offset=".87" stop-color="#f8924f"/></linearGradient><linearGradient id="d" x1="89923" y1="490.752" x2="90092.5" y2="11389.3" xlink:href="#k"><stop stop-color="#ffdb44"/><stop offset="1" stop-color="#feef06"/></linearGradient><linearGradient id="e" x1="199142" y1="38803.3" x2="199160" y2="40743.8" xlink:href="#k"><stop stop-color="#ffdb44"/><stop offset="1" stop-color="#feef06"/></linearGradient><linearGradient id="f" x1="129382" y1="18387.7" x2="129394" y2="20031.6" xlink:href="#k"><stop stop-color="#f36f56"/><stop offset=".31" stop-color="#f99c4c"/><stop offset=".55" stop-color="#fdb946"/><stop offset=".68" stop-color="#ffc444"/><stop offset=".8" stop-color="#ffc244"/><stop offset=".87" stop-color="#feba46"/><stop offset=".92" stop-color="#fcad49"/><stop offset=".96" stop-color="#f99a4d"/><stop offset="1" stop-color="#f57e53"/></linearGradient><linearGradient id="g" x1="-181557" y1="447167" x2="-108045" y2="549532" xlink:href="#k"><stop stop-color="#fcb148"/><stop offset=".05" stop-color="#fdba46"/><stop offset=".14" stop-color="#ffc244"/><stop offset=".32" stop-color="#ffc444"/><stop offset=".48" stop-color="#fdb946"/><stop offset=".78" stop-color="#f99c4d"/><stop offset=".87" stop-color="#f8924f"/></linearGradient><linearGradient id="h" x1="-130751" y1="438928" x2="-178498" y2="486577" xlink:href="#k"><stop stop-color="#ffdb44"/><stop offset="1" stop-color="#feef06"/></linearGradient><linearGradient id="i" x1="-128738" y1="437698" x2="-143428" y2="452357" xlink:href="#k"><stop stop-color="#ffdb44"/><stop offset="1" stop-color="#feef06"/></linearGradient><linearGradient id="j" x1="284090" y1="-101940" x2="298425" y2="-116305" xlink:href="#k"><stop stop-color="#f36f56"/><stop offset=".31" stop-color="#f99c4c"/><stop offset=".55" stop-color="#fdb946"/><stop offset=".68" stop-color="#ffc444"/><stop offset=".8" stop-color="#ffc244"/><stop offset=".87" stop-color="#feba46"/><stop offset=".92" stop-color="#fcad49"/><stop offset=".96" stop-color="#f99a4d"/><stop offset="1" stop-color="#f57e53"/></linearGradient><linearGradient id="k" gradientUnits="userSpaceOnUse"/></defs></svg>