<svg xmlns="http://www.w3.org/2000/svg" width="924" height="508" fill="none" xmlns:v="https://vecta.io/nano"><style><![CDATA[.B{fill-rule:evenodd}.C{fill:#b28b67}.D{fill:#2f3676}.E{fill:#191847}.F{fill:#997659}]]></style><path d="M42.669 191.319c0-51.686 41.9-93.585 93.586-93.585h293.481c51.686 0 93.586 41.899 93.586 93.585h0c0 51.686-41.9 93.586-93.585 93.586H136.254c-51.686 0-93.585-41.9-93.585-93.586h0z" fill="#c4c4c4"/><path fill="#969696" d="M42.395 248.405h450.137v68.233H42.395z"/><path d="M396.188 164.383c-2.206-1.277-4.904.589-4.487 3.104l.389 2.348c1.57 9.476-1.827 19.002-4.445 28.242-1.602 5.653-2.024 11.763-1.65 18.083l.066 1.337c.437 10.926.588 22.617-2.798 33.014l-.644 1.976c-.846 2.597 1.287 5.195 3.999 4.871h0c16.204-1.935 32.918 1.983 49.232 1.579a108.32 108.32 0 0 0 3.741-.16c2.714-.161 5.372-.331 7.959-.623 9.006-1.017 18.425-2.049 27.05.736h0c1.502.485 2.975-.82 2.681-2.371h0c-1.412-7.466 1.297-14.972 5.165-21.513 4.386-7.419 6.674-15.964 6.143-24.928a43.89 43.89 0 0 0-.422-4.003c-1.821-11.986-4.415-24.577-.151-35.925h0c.673-1.789-.797-3.653-2.694-3.416l-3.161.396c-13.006 1.625-26.383-1.323-39.49-1.384-2.673-.013-5.402.097-8.171.262-4.196.248-8.248.476-12.1 1.045-8.834 1.306-18.484 1.804-26.212-2.67h0z" fill="#fff"/><path d="M59.211 216.756c-2.117-9.204-11.206-15.812-21.748-15.812H21.004c-12.472 0-22.194 9.628-20.886 20.681l11.147 94.202c1.481 12.518 13.327 22.019 27.449 22.019h465.878c14.122 0 25.968-9.501 27.449-22.019l11.147-94.202c1.308-11.053-8.414-20.681-20.886-20.681h-16.458c-10.543 0-19.632 6.608-21.749 15.812l-8.546 37.141c-6.12 26.598-29.798 45.446-57.091 45.446H124.849c-27.294 0-50.971-18.848-57.092-45.446l-8.546-37.141z" fill="#a8a8a8"/><path d="M47.654 336.937h24.061l-5.347 67.917H53.001l-5.347-67.917zm444.478 0h-24.061l5.347 67.917h13.367l5.347-67.917z" fill="#969696"/><path d="M203.273 392.786l-13.64-136.293-6.947-38.599 43.313-3.234-6.113 176.631-16.613 1.495z" class="C"/><path d="M224.404 371.775h-28.246l-20.652-166.819h56.37c-.674 45.673-3.168 99.993-7.472 166.819z" class="D"/><g class="B"><path d="M198.441 388.459c-1.495 4.014-2.282 7.004-2.282 8.971 0 2.44.393 5.981 1.18 10.545h75.532c1.967-6.532.865-9.994-3.383-10.545l-10.543-1.416-35.091-15.66c-.708-.314-1.495 0-1.731.709l-2.282 5.508c-3.934 1.81-7.081 2.754-9.52 2.754-1.967 0-4.721-.787-8.261-2.439-1.338-.63-2.911 0-3.541 1.337 0 .079-.078.158-.078.236z" fill="#232746"/><path d="M122.691 47.822c-3.793-8.247-5.3-17.484-2.056-26.403 9.296-25.744 44.263-9.543 47.625 5.753s-7.07 48.701-16.939 48.456c-3.925-.094-11.08-4.608-17.663-11.675l-5.071 36.746-29.465-8.365 23.569-44.511z" class="C"/><path d="M144.453 31.317c-3.342 16.035-2.604 24.77 2.223 26.147 7.247 2.038 14.722-.809 17.899.12 2.308.638.989 3.448-1.154 5.163-1.797 1.437-8.455 1.374-9.239 4.117s4.704 1.991 4.256 3.641c-.772 2.687-1.38 8.018-6.041 6.674-4.771-1.366-17.857-6.958-18.217-14.688-.217-4.975 1.5-14.666 5.107-29.139-.268-.112-.591-.235-.87-.291-4.058-1.165-8.309 1.229-9.474 5.288-.593 2.085-.261 4.182.73 5.89-2.411 1.893-5.012 3.865-7.969 5.88-6.829-7.291-8.796-23.466 3.161-35.042 4.145-6.186 10.214-8.387 16.649-8.369 5.409-.652 10.449.536 14.316 2.938 8.082 3.076 14.756 7.668 16.416 9.8-2.217 7.85-4.394 9.732-17.293 5.803-3.58.788-6.861 2.971-10.5 6.067z" class="E"/><path d="M191.046 173.934l35.717 27.071c9.767 2.807 17.908 6.229 24.423 10.265 1.53 1.438 3.36 4.327-3.081 3.721s-13.243-.956-14.171 1.218 2.929 4.86 1.078 7.783c-1.233 1.948-6.813-3.089-16.739-15.111l-35.569-15.411 8.342-19.536z" class="C"/><path d="M121.214 74.617l9.837-1.503c35.843 31.92 49.741 92.283 93.789 124.9l-10.967 13.057c-77.213-10.886-95.113-84.531-92.659-136.454z" fill="#e87613"/><path d="M76.314 214.013c39.325.687 68.252-10.65 86.779-10.327 3.966.07 3.318-10.717 2.795-13.603-6.037-33.302-31.237-70.091-30.413-117.332l-24.963-4.343c-21.283 32.778-29.155 90.936-34.198 145.605z" fill="#dde3e9"/><path d="M93.816 244.671c20.542 22.891 127.407 5.736 129.628 7.222.987.661 10.248 49.423 28.936 123.543l16.509-3.845c-8.323-87.364-18.727-144.846-25.466-149.631-9.647-6.851-40.309.645-135.685-5.46l-13.922 28.171z" class="C"/><path d="M245.923 349.497l21.011-6.735c4.542-65.65-7.361-112.34-22.472-126.782-9.727-9.296-19.071-10.859-113.74-14.249l-65.496 5.527c-66.532 90.269 148.822 44.523 152.099 45.816s6.896 43.684 28.598 96.423z" fill="#5c63ab"/></g><path d="M59.065 212.204C56.954 203 47.887 196.392 37.37 196.392H20.952c-12.441 0-22.139 9.628-20.835 20.68l11.12 94.203c1.478 12.518 13.294 22.019 27.381 22.019l15.895-15.532c14.602-14.268 20.722-35.109 16.155-55.007l-11.604-50.551z" fill="#a8a8a8"/><path d="M247.038 364.425c-2.808 2.834-4.593 5.098-5.353 6.79-.925 2.058-1.931 5.216-3.02 9.473l64.365 28.929c4.158-4.779 4.534-8.198 1.128-10.259l-8.444-5.231-23.923-26.785a1.25 1.25 0 0 0-1.766-.1l-.027.024-4.019 3.802c-4.035.057-7.096-.383-9.182-1.321-1.694-.761-3.727-2.498-6.098-5.209h0c-.91-1.04-2.491-1.146-3.531-.236a2.15 2.15 0 0 0-.13.123z" fill="#393d64" class="B"/><g fill="#616161"><rect width="6.09" height="91.731" rx="3.045" transform="matrix(-.850457 -.526052 -.525932 .850522 284.655 125.156)"/><path d="M235.488 204.3a4.57 4.57 0 0 0-4.428-4.704l-.76-.023-85.24-2.583c-1.324-.04-2.078 1.498-1.237 2.52h0c3.53 4.29 8.74 6.847 14.292 7.015l72.669 2.202a4.57 4.57 0 0 0 4.704-4.427h0z"/></g><g fill="#4c4c4c"><path d="M226.416 202.119l-25.107-.761-.115 3.805 25.107.761zm-32.335-.979l-7.989-.242-.115 3.805 7.989.242zm-10.27-.311l-7.989-.242-.115 3.805 7.989.242z"/><rect width="3.806" height="3.806" rx="1.903" transform="matrix(-.999541 -.030282 -.030273 .999542 168.595 200.37)"/></g><path d="M69.763 92.868c2.056 3.848 4.893 6.324 8.51 7.428-29.367 38.813-46.348 97.555-34.389 118.345s92.204-17.108 92.204-17.108c10.524-25.18 3.437-56.293-17.722-132.518l-7.829-.582a15.76 15.76 0 0 0-2.325-.199c-15.578-.272-24.191-6.549-34.02-3.746s-13.291 11.791-4.429 28.38z" fill="#ff9b21"/><g class="B"><path d="M77.304 186.479c14.565-10.605 24.193-19.99 28.883-28.153l12.37 22.132c-11.865 1.225-25.617 3.232-41.253 6.021h0z" fill="#000" fill-opacity=".2"/><path d="M150.535 184.463c12.82-.688 21.565 1.628 31.22 5.78 2.405 1.045 11.353 8.293.509 7.179-2.384-.685-4.44-1.135-6.312-1.496-.124-.048-.344-.108-.48-.06 0 0-.064-.007-.124-.047-3.088-.512-5.428-.509-7.123-.199-7.686.153-18.169 2.431-27.028 1.562l-47.165 4.139-1.27-14.681 57.773-2.177z" class="C"/></g><path d="M133.911 200.147l-27.72 12.013-35.39-24.262s63.593-13.258 61.031-7.158c-4.851 11.55 2.079 19.407 2.079 19.407z" fill="#ff9b21"/><path d="M788.983 435.882c12.807-.136 21.423 2.548 30.868 7.1 2.352 1.145 10.958 8.752.199 7.177-2.347-.785-4.377-1.321-6.227-1.762-.121-.053-.338-.122-.476-.08 0 0-.063-.011-.121-.053-3.056-.643-5.388-.74-7.09-.504-7.667-.176-18.212 1.643-27.004.397l-47.184 2.103-.636-14.687 57.671.309z" class="B F"/><path d="M695.652 421.246c18.047-28.756 22.778-49.936 36.946-57.471 9.726-1.674 25.574 4.244 16.474 25.552-9.25 21.66-4.913 13.224-12.75 34.047 10.943 0 28.761 5.728 42.252 9.607 6.024 10.577.692 21.838-2.727 26.146-6.546.362-22.048.991-31.688.617l-.203-.008c-12.493-.484-70.738-2.741-48.304-38.49z" class="E"/><g class="B"><path d="M752.585 350.447c-2.351-7.647-2.61-15.874 1.264-23.274 11.162-21.319 39.943-2.987 41.104 10.741s-11.85 41.582-20.483 40.174c-3.443-.561-9.195-5.381-14.158-12.327l-22.014 31.263-15.588-13.125 29.875-33.452z" class="C"/><path d="M795.125 343.926c.381-1.547.477-3.408.585-4.982.14-2.029-.118-4.026-.51-5.974-.739-3.666-1.99-7.232-3.674-10.474-3.076-5.921-8.16-10.782-14.426-12.661-3.164-.949-6.577-1.086-9.886-.28-2.989.73-6.245 2.303-9.229 1.215-3.246-1.184-4.936-5.215-6.725-8.03-2.017-3.173-4.445-5.904-7.547-7.909-5.197-3.357-11.272-3.779-17.116-.912-6.218 3.051-12.302 8.85-12.409 16.444-.02 1.412.185 2.699.746 3.937.515 1.134 1.455 2.513 1.266 3.885-.201 1.457-2.024 2.655-2.958 3.642-1.339 1.413-2.606 2.957-3.225 4.859-1.018 3.122-.367 6.811.779 9.656 1.165 2.895 3.175 5.14 5.626 6.842 1.637 1.136 3.383 2.13 5.261 2.792.932.329 1.839.429 2.8.613.936.18 1.314.612 1.834 1.39 2.417 3.616 5.662 6.024 9.677 7.397 3.388 1.158 7.501 2.019 11.138.963 4.04-1.173 5.466-4.601 6.356-8.54.58.685 2.526 1.803 1.936-.177-.233-.784-1.046-1.417-1.519-2.025-.552-.708-1.064-1.535-1.346-2.42-1.138-3.574 3.447-7.833 6.673-7.456 4.794.561 3.151 6.907 5.502 9.761 1.352 1.641 3.695 1.229 5.534.566 2.463-.889 4.606-2.555 6.602-4.331l4.899-4.423c.773-.675 3.216-2.473 2.937-3.74 3.292.724 6.123 3.447 8.018 6.225.784 1.148 1.28 2.253 1.334 3.7.012.309-.052 1.188.271 1.366.602.332.699-.53.796-.919z" class="E"/></g><path d="M403.891 262.97l34.338 104.933 14.72 29.685-32.492 16.684-28.616-144.911 12.05-6.391z" class="F"/><path d="M395.936 300.922l20.327-2.566c9.867 32.566 23.878 70.857 23.878 70.857s113.724 15.381 134.518 25.171l-137.647 33.175c-32.435-20.569-28.643-51.043-41.076-126.637z" fill="#69a1ac"/><path d="M417.725 295.304c3.359-2.196 5.615-4.014 6.709-5.497 1.357-1.84 3.029-4.73 4.973-8.61l-56.969-42.011c-5.115 3.832-6.21 7.056-3.312 9.835l7.165 6.932 17.76 31.329c.359.631 1.127.831 1.699.428l4.784-2.885c3.973.823 6.872 1.861 8.712 3.218 1.483 1.094 3.123 3.219 4.874 6.435.659 1.218 2.196 1.619 3.415.96.043-.059.146-.075.19-.134z" fill="#232746" class="B"/><path d="M458.635 263.251l8.151 17.803-5.3 36.026-18.3-4.132 15.449-49.697z" class="F"/><g class="B"><path d="M467.78 305.072l-24.593-6.475c-21.165 51.976-54.725 145.663-20.805 156.34 17.636 5.551 67.438 6.594 111.542-2.537s64.549 2.537 64.549 2.537c55.452-109.417-146.014-52.368-149.739-52.802s20.212-31.738 19.046-97.063z" fill="#89c5cc"/><path d="M468.407 292.584c4.247-.038 7.292-.411 9.136-1.12 2.241-.863 5.368-2.495 9.382-4.897l-26.975-70.121c-6.724.495-9.571 2.798-8.541 6.909l2.463 10.285-1.99 38.182a1.33 1.33 0 0 0 1.261 1.399c.012.001.025.001.037.002l5.887.14c3.094 2.982 5.078 5.609 5.952 7.881.71 1.846.945 4.683.706 8.509-.092 1.469 1.023 2.734 2.492 2.826.063.004.126.005.19.005z" fill="#393d64"/></g><g fill="#616161"><rect width="5.926" height="89.267" rx="2.62" transform="matrix(-.838179 -.545396 -.545279 .838255 924 379.732)"/><path d="M875.205 452.587a1.31 1.31 0 0 0-1.31-1.31h-3.875-83.408c-1.125 0-1.727 1.325-.986 2.172l.984 1.125c3.109 3.554 7.602 5.593 12.324 5.593h74.961a1.31 1.31 0 0 0 1.31-1.31v-6.27z"/></g><g fill="#4c4c4c"><path d="M866.319 453.871h-24.444v3.704h24.444zm-31.478 0h-7.778v3.704h7.778zm-10.007 0h-7.778v3.704h7.778z"/><rect width="3.704" height="3.704" rx="1.852" transform="matrix(-1 0 0 1 810.015 453.871)"/></g><g class="B"><path d="M596.723 377.816s1.915 51.369 7.363 79.833c.777 4.061 9.942 2.176 13.573 1.766 22.787-2.572 59.241-33.33 116.93-53.069 1.417-.485 2.37-1.839 2.321-3.336l-.784-23.886c-38.33-14.643-81.991-7.959-139.403-1.308z" class="E"/><path d="M606.668 369.045s1.342 54.644 6.529 81.746c.741 3.867 6.494 2.01 9.361.881 8.127-3.198 63.566-25.002 123.783-51.765l-.632-25.182c-38.136-13.628-81.667-12.532-139.041-5.68z" fill="#dde3e9"/><g class="D"><path d="M711.589 387.244s-32.702 11.211-38.085-7.521.151-27.019 10.822-27.631 18.086 7.661 33.954 11.446-6.691 23.706-6.691 23.706z"/><path d="M579.689 387.883l18.333 64.539c1.319 4.64 6.951 6.436 10.868 3.62 32.079-23.063 44.66-17.17 71.352-30.009 35.851-17.245 68.128-38.149 68.128-38.149v-19.688c-37.363-12.594-133.171-21.504-168.681 19.687z"/></g></g><path d="M663.142 432.685l5.141-1.377c19.902-22.374 65.777-65.782 47.989-58.513s-59.874 46.774-70.89 64.684l17.76-4.794z" fill="#000" fill-opacity=".1"/><path d="M667.831 421.244c18.047-28.757 50.896-51.016 65.065-58.552 9.726-1.674 25.573 4.245 16.474 25.552-9.251 21.661-26.165 23.53-40.869 35.128 10.943 0 37.531 5.727 51.022 9.606 6.024 10.577.692 21.838-2.727 26.146-6.546.362-30.818.991-40.458.617l-.203-.008c-12.493-.484-70.738-2.741-48.304-38.489z" class="D"/><path d="M772.05 436.781c12.807-.136 21.423 2.548 30.867 7.1 2.352 1.144 10.958 8.752.2 7.176-2.347-.785-4.377-1.321-6.227-1.762-.122-.053-.339-.121-.476-.079 0 0-.064-.011-.122-.053-3.055-.643-5.387-.741-7.09-.504-7.667-.177-18.212 1.643-27.004.397l-47.183 2.102-.637-14.686 57.672.309z" class="B C"/><path d="M753.503 455.424l-38.447 2.034-18.998-34.698s66.278 8.09 61.783 13.161c-8.511 9.603-4.338 19.503-4.338 19.503z" class="D"/></svg>