<svg xmlns="http://www.w3.org/2000/svg" xmlns:xlink="http://www.w3.org/1999/xlink" width="230" height="194" fill="none" xmlns:v="https://vecta.io/nano"><style><![CDATA[.B{fill-opacity:.75}.C{fill:#c9c9d3}.D{fill:#f4f4f4}.E{fill:#d5d6d8}.F{fill:#aeaeae}]]></style><g fill="#ecf0f1" class="B"><ellipse cx="68.88" cy="3.62" rx="2.63" ry="2.619"/><ellipse cx="68.88" cy="29.815" rx="2.63" ry="2.619"/><ellipse cx="68.88" cy="56.009" rx="2.63" ry="2.619"/><ellipse cx="68.88" cy="82.204" rx="2.63" ry="2.619"/><ellipse cx="68.88" cy="108.397" rx="2.63" ry="2.619"/><ellipse cx="68.88" cy="134.593" rx="2.63" ry="2.619"/><ellipse cx="68.88" cy="160.789" rx="2.63" ry="2.619"/><ellipse cx="95.185" cy="3.619" rx="2.63" ry="2.619"/><ellipse cx="95.185" cy="29.815" rx="2.63" ry="2.619"/><ellipse cx="95.185" cy="56.009" rx="2.63" ry="2.619"/><ellipse cx="95.185" cy="82.204" rx="2.63" ry="2.619"/><ellipse cx="95.185" cy="108.397" rx="2.63" ry="2.619"/><ellipse cx="95.185" cy="134.593" rx="2.63" ry="2.619"/><ellipse cx="95.185" cy="160.789" rx="2.63" ry="2.619"/><ellipse cx="121.482" cy="3.619" rx="2.63" ry="2.619"/><ellipse cx="121.482" cy="29.815" rx="2.63" ry="2.619"/><ellipse cx="121.482" cy="56.009" rx="2.63" ry="2.619"/><ellipse cx="121.482" cy="82.204" rx="2.63" ry="2.619"/><ellipse cx="121.482" cy="108.397" rx="2.63" ry="2.619"/><ellipse cx="121.482" cy="134.593" rx="2.63" ry="2.619"/><ellipse cx="121.482" cy="160.789" rx="2.63" ry="2.619"/><ellipse cx="147.786" cy="3.619" rx="2.63" ry="2.619"/><ellipse cx="147.786" cy="29.815" rx="2.63" ry="2.619"/><ellipse cx="147.786" cy="56.009" rx="2.63" ry="2.619"/><ellipse cx="147.786" cy="82.204" rx="2.63" ry="2.619"/><ellipse cx="147.786" cy="108.397" rx="2.63" ry="2.619"/><ellipse cx="147.786" cy="134.593" rx="2.63" ry="2.619"/><ellipse cx="147.786" cy="160.789" rx="2.63" ry="2.619"/><ellipse cx="174.083" cy="3.619" rx="2.63" ry="2.619"/><ellipse cx="174.083" cy="29.815" rx="2.63" ry="2.619"/><ellipse cx="174.083" cy="56.009" rx="2.63" ry="2.619"/><ellipse cx="174.083" cy="82.204" rx="2.63" ry="2.619"/><ellipse cx="174.083" cy="108.397" rx="2.63" ry="2.619"/><ellipse cx="174.083" cy="134.593" rx="2.63" ry="2.619"/><ellipse cx="174.083" cy="160.789" rx="2.63" ry="2.619"/><ellipse cx="200.388" cy="3.619" rx="2.63" ry="2.619"/><ellipse cx="200.388" cy="29.815" rx="2.63" ry="2.619"/><ellipse cx="200.388" cy="56.009" rx="2.63" ry="2.619"/><ellipse cx="200.388" cy="82.204" rx="2.63" ry="2.619"/><ellipse cx="200.388" cy="108.397" rx="2.63" ry="2.619"/><ellipse cx="200.388" cy="134.593" rx="2.63" ry="2.619"/><ellipse cx="200.388" cy="160.789" rx="2.63" ry="2.619"/><ellipse cx="226.696" cy="3.619" rx="2.63" ry="2.619"/><ellipse cx="226.696" cy="29.815" rx="2.63" ry="2.619"/><ellipse cx="226.696" cy="56.009" rx="2.63" ry="2.619"/><ellipse cx="226.696" cy="82.204" rx="2.63" ry="2.619"/><ellipse cx="226.696" cy="108.397" rx="2.63" ry="2.619"/><ellipse cx="226.696" cy="134.593" rx="2.63" ry="2.619"/><ellipse cx="226.696" cy="160.789" rx="2.63" ry="2.619"/></g><mask id="A" mask-type="alpha" maskUnits="userSpaceOnUse" x="0" y="53" width="104" height="141"><path d="M99.364 177.475v14.453l-54.912 1.953L1.83 192.84v-15.365h2.092l2.223-20.573H1.83v-7.031H0v-6.38h1.83v-17.968h3.138v-14.844H3.007v-9.766h1.961l1.177-12.5H3.007l1.961-15.495h2.223V58.596H4.968v-5.208h42.491l54.387 1.432v2.995h1.963v15.104h-3.793l-1.307 15.495h5.1v12.5h-3.793v9.766h1.83v14.844h-2.483v17.968h-1.439v6.38h1.439l.653 7.031h3.793l-1.963 20.573h-2.483z" fill="#c4c4c4"/></mask><g mask="url(#A)"><path d="M99.364 177.475v14.453l-54.912 1.953L1.83 192.84v-15.365h2.092l2.223-20.573H1.83v-7.031H0v-6.38h1.83v-17.968h3.138v-14.844H3.007v-9.766h1.961l1.177-12.5H3.007l1.961-15.495h2.223V58.596H4.968v-5.208h42.491l54.387 1.432v2.995h1.963v15.104h-3.793l-1.307 15.495h5.1v12.5h-3.793v9.766h1.83v14.844h-2.483v17.968h-1.439v6.38h1.439l.653 7.031h3.793l-1.963 20.573h-2.483z" class="D"/><use xlink:href="#O" class="E"/><use xlink:href="#O" fill="url(#D)"/><path d="M101.125 177.801l2.684 4.685-4.87-1.841-58.625-2.007 60.81-.837z" fill="#c1c3d6"/><path d="M40.482 143.498h62.334l2.684 6.19H40.482v-6.19z" class="C"/><path d="M40.482 143.498h62.334l2.684 6.19H40.482v-6.19z" fill="url(#E)"/><path d="M44.138 110.318l63.813-.131 2.822 15.911-66.635-.882v-14.898z" class="C"/><path d="M44.138 110.318l63.813-.131 2.822 15.911-66.635-.882v-14.898z" fill="url(#F)"/><path d="M43.313 72.587h63.392l2.936 15.948H42.018l1.294-15.948z" class="C"/><path d="M43.313 72.587h63.392l2.936 15.948H42.018l1.294-15.948z" fill="url(#G)"/><path d="M44.745 41.935h64.687l2.936 15.948H44.745V41.935z" fill="#c1c3d6"/><path d="M44.745 41.935h64.687l2.936 15.948H44.745V41.935z" fill="url(#H)"/><path d="M39.419 143.481l66.738 2.659-.737-2.659H39.419zm1.332-18.144l66.738 1.376-.737-1.376H40.751zm-.621-24.291l66.738 1.376-.737-1.376H40.13zM39.02 72.87l66.738 1.376-.736-1.376H39.02z" class="F"/></g><mask id="B" mask-type="alpha" maskUnits="userSpaceOnUse" x="77" y="121" width="103" height="73"><path d="M177.991 193.883h-2.482-94.396v-14.844h-1.961v-9.766h1.961l1.177-12.499h-3.138l1.961-15.495h2.223v-14.323h-2.223v-5.208h42.491l54.387 1.432v2.995h1.963v15.104h-3.793l-1.307 15.495h5.1v12.499h-3.793v9.766h1.83v14.844z" fill="#f5f5f5"/></mask><g mask="url(#B)"><path d="M177.991 193.883h-2.482-94.396v-14.844h-1.961v-9.766h1.961l1.177-12.499h-3.138l1.961-15.495h2.223v-14.323h-2.223v-5.208h42.491l54.387 1.432v2.995h1.963v15.104h-3.793l-1.307 15.495h5.1v12.499h-3.793v9.766h1.83v14.844z" class="D"/><use xlink:href="#P" class="E"/><use xlink:href="#P" fill="url(#I)"/><path d="M120.464 178.621l63.813-.13 2.822 15.91-66.635-.882v-14.898z" fill="#cdcdcd"/><path d="M120.464 178.621l63.813-.13 2.822 15.91-66.635-.882v-14.898z" fill="url(#J)"/><use xlink:href="#Q" fill="#cdcdcd"/><path d="M121.058 110.239h64.687l2.936 15.948h-67.623v-15.948z" fill="#c4c4c4"/><path d="M117.068 193.64l66.738 1.376-.737-1.376h-66.001zm-.613-24.29l66.738 1.375-.736-1.375h-66.002zm-1.118-28.174l66.738 1.375-.736-1.375h-66.002z" class="F"/></g><mask id="C" mask-type="alpha" maskUnits="userSpaceOnUse" x="77" y="90" width="103" height="73"><path d="M177.991 162.254h-2.482-94.396V147.41h-1.961v-9.765h1.961l1.177-12.5h-3.138l1.961-15.495h2.223V95.327h-2.223v-5.208h42.491l54.387 1.432v2.995h1.963v15.103h-3.793l-1.307 15.495h5.1v12.5h-3.793v9.765h1.83v14.844z" fill="#f5f5f5"/></mask><g mask="url(#C)"><path d="M177.991 162.254h-2.482-94.396V147.41h-1.961v-9.765h1.961l1.177-12.5h-3.138l1.961-15.495h2.223V95.327h-2.223v-5.208h42.491l54.387 1.432v2.995h1.963v15.103h-3.793l-1.307 15.495h5.1v12.5h-3.793v9.765h1.83v14.844z" class="D"/><use xlink:href="#R" class="E"/><use xlink:href="#R" fill="url(#K)"/><path d="M120.464 146.992l63.813-.13 2.822 15.911-66.635-.882v-14.899z" class="C"/><path d="M120.464 146.992l63.813-.13 2.822 15.911-66.635-.882v-14.899z" fill="url(#L)"/><use xlink:href="#Q" y="-31.629" class="C"/><use xlink:href="#Q" y="-31.629" fill="url(#M)"/><path d="M121.058 78.61h64.687l2.936 15.948h-67.623V78.61z" class="C"/><path d="M121.058 78.61h64.687l2.936 15.948h-67.623V78.61z" fill="url(#N)"/><path d="M117.068 162.014l66.738 1.376-.737-1.376h-66.001zm-.613-24.293l66.738 1.376-.736-1.376h-66.002zm-1.118-28.174l66.738 1.376-.736-1.376h-66.002z" class="F"/></g><defs><linearGradient id="D" x1="54.343" y1="49.685" x2="54.343" y2="197.584" xlink:href="#S"><stop stop-color="#d9dce5"/><stop offset="1" stop-color="#d8dbe4"/></linearGradient><linearGradient id="E" x1="94.785" y1="148.668" x2="94.002" y2="140.442" xlink:href="#S"><stop stop-color="#d9dce5"/><stop offset="1" stop-color="#c3c6ce"/></linearGradient><linearGradient id="F" x1="99.791" y1="123.476" x2="94.972" y2="103.292" xlink:href="#S"><stop stop-color="#d9dce5"/><stop offset="1" stop-color="#c3c6ce"/></linearGradient><linearGradient id="G" x1="98.497" y1="85.908" x2="93.719" y2="65.649" xlink:href="#S"><stop stop-color="#d9dce5"/><stop offset="1" stop-color="#c3c6ce"/></linearGradient><linearGradient id="H" x1="101.223" y1="55.256" x2="96.445" y2="34.997" xlink:href="#S"><stop stop-color="#d9dce5"/><stop offset="1" stop-color="#c3c6ce"/></linearGradient><linearGradient id="I" x1="130.672" y1="117.988" x2="130.672" y2="265.887" xlink:href="#S"><stop stop-color="#d9dce5"/><stop offset="1" stop-color="#d8dbe4"/></linearGradient><linearGradient id="J" x1="153.781" y1="178.491" x2="153.781" y2="194.401" xlink:href="#S"><stop stop-color="#d9dce5"/><stop offset="1" stop-color="#d8dbe4"/></linearGradient><linearGradient id="K" x1="130.672" y1="86.362" x2="130.672" y2="234.261" xlink:href="#S"><stop stop-color="#d9dce5"/><stop offset="1" stop-color="#d8dbe4"/></linearGradient><linearGradient id="L" x1="176.117" y1="160.151" x2="171.297" y2="139.967" xlink:href="#S"><stop stop-color="#d9dce5"/><stop offset="1" stop-color="#c3c6ce"/></linearGradient><linearGradient id="M" x1="174.826" y1="154.212" x2="170.048" y2="133.953" xlink:href="#S"><stop stop-color="#d9dce5"/><stop offset="1" stop-color="#c3c6ce"/></linearGradient><linearGradient id="N" x1="177.536" y1="91.931" x2="172.758" y2="71.672" xlink:href="#S"><stop stop-color="#d9dce5"/><stop offset="1" stop-color="#c3c6ce"/></linearGradient><path id="O" d="M44.125 177.532h-2.222v10.247H23.685l18.218 1.242v8.563h67.632V49.685H44.733v8.206h-42.7l44.417 2.426v3.615l-35.287.239 35.287.956v7.321h-3.239l-1.308 15.412H1.458l44.492 2.783-.515 9.776-2.924.356.7 9.442H.851l43.274 2.734v12.24h-2.222v5.827H5.79l36.113 1.576v10.435h-1.438v5.859H-.849l42.098 1.823v5.599H3.204l42.23 2.344-.351 7.578-29.841-.334 29.538 2.196-.654 9.44z"/><path id="P" d="M120.454 245.835h-2.222v10.247h-18.218l18.218 1.243v8.562h67.632V117.988h-64.802v8.206h-42.7l44.417 2.426v3.615l-35.286.239 35.286.955v7.321h-3.239l-1.308 15.412H77.787l44.491 2.783-.515 9.775-2.923.357.7 9.441H77.18l43.274 2.735v12.239h-2.222v5.827H82.119l36.113 1.577v10.434h-1.438v5.86H75.48l42.099 1.823v5.598H79.533l42.23 2.344-.351 7.578-29.842-.334 29.539 2.196-.655 9.44z"/><path id="Q" d="M119.642 140.891h63.392l2.936 15.948h-67.623l1.295-15.948z"/><path id="R" d="M120.454 214.209h-2.222v10.247h-18.218l18.218 1.243v8.562h67.632V86.362h-64.802v8.206h-42.7l44.417 2.426v3.615l-35.286.239 35.286.956v7.32h-3.239l-1.308 15.412H77.787l44.491 2.783-.515 9.775-2.923.357.7 9.441H77.18l43.274 2.735v12.239h-2.222v5.827H82.119l36.113 1.577v10.434h-1.438v5.86H75.48l42.099 1.823v5.599H79.533l42.23 2.343-.351 7.578-29.842-.334 29.539 2.196-.655 9.44z"/><linearGradient id="S" gradientUnits="userSpaceOnUse"/></defs></svg>