<svg xmlns="http://www.w3.org/2000/svg" width="187" height="194" fill="none" xmlns:v="https://vecta.io/nano"><style><![CDATA[.B{fill-opacity:.75}.C{fill-rule:evenodd}]]></style><g clip-path="url(#F)"><g fill="#ecf0f1" class="B"><ellipse cx="26.306" cy="3.624" rx="2.63" ry="2.624"/><ellipse cx="26.306" cy="29.86" rx="2.63" ry="2.624"/><ellipse cx="26.306" cy="56.096" rx="2.63" ry="2.624"/><ellipse cx="26.306" cy="82.332" rx="2.63" ry="2.624"/><ellipse cx="26.306" cy="108.568" rx="2.63" ry="2.624"/><ellipse cx="26.306" cy="134.805" rx="2.63" ry="2.624"/><ellipse cx="26.306" cy="161.041" rx="2.63" ry="2.624"/><ellipse cx="52.61" cy="3.624" rx="2.63" ry="2.624"/><ellipse cx="52.61" cy="29.86" rx="2.63" ry="2.624"/><ellipse cx="52.61" cy="56.096" rx="2.63" ry="2.624"/><ellipse cx="52.61" cy="82.332" rx="2.63" ry="2.624"/><ellipse cx="52.61" cy="108.568" rx="2.63" ry="2.624"/><ellipse cx="52.61" cy="134.805" rx="2.63" ry="2.624"/><ellipse cx="52.61" cy="161.041" rx="2.63" ry="2.624"/><ellipse cx="78.907" cy="3.624" rx="2.63" ry="2.624"/><ellipse cx="78.907" cy="29.86" rx="2.63" ry="2.624"/><ellipse cx="78.907" cy="56.096" rx="2.63" ry="2.624"/><ellipse cx="78.907" cy="82.332" rx="2.63" ry="2.624"/><ellipse cx="78.907" cy="108.568" rx="2.63" ry="2.624"/><ellipse cx="78.907" cy="134.805" rx="2.63" ry="2.624"/><ellipse cx="78.907" cy="161.041" rx="2.63" ry="2.624"/><ellipse cx="105.212" cy="3.624" rx="2.63" ry="2.624"/><ellipse cx="105.212" cy="29.86" rx="2.63" ry="2.624"/><ellipse cx="105.212" cy="56.096" rx="2.63" ry="2.624"/><ellipse cx="105.212" cy="82.332" rx="2.63" ry="2.624"/><ellipse cx="105.212" cy="108.568" rx="2.63" ry="2.624"/><ellipse cx="105.212" cy="134.805" rx="2.63" ry="2.624"/><ellipse cx="105.212" cy="161.041" rx="2.63" ry="2.624"/><ellipse cx="131.509" cy="3.624" rx="2.63" ry="2.624"/><ellipse cx="131.509" cy="29.86" rx="2.63" ry="2.624"/><ellipse cx="131.509" cy="56.096" rx="2.63" ry="2.624"/><ellipse cx="131.509" cy="82.332" rx="2.63" ry="2.624"/><ellipse cx="131.509" cy="108.568" rx="2.63" ry="2.624"/><ellipse cx="131.509" cy="134.805" rx="2.63" ry="2.624"/><ellipse cx="131.509" cy="161.041" rx="2.63" ry="2.624"/><ellipse cx="157.813" cy="3.624" rx="2.63" ry="2.624"/><ellipse cx="157.813" cy="29.86" rx="2.63" ry="2.624"/><ellipse cx="157.813" cy="56.096" rx="2.63" ry="2.624"/><ellipse cx="157.813" cy="82.332" rx="2.63" ry="2.624"/><ellipse cx="157.813" cy="108.568" rx="2.63" ry="2.624"/><ellipse cx="157.813" cy="134.805" rx="2.63" ry="2.624"/><ellipse cx="157.813" cy="161.041" rx="2.63" ry="2.624"/><ellipse cx="184.121" cy="3.624" rx="2.63" ry="2.624"/><ellipse cx="184.121" cy="29.86" rx="2.63" ry="2.624"/><ellipse cx="184.121" cy="56.096" rx="2.63" ry="2.624"/><ellipse cx="184.121" cy="82.332" rx="2.63" ry="2.624"/><ellipse cx="184.121" cy="108.568" rx="2.63" ry="2.624"/><ellipse cx="184.121" cy="134.805" rx="2.63" ry="2.624"/><ellipse cx="184.121" cy="161.041" rx="2.63" ry="2.624"/></g><circle cx="78.375" cy="115.617" r="55.499" transform="rotate(45 78.375 115.617)" fill="#fff"/><path d="M78.063 60.705v54.318l55.866-15.469v-9.669l-3.701-11.954-26.258-17.227H78.063z" fill="url(#B)"/><g filter="url(#A)" class="C"><path d="M29.288 164.49c27.115 27.046 71.076 27.046 98.19 0s27.115-70.898 0-97.945-71.075-27.047-98.19 0-27.114 70.898 0 97.945zm12.544-12.514c20.186 20.136 52.915 20.136 73.102 0s20.186-52.783 0-72.919-52.915-20.136-73.102 0-20.186 52.783 0 72.919z" fill="url(#C)"/></g><g class="C"><path d="M124.274 69.734c-25.349-25.286-66.449-25.286-91.798 0s-25.349 66.283 0 91.569 66.449 25.286 91.799 0 25.349-66.283 0-91.569zm-86.475 86.258c22.41 22.354 58.743 22.354 81.152 0s22.409-58.595 0-80.949-58.743-22.353-81.152 0-22.41 58.596 0 80.949z" fill="url(#D)"/><path d="M99.014 155.544c14.543-7.466 24.489-22.587 24.489-40.025 0-24.846-20.193-44.987-45.101-44.987a44.99 44.99 0 0 0-29.654 11.091c6.819-4.181 14.845-6.592 23.436-6.592 24.751 0 44.815 20.014 44.815 44.703 0 14.652-7.066 27.657-17.985 35.81z" fill="url(#E)" class="B"/></g><g fill="#c5c8d1" class="B"><rect x="81.344" y="79.323" width="39.116" height="6.674" rx="3.337" transform="rotate(90 81.344 79.323)"/><rect width="39.165" height="6.666" rx="3.333" transform="matrix(-.707993 -.70622 .707993 -.70622 101.008 142.438)"/></g></g><defs><filter id="A" x="-7.048" y=".26" width="200.862" height="200.514" filterUnits="userSpaceOnUse" color-interpolation-filters="sRGB"><feFlood flood-opacity="0" result="A"/><feColorMatrix in="SourceAlpha" values="0 0 0 0 0 0 0 0 0 0 0 0 0 0 0 0 0 0 127 0"/><feOffset dx="15" dy="-15"/><feGaussianBlur stdDeviation="15.5"/><feColorMatrix values="0 0 0 0 0.49049 0 0 0 0 0.49891 0 0 0 0 0.54943 0 0 0 0.14 0"/><feBlend in2="A"/><feBlend in="SourceGraphic"/></filter><linearGradient id="B" x1="103.418" y1="99.15" x2="82.355" y2="73.437" gradientUnits="userSpaceOnUse"><stop stop-color="#f0f0f2"/><stop offset="1" stop-color="#f4f4f4" stop-opacity="0"/></linearGradient><linearGradient id="C" x1="127.479" y1="66.545" x2="29.535" y2="164.735" gradientUnits="userSpaceOnUse"><stop stop-color="#d9dce5"/><stop offset="1" stop-color="#c4c7d0"/></linearGradient><linearGradient id="D" x1="34.859" y1="158.931" x2="121.683" y2="71.889" gradientUnits="userSpaceOnUse"><stop stop-color="#d9dce5"/><stop offset="1" stop-color="#c3c6ce"/></linearGradient><linearGradient id="E" x1="78.403" y1="75.04" x2="78.403" y2="156.013" gradientUnits="userSpaceOnUse"><stop stop-color="#fff"/><stop offset="1" stop-color="#f1f3f2"/></linearGradient><clipPath id="F"><path fill="#fff" d="M0 0h187v194H0z"/></clipPath></defs></svg>