<svg xmlns="http://www.w3.org/2000/svg" width="442" height="430" fill="none" xmlns:v="https://vecta.io/nano"><style><![CDATA[.B{fill-rule:evenodd}.C{fill:#a8a8a8}.D{fill:#d4a181}.E{fill:#c4c4c4}.F{fill:#131ba7}]]></style><g clip-path="url(#A)"><g class="B"><path d="M215.661 238.07c-10.493 3.33-16.809 7.841-23.3 14.102-1.614 1.569-6.602 10.106 1.76 5.926 1.706-1.272 3.22-2.256 4.612-3.114.085-.076.244-.191.367-.193 0 0 .049-.026.086-.076 2.322-1.347 4.2-2.053 5.653-2.317 6.213-2.204 15.31-3.548 22.155-6.929l39.087-10.956-3.416-12.188-47.004 15.745z" fill="#ba8b72"/><path d="M308.001 89.114c4.293-6.207 6.914-13.514 5.593-21.312-3.775-22.45-34.692-14.4-39.713-2.388s-1.457 40.922 6.662 42.169c3.197.509 9.754-2.136 16.193-6.904l-1.331 30.785 25.298-2.484-12.702-39.866z" class="D"/><path d="M287.001 50.853c3.281-.856 12.236-2.108 13.863-2.319 1.063-.121 2.235.013 2.732-1.014.425-.845.134-2.17.191-3.1a29.24 29.24 0 0 1 .387-3.274c.438-3.085 1.243-6.084 2.531-8.868 2.376-5.33 6.245-9.697 11.322-12.495 5.656-3.136 12.25-4.347 18.651-4.45 6.838-.138 13.191 1.56 19.806 3.027 6.306 1.447 12.754 1.596 19.061-.007s10.837-5.617 15.979-9.469c5.207-3.911 11.343-6.768 17.995-6.918 6.154-.118 12.055 1.864 17.465 4.749 5.051 2.676 9.31 6.113 12.095 11.326 2.95 5.534 3.556 11.857.113 17.37-4.96 7.971-15.259 10.883-24.056 11.585-5.052.373-10.116-.064-15.073-1.241-6.604-1.652-12.49-4.878-18.732-7.379-2.969-1.179-5.955-2.11-9.086-2.676-3.008-.559-5.985-.618-8.468 1.407-2.615 2.141-4.979 4.236-8.112 5.723-3.006 1.433-6.171 2.42-9.48 2.714-6.432.599-12.927-.797-19.275-1.562-5.18-.568-10.732-1.16-15.794.395-2.091.68-5.205 1.857-5.721 4.19 13.345 1.072 20.074 16.859 17.577 29.214-1.339 6.639-12.614 15.34-17.65 12.416-3.175-1.876-1.628-4.83-.636-6.823 1.91-3.803 2.195-8.453-2.148-10.525-3.74-1.787-6.993 3.676-7.055 3.672-.993.001-9.88-3.908-16.376-10.345-5.705.893-6.969-2.795-5.901-6.027 1.075-3.356 9.25-8.08 13.795-9.293z" fill="#191847"/><path d="M157.396 313.592c.329 23.37 1.92 57.408 4.827 102.114l14.044.879c6.802-34.092 10.588-58.672 11.356-73.794 1.316-25.9 1.646-48.5 1.152-56.803-.768-13.032-13.111-15.287-21.834-12.317" fill="#ba8b72"/><path d="M181.423 399.868l13.166-112.946c-1.262-19.961-35.11-29.144-38.456-5.554s0 60.956 4.663 115.806l20.627 2.694z" fill="#69a1ac"/><path d="M180.71 411.526c1.317 3.299 2.085 5.774 2.085 7.423.055 1.98-.22 4.949-.713 8.854l-62.814 2.034c-1.81-5.334-.987-8.303 2.524-8.798l8.722-1.43 28.746-13.967c.549-.275 1.207-.055 1.481.55l2.03 4.509c3.292 1.43 5.925 2.09 8.01 2.035 1.7-.055 3.949-.77 6.802-2.2 1.097-.55 2.469-.11 2.963.99.109-.11.164-.11.164 0z" fill="#232746"/><path d="M170.834 265.036c-6.089 1.76-11.191 6.049-11.191 10.558.055 23.645 21.56 134.941 22.657 141.98s13.166 8.908 13.824 0c.878-11.053 2.304-43.276 1.92-67.636l-27.21-84.902z" class="D"/><path d="M198.98 413.449c1.261 3.354 1.865 5.828 1.865 7.478 0 2.035-.329 4.949-.988 8.798h-62.813c-1.646-5.389-.713-8.303 2.853-8.743l8.777-1.155 29.185-13.032c.549-.275 1.207 0 1.481.55v.055l1.865 4.564c3.237 1.54 5.925 2.31 7.955 2.31 1.646 0 3.95-.66 6.857-2.035 1.097-.495 2.414 0 2.963 1.1-.055.055-.055.11 0 .11z" fill="#393d64"/><path d="M158.275 285.217c3.566 33.462 13.167 85.151 18.378 104.093h21.999c8.722-71.731 1.152-92.875 2.413-93.59 1.92-.99 74.17-5.059 97.32-5.059 33.354 0 49.538-14.737 42.077-44.541l-59.906-11.272c-13.66.798-70.165 9.596-109.114 26.614-10.972 3.849-13.167 15.617-13.167 23.755z" fill="#c5cfd6"/></g><path d="M66.328 204.384H27.653c-2.414 0-4.663-1.21-6.035-3.19-1.371-2.034-1.701-4.509-.878-6.763l25.29-68.571c.165-.44.658-.66 1.042-.495.439.165.658.605.494 1.045l-25.29 68.571a5.68 5.68 0 0 0 .658 5.278c1.097 1.595 2.798 2.475 4.718 2.475h38.676c.439 0 .823.385.823.825s-.384.825-.823.825z" class="C"/><path d="M197.053 205.318H0v9.018h197.053v-9.018z" class="E"/><g class="B"><path d="M69.999 218.847l28.472 9.513 28.527-9.513v-4.509H69.999v4.509z" class="C"/><path d="M58.585 184.313l-3.017.44c-1.317.22-2.523-.715-2.743-2.034L35.874 70.047c-.219-1.32.713-2.529 2.03-2.749l3.017-.44c1.317-.22 2.523.715 2.743 2.035l16.951 112.671c.164 1.32-.713 2.529-2.03 2.749z" fill="#4c4c4c"/></g><g class="C"><path d="M103.35 214.338h-9.765v213.905h9.765V214.338z"/><g class="B"><path d="M13.11 429.781h170.721c1.92 0 3.456-1.54 3.456-3.464s-1.536-3.465-3.456-3.465H13.11c-1.92 0-3.456 1.54-3.456 3.465.055 1.924 1.591 3.464 3.456 3.464z"/><path d="M126.997 423.732l-28.527-9.458-28.472 9.458v4.509h56.998v-4.509z"/></g></g><path d="M329.472 153.065l-9.276-7.017c-25.309 34.809-56.09 69.324-100.351 90.47l2.112 8.876c35.787-8.623 71.071-10.049 91.609-36.731 6.889-8.939 12.754-43.312 15.906-55.598z" class="B F"/><path d="M302.643 270.988c-40.767 0-29.712-39.589-29.712-60.921 2.878-21.972 10.555-72.02 18.242-96.437v-.056l27.856.028c3.507 0 5.765 4.437 6.477 5.837l.018.036c18.435 35.655 22.466 100.538 14.893 151.513h-37.774z" fill="#1f28cf"/><path d="M296.529 113.801c2.744-6.312 9.31-10.089 15.61-12.193l-5.922 11.114c-4.629 2.32-11.993 6.382-9.688 1.079z" fill="#000" fill-opacity=".25"/><path d="M304.937 107.165c-2.544 3.25-5.739 7.488-6.575 7.936.625 5.151 4.335 13.007 6.418 10.412 1.883-2.346 13.019-7.106 18.599-9.997.96-.497 1.487-1.554 1.269-2.612-1.411-6.874-5.089-10.53-7.314-12.252-.671-.519-1.566-.622-2.356-.31-2.93 1.157-7.232 3.234-10.041 6.823z" class="D"/><path d="M275.632 190.954l2.561-16.155c14.958-14.785 40.813-27.886 36.37-17.02-6.123 14.977-27.706 26.139-38.931 33.175z" class="F"/><g stroke="#dadada" stroke-width="1.772"><path d="M153.38 196.211a8.52 8.52 0 0 0-8.529-8.507c-4.71 0-8.529 3.809-8.529 8.507a8.52 8.52 0 0 0 8.529 8.506H198.3m-56.581-20.504c-1.425-.236-2.922-.179-4.408.218-5.573 1.489-8.88 7.202-7.387 12.759 1.226 4.561 5.303 7.49 9.805 7.611h8.245"/></g><path d="M152.225 202.804l.155-3.825 24.793 1.014-.156 3.825-24.792-1.014z" fill="#ff9b21"/><path d="M181.86 201.78l-4.681-1.791-.183 3.814 4.853-1.605c.198-.065.205-.343.011-.418z" fill="#5a5a5a"/><path d="M149.898 198.869l-.157 3.826-4.133-.17a1.11 1.11 0 0 1-1.062-1.155l.066-1.606a1.11 1.11 0 0 1 1.153-1.065l4.133.17z" fill="#ee6161"/><g fill="#5a5a5a"><path d="M161.142 197.196v.06a.68.68 0 0 1-.705.651l-7.997-.328a.68.68 0 0 1-.65-.707.68.68 0 0 1 .705-.651l7.997.328a.68.68 0 0 1 .65.647z"/><path d="M152.505 196.222l-.279 6.833a.79.79 0 0 1-.818.756l-.912-.038a.79.79 0 0 1-.754-.82l.247-6.045a.79.79 0 0 1 .818-.756l1.698.07z"/></g><path d="M268.815 177.645c22.296 0 39.311-12.252 46.645-19.408v-33.669l-15.902-12.213c-1.37.637-4.78 1.244-23.636 14.874-40.255 29.097-31.834 50.416-7.107 50.416z" fill="#1f28cf"/><path d="M303.86 129.669s-13.939 11.803-23.89 19.055c-.396.288-.111.889.358.746 10.334-3.171 15.565-9.484 23.532-19.801z" class="F"/><g fill="#969696"><path d="M288.792 293.464h-9.765v103.323h9.765V293.464z"/><path d="M346.669 414.769l-62.758-7.698-62.759 7.698v-4.454l62.759-15.342 62.758 15.342v4.454z" class="B"/><path d="M227.953 413.284h-2.688v6.599h2.688v-6.599zm57.276 0h-2.688v6.599h2.688v-6.599zm57.268 0h-2.688v6.599h2.688v-6.599z"/><path d="M286.877 414.822h-5.815l-1.92-16.221h9.655l-1.92 16.221z" class="B"/></g><path d="M305.681 303.363l42.351-3.299c15.525-1.21 24.138-17.816 15.635-30.244-5.705-8.413-10.972-17.211-13.276-23.92-.439-1.209.549-2.474 1.92-2.474h2.304c.823 0 1.536.495 1.866 1.21 1.206 2.969 4.937 11.327 12.178 22.38 10.094 15.342-.603 35.412-19.53 36.732l-43.173 3.025c-.988.055-1.866-.66-1.866-1.65s.659-1.705 1.591-1.76z" class="E"/><path d="M335.582 300.504l-120.525 11.327c-4.334.385-8.119-3.024-8.119-7.368v-5.994c0-3.574 2.523-6.653 6.034-7.313l33.738-6.379c18.213-3.409 36.756-5.169 55.298-5.169h32.97c3.511 0 6.309 2.86 6.309 6.324v8.248c.055 3.245-2.414 5.994-5.705 6.324z" class="C"/><path d="M277.103 259.922l12.398-1.65 21.12 45.861c.549 1.209-.219 2.584-1.481 2.749l-7.132.935c-1.591.22-3.127-.66-3.84-2.09l-21.065-45.805z" class="E"/><path d="M355.88 275.813c-1.317.055-2.579-.494-3.402-1.539-4.224-5.279-16.731-22.985-18.158-47.29-1.7-28.814 19.201-82.483 17.61-122.459-.055-1.1.768-2.035 1.865-2.09l2.14-.11c1.152-.055 2.084.825 2.139 1.925.274 10.722 1.207 60.872-6.309 95.46-6.473 29.913 4.663 58.507 10.149 70.165 1.262 2.639-.548 5.663-3.456 5.828l-2.578.11z" class="B C"/><path d="M250.845 214.337l19.2-2.53 29.789 63.842c.823 1.815-.329 3.959-2.304 4.234l-11.027 1.43c-2.469.33-4.882-.99-5.925-3.3l-29.733-63.676z" fill="#969696"/><path d="M283.378 217.747h-66.05c-1.481 0-2.524-1.485-1.975-2.915l.768-1.924c.768-1.87 2.524-3.08 4.553-3.08h66.05c1.482 0 2.524 1.485 1.975 2.915l-.768 1.924c-.768 1.87-2.578 3.08-4.553 3.08z" class="C"/><g fill="#4c4c4c"><path d="M226.634 430c3.95 0 7.187-3.244 7.187-7.203s-3.237-7.203-7.187-7.203-7.186 3.244-7.186 7.203S222.63 430 226.634 430zm57.32 0c3.949 0 7.186-3.244 7.186-7.203s-3.237-7.203-7.186-7.203-7.186 3.244-7.186 7.203 3.181 7.203 7.186 7.203zm57.224 0c3.95 0 7.187-3.244 7.187-7.203s-3.237-7.203-7.187-7.203-7.186 3.244-7.186 7.203 3.182 7.203 7.186 7.203z"/></g></g><defs><clipPath id="A"><path fill="#fff" d="M0 0h442v430H0z"/></clipPath></defs></svg>