<svg xmlns="http://www.w3.org/2000/svg" xmlns:xlink="http://www.w3.org/1999/xlink" width="439" height="355" fill="none" xmlns:v="https://vecta.io/nano"><g clip-path="url(#A)"><path fill="#bcbcbc" d="M143.372 159.387h150.309v100.206H143.372z"/><g fill="#a0a0a0"><rect x="285.479" y="132.755" width="40.783" height="119.204" rx="20.392"/><rect x="107.833" y="132.698" width="40.783" height="119.203" rx="20.392"/></g><g fill-rule="evenodd" fill="#2f3676"><path d="M254.373 56.333l-30.789 10.892c-3.248 44.234-13.809 185.906 11.138 252.255l57.273 4.846c7.757-62.939-39.562-223.817-37.622-267.992zm-74.247.001l30.789 10.892c3.248 44.234 13.809 185.906-11.138 252.255l-61.601-8.616c-7.756-62.939 43.89-210.355 41.95-254.53z"/></g><path d="M438.743-15.021H0v179.763h438.743V-15.021z" fill="#e4e4e4"/><path d="M324.395 299.918c0 26.542-47.623 54.894-106.37 54.894s-106.371-28.352-106.371-54.894c0-95.477 47.624-48.059 106.371-48.059s106.37-51.69 106.37 48.059z" fill="#5c5c5c"/><g clip-path="url(#B)"><rect x="150.884" y="102.444" width="129.268" height="55.098" rx="4.238" fill="#4c4c4c"/><g fill="#616161"><use xlink:href="#C"/><path d="M218.945 139.559h4.78a1.37 1.37 0 0 0 1.373-1.37v-4.773c0-.756-.615-1.37-1.373-1.37h-4.78c-.758 0-1.373.614-1.373 1.37v4.773a1.37 1.37 0 0 0 1.373 1.37z"/><use xlink:href="#D"/><path d="M223.725 120.425h-4.78c-.758 0-1.373.614-1.373 1.37v4.773c0 .756.615 1.37 1.373 1.37h4.78c.758 0 1.373-.614 1.373-1.37v-4.773a1.37 1.37 0 0 0-1.373-1.37z"/><use xlink:href="#E"/><path d="M212.084 120.425h-4.781a1.37 1.37 0 0 0-1.372 1.37v4.773a1.37 1.37 0 0 0 1.372 1.37h4.781c.758 0 1.373-.614 1.373-1.37v-4.773a1.37 1.37 0 0 0-1.373-1.37zm-4.781 19.134h4.781a1.37 1.37 0 0 0 1.373-1.37v-4.773c0-.756-.615-1.37-1.373-1.37h-4.781a1.37 1.37 0 0 0-1.372 1.37v4.773a1.37 1.37 0 0 0 1.372 1.37z"/><use xlink:href="#F"/><path d="M177.158 108.801h-4.781a1.37 1.37 0 0 0-1.372 1.37v4.773a1.37 1.37 0 0 0 1.372 1.37h4.781a1.37 1.37 0 0 0 1.372-1.37v-4.773a1.37 1.37 0 0 0-1.372-1.37zm23.279 11.624h-4.781a1.37 1.37 0 0 0-1.372 1.37v4.773a1.37 1.37 0 0 0 1.372 1.37h4.781a1.37 1.37 0 0 0 1.372-1.37v-4.773a1.37 1.37 0 0 0-1.372-1.37zm53.434 7.513h16.425a1.37 1.37 0 0 0 1.372-1.37v-4.773a1.37 1.37 0 0 0-1.372-1.37h-16.425a1.37 1.37 0 0 0-1.372 1.37v4.773a1.37 1.37 0 0 0 1.372 1.37zm-6.857-19.137h-4.781a1.37 1.37 0 0 0-1.372 1.37v4.773a1.37 1.37 0 0 0 1.372 1.37h4.781a1.37 1.37 0 0 0 1.372-1.37v-4.773a1.37 1.37 0 0 0-1.372-1.37zm-4.781 19.137h4.781a1.37 1.37 0 0 0 1.372-1.37v-4.773a1.37 1.37 0 0 0-1.372-1.37h-4.781a1.37 1.37 0 0 0-1.372 1.37v4.773a1.37 1.37 0 0 0 1.372 1.37zm10.266-17.767v4.773a1.37 1.37 0 0 0 1.372 1.37h4.781a1.37 1.37 0 0 0 1.372-1.37v-4.773a1.37 1.37 0 0 0-1.372-1.37h-4.781a1.37 1.37 0 0 0-1.372 1.37zm-17.136 10.254h-4.781a1.37 1.37 0 0 0-1.372 1.37v4.773a1.37 1.37 0 0 0 1.372 1.37h4.781a1.37 1.37 0 0 0 1.372-1.37v-4.773a1.37 1.37 0 0 0-1.372-1.37zm-11.638-11.624h-4.78a1.37 1.37 0 0 0-1.373 1.37v4.773c0 .756.615 1.37 1.373 1.37h4.78c.758 0 1.373-.614 1.373-1.37v-4.773a1.37 1.37 0 0 0-1.373-1.37z"/><path d="M270.301 132.046h-28.068a1.37 1.37 0 0 0-1.372 1.37v4.773a1.37 1.37 0 0 0 1.372 1.37h28.068a1.37 1.37 0 0 0 1.373-1.37v-4.773c0-.756-.615-1.37-1.373-1.37zm-4.789-15.732h4.782c.758 0 1.373-.614 1.373-1.37v-4.773a1.37 1.37 0 0 0-1.373-1.37h-4.782a1.37 1.37 0 0 0-1.372 1.37v4.773a1.37 1.37 0 0 0 1.372 1.37zm-69.856 23.245h4.781a1.37 1.37 0 0 0 1.372-1.37v-4.773a1.37 1.37 0 0 0-1.372-1.37h-4.781a1.37 1.37 0 0 0-1.372 1.37v4.773a1.37 1.37 0 0 0 1.372 1.37zm-28.775-24.615v-4.773a1.37 1.37 0 0 0-1.372-1.37h-4.783a1.37 1.37 0 0 0-1.372 1.37v4.773a1.37 1.37 0 0 0 1.372 1.37h4.783a1.37 1.37 0 0 0 1.372-1.37zm97.259 30.097v4.773a1.37 1.37 0 0 0 1.372 1.37h4.782a1.37 1.37 0 0 0 1.373-1.37v-4.773a1.37 1.37 0 0 0-1.373-1.37h-4.782a1.37 1.37 0 0 0-1.372 1.37zm-98.631-1.37h-4.783a1.37 1.37 0 0 0-1.372 1.37v4.773a1.37 1.37 0 0 0 1.372 1.37h4.783a1.37 1.37 0 0 0 1.372-1.37v-4.773a1.37 1.37 0 0 0-1.372-1.37zm69.856 0h-39.709a1.37 1.37 0 0 0-1.372 1.37v4.773a1.37 1.37 0 0 0 1.372 1.37h39.709a1.37 1.37 0 0 0 1.373-1.37v-4.773c0-.756-.615-1.37-1.373-1.37zm11.649 0h-4.781a1.37 1.37 0 0 0-1.372 1.37v4.773a1.37 1.37 0 0 0 1.372 1.37h4.781a1.37 1.37 0 0 0 1.372-1.37v-4.773a1.37 1.37 0 0 0-1.372-1.37zm-58.218 0h-4.781a1.37 1.37 0 0 0-1.372 1.37v4.773a1.37 1.37 0 0 0 1.372 1.37h4.781a1.37 1.37 0 0 0 1.372-1.37v-4.773a1.37 1.37 0 0 0-1.372-1.37zm0-34.87h-4.781a1.37 1.37 0 0 0-1.372 1.37v4.773a1.37 1.37 0 0 0 1.372 1.37h4.781a1.37 1.37 0 0 0 1.372-1.37v-4.773a1.37 1.37 0 0 0-1.372-1.37z"/><path d="M200.437 108.801h-4.781a1.37 1.37 0 0 0-1.372 1.37v4.773a1.37 1.37 0 0 0 1.372 1.37h4.781a1.37 1.37 0 0 0 1.372-1.37v-4.773a1.37 1.37 0 0 0-1.372-1.37zm-16.422 19.137h4.781a1.37 1.37 0 0 0 1.372-1.37v-4.773a1.37 1.37 0 0 0-1.372-1.37h-4.781a1.37 1.37 0 0 0-1.372 1.37v4.773a1.37 1.37 0 0 0 1.372 1.37h0zm-5.485 21.876v-4.773a1.37 1.37 0 0 0-1.372-1.37h-4.781a1.37 1.37 0 0 0-1.372 1.37v4.773a1.37 1.37 0 0 0 1.372 1.37h4.781a1.37 1.37 0 0 0 1.372-1.37zm-17.804-21.876h16.426a1.37 1.37 0 0 0 1.372-1.37v-4.773a1.37 1.37 0 0 0-1.372-1.37h-16.426a1.37 1.37 0 0 0-1.372 1.37v4.773a1.37 1.37 0 0 0 1.372 1.37zm28.068 4.108h-28.068a1.37 1.37 0 0 0-1.372 1.37v4.773a1.37 1.37 0 0 0 1.372 1.37h28.069a1.37 1.37 0 0 0 1.372-1.37v-4.773c0-.756-.615-1.37-1.373-1.37h0z"/></g></g><rect width="27.561" height="44.223" rx="13.781" transform="matrix(.988049 .154143 -.152437 .988313 293.004 111.732)" fill="#b7b7b7"/><g fill-rule="evenodd"><path d="M291.032 192.884s3.381-24.681.464-30.302-2.412-21.01 1.111-22.267c3.228-1.152 3.625 12.118 5.521 8.985 2.721-6.317 2.158-26.821 5.801-27.715 5.389-1.323 19.68 7.55 20.131 15.096.949 15.87-2.771 20.382-8.574 36.883-3.034 8.627-4.467 19.258-4.3 31.893l-20.154-12.573z" fill="#d4a181"/><path d="M244.88 307.908c15.706-38.531 40.882-68.012 45.434-130.69l24.072 4.829c8.813 50.761 1.581 82.232-15.141 123.219-6.258 7.315-31.132 8.045-43.326 17.39l-11.039-14.748z" fill="#c5cfd6"/><path d="M166.123 193.445l7.935-25.872c9.732-9.821 14.13-20.435 11.394-22.997-3.865-3.619-8.115 9.671-8.617 6.039-.001-6.885 8.619-25.476 5.629-27.752-4.422-3.367-21.042-.938-24.438 5.806-7.143 14.184-5.512 19.811-6.708 37.272-.625 9.13-3.511 19.458-8.657 30.985l23.462-3.481z" fill="#d4a181"/><path d="M153.417 306.576c-10.689-41.871-2.768-77.656 21.343-135.635l-23.643-6.636c-30.676 41.273-39.588 51.122-43.094 95.284 1.682 34.139 21.091 53.705 35.505 57.051l9.889-10.064z" fill="#c5cfd6"/></g><path d="M152.152 241.268c28.082-17.137 111.304-14.099 127.872.855s31.437 45.289 16.568 67.506-142.272 15.761-158.884 4.699 0-64.245 14.444-73.06z" fill="#dde3e9"/><ellipse cx="219.587" cy="289.025" rx="37.49" ry="49.77" fill="#d4a181"/><g fill-rule="evenodd" fill="#191847"><path d="M241.741 324.336c4.844-20.944 18.643-35.221 16.536-44.582-1.405-6.241-5.15-10.121-11.235-11.642-3.147-12.373-13.296-17.635-30.448-15.788-25.728 2.771-41.431 13.155-34.65 36.004 6.234 0 13.759-2.191 24.165 1.563 3.302 1.191 5.663 4.885 7.085 11.081h4.702c4.564-7.353 9.064-10.055 13.5-8.106s5.445 6.683 3.025 14.202l2.317 17.268h5.003z"/><path d="M197.068 324.336c-4.844-20.944-18.644-35.22-16.536-44.581 1.405-6.241 5.15-10.122 11.234-11.643 3.147-12.372 13.297-17.635 30.449-15.787 25.728 2.771 41.431 13.155 34.65 36.004-6.234 0-13.759-2.191-24.165 1.563-3.302 1.191-5.664 4.884-7.085 11.08h-4.702c-4.564-7.353-9.064-10.055-13.501-8.106s-5.444 6.683-3.025 14.202l-2.316 17.268h-5.003z"/></g><path d="M257.093 286.211c0 36.45-16.893 53.561-37.732 53.561s-37.732-18.751-37.732-53.561c0-24.047 16.894-11.624 37.732-11.624s37.732-12.423 37.732 11.624z" fill="#191847"/><rect width="128.748" height="71.188" rx="4.238" transform="matrix(.97793 .208952 -.204293 .978914 221.543 12.345)" fill="#4c4c4c"/><g fill="#616161"><use xlink:href="#G"/><use xlink:href="#H"/><path d="M291.836 64.545l4.661.997c.738.158 1.455-.276 1.599-.97l.912-4.376c.145-.694-.337-1.384-1.076-1.542l-4.66-.997c-.739-.158-1.455.276-1.6.97l-.912 4.376c-.145.694.337 1.384 1.076 1.542z"/><use xlink:href="#I"/><path d="M279.756 32.483l-4.66-.997c-.739-.158-1.455.276-1.6.97l-.912 4.376c-.145.694.337 1.384 1.076 1.542l4.66.997c.739.158 1.455-.276 1.6-.97l.912-4.376c.145-.694-.337-1.384-1.076-1.542zm-2.243 10.679l-4.66-.997c-.739-.158-1.455.276-1.6.97l-.912 4.376c-.144.694.337 1.384 1.076 1.542l4.661.997c.739.158 1.455-.276 1.599-.97l.912-4.376c.145-.694-.337-1.384-1.076-1.542zm-8.336 16.57l4.661.997c.739.158 1.455-.276 1.599-.97l.913-4.376c.144-.694-.338-1.384-1.076-1.542l-4.661-.997c-.739-.158-1.455.276-1.599.97l-.912 4.376c-.145.694.336 1.384 1.075 1.542zm43.075 20.302l4.661.997c.738.158 1.455-.276 1.599-.97l.912-4.376c.145-.694-.337-1.384-1.076-1.542l-4.66-.997c-.739-.158-1.455.276-1.6.97l-.912 4.376c-.144.694.337 1.384 1.076 1.542z"/><use xlink:href="#J"/><path d="M266.186 40.755l-4.661-.997c-.739-.158-1.455.276-1.599.97l-.912 4.376c-.145.694.337 1.384 1.076 1.542l4.66.997c.739.158 1.455-.276 1.6-.97l.912-4.376c.145-.694-.337-1.384-1.076-1.542zm50.545 17.907l15.995 3.419c.738.158 1.454-.276 1.598-.968l.911-4.367c.144-.692-.337-1.381-1.075-1.539l-15.995-3.419c-.738-.158-1.453.276-1.597.968l-.912 4.367c-.144.692.337 1.381 1.075 1.539zm-2.992-18.961l-4.661-.997c-.738-.158-1.455.276-1.599.97l-.912 4.376c-.145.694.337 1.384 1.076 1.542l4.66.997c.739.158 1.455-.276 1.6-.97l.912-4.376c.144-.694-.337-1.384-1.076-1.542zm-8.333 16.569l4.661.997c.739.158 1.455-.276 1.6-.97l.912-4.376c.144-.694-.338-1.384-1.076-1.542l-4.661-.997c-.739-.158-1.455.276-1.599.97l-.912 4.376c-.145.694.336 1.384 1.075 1.542zm13.407-14.19l-.912 4.376c-.145.694.337 1.384 1.076 1.542l4.66.997c.739.158 1.455-.276 1.6-.97l.912-4.376c.144-.694-.337-1.384-1.076-1.542l-4.661-.997c-.738-.158-1.454.276-1.599.97zm-18.644 5.893l-4.661-.997c-.739-.158-1.455.276-1.599.97l-.912 4.376c-.145.694.337 1.384 1.075 1.542l4.661.997c.739.158 1.455-.276 1.6-.97l.912-4.376c.144-.694-.337-1.384-1.076-1.542zM291.08 34.89l-4.66-.997c-.739-.158-1.455.276-1.6.97l-.912 4.376c-.144.694.337 1.384 1.076 1.542l4.661.997c.738.158 1.455-.276 1.599-.97l.912-4.376c.145-.694-.337-1.384-1.076-1.542zm40.839 31.004l-27.325-5.834c-.737-.157-1.453.275-1.597.967l-.911 4.361c-.144.691.337 1.38 1.075 1.537l27.324 5.834c.738.157 1.453-.275 1.598-.967l.91-4.361c.145-.691-.336-1.38-1.074-1.537zm-1.618-15.49l4.663.997c.738.158 1.455-.276 1.599-.97l.912-4.376c.145-.694-.337-1.384-1.076-1.542l-4.662-.997c-.739-.158-1.455.276-1.599.97l-.912 4.376c-.145.694.337 1.384 1.075 1.542zm-72.454 6.921l4.66.997c.739.158 1.455-.276 1.6-.97l.912-4.376c.145-.694-.337-1.384-1.076-1.542l-4.66-.997c-.739-.158-1.455.276-1.6.97l-.912 4.376c-.145.694.337 1.384 1.076 1.542zm-23.243-28.547l.912-4.376c.145-.694-.337-1.384-1.076-1.542l-4.662-.997c-.739-.158-1.455.276-1.599.97l-.912 4.376c-.145.694.337 1.384 1.075 1.542l4.663.997c.739.158 1.455-.276 1.599-.97zm88.809 47.743l-.913 4.376c-.144.694.338 1.384 1.076 1.542l4.662.997c.739.158 1.455-.276 1.6-.97l.912-4.376c.145-.694-.337-1.384-1.076-1.542l-4.662-.997c-.739-.158-1.455.276-1.599.97zm-95.697-21.625l-4.662-.997c-.739-.158-1.455.276-1.6.97l-.912 4.376c-.145.694.337 1.384 1.076 1.542l4.662.997c.739.158 1.455-.276 1.599-.97l.913-4.376c.144-.694-.337-1.384-1.076-1.542zm67.977 14.465l-38.652-8.246c-.738-.157-1.453.275-1.597.966l-.911 4.357c-.144.691.337 1.378 1.074 1.536l38.652 8.246c.738.157 1.453-.275 1.598-.966l.91-4.357c.145-.691-.336-1.378-1.074-1.536zm-2.283 10.872l-38.67-8.265c-.738-.158-1.453.276-1.598.968l-2.805 13.445c-.144.692.337 1.382 1.075 1.539l38.67 8.265c.738.158 1.454-.276 1.598-.968l2.805-13.445c.145-.692-.337-1.382-1.075-1.539zm13.604-8.496l-4.661-.997c-.738-.158-1.455.276-1.599.97l-.912 4.376c-.145.694.337 1.384 1.076 1.542l4.66.997c.739.158 1.455-.276 1.6-.97l.912-4.376c.144-.694-.337-1.384-1.076-1.542zm-56.642-12.031l-4.66-.997c-.738-.158-1.455.276-1.599.97l-.912 4.376c-.145.694.337 1.384 1.076 1.542l4.66.997c.739.158 1.455-.276 1.599-.97l.912-4.376c.145-.694-.337-1.384-1.076-1.542zm6.725-32.034l-4.66-.997c-.739-.158-1.455.276-1.6.97l-.912 4.376c-.144.694.337 1.384 1.076 1.542l4.66.997c.739.158 1.455-.276 1.6-.97l.912-4.376c.145-.694-.337-1.384-1.076-1.542zm11.325 2.407l-4.661-.997c-.739-.158-1.455.276-1.599.97l-.913 4.376c-.144.694.338 1.384 1.076 1.542l4.661.997c.739.158 1.455-.276 1.599-.97l.913-4.376c.144-.694-.337-1.384-1.076-1.542zM248.765 44.24l4.66.997c.739.158 1.455-.276 1.6-.97l.912-4.376c.144-.694-.338-1.384-1.076-1.542l-4.66-.997c-.739-.158-1.455.276-1.6.97l-.912 4.376c-.145.694.337 1.384 1.076 1.542h0zm-9.553 18.98l.912-4.376c.145-.694-.337-1.384-1.076-1.542l-4.66-.997c-.739-.158-1.455.276-1.6.97l-.912 4.376c-.145.694.337 1.384 1.076 1.542l4.66.997c.739.158 1.455-.276 1.6-.97zm-13.115-23.806l15.995 3.419c.738.158 1.453-.276 1.597-.968l.912-4.367c.144-.692-.337-1.381-1.075-1.539l-15.995-3.419c-.738-.158-1.454.276-1.598.968l-.911 4.367c-.145.692.336 1.381 1.075 1.539zm26.522 9.639l-27.325-5.834c-.737-.157-1.453.275-1.597.967l-.911 4.361c-.144.691.337 1.38 1.075 1.537l27.324 5.834c.738.157 1.453-.275 1.598-.967l.911-4.361c.144-.691-.337-1.38-1.075-1.537h0z"/></g><g fill="#4c4c4c"><rect width="10.307" height="128.602" rx="3.521" transform="matrix(-.205221 .978716 -.978128 -.208007 349.94 27.2341)"/><path d="M324.731 30.239l-.981 4.691c-.156.744.316 1.474 1.054 1.631l4.657.992c.738.157 1.462-.318 1.618-1.062l.981-4.691c.156-.744-.316-1.474-1.054-1.631l-4.656-.992c-.738-.157-1.463.318-1.619 1.062zm-88.434-18.78l-.981 4.691c-.156.744.316 1.474 1.054 1.631l4.656.992c.739.157 1.463-.318 1.619-1.062l.981-4.691c.156-.744-.316-1.474-1.054-1.631l-4.656-.992c-.738-.157-1.463.318-1.619 1.062z"/></g><rect width="47.353" height="63.809" rx="3.677" transform="matrix(.246493 .969147 -.968117 .250507 163.059 4.39966)" fill="#b7b7b7"/><rect width="10.556" height="174.704" rx="3.677" transform="matrix(.246965 .969025 -.968239 .250029 219.404 .517334)" fill="#4c4c4c"/></g><defs><clipPath id="A"><path fill="#fff" d="M0 0h439v355H0z"/></clipPath><clipPath id="B"><path fill="#fff" transform="translate(150.883 102.444)" d="M0 0h129.268v55.098H0z"/></clipPath><path id="C" d="M235.363 108.801h-4.781a1.37 1.37 0 0 0-1.372 1.37v4.773a1.37 1.37 0 0 0 1.372 1.37h4.781a1.37 1.37 0 0 0 1.372-1.37v-4.773a1.37 1.37 0 0 0-1.372-1.37z"/><path id="D" d="M230.582 139.559h4.781a1.37 1.37 0 0 0 1.373-1.37v-4.773c0-.756-.615-1.37-1.373-1.37h-4.781a1.37 1.37 0 0 0-1.372 1.37v4.773a1.37 1.37 0 0 0 1.372 1.37z"/><path id="E" d="M212.084 108.801h-4.781a1.37 1.37 0 0 0-1.372 1.37v4.773a1.37 1.37 0 0 0 1.372 1.37h4.781c.758 0 1.373-.614 1.373-1.37v-4.773a1.37 1.37 0 0 0-1.373-1.37z"/><path id="F" d="M253.871 151.184h4.781a1.37 1.37 0 0 0 1.372-1.37v-4.773a1.37 1.37 0 0 0-1.372-1.37h-4.781a1.37 1.37 0 0 0-1.372 1.37v4.773a1.37 1.37 0 0 0 1.372 1.37z"/><path id="G" d="M302.414 37.296l-4.66-.997c-.739-.158-1.455.276-1.6.97l-.912 4.376c-.144.694.337 1.384 1.076 1.542l4.661.997c.738.158 1.455-.276 1.599-.97l.912-4.376c.145-.694-.337-1.384-1.076-1.542z"/><path id="H" d="M280.505 62.138l4.661.997c.738.158 1.455-.276 1.599-.97l.912-4.376c.145-.694-.337-1.384-1.076-1.542l-4.66-.997c-.739-.158-1.455.276-1.6.97l-.912 4.376c-.144.694.337 1.384 1.076 1.542z"/><path id="I" d="M288.844 45.566l-4.661-.997c-.738-.158-1.455.276-1.599.97l-.912 4.376c-.145.694.337 1.384 1.076 1.542l4.66.997c.739.158 1.455-.276 1.6-.97l.912-4.376c.144-.694-.337-1.384-1.076-1.542z"/><path id="J" d="M245.773 25.266l-4.661-.997c-.739-.158-1.455.276-1.599.97l-.912 4.376c-.145.694.337 1.384 1.075 1.542l4.661.997c.739.158 1.455-.276 1.6-.97l.912-4.376c.144-.694-.337-1.384-1.076-1.542z"/></defs></svg>