<svg xmlns="http://www.w3.org/2000/svg" width="203" height="195" fill="none" xmlns:v="https://vecta.io/nano"><style><![CDATA[.B{fill-opacity:.75}.C{fill-opacity:.5}.D{fill-opacity:.2}]]></style><g fill="#ecf0f1" class="B"><ellipse cx="41.985" cy="2.482" rx="2.63" ry="2.482"/><ellipse cx="41.985" cy="27.303" rx="2.63" ry="2.482"/><ellipse cx="41.985" cy="52.121" rx="2.63" ry="2.482"/><ellipse cx="41.985" cy="76.939" rx="2.63" ry="2.482"/><ellipse cx="41.985" cy="101.76" rx="2.63" ry="2.482"/><ellipse cx="41.985" cy="126.578" rx="2.63" ry="2.482"/><ellipse cx="41.985" cy="151.398" rx="2.63" ry="2.482"/><ellipse cx="68.289" cy="2.482" rx="2.63" ry="2.482"/><ellipse cx="68.289" cy="27.303" rx="2.63" ry="2.482"/><ellipse cx="68.289" cy="52.121" rx="2.63" ry="2.482"/><ellipse cx="68.289" cy="76.939" rx="2.63" ry="2.482"/><ellipse cx="68.289" cy="101.76" rx="2.63" ry="2.482"/><ellipse cx="68.289" cy="126.578" rx="2.63" ry="2.482"/><ellipse cx="68.289" cy="151.399" rx="2.63" ry="2.482"/><ellipse cx="94.586" cy="2.482" rx="2.63" ry="2.482"/><ellipse cx="94.586" cy="27.303" rx="2.63" ry="2.482"/><ellipse cx="94.586" cy="52.121" rx="2.63" ry="2.482"/><ellipse cx="94.586" cy="76.939" rx="2.63" ry="2.482"/><ellipse cx="94.586" cy="101.76" rx="2.63" ry="2.482"/><ellipse cx="94.586" cy="126.578" rx="2.63" ry="2.482"/><ellipse cx="94.586" cy="151.398" rx="2.63" ry="2.482"/><ellipse cx="120.891" cy="2.482" rx="2.63" ry="2.482"/><ellipse cx="120.891" cy="27.303" rx="2.63" ry="2.482"/><ellipse cx="120.891" cy="52.121" rx="2.63" ry="2.482"/><ellipse cx="120.891" cy="76.939" rx="2.63" ry="2.482"/><ellipse cx="120.891" cy="101.76" rx="2.63" ry="2.482"/><ellipse cx="120.891" cy="126.578" rx="2.63" ry="2.482"/><ellipse cx="120.891" cy="151.399" rx="2.63" ry="2.482"/><ellipse cx="147.188" cy="2.482" rx="2.63" ry="2.482"/><ellipse cx="147.188" cy="27.303" rx="2.63" ry="2.482"/><ellipse cx="147.188" cy="52.121" rx="2.63" ry="2.482"/><ellipse cx="147.188" cy="76.939" rx="2.63" ry="2.482"/><ellipse cx="147.188" cy="101.76" rx="2.63" ry="2.482"/><ellipse cx="147.188" cy="126.578" rx="2.63" ry="2.482"/><ellipse cx="147.188" cy="151.398" rx="2.63" ry="2.482"/><ellipse cx="173.492" cy="2.482" rx="2.63" ry="2.482"/><ellipse cx="173.492" cy="27.303" rx="2.63" ry="2.482"/><ellipse cx="173.492" cy="52.121" rx="2.63" ry="2.482"/><ellipse cx="173.492" cy="76.939" rx="2.63" ry="2.482"/><ellipse cx="173.492" cy="101.76" rx="2.63" ry="2.482"/><ellipse cx="173.492" cy="126.578" rx="2.63" ry="2.482"/><ellipse cx="173.492" cy="151.399" rx="2.63" ry="2.482"/><ellipse cx="199.797" cy="2.482" rx="2.63" ry="2.482"/><ellipse cx="199.797" cy="27.303" rx="2.63" ry="2.482"/><ellipse cx="199.797" cy="52.121" rx="2.63" ry="2.482"/><ellipse cx="199.797" cy="76.939" rx="2.63" ry="2.482"/><ellipse cx="199.797" cy="101.76" rx="2.63" ry="2.482"/><ellipse cx="199.797" cy="126.578" rx="2.63" ry="2.482"/><ellipse cx="199.797" cy="151.398" rx="2.63" ry="2.482"/></g><g clip-path="url(#C)"><rect x=".776" y="50.341" width="176.623" height="143.94" rx="5.921" fill="#f1f4f6"/><path fill="#160045" d="M-21.344 81.956h284.043V50.339H-21.344z"/><g transform="matrix(1 0 0 -1 -21.3438 81.9562)"><path fill="url(#A)" d="M0 0h284.043v31.617H0z"/><path fill="url(#B)" d="M0 0h284.043v31.617H0z"/></g><g fill="#c5c8d1"><rect x="16.286" y="97.294" width="13.92" height="14.039" rx="2.676" class="D"/><rect x="16.286" y="120.7" width="13.92" height="14.039" rx="2.676" class="C"/><rect x="16.286" y="144.105" width="13.92" height="14.039" rx="2.676" class="C"/><rect x="16.286" y="167.51" width="13.92" height="14.039" rx="2.676" class="C"/><rect x="38.233" y="97.294" width="13.92" height="14.039" rx="2.676" class="D"/><rect x="38.233" y="120.7" width="13.92" height="14.039" rx="2.676" class="C"/><rect x="38.233" y="144.105" width="13.92" height="14.039" rx="2.676" class="C"/><rect x="38.233" y="167.51" width="13.92" height="14.039" rx="2.676" class="C"/><rect x="60.18" y="97.294" width="13.92" height="14.039" rx="2.676" class="C"/><rect x="60.18" y="120.7" width="13.92" height="14.039" rx="2.676" class="C"/><rect x="60.18" y="144.105" width="13.92" height="14.039" rx="2.676" class="C"/><rect x="60.18" y="167.51" width="13.92" height="14.039" rx="2.676" class="C"/><rect x="82.127" y="97.294" width="13.92" height="14.039" rx="2.676" class="C"/><rect x="82.127" y="120.7" width="13.92" height="14.039" rx="2.676" class="C"/><rect x="82.127" y="144.105" width="13.92" height="14.039" rx="2.676" class="C"/><rect x="82.127" y="167.51" width="13.92" height="14.039" rx="2.676" class="C"/><rect x="104.074" y="97.294" width="13.92" height="14.039" rx="2.676" class="C"/><rect x="104.074" y="120.7" width="13.92" height="14.039" rx="2.676" class="C"/><rect x="104.074" y="144.105" width="13.92" height="14.039" rx="2.676" class="C"/><rect x="104.074" y="167.51" width="13.92" height="14.039" rx="2.676" class="C"/><rect x="126.021" y="97.294" width="13.92" height="14.039" rx="2.676" class="C"/><rect x="126.021" y="120.7" width="13.92" height="14.039" rx="2.676" class="C"/><rect x="126.021" y="144.105" width="13.92" height="14.039" rx="2.676" class="C"/><rect x="126.021" y="167.51" width="13.92" height="14.039" rx="2.676" class="D"/><rect x="147.968" y="97.294" width="13.92" height="14.039" rx="2.676" class="C"/><rect x="147.968" y="120.7" width="13.92" height="14.039" rx="2.676" class="C"/><rect x="147.968" y="144.105" width="13.92" height="14.039" rx="2.676" class="C"/><rect x="147.968" y="167.51" width="13.92" height="14.039" rx="2.676" class="D"/></g><g fill="#fff"><path d="M127.926 64.132c0 .562.475 1.018 1.069 1.018s1.07-.456 1.07-1.018v-3.229a4.32 4.32 0 0 0-.968-.105c-.407 0-.798.053-1.171.158v3.177zm2.139 3.353c0-.562-.475-1.018-1.07-1.018s-1.069.456-1.069 1.018v2.826c.373.105.764.158 1.171.158.323 0 .646-.035.968-.105v-2.878zm2.003-5.582c-.458 1-.747 2.229-.747 3.545 0 1.439.323 2.755.866 3.809.968-.878 1.579-2.176 1.579-3.616.017-1.509-.645-2.861-1.698-3.738zm-6.197 7.214c.509-1.035.798-2.299.798-3.668 0-1.264-.255-2.44-.679-3.422-.968.895-1.562 2.176-1.562 3.598 0 1.369.543 2.615 1.443 3.493zm16.83-4.348h-2.787V61.96h-1.707v7.345h1.707v-2.953h2.787v2.953h1.672V61.96h-1.672v2.809zm5.364-.972c-.801 0-1.463.252-1.986.792a2.82 2.82 0 0 0-.801 2.016 2.82 2.82 0 0 0 .801 2.016c.523.54 1.185.792 1.986.792s1.463-.252 1.986-.792a2.82 2.82 0 0 0 .801-2.016 2.82 2.82 0 0 0-.801-2.016c-.488-.504-1.15-.792-1.986-.792zm.906 3.781c-.209.252-.523.36-.871.36s-.662-.108-.871-.36a1.44 1.44 0 0 1-.314-.936c0-.396.105-.684.314-.936s.522-.36.871-.36.662.108.871.36.313.576.313.936-.104.684-.313.936zm4.807-3.997c0-.18.035-.36.139-.468s.244-.18.383-.18c.209 0 .418.036.593.108l.383-1.332c-.349-.144-.732-.216-1.219-.216-.627 0-1.08.18-1.429.576-.348.36-.487.864-.487 1.512v.396h-.941v1.476h.941v3.853h1.637v-3.889h1.428v-1.476h-1.428v-.36zm5.922.396l-1.254 3.241-1.359-3.241h-1.776l2.299 5.221-.906 2.304h1.637l3.1-7.525H159.7zm1.428 5.509a.78.78 0 0 0 .766-.792.78.78 0 0 0-.766-.792.78.78 0 0 0-.767.792.78.78 0 0 0 .767.792zM22.83 63.374v4.92c0 .793-.247 1.427-.742 1.901s-1.147.706-1.958.706c-.701 0-1.29-.177-1.767-.531s-.821-.838-1.03-1.442l1.066-.319c.12.395.325.707.613.938s.658.34 1.097.34c.495 0 .881-.149 1.159-.448s.422-.69.422-1.164v-3.884h-3.725v-1.015h4.863zm5.487 2.081h1.097v5.306h-1.097v-.804c-.199.285-.455.513-.768.685s-.665.258-1.066.258c-.67 0-1.19-.208-1.561-.623s-.551-.986-.551-1.71v-3.111h1.108v2.911c0 .47.112.838.335 1.102s.548.397.974.397c.46 0 .829-.161 1.107-.484s.423-.756.423-1.288v-2.638zm5.698-.139c.673 0 1.192.208 1.556.623s.551.982.551 1.71v3.112h-1.097V67.85c0-.471-.112-.838-.335-1.103s-.548-.397-.974-.397c-.464 0-.834.161-1.113.484s-.417.752-.417 1.288v2.638h-1.108v-5.306h1.108v.788a2.22 2.22 0 0 1 .762-.675c.309-.168.665-.252 1.066-.252zm6.224 5.584c-.835 0-1.515-.256-2.04-.768s-.788-1.185-.788-2.019c0-.391.065-.759.196-1.102s.318-.639.551-.886a2.47 2.47 0 0 1 .865-.592 2.86 2.86 0 0 1 1.118-.216c.419 0 .8.07 1.144.211s.632.328.855.572a2.58 2.58 0 0 1 .52.855c.12.326.185.677.185 1.051a3.64 3.64 0 0 1-.036.443h-4.312c.038.45.21.812.515 1.087s.721.412 1.247.412c.374 0 .689-.079.943-.237a1.48 1.48 0 0 0 .567-.618l1.01.299a2.36 2.36 0 0 1-.345.541 2.99 2.99 0 0 1-.526.484c-.206.148-.453.264-.742.35a3.12 3.12 0 0 1-.927.134zm-1.741-3.189l3.261-.01c-.031-.419-.191-.763-.479-1.03s-.668-.402-1.139-.402c-.457 0-.836.141-1.138.422a1.55 1.55 0 0 0-.505 1.02z"/></g></g><defs><linearGradient id="A" x1="22.322" y1="12.002" x2="267.267" y2="14.656" gradientUnits="userSpaceOnUse"><stop stop-color="#2f329a"/><stop offset="1" stop-color="#3336a2" stop-opacity="0"/></linearGradient><linearGradient id="B" x1="46.812" y1="26.408" x2="51.473" y2="-15.47" gradientUnits="userSpaceOnUse"><stop stop-color="#d9dce5"/><stop offset="1" stop-color="#c3c6ce"/></linearGradient><clipPath id="C"><rect x=".776" y="50.341" width="176.623" height="143.94" rx="5.921" fill="#fff"/></clipPath></defs></svg>