<svg xmlns="http://www.w3.org/2000/svg" width="380" height="408" fill="none" xmlns:v="https://vecta.io/nano"><g clip-path="url(#A)"><g fill-rule="evenodd"><g fill="#d4a181"><path d="M45.14 139.133c-13.913 2.153-26.248 1.941-37.011-2.482-2.681-1.115-13.333-7.834-1.463-7.459 2.637.652 4.903 1.031 6.962 1.315.138.05.381.105.526.03 0 0 .07.004.138.049 3.392.359 6.04.669 8.875.078 8.472-1.766 18.518-5.455 28.214-5.202l40.559 24.12 2.279 18.877-49.08-29.326z"/><path d="M70.927 162.606l-24.126-24.868c-12.505-.78-21.191 2.246-30.136-.893-2.238-1.329-5.239-4.333 2.661-5.324s14.628-4.955 15.136-7.832-4.871-5.095-3.464-9.125c.938-2.687 9.039 1.911 24.304 13.796l20.192 8.382-4.566 25.864z"/></g><path d="M169.324 100.208l-18.534-9.529c-11.086 12.771-22.627 68.543-32.888 68.913-5.389.194-32.034-18.294-57.883-31.066l-12.294 13.321c13.84 32.791 53.212 72.103 77.209 67.518 38.366-7.331 31.568-70.605 44.39-109.157z" fill="#69a1ac"/><path d="M139.622 26.127c-6.451 17.551-16.344 57.405-10.411 64.311l41.044 3.591.032-.217c15.36-.353 28.32-12.216 29.691-27.877l2.6-29.722c1.47-16.806-10.962-31.622-27.767-33.092l-2.831-.248c-15.262-1.335-28.883 8.795-32.358 23.254z" fill="#191847"/><path d="M184.534 58.866c7.192-7.085 12.427-16.08 12.609-26.657.525-30.475-42.221-27.5-51.76-12.931s-11.958 53.432-1.597 57.092c4.132 1.459 13.371-.422 23.019-5.144l-9.313 40.196 33.968 2.971-6.926-55.527z" fill="#d4a181"/><path d="M175.802 52.947c-3.036 16.674-4.089 35.928.177 40.893l36.853 3.224c2.576-29.448-13.493-25.714-10.22-63.124-1.26-1.467-2.446-2.913-3.634-4.175l.142-1.096c-5.834-15.172-14.214-23.236-25.141-24.192-16.389-1.434-22.23 5.74-27.201 11.829 2.305 11.59 14.94 14.384 25.682 22.422a7.78 7.78 0 0 1 5.057-1.311c4.299.376 7.479 4.166 7.103 8.465s-4.166 7.479-8.465 7.103a7.95 7.95 0 0 1-.353-.039z" fill="#191847"/><g fill="#d4a181"><path d="M215.69 222.851l-32.804 182.233-11.868 142.752-21.759-1.566-8.984-315.506 75.415-7.913z"/><path d="M224.395 221.763c-4.518 92.326-3.567 142.754-2.859 151.131s6.391 65.516 36.645 164.175l-20.365 4.684c-40.377-94.763-60.848-156.938-65.491-169.32-4.649-12.464-18.086-62.953-37.667-151.497l89.737.827z"/></g><path d="M210.989 227.142c-7.006 62.228-16.072 161.792-34.946 298.693h-29.589c-8.819-136.901-10.385-223.69-4.616-290.616l69.151-8.077z" fill="#db2721"/><path d="M222.256 221.921c-4.436 92.321 15.003 179.015 30.595 294.967l-29.014 2.164c-37.351-94.079-63.031-187.995-82.231-299.131l80.65 2z" fill="#ff4133"/></g><path d="M128.487 291.016c-6.759-13.764-9.478-42.153-8.407-59.59s5.11-34.9 11.456-61.569 19.287-48.545 20.935-77.393l40.469-.742c4.45-.082 35.688 57.283 36.43 94.867.659 34.369 33.05 55.551 17.473 109.537-26.457-4.698-104.427 23.16-118.356-5.11z" fill="#89c5cc"/><g fill-rule="evenodd"><g fill="#d4a181"><path d="M336.056 135.393c14.078.062 26.246-1.978 36.232-7.95 2.486-1.502 12.023-9.728.339-7.594-2.511 1.036-4.695 1.747-6.69 2.334-.129.07-.361.161-.515.107 0 0-.069.015-.129.07-3.302.859-5.874 1.558-8.766 1.395-8.64-.489-19.122-2.645-28.673-.956l-36.528 29.876.549 19.006 44.181-36.288z"/><path d="M314.043 162.434l20.166-28.174c12.25-2.628 21.29-.926 29.67-5.358 2.015-1.646 4.537-5.063-3.422-4.87s-15.201-2.728-16.131-5.498 4.06-5.761 2.071-9.538c-1.326-2.518-8.655 3.232-21.986 17.252l-18.724 11.288 8.356 24.898z"/></g><g fill="#89c5cc"><path d="M183.23 98.029l19.022-2.058c23.078 15.66 50.61 64.387 60.878 64.387 5.392 0 31.354-19.436 56.726-33.13l12.766 12.87c-12.65 33.268-50.581 73.972-74.727 70.254-38.605-5.944-60.464-74.258-74.665-112.323z"/></g></g><path d="M211.733 104.214c12.125 14.36 16.956 30.258 9.645 36.431s-23.068-.463-35.194-14.823-30.085-23.562-8.717-37.18c12.424-7.918 22.14 1.212 34.266 15.572z" fill="#89c5cc"/></g><defs><clipPath id="A"><path fill="#fff" d="M0 0h380v408H0z"/></clipPath></defs></svg>