<svg width="380" height="288" viewBox="0 0 380 288" fill="none" xmlns="http://www.w3.org/2000/svg">
<g clip-path="url(#clip0)">
<path fill-rule="evenodd" clip-rule="evenodd" d="M62.2109 124.271C49.8254 126.183 38.8438 125.995 29.2622 122.066C26.8752 121.074 17.3925 115.105 27.96 115.439C30.3077 116.018 32.3245 116.355 34.1582 116.607C34.281 116.651 34.4974 116.7 34.6265 116.633C34.6265 116.633 34.6889 116.637 34.7493 116.677C37.7694 116.996 40.126 117.271 42.6506 116.746C50.1928 115.177 59.1357 111.9 67.7676 112.124L103.875 133.554L105.904 150.325L62.2109 124.271Z" fill="#D4A181"/>
<path fill-rule="evenodd" clip-rule="evenodd" d="M85.1698 145.124L63.6919 123.03C52.5594 122.337 44.8267 125.026 36.8631 122.237C34.871 121.056 32.1989 118.387 39.2318 117.506C46.2647 116.626 52.254 113.105 52.7062 110.548C53.1585 107.991 48.3702 106.022 49.6222 102.441C50.4569 100.054 57.669 104.139 71.2586 114.698L89.2344 122.145L85.1698 145.124Z" fill="#D4A181"/>
<path fill-rule="evenodd" clip-rule="evenodd" d="M172.761 89.6894L156.261 81.223C146.392 92.5694 136.118 142.12 126.983 142.449C122.186 142.621 98.4653 126.195 75.4537 114.849L64.5091 126.684C76.8296 155.816 111.88 190.743 133.243 186.67C167.398 180.157 161.347 123.94 172.761 89.6894Z" fill="#E87613"/>
<path fill-rule="evenodd" clip-rule="evenodd" d="M146.326 23.872C140.581 39.4677 131.769 74.881 137.049 81.0168L173.582 84.2012C173.591 84.1368 173.6 84.0726 173.61 84.0085C187.281 83.6929 198.819 73.15 200.041 59.2336L202.36 32.8239C203.671 17.8909 192.608 4.72834 177.65 3.42447L175.131 3.20485C161.547 2.02076 149.421 11.0238 146.326 23.872Z" fill="#191847"/>
<path fill-rule="evenodd" clip-rule="evenodd" d="M186.298 52.9514C192.699 46.6544 197.36 38.6601 197.524 29.2617C197.998 2.18229 159.961 4.83531 151.469 17.7839C142.977 30.7324 140.817 65.2655 150.035 68.5149C153.712 69.8108 161.933 68.1369 170.52 63.9384L162.223 99.6577L192.448 102.29L186.298 52.9514Z" fill="#D4A181"/>
<path fill-rule="evenodd" clip-rule="evenodd" d="M178.527 47.6982C175.823 62.5148 174.883 79.6222 178.679 84.0334L211.481 86.8927C213.778 60.7263 199.475 64.0467 202.394 30.8054C201.272 29.5022 200.217 28.2171 199.16 27.096L199.287 26.1219C194.096 12.6417 186.638 5.47766 176.913 4.62993C162.325 3.35835 157.125 9.73341 152.7 15.145C154.749 25.4427 165.995 27.9234 175.555 35.0641C176.831 34.2015 178.402 33.7547 180.057 33.8989C183.883 34.2325 186.713 37.5997 186.378 41.4198C186.042 45.2399 182.668 48.0662 178.842 47.7327C178.736 47.7235 178.631 47.712 178.527 47.6982Z" fill="#191847"/>
<path fill-rule="evenodd" clip-rule="evenodd" d="M214.036 198.653L184.833 360.557L174.267 487.385L154.896 485.994L146.898 205.683L214.036 198.653Z" fill="#D4A181"/>
<path fill-rule="evenodd" clip-rule="evenodd" d="M221.786 197.681C217.763 279.708 218.611 324.51 219.241 331.953C219.87 339.396 224.931 390.16 251.864 477.813L233.734 481.975C197.789 397.783 179.564 342.544 175.431 331.543C171.292 320.47 159.33 275.613 141.898 196.946L221.786 197.681Z" fill="#D4A181"/>
<path fill-rule="evenodd" clip-rule="evenodd" d="M209.849 202.461C203.612 257.747 195.541 346.204 178.739 467.833H152.397C144.546 346.204 143.152 269.097 148.288 209.637L209.849 202.461Z" fill="#191847"/>
<path fill-rule="evenodd" clip-rule="evenodd" d="M219.884 197.822C215.935 279.844 233.24 356.868 247.121 459.884L221.291 461.807C188.04 378.223 165.179 294.784 148.086 196.045L219.884 197.822Z" fill="#2F3676"/>
<path d="M136.404 259.21C130.388 246.981 127.967 221.759 128.92 206.267C129.873 190.775 133.47 175.26 139.119 151.567C144.768 127.874 156.289 108.437 157.756 82.8075L193.783 82.1485C197.745 82.0752 225.554 133.041 226.214 166.432C226.801 196.968 255.638 215.787 241.77 263.75C218.217 259.576 148.805 284.327 136.404 259.21Z" fill="#FF9B21"/>
<path fill-rule="evenodd" clip-rule="evenodd" d="M321.184 120.95C333.717 121.006 344.549 119.193 353.439 113.887C355.653 112.553 364.142 105.245 353.741 107.14C351.506 108.061 349.561 108.693 347.786 109.214C347.671 109.276 347.464 109.357 347.326 109.309C347.326 109.309 347.265 109.322 347.211 109.371C344.272 110.134 341.983 110.756 339.408 110.61C331.716 110.176 322.384 108.26 313.882 109.762L281.363 136.305L281.852 153.19L321.184 120.95Z" fill="#D4A181"/>
<path fill-rule="evenodd" clip-rule="evenodd" d="M301.586 144.976L319.538 119.944C330.444 117.609 338.491 119.122 345.951 115.184C347.746 113.721 349.991 110.685 342.905 110.857C335.819 111.028 329.372 108.434 328.545 105.973C327.717 103.511 332.159 100.854 330.388 97.4983C329.208 95.2612 322.683 100.37 310.816 112.826L294.147 122.855L301.586 144.976Z" fill="#D4A181"/>
<path fill-rule="evenodd" clip-rule="evenodd" d="M185.137 87.7534L202.071 85.9249C222.616 99.838 247.126 143.13 256.267 143.13C261.067 143.13 284.18 125.862 306.767 113.696L318.132 125.13C306.87 154.686 273.102 190.85 251.606 187.547C217.238 182.266 197.779 121.572 185.137 87.7534Z" fill="#FF9B21"/>
<path d="M210.51 93.2472C221.305 106.006 225.606 120.13 219.097 125.615C212.588 131.1 198.561 125.203 187.766 112.445C176.971 99.6862 160.983 91.5113 180.006 79.4124C191.066 72.3777 199.715 80.4887 210.51 93.2472Z" fill="#FF9B21"/>
</g>
<defs>
<clipPath id="clip0">
<rect width="380" height="288" fill="white"/>
</clipPath>
</defs>
</svg>
