<svg width="123" height="38" viewBox="0 0 123 38" fill="none" xmlns="http://www.w3.org/2000/svg">
<g clip-path="url(#clip0)">
<path fill-rule="evenodd" clip-rule="evenodd" d="M74.3302 15.2348C78.0412 15.2348 81.239 18.3122 81.239 22.9584C81.239 27.4836 78.0412 30.6521 74.1491 30.6521C71.9165 30.6521 70.3475 29.5957 69.3823 28.3895H69.2918V37.2288H65.9728V15.6868H69.2618V17.5274H69.3524C70.287 16.4417 71.7055 15.2348 74.3302 15.2348ZM9.2032 0L9.343 0.521128C8.07315 1.06267 7.18276 2.32118 7.18276 3.78757C7.18276 8.89723 19.4805 11.7358 21.9951 13.6032L21.3551 15.2385C19.8813 15.2385 16.813 15.6134 16.813 22.1045C16.813 28.3479 14.9816 33.5935 14.8288 34L13.826 33.7318C13.8493 33.5963 14.01 32.1127 14.01 30.3122C14.01 27.3149 12.9491 23.4392 9.0555 23.4392C5.16047 23.4392 4.25475 27.3163 4.25475 30.3122C4.25475 32.1373 4.62772 33.6357 4.64723 33.7318L3.64491 34C1.69739 31.3094 0.995117 24.8875 0.995117 21.9222C0.995117 18.3773 1.66163 15.7378 1.81955 15.2533L2.51579 15.4394C2.84602 17.7875 5.87575 18.936 9.0555 18.936C12.2297 18.936 14.1289 17.4845 14.1289 14.8366C14.1289 11.5061 5.65048 10.0824 5.65048 4.19919C5.65048 0.984249 9.14189 0.0167058 9.2032 0ZM90.2578 15.2344C92.6715 15.2344 94.1199 16.5019 94.9953 17.6481H95.0552V15.6871H98.3435V30.1391H95.0552V28.2986H94.9647C93.9689 29.5354 92.3999 30.6517 90.0169 30.6517C86.7578 30.6517 83.0774 28.0576 83.0774 22.8981C83.0774 18.3124 86.3358 15.2344 90.2578 15.2344ZM114.844 15.2344C117.258 15.2344 118.706 16.5019 119.582 17.6481H119.642V15.6871H122.93V30.1391H119.642V28.2986H119.551C118.555 29.5354 116.986 30.6517 114.603 30.6517C111.344 30.6517 107.664 28.0576 107.664 22.8981C107.664 18.3124 110.922 15.2344 114.844 15.2344ZM57.1765 15.2044C60.4648 15.2044 62.6375 17.4976 62.6375 21.8117V30.1391H59.2886V21.7811C59.2886 19.8807 58.4133 18.1919 56.3917 18.1919C54.7322 18.1919 53.1639 19.4586 53.1639 22.2644V30.1391H49.7844V21.7811C49.7844 19.7602 48.698 18.1919 46.9181 18.1919C44.9271 18.1919 43.6603 19.6996 43.6603 22.2644V30.1391H40.2808V15.687H43.6297V17.4976H43.6903C44.5949 16.2002 46.0733 15.2044 47.9139 15.2044C50.1165 15.2044 51.806 16.5018 52.3491 17.9795C53.0734 16.6229 54.8533 15.2044 57.1765 15.2044ZM105.138 8.4158V30.1395H101.759V8.4158H105.138ZM36.8918 15.6868V30.1388H33.5123V15.6868H36.8918ZM73.3949 18.1917C71.0418 18.1917 69.1407 20.0921 69.1407 22.9884C69.1407 25.7941 71.1017 27.7252 73.4249 27.7252C76.3211 27.7252 77.7696 25.3115 77.7696 22.9285C77.7696 20.5148 76.3511 18.1917 73.3949 18.1917ZM90.9521 18.1314C87.9653 18.1314 86.5468 20.545 86.5468 22.8981C86.5468 25.3118 87.9347 27.6948 90.9221 27.6948C93.1548 27.6948 95.2063 25.7638 95.2063 22.9887C95.2063 20.0624 93.3052 18.1314 90.9521 18.1314ZM115.539 18.1314C112.552 18.1314 111.133 20.545 111.133 22.8981C111.133 25.3118 112.521 27.6948 115.509 27.6948C117.741 27.6948 119.793 25.7638 119.793 22.9887C119.793 20.0624 117.892 18.1314 115.539 18.1314ZM37.0722 9.04951V12.4889H33.3312V9.04951H37.0722Z" fill="#252525"/>
</g>
<defs>
<clipPath id="clip0">
<rect width="122" height="38" fill="white" transform="translate(0.995117)"/>
</clipPath>
</defs>
</svg>
