<svg width="159" height="34" viewBox="0 0 159 34" fill="none" xmlns="http://www.w3.org/2000/svg">
<g clip-path="url(#clip0)">
<path fill-rule="evenodd" clip-rule="evenodd" d="M4.40137 4.5H24.4014V24.5H4.40137V4.5Z" fill="white"/>
<path d="M45.8054 23.5929C44.6668 23.5976 43.5347 23.4214 42.4514 23.0709C41.4124 22.7337 40.4576 22.1779 39.6514 21.4409L41.1164 18.9629C41.8622 19.4774 42.6587 19.9143 43.4934 20.2669C44.1918 20.5709 44.9457 20.7265 45.7074 20.7239C46.2274 20.7239 46.6514 20.6259 46.9444 20.4299C47.2374 20.2669 47.3674 19.9739 47.3674 19.6149C47.3674 19.2889 47.2054 18.9629 46.8144 18.7669C46.2025 18.4733 45.5575 18.2543 44.8934 18.1149L42.6134 17.3649C41.9954 17.1039 41.5074 16.8429 41.1164 16.5499C40.7501 16.3072 40.4574 15.9685 40.2704 15.5709C40.0934 15.1592 40.0048 14.715 40.0104 14.2669C40.0008 13.6334 40.1333 13.0059 40.3981 12.4303C40.6629 11.8548 41.0532 11.3458 41.5404 10.9409C41.9954 10.5499 42.5814 10.2559 43.2324 10.0279C43.8844 9.79989 44.6004 9.70189 45.3494 9.70189C46.3594 9.70189 47.3024 9.83189 48.1814 10.0929C49.0614 10.3869 49.9074 10.8759 50.7214 11.5929L49.1264 14.0389C48.4961 13.5874 47.8192 13.2049 47.1074 12.8979C46.5528 12.657 45.954 12.5344 45.3494 12.5379C44.9264 12.5379 44.5354 12.6039 44.2424 12.7999C43.9164 12.9629 43.7864 13.2559 43.7864 13.6479C43.7864 14.0379 43.9494 14.2999 44.2744 14.4949C44.6004 14.6909 45.2514 14.8869 46.1304 15.1149C46.9464 15.3209 47.7504 15.5709 48.5404 15.8649C49.1904 16.1249 49.7124 16.4189 50.1354 16.7129C50.9354 17.3029 51.3784 18.2629 51.3074 19.2559C51.3074 20.5929 50.8194 21.6359 49.8094 22.4189C48.8334 23.2019 47.5304 23.5929 45.8054 23.5929V23.5929ZM61.9214 22.6469C61.3684 22.8759 60.7174 23.1039 60.0014 23.2999C59.2844 23.4949 58.5684 23.6259 57.8194 23.6259C57.2984 23.6259 56.8424 23.5609 56.3864 23.4299C55.9433 23.3004 55.5329 23.0782 55.1824 22.7779C54.8564 22.5169 54.5964 22.1259 54.4004 21.7019C54.1801 21.1754 54.0695 20.6096 54.0754 20.0389V13.0279H52.3814V9.96289H54.1064V5.68989H58.1434V9.92989H60.8784V13.0269H58.1434V18.6359C58.1434 19.0599 58.2414 19.3859 58.4694 19.6139C58.6974 19.7769 58.9904 19.8739 59.3164 19.8739C59.6414 19.8739 59.9664 19.8419 60.2604 19.7119C60.5854 19.6139 60.8784 19.5159 61.1064 19.3859L61.8884 22.6459H61.9204L61.9214 22.6469ZM69.5404 23.5929C68.5043 23.6111 67.4749 23.4228 66.5124 23.0389C65.6742 22.7066 64.9159 22.2007 64.2874 21.5544C63.6588 20.908 63.1742 20.136 62.8654 19.2889C62.2255 17.586 62.2255 15.7088 62.8654 14.0059C63.1742 13.1588 63.6588 12.3867 64.2874 11.7404C64.9159 11.0941 65.6742 10.5881 66.5124 10.2559C67.3924 9.89789 68.4004 9.70189 69.5404 9.70189C70.5203 9.65583 71.4986 9.82134 72.4089 10.1872C73.3191 10.553 74.1399 11.1105 74.8154 11.8219C75.4334 12.4409 75.8894 13.1909 76.2154 14.0059C76.8818 15.7149 76.8818 17.6119 76.2154 19.3209C75.9047 20.158 75.4229 20.9212 74.8006 21.5615C74.1783 22.2019 73.4293 22.7054 72.6014 23.0399C71.6285 23.4281 70.5875 23.6165 69.5404 23.5939V23.5929ZM66.6104 16.6799C66.6104 17.7239 66.8704 18.5709 67.4244 19.1909C68.0104 19.8429 68.7264 20.1689 69.5734 20.1689C69.9771 20.1766 70.3773 20.0926 70.7438 19.9232C71.1104 19.7538 71.4337 19.5034 71.6894 19.1909C71.9494 18.8649 72.1454 18.5389 72.3084 18.0819C72.4704 17.6579 72.5354 17.1689 72.5354 16.6799C72.5354 15.6039 72.2424 14.7559 71.6894 14.1369C71.4338 13.8242 71.1105 13.5736 70.744 13.404C70.3774 13.2344 69.9772 13.1503 69.5734 13.1579C69.1705 13.1571 68.7723 13.2442 68.4066 13.4133C68.041 13.5824 67.7166 13.8294 67.4564 14.1369C67.1964 14.4629 66.9684 14.7889 66.8064 15.2449C66.6593 15.7085 66.593 16.1939 66.6104 16.6799V16.6799ZM87.2204 13.4519C86.2434 13.4519 85.3314 13.6149 84.5174 13.9409C83.8003 14.1831 83.19 14.6676 82.7914 15.3109V23.3649H78.7214V9.96289H82.4664V12.6369C82.9224 11.7239 83.5084 11.0069 84.2564 10.5169C84.9734 9.99489 85.7224 9.73389 86.5364 9.70189H86.9594L87.2194 9.73389V13.4519H87.2204ZM89.0104 25.3539C89.5765 25.551 90.1692 25.6609 90.7684 25.6799C91.2574 25.6799 91.6484 25.5169 91.9414 25.1899C92.2014 24.8649 92.4294 24.2129 92.6574 23.3649L87.5774 9.96289H91.7774L94.8714 19.8429L97.5734 9.96289H101.383L96.2714 25.5169C95.8859 26.7903 95.0361 27.8725 93.8904 28.5489C92.7446 29.2253 91.3866 29.4466 90.0854 29.1689C89.7159 29.1009 89.3553 28.9916 89.0104 28.8429V25.3539V25.3539ZM111.02 23.5939C110.01 23.5939 109.1 23.3969 108.35 22.9409C107.589 22.5219 106.959 21.9011 106.527 21.1469V23.3649H102.978V4.71289H107.08V12.1479C107.517 11.3823 108.154 10.75 108.922 10.3191C109.691 9.88811 110.563 9.67474 111.443 9.70189C112.29 9.70189 113.071 9.86489 113.788 10.2559C114.504 10.5819 115.09 11.1039 115.643 11.7239C116.434 12.8223 116.952 14.0926 117.156 15.4302C117.36 16.7679 117.243 18.1349 116.816 19.4189C116.509 20.2329 116.057 20.9844 115.481 21.6369C114.916 22.2573 114.227 22.7521 113.459 23.0891C112.69 23.426 111.86 23.5977 111.02 23.5929V23.5939ZM109.88 20.1689C110.525 20.17 111.155 19.9694 111.68 19.5952C112.205 19.2209 112.601 18.6918 112.81 18.0819C113.045 17.4359 113.112 16.7407 113.004 16.0619C112.896 15.3831 112.616 14.743 112.192 14.2019C111.942 13.8709 111.616 13.6039 111.243 13.4224C110.869 13.241 110.458 13.1504 110.043 13.1579C109.425 13.1579 108.839 13.3869 108.285 13.8109C107.75 14.2747 107.327 14.8543 107.048 15.5059V18.3109C107.305 18.8543 107.711 19.314 108.218 19.637C108.724 19.9601 109.312 20.1334 109.913 20.1369L109.88 20.1689V20.1689ZM119.257 4.71289H123.327V18.5699C123.327 19.6139 123.751 20.1029 124.63 20.1029C125.094 20.1039 125.553 19.9929 125.965 19.7769L126.518 22.8099C125.378 23.3098 124.149 23.5758 122.904 23.5919C121.732 23.5919 120.82 23.2659 120.202 22.6789C119.55 22.0269 119.225 21.1789 119.225 20.0049V4.71289H119.257V4.71289ZM134.202 23.5929C133.166 23.6111 132.137 23.4228 131.174 23.0389C130.331 22.7087 129.567 22.2039 128.933 21.5576C128.299 20.9113 127.809 20.1381 127.494 19.2889C127.032 18.0305 126.915 16.6712 127.156 15.3524C127.396 14.0335 127.986 12.8031 128.862 11.7889C129.514 11.1326 130.289 10.6116 131.142 10.2559C132.02 9.89789 133.03 9.70189 134.169 9.70189C135.149 9.65583 136.128 9.82134 137.038 10.1872C137.948 10.553 138.769 11.1105 139.444 11.8219C140.095 12.4409 140.518 13.1909 140.844 14.0059C141.324 15.2615 141.451 16.6248 141.209 17.9472C140.968 19.2697 140.369 20.5006 139.476 21.5059C138.84 22.1796 138.061 22.7032 137.197 23.0389C136.235 23.4228 135.205 23.6111 134.169 23.5929H134.202V23.5929ZM131.239 16.6799C131.239 17.7239 131.499 18.5709 132.053 19.1909C132.639 19.8429 133.355 20.1689 134.202 20.1689C134.606 20.1743 135.005 20.0893 135.371 19.92C135.738 19.7508 136.061 19.5016 136.318 19.1909C136.578 18.8649 136.774 18.5389 136.937 18.0819C137.1 17.6579 137.165 17.1689 137.165 16.6799C137.165 15.6039 136.872 14.7559 136.318 14.1369C136.063 13.8242 135.74 13.5736 135.373 13.404C135.006 13.2344 134.606 13.1503 134.202 13.1579C133.8 13.1572 133.402 13.2445 133.036 13.4135C132.671 13.5826 132.347 13.8295 132.086 14.1369C131.826 14.4629 131.597 14.7889 131.434 15.2449C131.272 15.7019 131.239 16.1579 131.239 16.6799V16.6799ZM152.369 23.3649L148.886 17.9519L147.453 19.4519V23.3649H143.383V4.71289H147.453V15.5059L151.979 9.96289H156.309L151.491 15.7339L156.701 23.3639H152.37L152.369 23.3649Z" fill="#141A2F"/>
<path d="M16.6794 15.7129H10.2144V18.7549H16.5244C16.8974 18.7549 17.2394 18.6029 17.5194 18.3599C17.7674 18.1159 17.9234 17.7509 17.9234 17.2949C17.932 16.9024 17.8119 16.5178 17.5814 16.1999C17.3324 15.8949 17.0524 15.7129 16.6794 15.7129V15.7129ZM16.8974 12.0309C17.1774 11.8489 17.3014 11.4529 17.3014 10.9359C17.3014 10.4799 17.1774 10.1449 16.9594 9.93193C16.7343 9.73846 16.4481 9.63078 16.1514 9.62793H10.2134V12.3659H16.0274C16.3374 12.3659 16.6484 12.2139 16.8974 12.0309V12.0309Z" fill="#0AB3AF"/>
<path d="M27.1784 0.5H1.85337C1.04637 0.5 0.401367 1.143 0.401367 1.915V27.195C0.401367 27.968 1.04637 28.45 1.82137 28.45H5.56337V33.5L10.2094 28.482H27.1794C27.9534 28.482 28.4374 28 28.4374 27.196V1.947C28.4374 1.175 27.9534 0.532 27.1474 0.532L27.1774 0.5H27.1784ZM22.9214 20.988C22.589 21.5718 22.1111 22.0596 21.5344 22.404C20.9214 22.789 20.2444 23.144 19.4694 23.304C18.6954 23.497 17.8564 23.658 16.9854 23.658H5.56337V5.646H18.5334C19.1784 5.646 19.7264 5.775 20.2434 6.064C20.7264 6.322 21.1784 6.675 21.5334 7.094C22.2559 7.97186 22.6445 9.0771 22.6304 10.214C22.6304 11.05 22.4044 11.854 21.9844 12.626C21.5491 13.403 20.8687 14.0138 20.0494 14.363C21.0814 14.652 21.8884 15.167 22.5004 15.906C23.0814 16.678 23.3724 17.676 23.3724 18.93C23.3724 19.734 23.2104 20.41 22.8884 20.988H22.9204H22.9214Z" fill="#0AB3AF"/>
</g>
<defs>
<clipPath id="clip0">
<rect width="158" height="33" fill="white" transform="translate(0.401367 0.5)"/>
</clipPath>
</defs>
</svg>
