<svg width="85" height="32" viewBox="0 0 85 32" fill="none" xmlns="http://www.w3.org/2000/svg">
<path d="M16.5894 22.9952C16.5894 24.2585 16.2361 25.4307 15.5294 26.512C15.968 26.9616 16.6016 27.1864 17.43 27.1864V31.2973C14.9203 31.2973 13.2024 30.6014 12.2765 29.2097C11.1678 29.745 9.95556 30.0126 8.63976 30.0126C6.4224 30.0126 4.54008 29.3275 2.9928 27.9572C1.44552 26.5869 0.671875 24.9329 0.671875 22.9952V7.0174C0.671875 5.06901 1.45161 3.41503 3.01107 2.05544C4.57053 0.685146 6.44676 0 8.63976 0C10.8571 0 12.7333 0.690499 14.2684 2.0715C15.8157 3.4525 16.5894 5.10113 16.5894 7.0174V22.9952ZM11.381 6.92105C11.381 6.21449 11.0947 5.62034 10.5221 5.1386C9.96165 4.64615 9.27938 4.39993 8.47528 4.39993C7.68337 4.39993 7.0072 4.64615 6.44676 5.1386C5.88633 5.62034 5.60611 6.21449 5.60611 6.92105V22.9631C5.60611 23.659 5.88633 24.2531 6.44676 24.7456C7.0072 25.238 7.68337 25.4842 8.47528 25.4842C9.27938 25.4842 9.96165 25.238 10.5221 24.7456C11.0947 24.2531 11.381 23.659 11.381 22.9631V6.92105Z" fill="#FF1053"/>
<path d="M27.5948 30.0126C25.3896 30.0126 23.5134 29.3382 21.9661 27.9893C20.431 26.6297 19.6635 24.9864 19.6635 23.0595V0.353278H24.5795V23.0113C24.5795 23.7071 24.8597 24.3013 25.4201 24.7937C25.9927 25.2862 26.675 25.5324 27.4669 25.5324C28.271 25.5324 28.9472 25.2862 29.4954 24.7937C30.0558 24.3013 30.3361 23.7071 30.3361 23.0113V0.353278H35.581V23.0595C35.581 25.0186 34.8012 26.6672 33.2418 28.0054C31.6823 29.3436 29.8 30.0126 27.5948 30.0126Z" fill="#FF1053"/>
<path d="M38.8013 29.6433V0.353278H53.0923V4.76926H43.8086V12.7823H50.5886V17.2143H43.8086V25.2273H53.0923V29.6433H38.8013Z" fill="#FF1053"/>
<path d="M68.9955 29.6433H55.3075V0.353278H60.3149V25.2594H68.9955V29.6433Z" fill="#FF1053"/>
<path d="M84.8803 29.6433H71.1924V0.353278H76.1997V25.2594H84.8803V29.6433Z" fill="#FF1053"/>
</svg>
