<svg width="86" height="35" viewBox="0 0 86 35" fill="none" xmlns="http://www.w3.org/2000/svg">
<path d="M86 0H0V35H86V0Z" fill="#005EB8"/>
<path d="M8.40592 3.37744H17.7604L23.495 22.9162H23.582L27.5152 3.37744H34.5812L28.6378 31.5524H19.3268L13.4617 12.0574H13.3834L9.49365 31.5524H2.42773L8.40592 3.37744Z" fill="white"/>
<path d="M37.3402 3.37744H44.8499L42.6396 14.1574H51.5156L53.7258 3.37744H61.2356L55.414 31.5524H47.8608L50.3495 19.4862H41.5171L39.0284 31.5524H31.5273L37.3402 3.37744Z" fill="white"/>
<path d="M80.9792 9.75626C79.0543 8.86523 76.9543 8.42257 74.8356 8.46126C71.8683 8.46126 69.4579 8.90751 69.4579 11.165C69.4579 15.1638 80.3352 13.6675 80.3352 22.225C80.3352 30.0125 73.1475 32.0338 66.6472 32.0338C63.6929 31.9647 60.7633 31.4757 57.9453 30.5813L59.6857 24.85C61.1737 25.8213 64.141 26.4688 66.5863 26.4688C69.0315 26.4688 72.5645 26.0225 72.5645 23.1175C72.5645 18.5938 61.6871 20.2913 61.6871 12.3375C61.6871 5.07501 68.0308 2.88751 74.1743 2.88751C77.6551 2.88751 80.8747 3.25501 82.7631 4.13876L80.9792 9.75626Z" fill="white"/>
</svg>
