<svg width="85" height="32" viewBox="0 0 85 32" fill="none" xmlns="http://www.w3.org/2000/svg">
<path d="M48.1265 7.52203C46.7986 7.52203 45.6849 8.56099 45.6849 9.89086V28.7168C45.642 30.0052 46.6701 31.1272 47.998 31.1688C49.3259 31.2103 50.4824 30.2129 50.5253 28.9246C50.5253 28.8415 50.5253 28.8 50.5253 28.7168V9.89086C50.5681 8.56099 49.4972 7.52203 48.1265 7.52203Z" fill="#25BAA2"/>
<path d="M71.515 31.0857C64.7898 31.0857 59.3926 25.8077 59.3926 19.2831C59.3926 12.7584 64.8327 7.52203 71.5578 7.52203C78.2829 7.52203 83.6802 12.8 83.6802 19.3246C83.6374 25.8077 78.1973 31.0857 71.515 31.0857ZM71.515 12.2181C67.4885 12.2181 64.233 15.3766 64.233 19.2831C64.233 23.1896 67.4885 26.348 71.515 26.348C75.5415 26.348 78.797 23.1896 78.797 19.2831C78.797 15.3766 75.5415 12.2181 71.515 12.2181Z" fill="#25BAA2"/>
<path d="M55.4084 0.457092C54.0805 0.457092 52.9668 1.49605 52.9668 2.82592V28.7584C52.9668 30.0467 54.0377 31.1272 55.4084 31.1272C56.7363 31.1272 57.85 30.0883 57.85 28.7584V2.82592C57.85 1.49605 56.7791 0.457092 55.4084 0.457092Z" fill="#25BAA2"/>
<path d="M27.7806 26.348H26.5812C22.5547 26.348 19.2992 23.1896 19.2992 19.2831V12.2181H27.7806C29.1085 12.2181 30.2222 11.1792 30.2222 9.8493C30.2222 8.51943 29.1514 7.48047 27.7806 7.48047H19.2992V2.82592C19.2992 1.53761 18.2284 0.457092 16.8576 0.457092C15.5297 0.457092 14.416 1.49605 14.416 2.82592V19.3246C14.416 25.8077 19.8561 31.0857 26.5812 31.0857H27.7806C29.1085 31.0857 30.2222 30.0467 30.2222 28.7168C30.2222 27.387 29.1514 26.348 27.7806 26.348Z" fill="#25BAA2"/>
<path d="M44.4853 9.974C44.4853 8.68568 43.4145 7.60516 42.0437 7.60516C41.8724 7.60516 41.6582 7.64672 41.4869 7.68828C41.4012 7.68828 41.3155 7.72984 41.187 7.7714C41.0585 7.81296 40.9728 7.81296 40.8872 7.85451C39.902 8.06231 38.9168 8.39477 38.0172 8.85192C37.9315 8.89348 37.8459 8.93503 37.7174 8.97659C37.4604 9.10127 37.2462 9.2675 36.9892 9.39218C36.8607 9.47529 36.7322 9.55841 36.6037 9.64153C36.3895 9.7662 36.1753 9.93244 36.004 10.0571C35.8755 10.1818 35.7041 10.2649 35.5756 10.3896C35.4471 10.5143 35.2329 10.6805 35.1044 10.8052C34.9759 10.9298 34.7617 11.1792 34.5904 11.3454C34.5047 11.4701 34.3762 11.5532 34.2905 11.6779C34.0335 11.9688 33.7765 12.3013 33.5623 12.6337C33.5195 12.7169 33.4767 12.8 33.4338 12.8415C33.2625 13.0909 33.0912 13.3818 32.9198 13.6727C32.9198 13.7143 32.877 13.7558 32.8341 13.7974C31.9346 15.5013 31.4206 17.3714 31.4634 19.2831V28.7169C31.4634 30.0052 32.5343 31.0857 33.905 31.0857C35.2329 31.0857 36.3466 30.0467 36.3466 28.7169V19.2831C36.3466 17.9532 36.7322 16.6233 37.5032 15.5013C37.5889 15.335 37.7174 15.2104 37.8459 15.0441L37.9744 14.8779C38.06 14.7532 38.1457 14.6701 38.2742 14.5454L38.4884 14.2961C38.5312 14.213 38.6169 14.1714 38.6597 14.1298C39.6878 13.174 40.9728 12.5091 42.3864 12.2597C43.5858 12.1766 44.4853 11.1792 44.4853 9.974Z" fill="#25BAA2"/>
<path opacity="0.33" d="M5.33444 8.68566C7.67651 8.68566 9.57514 6.84364 9.57514 4.57138C9.57514 2.29912 7.67651 0.457092 5.33444 0.457092C2.99237 0.457092 1.09375 2.29912 1.09375 4.57138C1.09375 6.84364 2.99237 8.68566 5.33444 8.68566Z" fill="#25BAA2"/>
<path opacity="0.66" d="M5.33444 19.8649C7.67651 19.8649 9.57514 18.0229 9.57514 15.7506C9.57514 13.4784 7.67651 11.6364 5.33444 11.6364C2.99237 11.6364 1.09375 13.4784 1.09375 15.7506C1.09375 18.0229 2.99237 19.8649 5.33444 19.8649Z" fill="#25BAA2"/>
<path d="M5.33444 31.0857C7.67651 31.0857 9.57514 29.2437 9.57514 26.9714C9.57514 24.6992 7.67651 22.8571 5.33444 22.8571C2.99237 22.8571 1.09375 24.6992 1.09375 26.9714C1.09375 29.2437 2.99237 31.0857 5.33444 31.0857Z" fill="#25BAA2"/>
</svg>
