<svg width="125" height="32" viewBox="0 0 125 32" fill="none" xmlns="http://www.w3.org/2000/svg">
<g clip-path="url(#clip0)">
<path d="M16.7187 6.10352e-05C16.1603 6.10352e-05 15.6143 0.165667 15.15 0.475937C14.6857 0.78621 14.3237 1.2272 14.11 1.74316C13.8963 2.25912 13.8403 2.82687 13.9493 3.37462C14.0583 3.92235 14.3272 4.42548 14.7221 4.82038C15.117 5.21528 15.6201 5.48421 16.1679 5.59316C16.7156 5.70212 17.2834 5.6462 17.7993 5.43248C18.3153 5.21876 18.7563 4.85684 19.0666 4.3925C19.3768 3.92814 19.5424 3.38221 19.5424 2.82374C19.5424 2.07486 19.2449 1.35664 18.7154 0.827095C18.1858 0.297555 17.4677 6.10352e-05 16.7187 6.10352e-05ZM16.7187 4.17286C16.4519 4.17286 16.1911 4.09374 15.9692 3.9455C15.7474 3.79725 15.5745 3.58655 15.4723 3.34003C15.3702 3.09351 15.3435 2.82224 15.3955 2.56054C15.4476 2.29884 15.5761 2.05845 15.7648 1.86977C15.9534 1.68109 16.1938 1.5526 16.4555 1.50054C16.7173 1.44849 16.9885 1.4752 17.235 1.57732C17.4815 1.67943 17.6922 1.85235 17.8405 2.07421C17.9887 2.29607 18.0679 2.55691 18.0679 2.82374C18.0679 3.18155 17.9257 3.5247 17.6727 3.77771C17.4197 4.03072 17.0766 4.17286 16.7187 4.17286ZM16.7187 26.3527C16.1603 26.3527 15.6143 26.5183 15.15 26.8286C14.6857 27.1389 14.3237 27.5798 14.11 28.0958C13.8963 28.6118 13.8403 29.1795 13.9493 29.7273C14.0583 30.275 14.3272 30.7781 14.7221 31.173C15.117 31.5679 15.6201 31.8369 16.1679 31.9458C16.7156 32.0547 17.2834 31.9989 17.7993 31.7851C18.3153 31.5714 18.7563 31.2095 19.0666 30.7451C19.3768 30.2808 19.5424 29.7349 19.5424 29.1764C19.5424 28.4275 19.2449 27.7093 18.7154 27.1797C18.1858 26.6502 17.4677 26.3527 16.7187 26.3527ZM16.7187 30.5255C16.4519 30.5255 16.1911 30.4464 15.9692 30.2981C15.7474 30.1499 15.5745 29.9392 15.4723 29.6927C15.3702 29.4461 15.3435 29.1749 15.3955 28.9132C15.4476 28.6515 15.5761 28.4111 15.7648 28.2224C15.9534 28.0337 16.1938 27.9053 16.4555 27.8532C16.7173 27.8011 16.9885 27.8278 17.235 27.9299C17.4815 28.0321 17.6922 28.205 17.8405 28.4269C17.9887 28.6487 18.0679 28.9095 18.0679 29.1764C18.0679 29.5342 17.9257 29.8773 17.6727 30.1303C17.4197 30.3834 17.0766 30.5255 16.7187 30.5255ZM29.8951 13.1764C29.3366 13.1764 28.7907 13.342 28.3263 13.6522C27.8619 13.9625 27.5001 14.4035 27.2863 14.9195C27.0726 15.4354 27.0167 16.0032 27.1257 16.5509C27.2346 17.0987 27.5035 17.6018 27.8984 17.9967C28.2933 18.3916 28.7965 18.6605 29.3442 18.7695C29.8919 18.8785 30.4597 18.8225 30.9757 18.6088C31.4916 18.3951 31.9326 18.0331 32.2429 17.5688C32.5531 17.1045 32.7187 16.5585 32.7187 16.0001C32.7187 15.6293 32.6457 15.2621 32.5038 14.9195C32.3619 14.5769 32.1539 14.2656 31.8917 14.0034C31.6295 13.7412 31.3182 13.5332 30.9757 13.3913C30.633 13.2494 30.2659 13.1764 29.8951 13.1764ZM29.8951 17.3492C29.6282 17.3492 29.3674 17.2701 29.1455 17.1218C28.9237 16.9735 28.7507 16.7629 28.6486 16.5163C28.5465 16.2698 28.5198 15.9986 28.5719 15.7369C28.6239 15.4751 28.7524 15.2347 28.9411 15.0461C29.1298 14.8574 29.3702 14.7289 29.6319 14.6769C29.8935 14.6248 30.1649 14.6515 30.4114 14.7537C30.6579 14.8558 30.8686 15.0287 31.0168 15.2505C31.1651 15.4724 31.2442 15.7332 31.2442 16.0001C31.2442 16.3579 31.1021 16.701 30.849 16.9541C30.596 17.207 30.2529 17.3492 29.8951 17.3492ZM6.36611 16.0001C6.36611 15.4416 6.2005 14.8957 5.89024 14.4313C5.57997 13.967 5.13897 13.605 4.62301 13.3913C4.10705 13.1776 3.5393 13.1217 2.99156 13.2306C2.44382 13.3396 1.94069 13.6085 1.54579 14.0034C1.15089 14.3983 0.88196 14.9014 0.773007 15.4492C0.664055 15.9969 0.719973 16.5647 0.933691 17.0806C1.14741 17.5966 1.50933 18.0376 1.97368 18.3479C2.43803 18.6581 2.98396 18.8237 3.54243 18.8237C4.29132 18.8237 5.00953 18.5262 5.53908 17.9967C6.06862 17.4671 6.36611 16.749 6.36611 16.0001ZM3.54243 17.3492C3.2756 17.3492 3.01476 17.2701 2.7929 17.1218C2.57104 16.9735 2.39812 16.7629 2.29601 16.5163C2.19389 16.2698 2.16718 15.9986 2.21924 15.7369C2.27129 15.4751 2.39978 15.2347 2.58846 15.0461C2.77714 14.8574 3.01753 14.7289 3.27923 14.6769C3.54093 14.6248 3.8122 14.6515 4.05872 14.7537C4.30524 14.8558 4.51594 15.0287 4.66418 15.2505C4.81242 15.4724 4.89155 15.7332 4.89155 16.0001C4.89155 16.3579 4.74941 16.701 4.4964 16.9541C4.2434 17.207 3.90024 17.3492 3.54243 17.3492ZM9.39972 8.67972C9.79458 8.2848 10.0634 7.78172 10.1723 7.23395C10.2813 6.68623 10.2253 6.11852 10.0116 5.60258C9.79789 5.08664 9.43595 4.64567 8.97161 4.33542C8.50726 4.02517 7.96138 3.85958 7.40292 3.85958C6.84446 3.85958 6.29854 4.02517 5.83421 4.33542C5.36986 4.64567 5.00794 5.08664 4.79421 5.60258C4.58048 6.11852 4.52454 6.68623 4.63345 7.23395C4.74237 7.78172 5.01126 8.2848 5.40611 8.67972C5.93584 9.20909 6.65406 9.5064 7.40292 9.5064C8.15178 9.5064 8.87001 9.20909 9.39972 8.67972ZM6.45572 5.72932C6.64435 5.54056 6.88475 5.41196 7.14646 5.35982C7.40818 5.30768 7.67949 5.33434 7.92612 5.43642C8.17269 5.5385 8.38344 5.71141 8.53172 5.93332C8.68001 6.1552 8.75915 6.41606 8.75915 6.68292C8.75915 6.94983 8.68001 7.21069 8.53172 7.43257C8.38344 7.65446 8.17269 7.82737 7.92612 7.92949C7.67949 8.03155 7.40818 8.05817 7.14646 8.00606C6.88475 7.95395 6.64435 7.82532 6.45572 7.63652C6.32997 7.51177 6.23006 7.36349 6.16168 7.20006C6.0933 7.03669 6.0578 6.86137 6.0572 6.68429C6.05661 6.50715 6.09093 6.3316 6.15821 6.16777C6.22549 6.00395 6.32441 5.85492 6.44932 5.72932H6.45572ZM24.0391 23.3204C23.6442 23.7153 23.3753 24.2184 23.2664 24.7662C23.1575 25.3139 23.2134 25.8816 23.4271 26.3975C23.6409 26.9135 24.0028 27.3545 24.4671 27.6647C24.9315 27.975 25.4774 28.1405 26.0359 28.1405C26.5943 28.1405 27.1402 27.975 27.6046 27.6647C28.0689 27.3545 28.4309 26.9135 28.6446 26.3975C28.8583 25.8816 28.9142 25.3139 28.8053 24.7662C28.6964 24.2184 28.4275 23.7153 28.0327 23.3204C27.5029 22.791 26.7847 22.4937 26.0359 22.4937C25.287 22.4937 24.5688 22.791 24.0391 23.3204ZM26.9895 26.2708C26.8009 26.4595 26.5605 26.5882 26.2987 26.6403C26.037 26.6925 25.7657 26.6658 25.5191 26.5637C25.2725 26.4616 25.0617 26.2887 24.9134 26.0668C24.7651 25.8449 24.686 25.5841 24.686 25.3172C24.686 25.0503 24.7651 24.7894 24.9134 24.5675C25.0617 24.3457 25.2725 24.1727 25.5191 24.0706C25.7657 23.9686 26.037 23.9419 26.2987 23.9941C26.5605 24.0462 26.8009 24.1748 26.9895 24.3636C27.1148 24.4887 27.2142 24.6374 27.282 24.801C27.3499 24.9646 27.3848 25.1401 27.3848 25.3172C27.3848 25.4943 27.3499 25.6697 27.282 25.8333C27.2142 25.997 27.1148 26.1456 26.9895 26.2708ZM28.0327 8.67972C28.4275 8.2848 28.6964 7.78172 28.8053 7.23395C28.9142 6.68623 28.8583 6.11852 28.6446 5.60258C28.4309 5.08664 28.0689 4.64567 27.6046 4.33542C27.1402 4.02517 26.5943 3.85958 26.0359 3.85958C25.4774 3.85958 24.9315 4.02517 24.4671 4.33542C24.0028 4.64567 23.6409 5.08664 23.4271 5.60258C23.2134 6.11852 23.1575 6.68623 23.2664 7.23395C23.3753 7.78172 23.6442 8.2848 24.0391 8.67972C24.5688 9.20909 25.287 9.5064 26.0359 9.5064C26.7847 9.5064 27.5029 9.20909 28.0327 8.67972ZM25.0887 5.72932C25.2773 5.54056 25.5177 5.41196 25.7794 5.35982C26.0411 5.30768 26.3125 5.33434 26.559 5.43642C26.8057 5.5385 27.0164 5.71141 27.1647 5.93332C27.313 6.1552 27.3921 6.41606 27.3921 6.68292C27.3921 6.94983 27.313 7.21069 27.1647 7.43257C27.0164 7.65446 26.8057 7.82737 26.559 7.92949C26.3125 8.03155 26.0411 8.05817 25.7794 8.00606C25.5177 7.95395 25.2773 7.82532 25.0887 7.63652C24.9629 7.51177 24.863 7.36349 24.7946 7.20006C24.7262 7.03669 24.6907 6.86137 24.6902 6.68429C24.6895 6.50715 24.7239 6.3316 24.7911 6.16777C24.8585 6.00395 24.9574 5.85492 25.0823 5.72932H25.0887ZM5.40611 23.3204C5.01126 23.7153 4.74237 24.2184 4.63345 24.7662C4.52454 25.3139 4.58048 25.8816 4.79421 26.3975C5.00794 26.9135 5.36986 27.3545 5.83421 27.6647C6.29854 27.975 6.84446 28.1405 7.40292 28.1405C7.96138 28.1405 8.50726 27.975 8.97161 27.6647C9.43595 27.3545 9.79789 26.9135 10.0116 26.3975C10.2253 25.8816 10.2813 25.3139 10.1723 24.7662C10.0634 24.2184 9.79458 23.7153 9.39972 23.3204C8.87001 22.791 8.15178 22.4937 7.40292 22.4937C6.65406 22.4937 5.93584 22.791 5.40611 23.3204ZM8.35652 26.2708C8.16789 26.4595 7.92749 26.5882 7.66578 26.6403C7.40401 26.6925 7.13269 26.6658 6.88612 26.5637C6.63955 26.4616 6.42878 26.2887 6.28049 26.0668C6.1322 25.8449 6.05305 25.5841 6.05305 25.3172C6.05305 25.0503 6.1322 24.7894 6.28049 24.5675C6.42878 24.3457 6.63955 24.1727 6.88612 24.0706C7.13269 23.9686 7.40401 23.9419 7.66578 23.9941C7.92749 24.0462 8.16789 24.1748 8.35652 24.3636C8.48184 24.4887 8.58126 24.6374 8.64909 24.801C8.71692 24.9646 8.75184 25.1401 8.75184 25.3172C8.75184 25.4943 8.71692 25.6697 8.64909 25.8333C8.58126 25.997 8.48184 26.1456 8.35652 26.2708ZM16.7187 13.1764C16.1603 13.1764 15.6143 13.342 15.15 13.6522C14.6857 13.9625 14.3237 14.4035 14.11 14.9195C13.8963 15.4354 13.8403 16.0032 13.9493 16.5509C14.0583 17.0987 14.3272 17.6018 14.7221 17.9967C15.117 18.3916 15.6201 18.6605 16.1679 18.7695C16.7156 18.8785 17.2834 18.8225 17.7993 18.6088C18.3153 18.3951 18.7563 18.0331 19.0666 17.5688C19.3768 17.1045 19.5424 16.5585 19.5424 16.0001C19.5424 15.2511 19.2449 14.533 18.7154 14.0034C18.1858 13.4739 17.4677 13.1764 16.7187 13.1764ZM17.6595 10.3527V8.47109C17.6595 8.2216 17.5604 7.98229 17.384 7.80583C17.2075 7.62943 16.9683 7.53029 16.7187 7.53029C16.4692 7.53029 16.2299 7.62943 16.0535 7.80583C15.8771 7.98229 15.7779 8.2216 15.7779 8.47109V10.3527C15.7779 10.6022 15.8771 10.8415 16.0535 11.0179C16.2299 11.1944 16.4692 11.2935 16.7187 11.2935C16.9683 11.2935 17.2075 11.1944 17.384 11.0179C17.5604 10.8415 17.6595 10.6022 17.6595 10.3527ZM22.3661 15.0593C22.1166 15.0593 21.8773 15.1584 21.7009 15.3348C21.5244 15.5113 21.4253 15.7505 21.4253 16.0001C21.4253 16.2496 21.5244 16.4889 21.7009 16.6653C21.8773 16.8417 22.1166 16.9409 22.3661 16.9409H24.2477C24.4972 16.9409 24.7365 16.8417 24.913 16.6653C25.0894 16.4889 25.1885 16.2496 25.1885 16.0001C25.1885 15.7505 25.0894 15.5113 24.913 15.3348C24.7365 15.1584 24.4972 15.0593 24.2477 15.0593H22.3661ZM17.6595 23.529V21.6474C17.6595 21.3979 17.5604 21.1586 17.384 20.9822C17.2075 20.8057 16.9683 20.7066 16.7187 20.7066C16.4692 20.7066 16.2299 20.8057 16.0535 20.9822C15.8771 21.1586 15.7779 21.3979 15.7779 21.6474V23.529C15.7779 23.7785 15.8771 24.0178 16.0535 24.1943C16.2299 24.3707 16.4692 24.4698 16.7187 24.4698C16.9683 24.4698 17.2075 24.3707 17.384 24.1943C17.5604 24.0178 17.6595 23.7785 17.6595 23.529ZM8.24772 16.0001C8.24806 16.2497 8.34744 16.489 8.52406 16.6654C8.70075 16.8418 8.94018 16.9409 9.18978 16.9409H11.0714C11.3209 16.9409 11.5602 16.8417 11.7366 16.6653C11.9131 16.4889 12.0122 16.2496 12.0122 16.0001C12.0122 15.7505 11.9131 15.5113 11.7366 15.3348C11.5602 15.1584 11.3209 15.0593 11.0714 15.0593H9.18978C8.94018 15.0593 8.70075 15.1583 8.52406 15.3347C8.34744 15.5111 8.24806 15.7504 8.24772 16.0001ZM21.3767 12.6721L22.7079 11.3409C22.8842 11.1643 22.9833 10.925 22.9831 10.6754C22.983 10.4259 22.8838 10.1866 22.7072 10.0103C22.5307 9.83395 22.2913 9.73492 22.0418 9.73503C21.7923 9.73515 21.553 9.8344 21.3767 10.0109L20.0467 11.3409C19.8702 11.5172 19.771 11.7565 19.7709 12.006C19.7707 12.2555 19.8698 12.4949 20.0461 12.6714C20.2225 12.8479 20.4617 12.9472 20.7113 12.9473C20.9608 12.9474 21.2001 12.8484 21.3767 12.6721ZM21.3767 19.3281C21.2893 19.2407 21.1855 19.1715 21.0713 19.1242C20.9571 19.077 20.8348 19.0527 20.7113 19.0528C20.5877 19.0529 20.4654 19.0773 20.3513 19.1246C20.2371 19.1719 20.1334 19.2413 20.0461 19.3287C19.9588 19.4161 19.8895 19.5198 19.8423 19.634C19.7951 19.7482 19.7708 19.8706 19.7709 19.9941C19.7709 20.1177 19.7953 20.24 19.8426 20.3541C19.89 20.4682 19.9593 20.5719 20.0467 20.6593L21.3767 21.9892C21.553 22.1657 21.7923 22.265 22.0418 22.2651C22.2913 22.2652 22.5307 22.1662 22.7072 21.9898C22.8838 21.8135 22.983 21.5742 22.9831 21.3247C22.9833 21.0751 22.8842 20.8358 22.7079 20.6593L21.3767 19.3281ZM12.0595 19.3281L10.7296 20.6593C10.5617 20.8373 10.4698 21.0738 10.4734 21.3185C10.477 21.5632 10.5758 21.7969 10.7489 21.9699C10.9219 22.143 11.1556 22.2418 11.4003 22.2454C11.645 22.249 11.8815 22.1571 12.0595 21.9892L13.3907 20.6593C13.5673 20.4827 13.6665 20.2433 13.6665 19.9937C13.6665 19.744 13.5673 19.5046 13.3907 19.3281C13.2142 19.1515 12.9748 19.0523 12.7251 19.0523C12.4755 19.0523 12.2361 19.1515 12.0595 19.3281ZM12.0595 10.0097C11.883 9.83315 11.6436 9.73395 11.3939 9.73395C11.1443 9.73395 10.9049 9.83315 10.7283 10.0097C10.5518 10.1862 10.4526 10.4256 10.4526 10.6753C10.4526 10.9249 10.5518 11.1643 10.7283 11.3409L12.0608 12.6721C12.1482 12.7594 12.252 12.8286 12.3662 12.8759C12.4803 12.9231 12.6027 12.9474 12.7262 12.9473C12.8498 12.9473 12.9721 12.9229 13.0862 12.8755C13.2004 12.8282 13.3041 12.7588 13.3914 12.6714C13.4787 12.584 13.5479 12.4803 13.5952 12.3661C13.6424 12.2519 13.6667 12.1295 13.6666 12.006C13.6666 11.8825 13.6422 11.7601 13.5949 11.646C13.5475 11.5319 13.4782 11.4282 13.3907 11.3409L12.0595 10.0097Z" fill="#1A191E"/>
<path d="M50.8591 12.384V11.1657H42.8809V21.7143H44.3369V16.9303H50.6066V15.712H44.3369V12.384H50.8591ZM60.538 21.7143H62.2466L59.3643 17.1829C61.2363 16.7966 61.8751 15.4446 61.8751 14.2709C61.8751 12.7703 61.0877 11.1657 58.2649 11.1657H53.1242V21.7143H54.5802V17.376H57.7596L60.538 21.7143ZM54.5802 12.384H58.0717C59.7951 12.384 60.3449 13.2606 60.3449 14.256C60.3449 15.2514 59.7951 16.1726 58.0569 16.1726H54.5802V12.384ZM68.9329 22.0114C72.3649 22.0114 74.6529 19.8423 74.6529 16.44C74.6529 13.0229 72.3649 10.8686 68.9329 10.8686C65.5157 10.8686 63.2277 13.0229 63.2277 16.44C63.2277 19.8126 65.5157 22.0114 68.9329 22.0114ZM68.9329 20.7932C66.3774 20.7932 64.758 19.0697 64.758 16.44C64.758 13.7806 66.3774 12.0869 68.9329 12.0869C71.4883 12.0869 73.1077 13.7806 73.1077 16.44C73.1077 19.0846 71.4883 20.7932 68.9329 20.7932ZM76.8026 21.7143H78.1249V13.9589C78.1249 13.424 78.11 13.0377 78.0951 12.6663H78.1249C78.2734 13.0526 78.4963 13.3943 78.7934 13.84L84.7214 21.7143H86.4003V11.1657H85.078V18.8023C85.078 19.3669 85.0929 19.7532 85.1077 20.1543H85.078C84.9294 19.7532 84.7066 19.3966 84.3946 18.9509L78.5706 11.1657H76.8026V21.7143ZM97.6523 11.1657H88.1437V12.3989H92.17V21.7143H93.626V12.3989H97.6523V11.1657ZM100.849 21.7143V11.1657H99.3929V21.7143H100.849ZM105.477 20.496V16.9154H111.747V15.6972H105.477V12.384H112V11.1657H104.021V21.7143H112.104V20.496H105.477ZM122.172 21.7143H123.88L120.998 17.1829C122.87 16.7966 123.509 15.4446 123.509 14.2709C123.509 12.7703 122.721 11.1657 119.899 11.1657H114.758V21.7143H116.214V17.376H119.393L122.172 21.7143ZM116.214 12.384H119.705C121.429 12.384 121.979 13.2606 121.979 14.256C121.979 15.2514 121.429 16.1726 119.691 16.1726H116.214V12.384Z" fill="#1A191E"/>
</g>
<defs>
<clipPath id="clip0">
<rect width="124" height="32" fill="white" transform="translate(0.71875)"/>
</clipPath>
</defs>
</svg>
