<svg width="231" height="24" viewBox="0 0 231 24" fill="none" xmlns="http://www.w3.org/2000/svg">
<path fill-rule="evenodd" clip-rule="evenodd" d="M13.3056 4.56941C12.7934 4.56941 12.368 4.5134 11.8846 4.45731V12.7272C11.8846 12.9227 11.8557 12.9787 11.742 13.0633L6.96869 16.0626C7.67939 16.3991 8.53131 16.6231 9.41221 16.6231C12.4247 16.6231 15.8336 14.9972 17.4251 10.933C17.5109 10.7088 17.709 10.6517 17.709 11.0452V11.3253C17.709 15.7816 14.271 19.7907 9.18515 19.7907C3.64464 19.7907 0.320312 15.6694 0.320312 11.3813C0.320312 8.15775 2.10999 5.15837 6.17363 3.89685C6.3441 3.84112 6.37207 3.92444 6.25836 4.00903C4.46868 5.38238 3.50204 7.62487 3.50204 9.86728C3.50204 12.2504 4.46868 14.6046 6.62801 15.8662L7.8207 14.9697C8.21952 14.6607 8.30398 14.3807 8.30398 13.9324V3.72893C6.99795 3.25215 5.83286 2.97169 4.75259 2.97169C3.27471 2.97169 1.93942 3.61675 0.633388 5.1856C0.490788 5.35388 0.405044 5.35388 0.405044 5.1856C0.576624 2.01813 3.44528 0.223914 6.28725 0.223914C9.55481 0.223914 12.5661 1.79413 15.8625 1.79413C17.0272 1.79413 18.2203 1.54262 19.2145 1.00965C19.357 0.953563 19.385 1.06575 19.3281 1.17757C18.306 3.70043 15.8057 4.56941 13.3056 4.56941ZM53.4587 0H53.6581C55.8453 1.03688 57.4122 1.54262 59.7421 1.54262C60.6797 1.54262 61.6175 1.45794 62.3847 1.20643C62.584 1.14907 62.612 1.31825 62.4983 1.40194L59.0038 4.42972C58.8332 4.598 58.6906 4.68132 58.4636 4.68132C56.5038 4.68132 54.2827 4.09262 51.3851 2.43882C51.2715 2.38309 51.2146 2.38309 51.1289 2.43882C49.2258 3.47607 49.4239 6.33503 52.1234 6.868L57.5792 7.96097C61.3579 8.71785 62.4658 10.933 62.4658 12.8951C62.4658 15.3057 60.1639 17.6603 57.5792 19.5939C57.4658 19.6785 57.38 19.7061 57.2664 19.6224C55.4198 18.3887 53.0332 17.2954 50.7881 17.2954C49.0832 17.2954 47.4349 17.8558 46.1853 19.3984C46.1285 19.4817 46.0427 19.4817 46.072 19.3699C46.7255 15.8386 49.3392 14.3521 52.266 14.3521C54.6526 14.3521 57.2095 15.2212 59.0849 16.6507C59.1694 16.7067 59.2262 16.7067 59.2844 16.6231C59.909 15.9508 60.1084 15.2772 60.1084 14.7168C60.1084 13.1194 58.9423 12.1382 56.215 11.6053L51.4695 10.6517C48.7133 10.0913 47.72 7.90488 47.72 6.30753C47.72 3.44857 50.5887 1.06575 53.4587 0ZM230.32 16.815V17.0409L230.317 17.0439L227.304 19.5378C227.191 19.65 227.191 19.6224 227.106 19.5666L224.833 17.5757C224.605 17.38 224.491 17.2121 224.491 16.8471V9.16613C224.491 9.08281 224.491 8.99822 224.378 8.91463L223.611 8.24107C223.526 8.18525 223.412 8.15775 223.299 8.21384L221.849 8.88603V16.1187C221.849 16.2309 221.821 16.343 221.935 16.4263L222.588 16.9878C222.758 17.1275 223.042 17.2954 223.299 17.2121L223.526 17.1275C223.81 17.0153 223.866 17.1836 223.696 17.3242L221.083 19.5378C220.969 19.65 220.94 19.6224 220.855 19.5666L218.553 17.5482C218.269 17.3242 218.269 17.2681 218.269 16.9032V4.45731C218.269 4.3179 218.269 4.28904 218.127 4.17722L217.843 3.92444C217.559 3.67284 217.445 3.72893 217.075 3.89685L216.508 4.14835C216.422 4.17722 216.337 4.06503 216.478 3.92444L219.491 1.43044C219.605 1.31825 219.605 1.34584 219.69 1.40194L221.508 3.05538C221.736 3.28065 221.849 3.42007 221.849 3.78503V8.46634L225.628 6.11075C225.742 6.05466 225.856 6.05466 225.94 6.13925L227.788 7.82156C228.044 8.04556 228.101 8.21384 228.101 8.49384V16.1748C228.101 16.3145 228.101 16.343 228.242 16.4548L228.953 17.0439C229.237 17.2954 229.35 17.2393 229.72 17.0714L230.288 16.8185C230.299 16.815 230.31 16.8143 230.32 16.815ZM208.839 24H208.729C208.712 23.9926 208.693 23.9815 208.672 23.9666L206.172 21.977C206.086 21.9209 206.115 21.8649 206.172 21.7802L206.797 21.0804V9.02672L206.172 8.26984C206.143 8.24107 206.115 8.24107 206.058 8.26984L205.205 8.69062C205.007 8.8028 204.864 8.66212 205.035 8.52234L207.934 6.11075C208.018 6.02743 208.132 6.02743 208.189 6.08316L210.291 8.12916L214.099 6.11075C214.213 6.05466 214.298 6.08316 214.326 6.11075L216.23 7.84879C216.372 7.98947 216.542 8.21384 216.542 8.46634V17.0439C216.542 17.2393 216.542 17.3515 216.344 17.4922L213.758 19.4545C213.474 19.6785 213.418 19.6224 213.076 19.426L210.377 17.7998V21.0804L211.145 21.7242C211.229 21.7802 211.229 21.8363 211.145 21.9209L208.899 23.9666C208.88 23.9767 208.861 23.9906 208.839 24ZM180.295 24H180.143L180.134 23.9955C178.486 22.9021 177.18 22.3977 175.759 22.3977C174.764 22.3977 173.77 22.5935 172.491 22.9296C172.377 22.9582 172.349 22.8735 172.405 22.7899C173.742 20.799 175.389 20.1828 176.923 20.1828C179.196 20.1828 181.328 21.5563 182.18 22.1164L182.266 22.0616C182.493 21.5563 182.578 21.0804 182.578 20.6311C182.578 19.2017 181.385 18.0525 179.907 17.3242L176.839 19.5666C176.724 19.65 176.64 19.6224 176.555 19.5378L174.622 17.7998C174.338 17.5482 174.281 17.4361 174.281 17.156V8.97072C174.281 8.83003 174.394 8.8028 174.451 8.77394L180.987 6.11075C181.157 6.02743 181.271 6.02743 181.328 6.08316L183.146 7.87765C183.374 8.10166 183.487 8.26984 183.487 8.46634V15.9223C184.68 16.7913 185.191 17.6603 185.191 18.5294C185.191 19.5106 184.709 20.4629 183.458 21.4726L180.334 23.9666C180.32 23.9802 180.308 23.9916 180.295 24ZM119.512 24H119.361L119.352 23.9955C117.705 22.9021 116.397 22.3977 114.976 22.3977C113.982 22.3977 112.987 22.5935 111.709 22.9296C111.595 22.9582 111.567 22.8735 111.624 22.7899C112.959 20.799 114.608 20.1828 116.141 20.1828C118.414 20.1828 120.545 21.5563 121.397 22.1164L121.483 22.0616C121.71 21.5563 121.796 21.0804 121.796 20.6311C121.796 19.2017 120.602 18.0525 119.124 17.3242L116.084 19.5378C115.943 19.6224 115.914 19.6224 115.829 19.5666L113.783 17.7437C113.499 17.4922 113.499 17.4922 113.499 17.0999V9.22222C113.499 9.08281 113.499 9.05431 113.357 8.94213L112.959 8.60603C112.675 8.35316 112.562 8.41052 112.192 8.57844L111.624 8.83003C111.538 8.85853 111.454 8.74671 111.595 8.60603L114.608 6.11075C114.721 5.99857 114.721 6.02743 114.806 6.08316L116.738 7.82156C116.965 8.04556 117.079 8.18525 117.079 8.54994V16.2023C117.079 16.343 117.108 16.4824 117.192 16.567L117.875 17.1836C118.073 17.38 118.443 17.2954 118.67 17.1836L119.124 16.9878V9.19499C119.124 9.05431 119.124 9.05431 118.983 8.94213L118.586 8.60603C118.3 8.35316 118.216 8.38175 117.818 8.49384L117.591 8.54994C117.505 8.57844 117.421 8.46634 117.562 8.32566L120.233 6.11075C120.346 5.99857 120.346 6.02743 120.432 6.08316L122.364 7.82156C122.591 8.04556 122.705 8.18525 122.705 8.54994V15.9223C123.898 16.7913 124.41 17.6603 124.41 18.5294C124.41 19.5106 123.927 20.4629 122.677 21.4726L119.551 23.9666C119.537 23.9802 119.525 23.9916 119.512 24ZM28.7622 19.5378C28.6485 19.65 28.6485 19.6224 28.5627 19.5666L26.2898 17.5757C26.0627 17.38 25.9491 17.2121 25.9491 16.8471V9.16613C25.9491 9.08281 25.9491 8.99822 25.8354 8.91463L25.0682 8.24107C24.9834 8.18525 24.8698 8.15775 24.755 8.21384L23.3061 8.88603V16.1187C23.3061 16.2309 23.2785 16.343 23.3922 16.4263L24.0457 16.9878C24.2162 17.1275 24.5001 17.2954 24.755 17.2121L24.9834 17.1275C25.2673 17.0153 25.3242 17.1836 25.154 17.3242L22.5389 19.5378C22.4252 19.65 22.3976 19.6224 22.3119 19.5666L20.011 17.5482C19.7272 17.3242 19.7272 17.2681 19.7272 16.9032V4.45731C19.7272 4.3179 19.7272 4.28904 19.5846 4.17722L19.3004 3.92444C19.0165 3.67284 18.9027 3.72893 18.5332 3.89685L17.9651 4.14835C17.8793 4.17722 17.7949 4.06503 17.9362 3.92444L20.9487 1.43044C21.0624 1.31825 21.0624 1.34584 21.1468 1.40194L22.9655 3.05538C23.1928 3.28065 23.3061 3.42007 23.3061 3.78503V8.46634L27.0862 6.11075C27.1996 6.05466 27.3133 6.05466 27.398 6.13925L29.2455 7.82156C29.5005 8.04556 29.5573 8.21384 29.5573 8.49384V16.1748C29.5573 16.3145 29.5573 16.343 29.6999 16.4548L30.4103 17.0439C30.6945 17.2954 30.8078 17.2393 31.1777 17.0714L31.7456 16.8185C31.8303 16.7913 31.916 16.9032 31.7734 17.0439L28.7622 19.5378ZM40.8664 10.2595L35.8371 13.3709V15.754C35.8371 15.978 35.8651 16.0626 36.0644 16.1463L37.6836 16.9878C37.9674 17.1275 38.4508 17.2681 38.735 17.0999L40.2405 16.2309C40.4967 16.0902 40.6962 16.1748 40.5536 16.287L36.4341 19.5666C36.3483 19.65 36.3772 19.6224 36.2636 19.5666L32.5975 17.6603C32.3136 17.5197 32.2288 17.4636 32.2288 17.0714V8.21384C32.2288 8.07316 32.2857 8.01706 32.4562 7.96097L38.4508 6.05466C38.5365 6.02743 38.6213 5.99857 38.6781 6.11075L40.9232 10.0352C40.9801 10.1201 40.9801 10.2034 40.8664 10.2595ZM35.8939 7.54119L35.8371 7.56878V13.0072L37.8262 11.3813C37.9398 11.2967 37.9398 11.2406 37.8831 11.157L35.8939 7.54119ZM72.5872 19.5666C72.4735 19.6785 72.4735 19.65 72.3877 19.5939L70.5705 17.9404C70.3431 17.7164 70.2284 17.5757 70.2284 17.2121V16.9307L66.4497 19.5666C66.3364 19.65 66.2226 19.6224 66.1369 19.5378L64.2904 17.8558C64.0344 17.6318 63.9776 17.4636 63.9776 17.1836V9.1389C63.9776 8.99822 63.9776 8.99822 63.836 8.85853L63.6365 8.66212C63.3816 8.41052 63.239 8.46634 62.8693 8.63453L62.3012 8.88603C62.2169 8.91463 62.1311 8.8028 62.2736 8.66212L65.2849 6.16685C65.3986 6.05466 65.3986 6.08316 65.4843 6.13925L67.2448 7.73697C67.4731 7.96097 67.5868 8.10166 67.5868 8.46634V16.5109C67.5868 16.5946 67.5868 16.6792 67.7005 16.7625L68.4677 17.4361C68.5525 17.4922 68.6662 17.5197 68.7795 17.4636L70.2284 16.5109V9.19499C70.2284 9.08281 70.2574 8.97072 70.1437 8.88603L69.8877 8.66212C69.7172 8.52234 69.4334 8.35316 69.177 8.43775L68.95 8.52234C68.6662 8.63453 68.6093 8.46634 68.7795 8.32566L71.3932 6.11075C71.5068 5.99857 71.5358 6.02743 71.6216 6.08316L73.5249 7.76547C73.8088 8.01706 73.8088 8.04556 73.8088 8.41052V16.5385C73.8088 16.6792 73.8088 16.7067 73.9514 16.8185L74.2352 17.0714C74.5195 17.3242 74.6331 17.2681 75.0028 17.0999L75.5705 16.8471C75.6553 16.8185 75.7411 16.9307 75.5985 17.0714L72.5872 19.5666ZM85.569 19.5378C85.4552 19.65 85.4552 19.6224 85.3695 19.5666L83.0965 17.5757C82.8695 17.38 82.7558 17.2121 82.7558 16.8471V9.16613C82.7558 9.08281 82.7558 8.99822 82.6421 8.91463L81.8749 8.24107C81.7905 8.18525 81.6768 8.15775 81.5631 8.21384L80.1132 9.16613V16.1187C80.1132 16.2309 80.0853 16.343 80.1989 16.4263L80.8528 16.9878C81.023 17.1275 81.3069 17.2954 81.5631 17.2121L81.7905 17.1275C82.0743 17.0153 82.1312 17.1836 81.9607 17.3242L79.347 19.5378C79.2323 19.65 79.2044 19.6224 79.1186 19.5666L76.8177 17.5482C76.5338 17.3242 76.5338 17.2681 76.5338 16.9032V9.1389C76.5338 8.99822 76.5338 8.97072 76.3912 8.85853L76.1074 8.60603C75.8235 8.35316 75.7098 8.41052 75.3398 8.57844L74.7721 8.83003C74.6864 8.85853 74.6015 8.74671 74.7432 8.60603L77.7554 6.11075C77.8691 5.99857 77.8691 6.02743 77.9538 6.08316L79.7725 7.73697C79.9995 7.96097 80.1132 8.10166 80.1132 8.46634V8.74671L83.8929 6.11075C84.0066 6.02743 84.12 6.05466 84.2048 6.13925L86.0522 7.82156C86.3072 8.04556 86.364 8.21384 86.364 8.49384V16.1748C86.364 16.3145 86.364 16.343 86.5066 16.4548L87.2173 17.0439C87.5012 17.2954 87.6148 17.2393 87.9845 17.0714L88.5526 16.8185C88.6383 16.7913 88.7228 16.9032 88.5802 17.0439L85.569 19.5378ZM97.7867 19.5378C97.6734 19.65 97.6441 19.6224 97.5597 19.5666L94.9736 17.3242L91.9055 19.5666C91.7922 19.65 91.8198 19.6785 91.7065 19.5939L89.576 17.6876C89.4334 17.5757 89.3477 17.4076 89.3477 17.156V8.63453C89.3477 8.49384 89.461 8.46634 89.5179 8.43775L93.0985 6.868L90.4845 4.82191C89.576 4.09262 89.1492 3.44857 89.1492 2.66319C89.1492 1.40194 90.5125 0.617465 92.5873 0.617465C92.7286 0.617465 92.7575 0.868971 92.5873 0.868971C92.0471 0.868971 91.7341 1.03688 91.7341 1.28975C91.7341 1.51376 91.7922 1.62585 92.3879 2.10272L96.4505 5.32628C98.1278 6.67213 98.5543 7.20409 98.5543 8.85853V16.343L99.0655 16.7913C99.6901 17.3242 99.7759 17.2954 100.06 17.156L100.457 16.9592C100.714 16.8185 100.912 16.9307 100.685 17.1275L97.7867 19.5378ZM94.9736 8.85853C94.9736 8.41052 94.8603 8.24107 94.122 7.68087L93.4682 7.1765L92.928 7.4566V16.0902C92.928 16.3702 92.9849 16.5109 93.1842 16.6792L93.5526 17.0153C93.8937 17.3242 94.2065 17.4361 94.9736 16.9592V8.85853ZM109.833 19.5378C109.72 19.65 109.692 19.6224 109.606 19.5666L107.021 17.3242L103.952 19.5666C103.838 19.65 103.811 19.6224 103.697 19.5378L101.736 17.7998C101.424 17.5482 101.395 17.4922 101.395 17.156V8.97072C101.395 8.83003 101.509 8.8028 101.566 8.77394L108.157 6.08316C108.271 6.02743 108.384 6.02743 108.498 6.13925L110.26 7.87765C110.516 8.12916 110.601 8.26984 110.601 8.43775V16.343L111.113 16.7913C111.738 17.3242 111.822 17.2954 112.106 17.156L112.505 16.9592C112.76 16.8185 112.959 16.9307 112.732 17.1275L109.833 19.5378ZM107.021 9.1104C107.021 8.94213 106.992 8.85853 106.851 8.71785L105.828 7.70947C105.771 7.65337 105.771 7.68087 105.685 7.70947L104.976 8.01706V16.1187C104.976 16.3991 105.032 16.5385 105.231 16.7067L105.6 17.0439C105.857 17.2681 106.168 17.38 106.538 17.2121L107.021 16.9878V9.1104ZM143.28 4.56941C142.769 4.56941 142.342 4.5134 141.86 4.45731V12.7272C141.86 12.9227 141.831 12.9787 141.718 13.0633L136.944 16.0626C137.655 16.3991 138.507 16.6231 139.388 16.6231C142.399 16.6231 145.809 14.9972 147.4 10.933C147.485 10.7088 147.684 10.6517 147.684 11.0452V11.3253C147.684 15.7816 144.246 19.7907 139.16 19.7907C133.62 19.7907 130.296 15.6694 130.296 11.3813C130.296 8.15775 132.085 5.15837 136.148 3.89685C136.32 3.84112 136.348 3.92444 136.234 4.00903C134.444 5.38238 133.478 7.62487 133.478 9.86728C133.478 12.2504 134.444 14.6046 136.604 15.8662L137.796 15.0257C138.223 14.7444 138.28 14.4367 138.28 13.9884V3.72893C136.972 3.25215 135.807 2.97169 134.728 2.97169C133.25 2.97169 131.915 3.61675 130.608 5.1856C130.466 5.35388 130.381 5.35388 130.381 5.1856C130.551 2.01813 133.421 0.223914 136.261 0.223914C139.53 0.223914 142.542 1.79413 145.837 1.79413C147.003 1.79413 148.195 1.54262 149.19 1.00965C149.333 0.953563 149.361 1.06575 149.304 1.17757C148.281 3.70043 145.781 4.56941 143.28 4.56941ZM157.413 10.2595L152.383 13.3709V15.754C152.383 15.978 152.412 16.0626 152.611 16.1463L154.23 16.9878C154.514 17.1275 154.997 17.2681 155.281 17.0999L156.788 16.2309C157.043 16.0902 157.242 16.1748 157.1 16.287L152.98 19.5666C152.895 19.65 152.923 19.6224 152.81 19.5666L149.145 17.6603C148.86 17.5197 148.775 17.4636 148.775 17.0714V8.21384C148.775 8.07316 148.832 8.01706 149.002 7.96097L154.997 6.05466C155.083 6.02743 155.169 5.99857 155.224 6.11075L157.469 10.0352C157.526 10.1201 157.526 10.2034 157.413 10.2595ZM152.44 7.54119L152.383 7.56878V13.0072L154.372 11.3813C154.486 11.2967 154.486 11.2406 154.429 11.157L152.44 7.54119ZM161.329 19.5378C161.216 19.65 161.187 19.6224 161.102 19.5666L158.8 17.5482C158.516 17.3242 158.516 17.2681 158.516 16.9032V4.45731C158.516 4.3179 158.516 4.28904 158.374 4.17722L158.09 3.92444C157.805 3.67284 157.692 3.72893 157.323 3.89685L156.754 4.14835C156.67 4.17722 156.584 4.06503 156.727 3.92444L159.738 1.43044C159.851 1.31825 159.851 1.34584 159.937 1.40194L161.756 3.05538C161.983 3.28065 162.096 3.42007 162.096 3.78503V16.1187C162.096 16.2309 162.068 16.343 162.181 16.4263L162.835 16.9878C163.005 17.1275 163.289 17.2954 163.545 17.2121L163.772 17.1275C164.057 17.0153 164.113 17.1836 163.943 17.3242L161.329 19.5378ZM173.239 10.2595L168.21 13.3709V15.754C168.21 15.978 168.239 16.0626 168.437 16.1463L170.056 16.9878C170.34 17.1275 170.823 17.2681 171.107 17.0999L172.614 16.2309C172.869 16.0902 173.068 16.1748 172.926 16.287L168.806 19.5666C168.721 19.65 168.75 19.6224 168.636 19.5666L164.97 17.6603C164.686 17.5197 164.601 17.4636 164.601 17.0714V8.21384C164.601 8.07316 164.658 8.01706 164.828 7.96097L170.823 6.05466C170.909 6.02743 170.994 5.99857 171.05 6.11075L173.295 10.0352C173.352 10.1201 173.352 10.2034 173.239 10.2595ZM168.266 7.54119L168.21 7.56878V13.0072L170.198 11.3813C170.312 11.2967 170.312 11.2406 170.255 11.157L168.266 7.54119ZM179.907 9.05431C179.907 8.94213 179.878 8.85853 179.764 8.74671L178.713 7.70947C178.656 7.65337 178.629 7.68087 178.543 7.70947L177.861 8.01706V16.0626C177.861 16.5109 177.975 16.567 178.429 16.9878C178.685 17.2121 178.828 17.2954 179.083 17.2954C179.31 17.2954 179.68 17.1275 179.907 16.9878V9.05431ZM192.722 9.67178C192.579 9.7836 192.437 9.83969 192.295 9.83969C192.153 9.83969 192.012 9.7836 191.869 9.67178L190.136 8.21384L189.966 8.35316V16.1463C189.966 16.3145 189.966 16.343 190.079 16.4263L190.534 16.8185C191.017 17.2121 191.13 17.2681 191.642 17.0714L191.982 16.9307C192.21 16.8471 192.266 16.9592 192.125 17.0999L189.198 19.5378C189.085 19.65 189.056 19.6224 188.971 19.5666L186.726 17.5757C186.471 17.3515 186.385 17.2681 186.385 16.9592V8.97072L185.704 8.26984C185.647 8.21384 185.618 8.21384 185.533 8.26984L184.68 8.74671C184.425 8.88603 184.339 8.69062 184.51 8.54994L187.436 6.11075C187.55 6.02743 187.607 6.02743 187.664 6.08316L189.653 8.01706L191.614 6.11075C191.726 6.02743 191.812 5.99857 191.925 6.11075L193.431 7.48546C193.716 7.73697 193.887 7.87765 194.057 7.87765C194.171 7.87765 194.312 7.82156 194.483 7.70947L194.88 7.4566C195.136 7.28868 195.25 7.54119 195.109 7.68087L192.722 9.67178ZM203.083 19.5378C202.969 19.65 202.941 19.6224 202.856 19.5666L200.271 17.3242L197.202 19.5666C197.088 19.65 197.06 19.6224 196.947 19.5378L194.986 17.7998C194.673 17.5482 194.645 17.4922 194.645 17.156V8.97072C194.645 8.83003 194.758 8.8028 194.815 8.77394L201.407 6.08316C201.52 6.02743 201.634 6.02743 201.748 6.13925L203.51 7.87765C203.766 8.12916 203.85 8.26984 203.85 8.43775V16.343L204.363 16.7913C204.987 17.3242 205.072 17.2954 205.356 17.156L205.755 16.9592C206.01 16.8185 206.209 16.9307 205.982 17.1275L203.083 19.5378ZM200.271 9.1104C200.271 8.94213 200.242 8.85853 200.099 8.71785L199.077 7.70947C199.02 7.65337 199.02 7.68087 198.935 7.70947L198.225 8.01706V16.1187C198.225 16.3991 198.282 16.5385 198.48 16.7067L198.85 17.0439C199.105 17.2681 199.418 17.38 199.788 17.2121L200.271 16.9878V9.1104ZM212.963 9.19499C212.963 9.02672 212.905 8.88603 212.793 8.77394L211.996 8.01706C211.94 7.96097 211.883 7.96097 211.797 7.98947L210.377 8.52234V17.4076L211.172 17.6603C211.826 17.8558 212.11 17.8283 212.394 17.5757L212.678 17.3242C212.934 17.0999 212.963 16.8471 212.963 16.3991V9.19499Z" fill="#5D5D5D"/>
</svg>
