<svg width="107" height="28" viewBox="0 0 107 28" fill="none" xmlns="http://www.w3.org/2000/svg">
<g clip-path="url(#clip0)">
<path d="M96.5133 28.0001C95.1443 27.8579 92.993 27.3747 92.2666 27.062L91.9034 26.9199L91.8475 25.1574C91.8196 24.1909 91.7916 22.8833 91.7916 22.2579L91.7637 21.1209L91.9872 21.0072C92.0989 20.9503 92.3504 20.8935 92.518 20.8935L92.8254 20.865L93.0768 21.5188C94.1105 24.0772 95.3119 25.4701 96.8765 25.8965C97.4632 26.0671 98.6087 26.0671 99.0557 25.8965C100.313 25.4417 100.984 24.5036 100.984 23.196C100.984 21.6325 100.145 20.8935 96.9882 19.6427C95.0325 18.8752 94.3341 18.4488 93.5238 17.6244C92.6577 16.7148 92.2107 15.663 92.1548 14.2133C92.071 12.4508 92.6018 10.9726 93.8032 9.72188C95.0046 8.44269 96.5692 7.76046 98.6925 7.56147C100.564 7.39092 103.442 7.78889 104.951 8.44269L105.23 8.5564L105.286 10.1483C105.314 11.0295 105.342 12.1666 105.342 12.7351V13.73L104.979 13.8721C104.392 14.0995 104.364 14.0711 104.029 13.1899C103.107 10.7452 102.073 9.57975 100.425 9.21021C99.4189 8.9828 98.5808 9.23863 97.9661 9.89244C97.4911 10.4041 97.2956 10.8589 97.2676 11.6264C97.2118 12.4508 97.3794 12.9056 97.8544 13.4742C98.469 14.1564 99.4748 14.7534 101.514 15.6061C103.973 16.6579 105.174 17.5391 105.817 18.8468C106.236 19.6995 106.348 20.3818 106.32 21.661C106.292 22.6275 106.264 22.8264 106.04 23.5087C105.342 25.6407 103.722 27.062 101.235 27.7158C100.397 27.9432 100.285 27.9432 98.6087 27.9716C97.6308 28.0001 96.6809 28.0001 96.5133 28.0001Z" fill="#5D5D5D"/>
<path d="M0.432123 27.517C0.348307 27.4886 0.320368 27.2896 0.320368 26.9485C0.320368 26.2947 0.292429 26.3231 1.4938 26.0957C2.44372 25.9251 2.77899 25.7261 3.17013 25.186C3.98036 24.1058 4.14799 22.0591 4.14799 13.5881C4.14799 5.62866 4.0083 3.95151 3.17013 2.72917C2.83486 2.16064 2.19227 1.87638 1.15853 1.73425L0.376245 1.64897L0.348307 0.995161L0.320368 0.36978L0.571817 0.312927C0.711512 0.312927 5.54493 0.284501 11.3283 0.312927L21.8333 0.341353L21.8892 0.654044C21.9171 0.824602 21.973 2.58704 22.0009 4.54846L22.0568 8.13019L21.526 8.30075C20.7157 8.55658 20.7157 8.55658 20.3525 7.56166C19.4585 5.14542 18.4247 3.72409 16.9999 3.04186C16.022 2.55861 15.575 2.50176 12.809 2.50176H10.4063L10.3784 2.89973C10.2945 3.66724 10.1828 8.58501 10.1828 10.8875V13.1901H10.8813C11.2724 13.1901 12.0267 13.1617 12.5855 13.1332C13.3957 13.0764 13.6472 13.048 13.9825 12.8774C14.8206 12.4794 15.4073 11.5982 15.7426 10.1769L15.9382 9.4378L16.5528 9.40937L17.1675 9.38095V14.0429V18.7048L16.5528 18.6764L15.9382 18.648L15.7706 17.9089C15.4353 16.516 14.7927 15.5211 14.0104 15.1799C13.6472 15.0094 12.7532 14.9241 10.993 14.8672L10.1828 14.8388V16.6013C10.1828 18.5058 10.2945 21.0926 10.4063 22.4855C10.6019 24.4469 11.0768 25.5271 11.9709 25.8967C12.1385 25.982 12.6693 26.0957 13.1443 26.1525C13.6193 26.2378 14.0942 26.3231 14.1501 26.3515C14.3457 26.4368 14.3457 27.4601 14.1501 27.5454C14.0104 27.5738 0.571817 27.5738 0.432123 27.517Z" fill="#5D5D5D"/>
<path d="M37.9829 27.517C37.927 27.4601 37.899 27.2895 37.899 26.92L37.927 26.3799L38.2064 26.323C38.3461 26.2946 38.6813 26.2378 38.9048 26.1809C39.6312 26.0388 40.0783 25.6408 40.3018 24.8449C40.4973 24.1911 40.5812 22.1159 40.5812 17.9373C40.5812 12.8205 40.4694 11.6266 39.9665 10.9444C39.6871 10.5748 39.4915 10.4611 38.821 10.3474C38.4858 10.2906 38.1505 10.2053 38.0387 10.2053C37.899 10.1769 37.8711 10.12 37.8711 9.75046C37.8711 9.38092 37.899 9.32407 38.0387 9.23879C38.2622 9.15351 45.8057 7.61848 46.0572 7.61848H46.2527L46.2248 8.75554C46.1969 9.38092 46.1689 10.2906 46.141 10.8022L46.1131 11.6835L46.3924 11.1718C47.2585 9.55148 48.2364 8.55655 49.5495 7.9596C50.2759 7.61848 50.7509 7.5332 51.617 7.5332C52.6787 7.5332 53.7124 7.87432 53.7124 8.24386C53.7124 8.47127 51.8685 13.4459 51.7567 13.5027C51.7008 13.5312 51.3376 13.389 50.9465 13.1901C50.1362 12.7921 49.354 12.5931 48.6275 12.5931C47.7056 12.5931 46.6718 12.9342 46.2527 13.389C46.0851 13.588 46.0851 13.588 46.0292 16.4307C45.9734 19.2449 46.0851 22.6845 46.2248 24.0774C46.3645 25.2428 46.6718 25.8398 47.3144 26.0956C47.5379 26.1809 48.879 26.3799 49.2981 26.3799C49.326 26.3799 49.354 26.6642 49.326 26.9769L49.2981 27.5738L43.6544 27.6022C40.6091 27.5738 38.0387 27.5454 37.9829 27.517Z" fill="#5D5D5D"/>
<path d="M34.9369 9.97762C33.3444 8.47102 31.3608 7.73193 28.7625 7.73193C26.0244 7.73193 23.8173 8.58473 22.1409 10.3187C20.3249 12.1665 19.375 14.7817 19.375 17.8233C19.375 20.9786 20.2411 23.537 21.9174 25.3279C22.8394 26.3228 23.7614 26.8913 25.0466 27.3746C25.4936 27.5451 25.8289 27.6304 27.0582 27.8578C27.1699 27.8863 27.8684 27.8863 28.6228 27.8578C29.6565 27.8294 30.1594 27.801 30.6344 27.6873C31.9754 27.3746 33.065 26.8629 34.015 26.1522C36.3618 24.3614 37.647 21.6324 37.7588 18.1928C37.8985 14.7533 36.8927 11.8538 34.9369 9.97762ZM30.9696 24.9583C30.6064 25.6406 29.9359 26.2944 29.405 26.4365C27.3096 27.0619 25.8289 25.0436 25.2422 20.8081C25.0466 19.4436 25.0466 15.7198 25.2422 14.1563C25.6612 10.7451 26.695 9.03955 28.3154 9.03955C29.0418 9.03955 29.4609 9.21011 30.0197 9.80706C31.3887 11.2 32.0313 13.872 32.0313 18.0791C32.0313 21.4335 31.724 23.537 30.9696 24.9583Z" fill="#5D5D5D"/>
<path d="M72.0677 16.5726C72.0118 14.7249 71.7045 13.5025 70.9502 11.9959C69.9164 9.94924 68.1842 8.52792 66.1726 8.10152C64.6918 7.78883 62.7641 8.04467 61.3112 8.7269C60.948 8.89746 60.6128 9.03959 60.529 9.03959C60.4172 9.03959 60.4172 8.47107 60.4451 4.5198L60.4731 0L60.1657 0.0568528C59.9981 0.0852792 58.2938 0.426396 56.3661 0.767513C54.4383 1.13706 52.7899 1.44975 52.7061 1.47817C52.5664 1.5066 52.5384 1.56345 52.5664 1.81929C52.5943 2.10355 52.5943 2.10355 52.8737 2.18883C53.8516 2.41624 54.0192 2.4731 54.3824 2.87107C54.8294 3.32589 55.025 3.92284 55.1647 5.14518C55.2764 6.1401 55.3044 23.0538 55.1926 25.5553L55.1368 27.0335L55.919 27.2041C58.9085 27.8579 61.87 28.0853 63.714 27.801C66.0329 27.4599 67.7372 26.6355 69.1621 25.2142C71.2016 23.0822 72.2074 20.1827 72.0677 16.5726ZM66.2564 19.6995C65.9212 22.4 65.055 24.5888 63.8816 25.6406C63.4067 26.067 62.9876 26.2944 62.4288 26.3797C62.0377 26.465 61.898 26.465 61.1715 26.4081C60.8642 26.3797 60.8083 26.3513 60.7245 26.1807C60.6407 25.9249 60.501 16.8284 60.5569 13.1898L60.5848 10.3472L61.0877 10.2051C61.423 10.0914 61.8141 10.0629 62.2891 10.0629C62.9317 10.0629 63.0155 10.0914 63.5743 10.3472C64.8874 11.001 65.7815 12.6497 66.2005 15.1228C66.3682 16.0893 66.3961 18.5909 66.2564 19.6995Z" fill="#5D5D5D"/>
<path d="M79.3602 16.8567C79.4161 16.8283 81.9585 16.7998 85.0597 16.7998H90.6475V16.5724C90.6475 16.0608 90.4799 14.6963 90.3402 13.9856C89.7534 11.0861 88.1889 9.03944 85.9538 8.21508C85.0597 7.87396 84.2215 7.76025 83.104 7.76025C80.4777 7.76025 78.3264 8.64147 76.6781 10.3755C75.3649 11.7684 74.5826 13.3318 74.0797 15.5491C73.94 16.2029 73.9121 16.544 73.9121 17.9653C73.9121 19.3582 73.94 19.6993 74.0797 20.3531C74.9738 24.4181 77.6 27.0902 81.3718 27.7724C82.3217 27.943 83.7466 27.9714 84.6965 27.8009C86.4567 27.5166 88.1889 26.6354 89.4461 25.4415C90.1446 24.7877 90.3681 24.475 90.2563 24.3044C90.0049 23.8496 90.0049 23.8496 89.3623 24.276C88.3286 24.9298 87.8257 25.1004 86.5963 25.2141C85.1715 25.3562 83.8583 25.1288 82.657 24.5034C81.8467 24.077 80.8968 23.1105 80.4219 22.2577C79.7793 21.0638 79.4161 19.6993 79.3043 17.9085C79.2484 17.1125 79.2764 16.9136 79.3602 16.8567ZM79.4999 15.0658C79.4999 14.8953 79.5558 14.4405 79.6116 14.0425C80.0866 10.9156 81.2321 9.03944 82.657 9.03944C83.9701 9.03944 84.7803 10.8872 84.948 14.2699L85.0038 15.2364L83.6907 15.2932C82.9643 15.3217 81.735 15.3501 80.9248 15.3501L79.4999 15.3785V15.0658Z" fill="#5D5D5D"/>
</g>
<defs>
<clipPath id="clip0">
<rect width="106" height="28" fill="white" transform="translate(0.320312)"/>
</clipPath>
</defs>
</svg>
