<svg width="99" height="37" viewBox="0 0 99 37" fill="none" xmlns="http://www.w3.org/2000/svg">
<g clip-path="url(#clip0)">
<path d="M36.1357 28.2898V30.6817H37.1631V36.0753H40.1167V30.6335H41.5294V28.2898H40.1167V27.8867C40.1167 27.0841 40.4057 26.6828 40.9836 26.6828C41.1762 26.6828 41.3688 26.747 41.5615 26.8594V24.3552C40.9996 24.2107 40.6304 24.1465 40.1328 24.1465C38.1905 24.1465 37.1631 25.222 37.1631 27.3249V28.2898H36.1357Z" fill="#5D5D5D"/>
<path d="M42.8637 28.2898V36.0753H45.8334V28.2898H42.8637ZM42.6229 25.7375C42.6229 26.6204 43.4095 27.3427 44.3566 27.3427C45.3197 27.3427 46.0903 26.6204 46.0903 25.7375C46.0903 24.8546 45.3197 24.1162 44.3566 24.1162C43.4095 24.1162 42.6229 24.8546 42.6229 25.7375Z" fill="#5D5D5D"/>
<path d="M47.1078 28.2898V36.0753H50.0936V31.9819C50.0936 31.083 50.4949 30.5693 51.2494 30.5693C51.9236 30.5693 52.2607 31.0348 52.2607 31.9658V36.0753H55.2304V31.1151C55.2304 29.1085 54.1869 28.0972 52.5014 28.0972C51.458 28.0972 50.6073 28.5788 49.9812 29.5259L50.0454 28.2898H47.1078Z" fill="#5D5D5D"/>
<path d="M62.1931 28.2898V29.3975C61.6955 28.5467 60.7805 28.033 59.705 28.033C57.7145 28.033 56.1734 29.8469 56.1734 32.2227C56.1734 34.5663 57.6182 36.2679 59.6729 36.2679C60.8126 36.2679 61.7276 35.7703 62.1931 34.9195V36.0753H65.1467V28.2898H62.1931ZM60.7002 30.4569C61.5992 30.4569 62.2734 31.1632 62.2734 32.1424C62.2734 33.1056 61.6152 33.8119 60.7002 33.8119C59.7531 33.8119 59.1271 33.1377 59.1271 32.1745C59.1271 31.1632 59.7852 30.4569 60.7002 30.4569Z" fill="#5D5D5D"/>
<path d="M66.0631 28.2898V36.0753H69.0488V31.9819C69.0488 31.083 69.4501 30.5693 70.2046 30.5693C70.8788 30.5693 71.2159 31.0348 71.2159 31.9658V36.0753H74.1856V31.1151C74.1856 29.1085 73.1422 28.0972 71.4567 28.0972C70.4133 28.0972 69.5625 28.5788 68.9365 29.5259L69.0007 28.2898H66.0631Z" fill="#5D5D5D"/>
<path d="M81.0381 31.2114V28.4504C80.3478 28.1935 79.6576 28.0651 78.9673 28.0651C76.5755 28.0651 74.8097 29.8469 74.8097 32.2548C74.8097 34.6466 76.4953 36.3 78.9673 36.3C79.6576 36.3 80.2836 36.1716 81.0381 35.8987V33.25C80.5084 33.6835 80.0589 33.86 79.4971 33.86C78.5339 33.86 77.8758 33.1698 77.8758 32.2066C77.8758 31.1953 78.55 30.5372 79.5292 30.5372C80.0589 30.5372 80.5565 30.7619 81.0381 31.2114Z" fill="#5D5D5D"/>
<path d="M84.2121 32.7685H89.8786V32.5116C89.8786 29.7346 88.2091 27.9527 85.6086 27.9527C83.0884 27.9527 81.2905 29.7346 81.2905 32.2387C81.2905 34.7269 83.0402 36.3642 85.6889 36.3642C87.567 36.3642 89.0599 35.4813 89.6859 33.9403L87.0533 33.4587C86.7483 34.0848 86.2828 34.3898 85.6568 34.3898C84.7578 34.3898 84.2602 33.7958 84.2121 32.7685ZM85.6407 29.863C86.4594 29.863 86.941 30.4248 86.957 31.3719H84.2442C84.2923 30.4569 84.822 29.863 85.6407 29.863Z" fill="#5D5D5D"/>
<path d="M0.386719 6.58398H6.20373L9.59091 15.0852L13.022 6.58398H18.6859L10.1574 26.7091H4.4577L6.79223 21.3763L0.386719 6.58398Z" fill="#5D5D5D"/>
<path d="M24.5867 6.24707C20.2161 6.24707 17.4531 10.0924 17.4531 13.9217C17.4531 18.2308 20.4824 21.6472 24.5038 21.6472C27.5036 21.6472 28.6347 19.8542 28.6347 19.8542V21.2509H33.7082V6.58559H28.6347V7.9188C28.6347 7.9188 27.3727 6.24707 24.5867 6.24707V6.24707ZM25.6659 10.9599C27.6825 10.9599 28.7231 12.5253 28.7231 13.9378C28.7231 15.4588 27.6082 16.9515 25.6659 16.9515C24.056 16.9515 22.6013 15.6609 22.6013 14.0026C22.6013 12.3208 23.7714 10.9599 25.6659 10.9599Z" fill="#5D5D5D"/>
<path d="M35.4551 21.2503V0.109375H40.7617V7.96905C40.7617 7.96905 42.0222 6.24836 44.662 6.24836C47.8911 6.24836 49.783 8.60861 49.783 11.9813V21.2503H44.5152V13.251C44.5152 12.1096 43.961 11.007 42.7056 11.007C41.4277 11.007 40.7617 12.1263 40.7617 13.251V21.2503H35.4551Z" fill="#5D5D5D"/>
<path d="M58.8312 6.24805C53.826 6.24805 50.8457 9.98171 50.8457 13.982C50.8457 18.5343 54.4542 21.6464 58.8501 21.6464C63.1109 21.6464 66.8392 18.6756 66.8392 14.0583C66.8392 9.00627 62.9355 6.24805 58.8312 6.24805V6.24805ZM58.879 11.0023C60.647 11.0023 61.8703 12.4469 61.8703 13.9874C61.8703 15.3013 60.7304 16.9219 58.879 16.9219C57.1825 16.9219 55.9094 15.587 55.9094 13.973C55.9094 12.4183 56.9679 11.0023 58.879 11.0023V11.0023Z" fill="#5D5D5D"/>
<path d="M75.6788 6.24805C70.6737 6.24805 67.6934 9.98171 67.6934 13.982C67.6934 18.5343 71.3019 21.6464 75.6978 21.6464C79.9585 21.6464 83.6868 18.6756 83.6868 14.0583C83.6868 9.00627 79.7832 6.24805 75.6788 6.24805V6.24805ZM75.7266 11.0023C77.4946 11.0023 78.7179 12.4469 78.7179 13.9874C78.7179 15.3013 77.578 16.9219 75.7266 16.9219C74.0302 16.9219 72.7571 15.587 72.7571 13.973C72.7571 12.4183 73.8155 11.0023 75.7266 11.0023V11.0023Z" fill="#5D5D5D"/>
<path d="M87.8734 21.5603C89.8195 21.5603 91.3972 20.0126 91.3972 18.1034C91.3972 16.1942 89.8195 14.6465 87.8734 14.6465C85.9273 14.6465 84.3496 16.1942 84.3496 18.1034C84.3496 20.0126 85.9273 21.5603 87.8734 21.5603Z" fill="#5D5D5D"/>
<path d="M92.5557 13.378H86.2119L91.8421 0.109375H98.1622L92.5557 13.378Z" fill="#5D5D5D"/>
</g>
<defs>
<clipPath id="clip0">
<rect width="97.7757" height="36.2544" fill="white" transform="translate(0.386719 0.109375)"/>
</clipPath>
</defs>
</svg>
