<svg width="103" height="32" viewBox="0 0 103 32" fill="none" xmlns="http://www.w3.org/2000/svg">
<g clip-path="url(#clip0)">
<path fill-rule="evenodd" clip-rule="evenodd" d="M8.2268 32H10.5995V19.2H8.2268V32ZM16.9245 31.808H19.0497V23.732L27.995 32V19.392H25.8758V27.33L16.9245 19.2V31.808ZM32.8464 28.708C34.0031 29.618 35.3915 30.144 36.8799 30.144C38.3297 30.144 39.3467 29.64 39.3467 28.527C39.3467 27.557 38.6981 27.177 37.5622 26.752L35.7232 26.107C34.0278 25.499 32.7385 24.611 32.7385 22.57C32.7385 20.387 34.6903 19.2 37.0245 19.2C38.4544 19.2 39.7577 19.563 40.7757 20.206V22.371C39.7171 21.581 38.5584 21.037 37.07 21.037C35.7886 21.037 34.831 21.52 34.831 22.527C34.831 23.437 35.4321 23.801 36.4907 24.167L38.5396 24.893C40.5251 25.598 41.4362 26.691 41.4362 28.489C41.4362 30.751 39.4655 32 36.8799 32C35.1805 32 33.7357 31.52 32.8464 30.914V28.708ZM46.9719 32H49.3437V19.2H46.9719V32ZM60.4706 30.063C63.1444 30.063 64.5734 28.331 64.5734 25.597C64.5734 22.843 63.1434 21.117 60.4706 21.117H57.8265V30.063H60.4706V30.063ZM55.6677 19.2H60.5498C64.308 19.2 66.7382 21.7 66.7382 25.597C66.7382 29.497 64.308 32 60.5498 32H55.6677V19.2ZM78.5999 19.2V21.117H72.8591V24.197H78.0077V26.092H72.8582V30.063H78.5999V32H70.6924V19.2H78.5999ZM87.0193 24.996H89.3732C90.7666 24.996 91.5519 24.224 91.5519 23.037C91.5519 21.85 90.7666 21.077 89.3732 21.077H87.0193V24.997V24.996ZM87.0193 26.806V32H84.9249V19.2H89.4129C91.9718 19.2 93.6275 20.531 93.6275 23.037C93.6275 25.18 92.7085 26.411 90.7507 26.727L95.2041 32H92.8214L88.5097 26.807H87.0203L87.0193 26.806ZM7.39792 6.59C8.32583 6.247 9.04874 5.218 9.04874 3.803C9.04874 1.445 7.39792 0.223 4.75682 0.223H0.320312V13.386H5.16878C7.80989 13.386 9.4607 12.078 9.4607 9.613C9.4607 8.219 8.5942 6.997 7.39792 6.59ZM2.40389 5.754V2.153H4.73701C6.20264 2.153 6.98596 2.689 6.98596 3.932C6.98596 5.175 6.20165 5.754 4.73701 5.754H2.40389ZM2.40389 7.598H5.12719C6.57301 7.598 7.35633 8.326 7.35633 9.527C7.35633 10.706 6.57202 11.457 5.12818 11.457H2.40488V7.597L2.40389 7.598ZM19.1408 13.6C22.1741 13.6 24.217 11.756 24.217 8.155V0.223H22.0711V7.897C22.0711 10.427 21.0392 11.607 19.1408 11.607C17.2424 11.607 16.2115 10.427 16.2115 7.897V0.223H14.0656V8.133C14.0656 11.756 16.1283 13.6 19.1408 13.6V13.6ZM29.2695 12.442C30.1568 13.086 31.6016 13.6 33.2931 13.6C35.8728 13.6 37.8325 12.27 37.8325 9.87C37.8325 7.962 36.9254 6.804 34.9439 6.054L32.9019 5.282C31.8492 4.897 31.2511 4.511 31.2511 3.546C31.2511 2.474 32.1998 1.96 33.4792 1.96C34.9647 1.96 36.1203 2.538 37.173 3.375V1.08C36.1619 0.395 34.8617 0.009 33.4376 0.009C31.1065 0.009 29.1665 1.274 29.1665 3.589C29.1665 5.754 30.446 6.697 32.1374 7.34L33.9744 8.026C35.1092 8.476 35.749 8.884 35.749 9.913C35.749 11.092 34.7379 11.628 33.2931 11.628C31.8076 11.628 30.4252 11.07 29.2695 10.106V12.442V12.442ZM45.5004 0.223H43.3554V13.385H45.5004V0.223ZM51.6224 13.369H53.6901V4.806L62.3928 13.573V0.203H60.331V8.62L51.6224 0V13.369V13.369ZM75.8023 0.226V2.197H70.2309V5.365H75.2269V7.314H70.2309V11.397H75.8023V13.389H68.1275V0.226H75.8023ZM80.7983 12.433C81.6856 13.077 83.1295 13.591 84.8219 13.591C87.4006 13.591 89.3614 12.262 89.3614 9.861C89.3614 7.953 88.4533 6.796 86.4727 6.045L84.4297 5.274C83.377 4.888 82.7789 4.502 82.7789 3.537C82.7789 2.465 83.7276 1.951 85.007 1.951C86.4925 1.951 87.6482 2.53 88.7008 3.366V1.072C87.6897 0.386 86.3895 0 84.9655 0C82.6343 0 80.6943 1.265 80.6943 3.58C80.6943 5.745 81.9738 6.688 83.6652 7.331L85.5022 8.017C86.6371 8.467 87.2768 8.875 87.2768 9.904C87.2768 11.083 86.2667 11.619 84.8209 11.619C83.3354 11.619 81.953 11.062 80.7983 10.097V12.433V12.433ZM93.7573 12.433C94.6446 13.077 96.0894 13.591 97.7808 13.591C100.361 13.591 102.32 12.262 102.32 9.861C102.32 7.953 101.412 6.796 99.4316 6.045L97.3887 5.274C96.337 4.888 95.7378 4.502 95.7378 3.537C95.7378 2.465 96.6875 1.951 97.966 1.951C99.4514 1.951 100.608 2.53 101.66 3.366V1.072C100.65 0.386 99.3494 0 97.9254 0C95.5933 0 93.6543 1.265 93.6543 3.58C93.6543 5.745 94.9337 6.688 96.6251 7.331L98.4621 8.017C99.597 8.467 100.237 8.875 100.237 9.904C100.237 11.083 99.2257 11.619 97.7808 11.619C96.2954 11.619 94.9129 11.062 93.7573 10.097V12.433V12.433Z" fill="#5D5D5D"/>
</g>
<defs>
<clipPath id="clip0">
<rect width="102" height="32" fill="white" transform="translate(0.320312)"/>
</clipPath>
</defs>
</svg>
