<svg width="65" height="34" viewBox="0 0 65 34" fill="none" xmlns="http://www.w3.org/2000/svg">
<path d="M34.0286 0.0131836L40.8845 14.5735C47.5171 14.7681 52.5212 15.6636 52.5212 16.7407C52.5212 17.8048 47.6091 18.6872 41.0684 18.8949L33.9629 33.9743C51.234 33.572 64.9984 26.1231 64.9984 16.9872C64.9984 7.8773 51.2603 0.441428 34.0286 0.0131836Z" fill="#FFA000"/>
<path d="M9.35156 28.9387C15.1436 32.0143 23.1554 33.9349 32.0208 33.9998L33.1503 28.9387H9.35156Z" fill="#FFA000"/>
<path d="M29.6171 18.5315C25.493 18.4536 21.8681 18.22 19.3332 17.8956L14.802 22.9697H13.7775L16.4043 17.5193H0C0.210143 21.1659 2.61366 24.5269 6.55385 27.2521H33.5048L35.3566 18.9078C33.2552 18.843 31.2982 18.7132 29.6171 18.5315Z" fill="#FFA000"/>
<path d="M6.18488 7.00739C2.69125 9.51197 0.48474 12.5486 0.0644531 15.8318H16.1536L13.7763 10.9005H14.8008L19.0168 15.6372C21.5648 15.2868 25.3211 15.0402 29.6159 14.9494C31.2708 14.7677 33.2015 14.6379 35.2766 14.573L33.5955 7.00739H6.18488Z" fill="#FFA000"/>
<path d="M8.86523 5.32061H33.2288L32.0467 0C22.9186 0.0648855 14.6967 2.08931 8.86523 5.32061Z" fill="#FFA000"/>
</svg>
