<svg width="208" height="184" viewBox="0 0 208 184" fill="none" xmlns="http://www.w3.org/2000/svg">
<mask id="mask0" mask-type="alpha" maskUnits="userSpaceOnUse" x="0" y="0" width="208" height="184">
<rect width="208" height="184" transform="matrix(-1 0 0 1 208 0)" fill="#96C1EF"/>
</mask>
<g mask="url(#mask0)">
<g opacity="0.5" filter="url(#filter0_b)">
<rect width="208" height="184" rx="6" transform="matrix(-1 0 0 1 208 0)" fill="#96C1EF"/>
</g>
<g opacity="0.2" filter="url(#filter1_f)">
<path fill-rule="evenodd" clip-rule="evenodd" d="M163.6 120.913C172.807 122.339 180.971 122.199 188.093 119.269C189.868 118.53 196.917 114.079 189.061 114.328C187.316 114.76 185.817 115.011 184.454 115.199C184.362 115.232 184.202 115.269 184.106 115.218C184.106 115.218 184.059 115.221 184.014 115.251C181.769 115.489 180.017 115.694 178.141 115.303C172.534 114.133 165.886 111.689 159.47 111.856L132.629 127.835L131.12 140.34L163.6 120.913Z" fill="#D4A181"/>
<path fill-rule="evenodd" clip-rule="evenodd" d="M146.533 136.461L162.499 119.988C170.775 119.471 176.523 121.476 182.443 119.396C183.924 118.516 185.91 116.526 180.682 115.869C175.454 115.213 171.002 112.587 170.666 110.681C170.33 108.774 173.889 107.306 172.958 104.636C172.338 102.856 166.977 105.902 156.874 113.775L143.512 119.328L146.533 136.461Z" fill="#D4A181"/>
<path fill-rule="evenodd" clip-rule="evenodd" d="M81.4301 95.1286L93.6956 88.8158C101.032 97.2761 108.669 134.223 115.46 134.468C119.026 134.596 136.659 122.349 153.765 113.888L161.901 122.713C152.743 144.435 126.687 170.478 110.806 167.44C85.4165 162.584 89.9151 120.667 81.4301 95.1286Z" fill="#E87613"/>
<path fill-rule="evenodd" clip-rule="evenodd" d="M101.081 46.051C105.35 57.6767 111.896 84.0758 107.969 88.651L80.8034 91.0321C80.7964 90.9841 80.7895 90.9362 80.7826 90.8885C70.6166 90.6558 62.0395 82.7983 61.1336 72.4237L59.4143 52.7356C58.4421 41.6032 66.6709 31.7883 77.7938 30.8134L79.6672 30.6491C89.7683 29.7638 98.7824 36.4733 101.081 46.051Z" fill="#191847"/>
<path fill-rule="evenodd" clip-rule="evenodd" d="M71.353 67.7416C66.5935 63.0495 63.1293 57.0915 63.0099 50.0854C62.6657 29.8988 90.9602 31.8646 97.2728 41.5146C103.585 51.1646 105.182 76.907 98.3235 79.3323C95.5883 80.2994 89.4732 79.0542 83.0871 75.9271L89.2477 102.552L66.7631 104.524L71.353 67.7416Z" fill="#D4A181"/>
<path fill-rule="evenodd" clip-rule="evenodd" d="M77.1391 63.8183C79.1473 74.8635 79.8429 87.6169 77.0196 90.9062L52.6286 93.0441C50.9252 73.5375 61.5603 76.0102 59.3963 51.2293C60.2304 50.2576 61.015 49.2994 61.8013 48.4634L61.7074 47.7372C65.5697 37.6867 71.1166 32.3445 78.3482 31.7106C89.1955 30.7598 93.0605 35.5114 96.3502 39.5449C94.824 47.2222 86.4613 49.0738 79.3519 54.399C78.4029 53.7562 77.2354 53.4234 76.0048 53.5313C73.1594 53.7807 71.0544 56.2914 71.3031 59.1393C71.5518 61.9871 74.06 64.0935 76.9054 63.8441C76.9838 63.8372 77.0617 63.8286 77.1391 63.8183Z" fill="#191847"/>
<path fill-rule="evenodd" clip-rule="evenodd" d="M50.7514 176.373L72.4601 297.093L80.3144 391.661L94.7141 390.623L100.659 181.614L50.7514 176.373Z" fill="#D4A181"/>
<path fill-rule="evenodd" clip-rule="evenodd" d="M44.9805 175.648C47.9706 236.81 47.3408 270.216 46.8725 275.766C46.4042 281.315 42.6427 319.167 22.6215 384.524L36.0986 387.627C62.8192 324.851 76.3668 283.662 79.4393 275.46C82.516 267.203 91.4078 233.757 104.366 175.1L44.9805 175.648Z" fill="#D4A181"/>
<path fill-rule="evenodd" clip-rule="evenodd" d="M53.8631 179.212C58.4993 220.435 64.4992 286.392 76.9899 377.082H96.5713C102.407 286.392 103.444 228.898 99.6257 184.563L53.8631 179.212Z" fill="#191847"/>
<path fill-rule="evenodd" clip-rule="evenodd" d="M46.3977 175.753C49.3335 236.911 36.4694 294.343 26.1507 371.155L45.3515 372.589C70.0693 310.266 87.0639 248.051 99.7703 174.428L46.3977 175.753Z" fill="#2F3676"/>
<path d="M108.452 221.527C112.925 212.409 114.724 193.602 114.016 182.051C113.307 170.5 110.633 158.931 106.434 141.265C102.234 123.598 93.6705 109.106 92.5796 89.9955L65.7984 89.5041C62.853 89.4495 42.1808 127.451 41.6899 152.349C41.2535 175.117 19.8176 189.149 30.1265 224.912C47.6352 221.8 99.234 240.255 108.452 221.527Z" fill="#FF9B21"/>
<path d="M53.363 97.7814C45.3385 107.294 42.1415 117.826 46.9799 121.916C51.8183 126.005 62.2458 121.609 70.2703 112.096C78.2949 102.583 90.18 96.487 76.0393 87.4657C67.8173 82.2204 61.3876 88.2682 53.363 97.7814Z" fill="#FF9B21"/>
</g>
</g>
<mask id="mask1" mask-type="alpha" maskUnits="userSpaceOnUse" x="20" y="17" width="160" height="140">
<path fill-rule="evenodd" clip-rule="evenodd" d="M111.85 26.3116C118.02 30.2627 124.762 35.1622 130.631 39.7005L130.764 39.8029L174.995 75.9986C180.181 80.2422 180.948 87.8904 176.709 93.0814C172.47 98.2724 164.829 99.0404 159.644 94.7969L133.335 73.2676C141.442 83.2201 148.951 92.5182 155.328 100.669C160.358 107.099 164.772 112.925 168.266 117.872C171.621 122.624 174.596 127.21 176.3 130.963C176.976 132.452 178.407 135.759 178.234 139.567C178.133 141.804 177.416 145.31 174.513 148.297C171.578 151.315 168.036 152.135 165.686 152.267C161.751 152.487 158.304 150.985 156.666 150.229C154.498 149.228 152.127 147.858 149.633 146.269C141.647 141.182 129.36 131.874 111.952 117.679C112.734 118.718 113.469 119.718 114.16 120.68C118.439 126.642 121.933 132.401 123.22 137.546C123.855 140.082 124.558 144.809 121.925 149.488C118.929 154.815 113.798 156.424 110.52 156.769C107.427 157.095 104.525 156.543 102.443 156.006C100.188 155.424 97.8803 154.584 95.662 153.657C87.0008 150.034 75.9292 143.448 66.3205 137.191C56.6201 130.874 47.497 124.291 42.6229 120.254C37.4624 115.98 36.7405 108.327 41.0104 103.161C45.2803 97.9955 52.9251 97.2728 58.0856 101.547C61.9647 104.76 70.2401 110.778 79.5466 116.838C79.8435 117.031 80.1405 117.224 80.4376 117.416C79.0738 115.838 77.6298 114.187 76.1025 112.463C58.7904 92.9171 45.217 77.4685 36.1915 66.6257C31.7139 61.2465 28.1355 56.7396 25.7467 53.3199C24.6028 51.6823 23.3992 49.8279 22.5374 48.0083C22.1346 47.1578 21.4763 45.641 21.1557 43.7679C20.9043 42.2994 20.3169 37.4499 24.0317 33.1502C27.9556 28.6085 33.1351 28.6801 34.9143 28.8459C36.9611 29.0366 38.6232 29.6635 39.505 30.0281C41.419 30.8197 43.3781 31.9804 45.1061 33.0877C48.7323 35.4117 53.6254 39.0001 59.6882 43.6891C71.8135 53.0667 89.7031 67.6961 113.891 87.8195C110.109 83.1784 106.183 78.3775 102.16 73.4589C101.453 72.594 100.743 71.7254 100.03 70.8535C89.1337 57.5277 82.2833 47.9239 79.0678 41.3474C78.2259 39.6254 77.4262 37.7031 76.9258 35.6923C76.474 33.8768 75.9379 30.7286 76.975 27.2312C78.2488 22.936 81.4255 19.702 85.4495 18.2543C88.7263 17.0755 91.7296 17.3676 93.3931 17.6434C96.812 18.2102 100.207 19.7292 102.815 21.0517C105.682 22.5057 108.773 24.341 111.85 26.3116ZM154.386 141.428C154.381 141.425 154.348 141.347 154.303 141.202C154.369 141.359 154.392 141.431 154.386 141.428ZM167.107 128.305C167.253 128.349 167.331 128.382 167.334 128.387C167.337 128.393 167.264 128.371 167.107 128.305ZM109.03 132.609C109.03 132.609 109.017 132.608 108.992 132.604C109.017 132.606 109.03 132.609 109.03 132.609Z" fill="#DDEBFB"/>
</mask>
<g mask="url(#mask1)">
<path fill-rule="evenodd" clip-rule="evenodd" d="M111.85 26.3116C118.02 30.2627 124.762 35.1622 130.631 39.7005L130.764 39.8029L174.995 75.9986C180.181 80.2422 180.948 87.8904 176.709 93.0814C172.47 98.2724 164.829 99.0404 159.644 94.7969L133.335 73.2676C141.442 83.2201 148.951 92.5182 155.328 100.669C160.358 107.099 164.772 112.925 168.266 117.872C171.621 122.624 174.596 127.21 176.3 130.963C176.976 132.452 178.407 135.759 178.234 139.567C178.133 141.804 177.416 145.31 174.513 148.297C171.578 151.315 168.036 152.135 165.686 152.267C161.751 152.487 158.304 150.985 156.666 150.229C154.498 149.228 152.127 147.858 149.633 146.269C141.647 141.182 129.36 131.874 111.952 117.679C112.734 118.718 113.469 119.718 114.16 120.68C118.439 126.642 121.933 132.401 123.22 137.546C123.855 140.082 124.558 144.809 121.925 149.488C118.929 154.815 113.798 156.424 110.52 156.769C107.427 157.095 104.525 156.543 102.443 156.006C100.188 155.424 97.8803 154.584 95.662 153.657C87.0008 150.034 75.9292 143.448 66.3205 137.191C56.6201 130.874 47.497 124.291 42.6229 120.254C37.4624 115.98 36.7405 108.327 41.0104 103.161C45.2803 97.9955 52.9251 97.2728 58.0856 101.547C61.9647 104.76 70.2401 110.778 79.5466 116.838C79.8435 117.031 80.1405 117.224 80.4376 117.416C79.0738 115.838 77.6298 114.187 76.1025 112.463C58.7904 92.9171 45.217 77.4685 36.1915 66.6257C31.7139 61.2465 28.1355 56.7396 25.7467 53.3199C24.6028 51.6823 23.3992 49.8279 22.5374 48.0083C22.1346 47.1578 21.4763 45.641 21.1557 43.7679C20.9043 42.2994 20.3169 37.4499 24.0317 33.1502C27.9556 28.6085 33.1351 28.6801 34.9143 28.8459C36.9611 29.0366 38.6232 29.6635 39.505 30.0281C41.419 30.8197 43.3781 31.9804 45.1061 33.0877C48.7323 35.4117 53.6254 39.0001 59.6882 43.6891C71.8135 53.0667 89.7031 67.6961 113.891 87.8195C110.109 83.1784 106.183 78.3775 102.16 73.4589C101.453 72.594 100.743 71.7254 100.03 70.8535C89.1337 57.5277 82.2833 47.9239 79.0678 41.3474C78.2259 39.6254 77.4262 37.7031 76.9258 35.6923C76.474 33.8768 75.9379 30.7286 76.975 27.2312C78.2488 22.936 81.4255 19.702 85.4495 18.2543C88.7263 17.0755 91.7296 17.3676 93.3931 17.6434C96.812 18.2102 100.207 19.7292 102.815 21.0517C105.682 22.5057 108.773 24.341 111.85 26.3116ZM154.386 141.428C154.381 141.425 154.348 141.347 154.303 141.202C154.369 141.359 154.392 141.431 154.386 141.428ZM167.107 128.305C167.253 128.349 167.331 128.382 167.334 128.387C167.337 128.393 167.264 128.371 167.107 128.305ZM109.03 132.609C109.03 132.609 109.017 132.608 108.992 132.604C109.017 132.606 109.03 132.609 109.03 132.609Z" fill="#EAF4FF"/>
<g opacity="0.75">
<path fill-rule="evenodd" clip-rule="evenodd" d="M163.609 120.931C172.816 122.356 180.979 122.217 188.102 119.287C189.876 118.547 196.925 114.097 189.07 114.345C187.325 114.777 185.825 115.028 184.462 115.216C184.371 115.249 184.21 115.286 184.114 115.236C184.114 115.236 184.068 115.238 184.023 115.269C181.778 115.506 180.026 115.712 178.149 115.32C172.543 114.15 165.895 111.706 159.478 111.874L132.637 127.853L131.129 140.357L163.609 120.931Z" fill="#D4A181"/>
<path fill-rule="evenodd" clip-rule="evenodd" d="M146.542 136.479L162.508 120.005C170.784 119.488 176.532 121.493 182.452 119.414C183.933 118.533 185.919 116.543 180.691 115.886C175.463 115.23 171.011 112.604 170.674 110.698C170.338 108.792 173.898 107.323 172.967 104.653C172.347 102.873 166.985 105.92 156.883 113.793L143.52 119.345L146.542 136.479Z" fill="#D4A181"/>
<path fill-rule="evenodd" clip-rule="evenodd" d="M81.4305 95.1462L93.696 88.8334C101.032 97.2937 108.67 134.24 115.46 134.485C119.026 134.614 136.66 122.366 153.766 113.906L161.902 122.73C152.743 144.452 126.687 170.495 110.807 167.458C85.417 162.602 89.9155 120.685 81.4305 95.1462Z" fill="#E87613"/>
<path fill-rule="evenodd" clip-rule="evenodd" d="M101.075 46.0686C105.344 57.6943 111.889 84.0934 107.962 88.6686L80.7967 91.0497C80.7897 91.0017 80.7828 90.9538 80.776 90.9061C70.61 90.6734 62.0329 82.8159 61.1269 72.4414L59.4076 52.7532C58.4355 41.6208 66.6643 31.8059 77.7871 30.831L79.6606 30.6667C89.7616 29.7814 98.7758 36.4909 101.075 46.0686Z" fill="#191847"/>
<path fill-rule="evenodd" clip-rule="evenodd" d="M71.3506 67.7592C66.5911 63.0671 63.1269 57.1091 63.0075 50.103C62.6633 29.9164 90.9578 31.8822 97.2704 41.5322C103.583 51.1822 105.18 76.9246 98.3211 79.3499C95.5859 80.317 89.4708 79.0718 83.0847 75.9447L89.2453 102.569L66.7607 104.542L71.3506 67.7592Z" fill="#D4A181"/>
<path fill-rule="evenodd" clip-rule="evenodd" d="M77.1324 63.8359C79.1407 74.8811 79.8362 87.6345 77.0129 90.9238L52.622 93.0617C50.9185 73.5551 61.5536 76.0278 59.3896 51.247C60.2237 50.2752 61.0084 49.317 61.7946 48.481L61.7008 47.7548C65.563 37.7043 71.11 32.3621 78.3415 31.7282C89.1888 30.7774 93.0538 35.529 96.3436 39.5625C94.8174 47.2398 86.4547 49.0914 79.3452 54.4166C78.3963 53.7738 77.2287 53.441 75.9981 53.5489C73.1528 53.7983 71.0477 56.3091 71.2964 59.1569C71.5451 62.0047 74.0533 64.1111 76.8987 63.8617C76.9772 63.8548 77.0551 63.8462 77.1324 63.8359Z" fill="#191847"/>
<path d="M108.441 221.547C112.913 212.428 114.713 193.622 114.004 182.071C113.296 170.519 110.622 158.951 106.423 141.284C102.223 123.618 93.6592 109.125 92.5683 90.0151L65.7871 89.5237C62.8417 89.4691 42.1695 127.471 41.6786 152.368C41.2422 175.136 19.8063 189.169 30.1152 224.932C47.6239 221.819 99.2227 240.274 108.441 221.547Z" fill="#FF9B21"/>
</g>
</g>
<defs>
<filter id="filter0_b" x="-10" y="-10" width="228" height="204" filterUnits="userSpaceOnUse" color-interpolation-filters="sRGB">
<feFlood flood-opacity="0" result="BackgroundImageFix"/>
<feGaussianBlur in="BackgroundImage" stdDeviation="5"/>
<feComposite in2="SourceAlpha" operator="in" result="effect1_backgroundBlur"/>
<feBlend mode="normal" in="SourceGraphic" in2="effect1_backgroundBlur" result="shape"/>
</filter>
<filter id="filter1_f" x="13.5532" y="26.5708" width="183.145" height="379.903" filterUnits="userSpaceOnUse" color-interpolation-filters="sRGB">
<feFlood flood-opacity="0" result="BackgroundImageFix"/>
<feBlend mode="normal" in="SourceGraphic" in2="BackgroundImageFix" result="shape"/>
<feGaussianBlur stdDeviation="2" result="effect1_foregroundBlur"/>
</filter>
</defs>
</svg>
