<svg width="261" height="176" viewBox="0 0 261 176" fill="none" xmlns="http://www.w3.org/2000/svg">
<path fill-rule="evenodd" clip-rule="evenodd" d="M151.866 77.3796H108.354V165.235H151.866V77.3796ZM130.501 140.362C136.356 140.362 141.103 135.607 141.103 129.741C141.103 123.876 136.356 119.121 130.501 119.121C124.646 119.121 119.899 123.876 119.899 129.741C119.899 135.607 124.646 140.362 130.501 140.362Z" fill="#636363"/>
<rect y="164.94" width="261" height="11.06" fill="#CCCCCC"/>
<rect x="93.1518" y="159.764" width="73.9188" height="5.46985" rx="1" fill="#8D8D8D"/>
<rect x="26.4901" width="208.017" height="129.741" rx="4" fill="#2A2A2A"/>
<rect x="30.6452" y="4.79102" width="198.926" height="120.16" fill="#E4E4E4"/>
<path d="M194.715 126.197H226.514L222.369 130.09C221.442 130.96 220.218 131.445 218.947 131.445H202.283C201.011 131.445 199.787 130.96 198.86 130.09L194.715 126.197Z" fill="#2A2A2A"/>
<rect x="203.676" y="127.349" width="13.8777" height="1.80774" rx="0.90387" fill="#4D4D4D"/>
<path d="M30.7894 125.068L229.309 4.56689H30.7894V125.068Z" fill="url(#paint0_linear)"/>
<rect x="52.146" y="77.3796" width="160.222" height="2.4301" rx="1.21505" fill="#B7B6BB"/>
<ellipse cx="151.484" cy="78.5943" rx="4.08438" ry="4.09137" fill="#3E1D85"/>
<rect x="103.763" y="30.1072" width="95.4476" height="34.7676" rx="3" fill="white"/>
<rect x="103.763" y="30.1072" width="95.4476" height="34.7676" rx="3" fill="white"/>
<rect width="27.4677" height="27.4677" rx="3" transform="matrix(0.706502 0.707711 -0.706502 0.707711 151.48 33.3816)" fill="white"/>
<rect width="27.4677" height="27.4677" rx="3" transform="matrix(0.706502 0.707711 -0.706502 0.707711 151.48 33.3816)" fill="white"/>
<path d="M122.104 44.5369C123.791 44.6277 125.164 45.2026 126.224 46.2617C127.29 47.3133 127.824 48.622 127.824 50.188C127.824 51.8296 127.237 53.2027 126.065 54.3072C124.9 55.4041 123.424 55.9526 121.639 55.9526C119.876 55.9526 118.409 55.4041 117.236 54.3072C116.064 53.2027 115.477 51.8296 115.477 50.188C115.477 49.1062 115.874 47.926 116.669 46.6475L121.389 39.351H124.987L121.616 44.5596C121.722 44.5444 121.885 44.5369 122.104 44.5369ZM119.46 52.276C120.013 52.8207 120.739 53.093 121.639 53.093C122.539 53.093 123.266 52.8169 123.818 52.2646C124.378 51.7124 124.658 51.0202 124.658 50.188C124.658 49.3634 124.378 48.6788 123.818 48.1341C123.266 47.5818 122.539 47.3057 121.639 47.3057C120.754 47.3057 120.031 47.5818 119.472 48.1341C118.919 48.6788 118.643 49.3634 118.643 50.188C118.643 51.0277 118.916 51.7237 119.46 52.276ZM131.603 55.8051C131.059 55.8051 130.605 55.6198 130.242 55.2491C129.879 54.8784 129.697 54.4282 129.697 53.8987C129.697 53.3994 129.882 52.9757 130.253 52.6278C130.624 52.2722 131.074 52.0944 131.603 52.0944C132.133 52.0944 132.579 52.2722 132.942 52.6278C133.306 52.9833 133.487 53.407 133.487 53.8987C133.487 54.4282 133.306 54.8784 132.942 55.2491C132.579 55.6198 132.133 55.8051 131.603 55.8051ZM141.159 52.7412H148.059V55.6235H136.302V53.4334L142.646 47.4646C143.327 46.8291 143.83 46.2806 144.155 45.8192C144.48 45.3501 144.643 44.847 144.643 44.3099C144.643 43.5685 144.416 42.9822 143.962 42.551C143.516 42.1123 142.892 41.8929 142.09 41.8929C141.348 41.8929 140.709 42.1387 140.172 42.6305C139.635 43.1146 139.283 43.7577 139.117 44.5596L136.257 43.7425C136.431 42.4565 137.048 41.352 138.107 40.429C139.166 39.4985 140.471 39.0333 142.022 39.0333C143.754 39.0333 145.15 39.4834 146.209 40.3836C147.276 41.2763 147.809 42.5283 147.809 44.1397C147.809 45.1005 147.567 45.9742 147.083 46.761C146.606 47.5402 145.853 48.4026 144.825 49.3483L141.159 52.7412ZM150.182 57.7342L159.385 37.263H161.824L152.621 57.7342H150.182ZM168.067 39.351H170.79V55.6235H167.556V42.9142L163.902 44.605L163.142 41.8929L168.067 39.351ZM185.532 53.5923C184.352 55.1658 182.706 55.9526 180.596 55.9526C178.493 55.9526 176.843 55.1658 175.648 53.5923C174.46 52.0188 173.866 49.9838 173.866 47.4873C173.866 44.9757 174.46 42.9406 175.648 41.3822C176.843 39.8163 178.493 39.0333 180.596 39.0333C182.706 39.0333 184.352 39.8163 185.532 41.3822C186.72 42.9406 187.313 44.9757 187.313 47.4873C187.313 49.9838 186.72 52.0188 185.532 53.5923ZM177.952 51.5611C178.557 52.5521 179.438 53.0476 180.596 53.0476C181.761 53.0476 182.642 52.5521 183.24 51.5611C183.837 50.57 184.136 49.2159 184.136 47.4986C184.136 45.7738 183.837 44.4158 183.24 43.4248C182.642 42.4338 181.761 41.9383 180.596 41.9383C179.438 41.9383 178.557 42.4338 177.952 43.4248C177.346 44.4158 177.044 45.7738 177.044 47.4986C177.044 49.2159 177.346 50.57 177.952 51.5611Z" fill="#3E1D85"/>
<defs>
<linearGradient id="paint0_linear" x1="182.078" y1="-39.4194" x2="129.887" y2="125.016" gradientUnits="userSpaceOnUse">
<stop stop-color="#F7F7F7"/>
<stop offset="1" stop-color="#EFEFEF" stop-opacity="0"/>
</linearGradient>
</defs>
</svg>
