<svg width="135" height="296" viewBox="0 0 135 296" fill="none" xmlns="http://www.w3.org/2000/svg">
<path fill-rule="evenodd" clip-rule="evenodd" d="M95.649 86.4015L86.3568 84.1557C82.7965 91.0555 83.6846 117.195 79.1507 118.471C76.7697 119.141 62.893 113.776 49.9897 110.875L45.9505 118.151C55.6658 131.286 77.4677 144.567 87.6683 139.922C103.977 132.496 94.1034 104.994 95.649 86.4015Z" fill="#E87613"/>
<path fill-rule="evenodd" clip-rule="evenodd" d="M77.1024 48.921C74.1437 56.98 69.6072 75.28 72.3292 78.4517L91.1578 80.1025C91.1626 80.0693 91.1674 80.0361 91.1722 80.003C98.2183 79.8418 104.163 74.3949 104.791 67.2032L105.982 53.5552C106.656 45.8382 100.953 39.0343 93.2432 38.3584L91.9447 38.2445C84.9435 37.6307 78.6957 42.2817 77.1024 48.921Z" fill="#191847"/>
<path fill-rule="evenodd" clip-rule="evenodd" d="M97.7077 63.9571C101.007 60.7046 103.408 56.5745 103.49 51.7178C103.728 37.7244 84.1168 39.0865 79.7415 45.7759C75.3662 52.4652 74.2601 70.3101 79.0139 71.9914C80.9097 72.6619 85.1483 71.7988 89.5746 69.6311L85.305 88.0875L100.89 89.455L97.7077 63.9571Z" fill="#D4A181"/>
<path fill-rule="evenodd" clip-rule="evenodd" d="M93.6987 61.237C92.3069 68.8936 91.8249 77.7344 93.7818 80.0146L110.687 81.4968C111.868 67.9747 104.497 69.6886 105.996 52.5104C105.418 51.8367 104.874 51.1725 104.329 50.5929L104.394 50.0896C101.717 43.1224 97.8727 39.4191 92.8604 38.9796C85.342 38.3204 82.6631 41.6142 80.383 44.4102C81.4409 49.7322 87.2372 51.0158 92.1649 54.7074C92.8227 54.2618 93.6319 54.0311 94.4848 54.1059C96.457 54.2788 97.916 56.0193 97.7437 57.9935C97.5713 59.9676 95.8329 61.4278 93.8607 61.2548C93.8063 61.2501 93.7523 61.2441 93.6987 61.237Z" fill="#191847"/>
<path fill-rule="evenodd" clip-rule="evenodd" d="M111.993 139.263L89.8831 222.222L91.503 288.504L81.5225 287.785L77.4018 142.897L111.993 139.263Z" fill="#D4A181"/>
<path fill-rule="evenodd" clip-rule="evenodd" d="M115.978 138.761C113.906 181.159 114.342 204.317 114.667 208.164C114.992 212.011 117.599 238.25 131.475 283.557L122.134 285.708C103.614 242.191 96.2458 213.075 94.1162 207.389C91.9838 201.665 83.7995 179.043 74.818 138.381L115.978 138.761Z" fill="#D4A181"/>
<path fill-rule="evenodd" clip-rule="evenodd" d="M111.804 144.941C109.638 164.204 97.9236 191.009 93.8098 225.855C91.8211 242.701 96.6312 257.91 93.8098 278.398H80.2379C78.9064 257.703 71.8997 239.636 71.2904 223.433C70.0489 190.413 76.3457 165.557 78.1209 144.94L111.804 144.941Z" fill="#191847"/>
<path fill-rule="evenodd" clip-rule="evenodd" d="M115.007 138.834C112.972 181.23 121.889 221.042 129.04 274.29L115.732 275.284C98.6003 232.08 86.8214 188.952 78.0146 137.915L115.007 138.834Z" fill="#2F3676"/>
<mask id="mask0" mask-type="alpha" maskUnits="userSpaceOnUse" x="68" y="79" width="61" height="98">
<path d="M71.9943 170.564C68.8943 164.244 67.647 151.207 68.1382 143.199C68.6294 135.192 70.4824 127.172 73.393 114.926C76.3037 102.679 82.2393 92.6322 82.9954 79.3849L101.558 79.0442C103.599 79.0064 117.927 105.35 118.267 122.609C118.57 138.392 133.427 148.12 126.282 172.911C114.146 170.754 78.3833 183.547 71.9943 170.564Z" fill="#FF9B21"/>
</mask>
<g mask="url(#mask0)">
<path d="M71.9943 170.564C68.8943 164.244 67.647 151.207 68.1382 143.199C68.6294 135.192 70.4824 127.172 73.393 114.926C76.3037 102.679 82.2393 92.6322 82.9954 79.3849L101.558 79.0442C103.599 79.0064 117.927 105.35 118.267 122.609C118.57 138.392 133.427 148.12 126.282 172.911C114.146 170.754 78.3833 183.547 71.9943 170.564Z" fill="#FF9B21"/>
<path opacity="0.5" fill-rule="evenodd" clip-rule="evenodd" d="M98.6619 92.5024L90.5056 95.7453C84.4987 107.053 83.7671 132.744 79.6023 134.946C77.4152 136.102 62.7221 133.776 49.4981 133.655L47.0764 141.619C59.332 152.416 83.4348 160.813 92.4326 154.126C106.818 143.434 101.054 111.005 98.6619 92.5024Z" fill="#E87613"/>
</g>
<path fill-rule="evenodd" clip-rule="evenodd" d="M132.505 282.488C133.639 284.229 134.282 285.554 134.471 286.462C134.735 287.597 134.887 289.301 135 291.572L114.812 296L99.5392 295.962C97.9514 293.123 98.1026 291.723 100.068 291.042C100.182 291.004 100.295 290.966 100.409 290.928C103.584 289.831 106.722 289.831 110.124 288.468L119.765 281.352C120.067 281.125 120.445 281.201 120.672 281.504L122.298 283.85C124.339 284.305 125.927 284.418 127.061 284.153C128.006 283.964 129.216 283.283 130.69 282.185C131.257 281.769 132.051 281.882 132.505 282.45C132.467 282.45 132.505 282.45 132.505 282.488Z" fill="#393D64"/>
<path fill-rule="evenodd" clip-rule="evenodd" d="M92.7094 286.424C93.4277 288.354 93.8058 289.793 93.8058 290.739C93.8058 291.912 93.6168 293.615 93.2387 295.811C91.8777 295.811 79.7802 295.811 56.9462 295.811C56.001 292.669 56.5303 291.004 58.5718 290.739C60.6132 290.474 62.2766 290.247 63.6376 290.058L80.4985 282.525C80.8387 282.374 81.2168 282.525 81.3302 282.866L82.4265 285.516C84.3168 286.386 85.829 286.84 87.0009 286.84C87.946 286.84 89.2692 286.462 90.9704 285.667C91.6131 285.364 92.3692 285.667 92.6716 286.31C92.6716 286.348 92.7094 286.386 92.7094 286.424Z" fill="#232746"/>
<mask id="mask1" mask-type="alpha" maskUnits="userSpaceOnUse" x="3" y="43" width="66" height="88">
<path d="M65.2784 120.744V129.753L31.2313 130.97L4.80468 130.321V120.744H6.1017L7.47977 107.921H4.80468V103.538H3.6698V99.5615H4.80468V88.3616H6.7502V79.1094H5.53425V73.0223H6.7502L7.47977 65.2312H5.53425L6.7502 55.5733H8.12827V46.6457H6.7502V43.3994H33.0957L66.8177 44.2923V46.159H68.0348V55.5733H65.6831L64.8724 65.2312H68.0348V73.0223H65.6831V79.1094H66.8177V88.3616H65.2784V99.5615H64.3861V103.538H65.2784L65.6831 107.921H68.0348L66.8177 120.744H65.2784Z" fill="#C4C4C4"/>
</mask>
<g mask="url(#mask1)">
<path d="M65.2784 120.744V129.753L31.2313 130.97L4.80468 130.321V120.744H6.1017L7.47977 107.921H4.80468V103.538H3.6698V99.5615H4.80468V88.3616H6.7502V79.1094H5.53425V73.0223H6.7502L7.47977 65.2312H5.53425L6.7502 55.5733H8.12827V46.6457H6.7502V43.3994H33.0957L66.8177 44.2923V46.159H68.0348V55.5733H65.6831L64.8724 65.2312H68.0348V73.0223H65.6831V79.1094H66.8177V88.3616H65.2784V99.5615H64.3861V103.538H65.2784L65.6831 107.921H68.0348L66.8177 120.744H65.2784Z" fill="white"/>
<path d="M31.0305 120.779H29.6528V127.167H18.3572L29.6528 127.941V133.278H71.5869V41.0916H31.4073V46.2062H4.9321L32.4721 47.7183V49.9715L10.5933 50.1205L32.4721 50.7161V55.2791H30.4636L29.6528 64.8853H4.57545L32.1616 66.6199L31.8421 72.7129L30.0294 72.9353L30.4636 78.8204H4.19916L31.0305 80.5246V88.1536H29.6528V91.7855H7.26164L29.6528 92.7683V99.2723H28.7613V102.924H3.14533L29.2477 104.061V107.551H5.65829L31.8421 109.011L31.6242 113.735L13.1217 113.526L31.4363 114.895L31.0305 120.779Z" fill="#D5D6D8"/>
<path d="M66.3704 120.948L68.0348 123.867L65.0155 122.72L28.6663 121.469L66.3704 120.948Z" fill="#C4C4C4"/>
<path d="M28.771 99.5659H67.4203L69.0847 103.424H28.771V99.5659Z" fill="#CDCDCD"/>
<path d="M31.04 78.8838L70.6062 78.8025L72.3559 88.7197L31.04 88.17V78.8838Z" fill="#CDCDCD"/>
<path d="M30.5274 55.3657H69.8326L71.653 65.3064H29.7247L30.5274 55.3657Z" fill="#CDCDCD"/>
<path d="M31.4118 36.2598H71.5196L73.3401 46.2004H31.4118V36.2598Z" fill="#C4C4C4"/>
<path d="M28.1071 99.5559L69.4868 101.213L69.03 99.5559H28.1071Z" fill="#AEAEAE"/>
<path d="M28.9353 88.2456L70.315 89.1031L69.8582 88.2456H28.9353Z" fill="#AEAEAE"/>
<path d="M28.552 73.1047L69.9317 73.9622L69.4749 73.1047H28.552Z" fill="#AEAEAE"/>
<path d="M27.8611 55.5435L69.2409 56.4009L68.7841 55.5435H27.8611Z" fill="#AEAEAE"/>
</g>
<path fill-rule="evenodd" clip-rule="evenodd" d="M44.9225 133.342C38.6461 134.861 32.9998 135.239 27.9106 133.628C26.6422 133.221 21.5156 130.556 26.9557 130.271C28.186 130.468 29.2361 130.555 30.1884 130.605C30.2534 130.623 30.3666 130.639 30.43 130.599C30.43 130.599 30.4622 130.598 30.495 130.616C32.0593 130.65 33.2811 130.69 34.5547 130.31C38.3592 129.177 42.8091 127.102 47.2505 126.845L66.7148 136.324L68.4812 144.875L44.9225 133.342Z" fill="#D4A181"/>
<path fill-rule="evenodd" clip-rule="evenodd" d="M59.4485 140.176L45.6306 132.639C39.885 132.763 36.031 134.481 31.8219 133.389C30.748 132.867 29.2608 131.607 32.8336 130.85C36.4064 130.093 39.3293 128.021 39.451 126.684C39.5727 125.348 37.0292 124.54 37.5173 122.642C37.8426 121.376 41.7221 123.169 49.1556 128.021L58.7065 131.081L59.4485 140.176Z" fill="#D4A181"/>
<path fill-rule="evenodd" clip-rule="evenodd" d="M98.6589 85.9204L90.5026 89.1633C84.4958 100.471 83.7641 126.162 79.5993 128.364C77.4122 129.52 62.7191 127.194 49.4951 127.073L47.0734 135.037C59.329 145.834 83.4318 154.231 92.4296 147.544C106.815 136.852 101.051 104.423 98.6589 85.9204Z" fill="#FF9B21"/>
<mask id="mask2" mask-type="alpha" maskUnits="userSpaceOnUse" x="0" y="0" width="64" height="45">
<path d="M62.013 44.9622H60.4737H1.94551V35.71H0.729565V29.6229H1.94551L2.67508 21.8317H0.729565L1.94551 12.1739H3.32359V3.2463H1.94551V0H28.291L62.013 0.892841V2.75957H63.2301V12.1739H60.8784L60.0677 21.8317H63.2301V29.6229H60.8784V35.71H62.013V44.9622Z" fill="#F5F5F5"/>
</mask>
<g mask="url(#mask2)">
<path d="M62.013 44.9622H60.4737H1.94551V35.71H0.729565V29.6229H1.94551L2.67508 21.8317H0.729565L1.94551 12.1739H3.32359V3.2463H1.94551V0H28.291L62.013 0.892841V2.75957H63.2301V12.1739H60.8784L60.0677 21.8317H63.2301V29.6229H60.8784V35.71H62.013V44.9622Z" fill="white"/>
<path d="M26.3348 77.3455H24.9571V83.7327H13.6615L24.9571 84.507V89.8439H66.8912V-2.34229H26.7116V2.77238H0.23645L27.7765 4.28447V6.5377L5.89762 6.68661L27.7765 7.28226V11.8452H25.7679L24.9571 21.4515H-0.120193L27.466 23.186L27.1465 29.279L25.3338 29.5015L25.7679 35.3865H-0.49649L26.3348 37.0907V44.7197H24.9571V48.3516H2.56599L24.9571 49.3344V55.8385H24.0656V59.4906H-1.55032L24.552 60.6269V64.1167H0.962646L27.1465 65.5774L26.9286 70.301L8.4261 70.0925L26.7406 71.4614L26.3348 77.3455Z" fill="#D5D6D8"/>
<path d="M26.3442 35.45L65.9104 35.3687L67.6601 45.2858L26.3442 44.7362V35.45Z" fill="#CDCDCD"/>
<path d="M25.832 11.9321H65.1372L66.9576 21.8728H25.0293L25.832 11.9321Z" fill="#CDCDCD"/>
<path d="M26.7155 -7.17407H66.8233L68.6437 2.76658H26.7155V-7.17407Z" fill="#C4C4C4"/>
<path d="M24.2391 44.812L65.6188 45.6695L65.162 44.812H24.2391Z" fill="#AEAEAE"/>
<path d="M23.8605 29.6707L65.2402 30.5281L64.7835 29.6707H23.8605Z" fill="#AEAEAE"/>
<path d="M23.1657 12.1094L64.5455 12.9669L64.0887 12.1094H23.1657Z" fill="#AEAEAE"/>
</g>
</svg>
