<svg width="202" height="260" fill="none" xmlns="http://www.w3.org/2000/svg">
  <path d="M101.04 131.95a1.95 1.95 0 100-3.9 1.95 1.95 0 000 3.9z" fill="#D6D6D6"/>
  <path d="M88.3 260a1.95 1.95 0 100-3.9 1.95 1.95 0 000 3.9zM83.23 260a1.95 1.95 0 100-3.9 1.95 1.95 0 000 3.9zM113.7 253.43a1.95 1.95 0 100-3.9 1.95 1.95 0 000 3.9zM108.62 253.43a1.95 1.95 0 100-3.9 1.95 1.95 0 000 3.9zM103.54 253.43a1.95 1.95 0 100-3.9 1.95 1.95 0 000 3.9zM98.46 253.43a1.95 1.95 0 100-3.9 1.95 1.95 0 000 3.9zM93.38 253.43a1.95 1.95 0 100-3.9 1.95 1.95 0 000 3.9zM88.3 253.43a1.95 1.95 0 100-3.9 1.95 1.95 0 000 3.9zM113.7 246.87a1.95 1.95 0 100-3.91 1.95 1.95 0 000 3.9zM108.62 246.87a1.95 1.95 0 100-3.91 1.95 1.95 0 000 3.9zM103.54 246.87a1.95 1.95 0 100-3.91 1.95 1.95 0 000 3.9zM98.46 246.87a1.95 1.95 0 100-3.91 1.95 1.95 0 000 3.9zM93.38 246.87a1.95 1.95 0 100-3.91 1.95 1.95 0 000 3.9zM88.3 246.87a1.95 1.95 0 100-3.91 1.95 1.95 0 000 3.9zM179.73 240.3a1.95 1.95 0 100-3.9 1.95 1.95 0 000 3.9zM174.65 240.3a1.95 1.95 0 100-3.9 1.95 1.95 0 000 3.9zM169.57 240.3a1.95 1.95 0 100-3.9 1.95 1.95 0 000 3.9zM164.5 240.3a1.95 1.95 0 10-.01-3.9 1.95 1.95 0 000 3.9zM159.41 240.3a1.95 1.95 0 100-3.9 1.95 1.95 0 000 3.9zM154.33 240.3a1.95 1.95 0 100-3.9 1.95 1.95 0 000 3.9zM149.26 240.3a1.95 1.95 0 100-3.9 1.95 1.95 0 000 3.9zM144.18 240.3a1.95 1.95 0 100-3.9 1.95 1.95 0 000 3.9zM139.1 240.3a1.95 1.95 0 100-3.9 1.95 1.95 0 000 3.9zM134.02 240.3a1.95 1.95 0 100-3.9 1.95 1.95 0 000 3.9zM128.94 240.3a1.95 1.95 0 100-3.9 1.95 1.95 0 000 3.9zM123.86 240.3a1.95 1.95 0 100-3.9 1.95 1.95 0 000 3.9zM118.78 240.3a1.95 1.95 0 100-3.9 1.95 1.95 0 000 3.9zM113.7 240.3a1.95 1.95 0 100-3.9 1.95 1.95 0 000 3.9zM108.62 240.3a1.95 1.95 0 100-3.9 1.95 1.95 0 000 3.9zM103.54 240.3a1.95 1.95 0 100-3.9 1.95 1.95 0 000 3.9zM98.46 240.3a1.95 1.95 0 100-3.9 1.95 1.95 0 000 3.9zM189.89 233.73a1.95 1.95 0 100-3.9 1.95 1.95 0 000 3.9zM184.81 233.73a1.95 1.95 0 100-3.9 1.95 1.95 0 000 3.9zM179.73 233.73a1.95 1.95 0 100-3.9 1.95 1.95 0 000 3.9zM174.65 233.73a1.95 1.95 0 100-3.9 1.95 1.95 0 000 3.9zM169.57 233.73a1.95 1.95 0 100-3.9 1.95 1.95 0 000 3.9zM164.5 233.73a1.95 1.95 0 10-.01-3.9 1.95 1.95 0 000 3.9zM159.41 233.73a1.95 1.95 0 100-3.9 1.95 1.95 0 000 3.9zM154.33 233.73a1.95 1.95 0 100-3.9 1.95 1.95 0 000 3.9zM149.26 233.73a1.95 1.95 0 100-3.9 1.95 1.95 0 000 3.9zM144.18 233.73a1.95 1.95 0 100-3.9 1.95 1.95 0 000 3.9zM139.1 233.73a1.95 1.95 0 100-3.9 1.95 1.95 0 000 3.9zM134.02 233.73a1.95 1.95 0 100-3.9 1.95 1.95 0 000 3.9zM128.94 233.73a1.95 1.95 0 100-3.9 1.95 1.95 0 000 3.9zM123.86 233.73a1.95 1.95 0 100-3.9 1.95 1.95 0 000 3.9zM118.78 233.73a1.95 1.95 0 100-3.9 1.95 1.95 0 000 3.9zM113.7 233.73a1.95 1.95 0 100-3.9 1.95 1.95 0 000 3.9zM108.62 233.73a1.95 1.95 0 100-3.9 1.95 1.95 0 000 3.9zM103.54 233.73a1.95 1.95 0 100-3.9 1.95 1.95 0 000 3.9zM194.97 227.17a1.95 1.95 0 100-3.9 1.95 1.95 0 000 3.9zM189.89 227.17a1.95 1.95 0 100-3.9 1.95 1.95 0 000 3.9zM184.81 227.17a1.95 1.95 0 100-3.91 1.95 1.95 0 000 3.9zM179.73 227.17a1.95 1.95 0 100-3.91 1.95 1.95 0 000 3.9zM174.65 227.17a1.95 1.95 0 100-3.91 1.95 1.95 0 000 3.9zM169.57 227.17a1.95 1.95 0 100-3.9 1.95 1.95 0 000 3.9zM164.5 227.17a1.95 1.95 0 10-.01-3.9 1.95 1.95 0 000 3.9zM159.41 227.17a1.95 1.95 0 100-3.91 1.95 1.95 0 000 3.9zM154.33 227.17a1.95 1.95 0 100-3.91 1.95 1.95 0 000 3.9zM149.26 227.17a1.95 1.95 0 100-3.91 1.95 1.95 0 000 3.9zM144.18 227.17a1.95 1.95 0 100-3.9 1.95 1.95 0 000 3.9zM139.1 227.17a1.95 1.95 0 100-3.91 1.95 1.95 0 000 3.9zM134.02 227.17a1.95 1.95 0 100-3.91 1.95 1.95 0 000 3.9zM128.94 227.17a1.95 1.95 0 100-3.91 1.95 1.95 0 000 3.9zM123.86 227.17a1.95 1.95 0 100-3.91 1.95 1.95 0 000 3.9zM184.81 220.6a1.95 1.95 0 100-3.9 1.95 1.95 0 000 3.9zM179.73 220.6a1.95 1.95 0 100-3.9 1.95 1.95 0 000 3.9zM174.65 220.6a1.95 1.95 0 100-3.9 1.95 1.95 0 000 3.9zM169.57 220.6a1.95 1.95 0 100-3.9 1.95 1.95 0 000 3.9zM164.5 220.6a1.95 1.95 0 10-.01-3.9 1.95 1.95 0 000 3.9zM159.41 220.6a1.95 1.95 0 100-3.9 1.95 1.95 0 000 3.9zM154.33 220.6a1.95 1.95 0 100-3.9 1.95 1.95 0 000 3.9zM149.26 220.6a1.95 1.95 0 100-3.9 1.95 1.95 0 000 3.9zM144.18 220.6a1.95 1.95 0 100-3.9 1.95 1.95 0 000 3.9zM139.1 220.6a1.95 1.95 0 100-3.9 1.95 1.95 0 000 3.9zM134.02 220.6a1.95 1.95 0 100-3.9 1.95 1.95 0 000 3.9zM128.94 220.6a1.95 1.95 0 100-3.9 1.95 1.95 0 000 3.9zM118.78 220.6a1.95 1.95 0 100-3.9 1.95 1.95 0 000 3.9zM113.7 220.6a1.95 1.95 0 100-3.9 1.95 1.95 0 000 3.9z" fill="#3E1D85"/>
  <path d="M22.27 220.6a1.95 1.95 0 100-3.9 1.95 1.95 0 000 3.9zM17.19 220.6a1.95 1.95 0 100-3.9 1.95 1.95 0 000 3.9zM12.11 220.6a1.95 1.95 0 100-3.9 1.95 1.95 0 000 3.9z" fill="#D6D6D6"/>
  <path d="M184.81 214.03a1.95 1.95 0 100-3.9 1.95 1.95 0 000 3.9zM179.73 214.03a1.95 1.95 0 100-3.9 1.95 1.95 0 000 3.9zM174.65 214.03a1.95 1.95 0 100-3.9 1.95 1.95 0 000 3.9zM169.57 214.03a1.95 1.95 0 100-3.9 1.95 1.95 0 000 3.9zM164.5 214.03a1.95 1.95 0 10-.01-3.9 1.95 1.95 0 000 3.9zM159.41 214.03a1.95 1.95 0 100-3.9 1.95 1.95 0 000 3.9zM154.33 214.03a1.95 1.95 0 100-3.9 1.95 1.95 0 000 3.9zM149.26 214.03a1.95 1.95 0 100-3.9 1.95 1.95 0 000 3.9zM144.18 214.03a1.95 1.95 0 100-3.9 1.95 1.95 0 000 3.9zM139.1 214.03a1.95 1.95 0 100-3.9 1.95 1.95 0 000 3.9zM134.02 214.03a1.95 1.95 0 100-3.9 1.95 1.95 0 000 3.9zM128.94 214.03a1.95 1.95 0 100-3.9 1.95 1.95 0 000 3.9zM123.86 214.03a1.95 1.95 0 100-3.9 1.95 1.95 0 000 3.9zM118.78 214.03a1.95 1.95 0 100-3.9 1.95 1.95 0 000 3.9zM113.7 214.03a1.95 1.95 0 100-3.9 1.95 1.95 0 000 3.9zM108.62 214.03a1.95 1.95 0 100-3.9 1.95 1.95 0 000 3.9zM103.54 214.03a1.95 1.95 0 100-3.9 1.95 1.95 0 000 3.9zM98.46 214.03a1.95 1.95 0 100-3.9 1.95 1.95 0 000 3.9zM93.38 214.03a1.95 1.95 0 100-3.9 1.95 1.95 0 000 3.9zM88.3 214.03a1.95 1.95 0 100-3.9 1.95 1.95 0 000 3.9z" fill="#3E1D85"/>
  <path d="M32.43 214.03a1.95 1.95 0 100-3.9 1.95 1.95 0 000 3.9zM27.35 214.03a1.95 1.95 0 100-3.9 1.95 1.95 0 000 3.9zM22.27 214.03a1.95 1.95 0 100-3.9 1.95 1.95 0 000 3.9zM17.19 214.03a1.95 1.95 0 100-3.9 1.95 1.95 0 000 3.9zM12.11 214.03a1.95 1.95 0 100-3.9 1.95 1.95 0 000 3.9z" fill="#D6D6D6"/>
  <path d="M194.97 207.47a1.95 1.95 0 100-3.9 1.95 1.95 0 000 3.9zM189.89 207.47a1.95 1.95 0 100-3.9 1.95 1.95 0 000 3.9zM184.81 207.47a1.95 1.95 0 100-3.91 1.95 1.95 0 000 3.9zM179.73 207.47a1.95 1.95 0 100-3.91 1.95 1.95 0 000 3.9zM174.65 207.47a1.95 1.95 0 100-3.91 1.95 1.95 0 000 3.9zM169.57 207.47a1.95 1.95 0 100-3.9 1.95 1.95 0 000 3.9zM164.5 207.47a1.95 1.95 0 10-.01-3.9 1.95 1.95 0 000 3.9zM159.41 207.47a1.95 1.95 0 100-3.91 1.95 1.95 0 000 3.9zM154.33 207.47a1.95 1.95 0 100-3.91 1.95 1.95 0 000 3.9zM149.26 207.47a1.95 1.95 0 100-3.91 1.95 1.95 0 000 3.9zM144.18 207.47a1.95 1.95 0 100-3.9 1.95 1.95 0 000 3.9zM139.1 207.47a1.95 1.95 0 100-3.91 1.95 1.95 0 000 3.9zM134.02 207.47a1.95 1.95 0 100-3.91 1.95 1.95 0 000 3.9zM128.94 207.47a1.95 1.95 0 100-3.91 1.95 1.95 0 000 3.9zM123.86 207.47a1.95 1.95 0 100-3.91 1.95 1.95 0 000 3.9zM118.78 207.47a1.95 1.95 0 100-3.9 1.95 1.95 0 000 3.9zM113.7 207.47a1.95 1.95 0 100-3.9 1.95 1.95 0 000 3.9zM108.62 207.47a1.95 1.95 0 100-3.91 1.95 1.95 0 000 3.9zM103.54 207.47a1.95 1.95 0 100-3.91 1.95 1.95 0 000 3.9zM98.46 207.47a1.95 1.95 0 100-3.91 1.95 1.95 0 000 3.9zM93.38 207.47a1.95 1.95 0 100-3.91 1.95 1.95 0 000 3.9zM88.3 207.47a1.95 1.95 0 100-3.91 1.95 1.95 0 000 3.9z" fill="#3E1D85"/>
  <path d="M47.67 207.47a1.95 1.95 0 100-3.91 1.95 1.95 0 000 3.9zM42.59 207.47a1.95 1.95 0 100-3.91 1.95 1.95 0 000 3.9zM37.5 207.47a1.95 1.95 0 100-3.91 1.95 1.95 0 000 3.9zM32.43 207.47a1.95 1.95 0 100-3.91 1.95 1.95 0 000 3.9zM27.35 207.47a1.95 1.95 0 100-3.91 1.95 1.95 0 000 3.9zM22.27 207.47a1.95 1.95 0 100-3.91 1.95 1.95 0 000 3.9zM17.19 207.47a1.95 1.95 0 100-3.91 1.95 1.95 0 000 3.9zM12.11 207.47a1.95 1.95 0 100-3.91 1.95 1.95 0 000 3.9zM7.03 207.47a1.95 1.95 0 100-3.91 1.95 1.95 0 000 3.9z" fill="#D6D6D6"/>
  <path d="M200.05 200.9a1.95 1.95 0 100-3.9 1.95 1.95 0 000 3.9zM194.97 200.9a1.95 1.95 0 100-3.9 1.95 1.95 0 000 3.9zM189.89 200.9a1.95 1.95 0 100-3.9 1.95 1.95 0 000 3.9zM184.81 200.9a1.95 1.95 0 100-3.9 1.95 1.95 0 000 3.9zM179.73 200.9a1.95 1.95 0 100-3.9 1.95 1.95 0 000 3.9zM174.65 200.9a1.95 1.95 0 100-3.9 1.95 1.95 0 000 3.9zM169.57 200.9a1.95 1.95 0 100-3.9 1.95 1.95 0 000 3.9zM164.5 200.9a1.95 1.95 0 10-.01-3.9 1.95 1.95 0 000 3.9zM159.41 200.9a1.95 1.95 0 100-3.9 1.95 1.95 0 000 3.9zM154.33 200.9a1.95 1.95 0 100-3.9 1.95 1.95 0 000 3.9zM149.26 200.9a1.95 1.95 0 100-3.9 1.95 1.95 0 000 3.9zM144.18 200.9a1.95 1.95 0 100-3.9 1.95 1.95 0 000 3.9zM139.1 200.9a1.95 1.95 0 100-3.9 1.95 1.95 0 000 3.9zM134.02 200.9a1.95 1.95 0 100-3.9 1.95 1.95 0 000 3.9zM128.94 200.9a1.95 1.95 0 100-3.9 1.95 1.95 0 000 3.9zM123.86 200.9a1.95 1.95 0 100-3.9 1.95 1.95 0 000 3.9zM118.78 200.9a1.95 1.95 0 100-3.9 1.95 1.95 0 000 3.9zM113.7 200.9a1.95 1.95 0 100-3.9 1.95 1.95 0 000 3.9zM108.62 200.9a1.95 1.95 0 100-3.9 1.95 1.95 0 000 3.9zM103.54 200.9a1.95 1.95 0 100-3.9 1.95 1.95 0 000 3.9zM98.46 200.9a1.95 1.95 0 100-3.9 1.95 1.95 0 000 3.9z" fill="#3E1D85"/>
  <path d="M67.98 200.9a1.95 1.95 0 100-3.9 1.95 1.95 0 000 3.9zM62.9 200.9a1.95 1.95 0 100-3.9 1.95 1.95 0 000 3.9zM57.83 200.9a1.95 1.95 0 100-3.9 1.95 1.95 0 000 3.9zM52.75 200.9a1.95 1.95 0 100-3.9 1.95 1.95 0 000 3.9zM47.67 200.9a1.95 1.95 0 100-3.9 1.95 1.95 0 000 3.9zM42.59 200.9a1.95 1.95 0 100-3.9 1.95 1.95 0 000 3.9zM37.5 200.9a1.95 1.95 0 100-3.9 1.95 1.95 0 000 3.9zM32.43 200.9a1.95 1.95 0 100-3.9 1.95 1.95 0 000 3.9zM27.35 200.9a1.95 1.95 0 100-3.9 1.95 1.95 0 000 3.9zM22.27 200.9a1.95 1.95 0 100-3.9 1.95 1.95 0 000 3.9zM17.19 200.9a1.95 1.95 0 100-3.9 1.95 1.95 0 000 3.9zM12.11 200.9a1.95 1.95 0 100-3.9 1.95 1.95 0 000 3.9zM7.03 200.9a1.95 1.95 0 100-3.9 1.95 1.95 0 000 3.9zM1.95 200.9a1.95 1.95 0 100-3.9 1.95 1.95 0 000 3.9z" fill="#D6D6D6"/>
  <path d="M200.05 194.34a1.95 1.95 0 100-3.91 1.95 1.95 0 000 3.9zM194.97 194.34a1.95 1.95 0 100-3.91 1.95 1.95 0 000 3.9zM189.89 194.34a1.95 1.95 0 100-3.91 1.95 1.95 0 000 3.9zM184.81 194.34a1.95 1.95 0 100-3.91 1.95 1.95 0 000 3.9zM179.73 194.34a1.95 1.95 0 100-3.91 1.95 1.95 0 000 3.9zM174.65 194.34a1.95 1.95 0 100-3.91 1.95 1.95 0 000 3.9zM169.57 194.34a1.95 1.95 0 100-3.91 1.95 1.95 0 000 3.9zM164.5 194.34a1.95 1.95 0 10-.01-3.91 1.95 1.95 0 000 3.9zM159.41 194.34a1.95 1.95 0 100-3.91 1.95 1.95 0 000 3.9zM154.33 194.34a1.95 1.95 0 100-3.91 1.95 1.95 0 000 3.9zM149.26 194.34a1.95 1.95 0 100-3.91 1.95 1.95 0 000 3.9zM144.18 194.34a1.95 1.95 0 100-3.91 1.95 1.95 0 000 3.9zM139.1 194.34a1.95 1.95 0 100-3.91 1.95 1.95 0 000 3.9zM134.02 194.34a1.95 1.95 0 100-3.91 1.95 1.95 0 000 3.9zM128.94 194.34a1.95 1.95 0 100-3.91 1.95 1.95 0 000 3.9zM123.86 194.34a1.95 1.95 0 100-3.91 1.95 1.95 0 000 3.9zM118.78 194.34a1.95 1.95 0 100-3.91 1.95 1.95 0 000 3.9zM113.7 194.34a1.95 1.95 0 100-3.91 1.95 1.95 0 000 3.9zM108.62 194.34a1.95 1.95 0 100-3.91 1.95 1.95 0 000 3.9z" fill="#3E1D85"/>
  <path d="M67.98 194.34a1.95 1.95 0 100-3.91 1.95 1.95 0 000 3.9zM62.9 194.34a1.95 1.95 0 100-3.91 1.95 1.95 0 000 3.9zM57.83 194.34a1.95 1.95 0 100-3.91 1.95 1.95 0 000 3.9zM52.75 194.34a1.95 1.95 0 100-3.91 1.95 1.95 0 000 3.9zM47.67 194.34a1.95 1.95 0 100-3.91 1.95 1.95 0 000 3.9zM42.59 194.34a1.95 1.95 0 100-3.91 1.95 1.95 0 000 3.9zM37.5 194.34a1.95 1.95 0 100-3.91 1.95 1.95 0 000 3.9zM32.43 194.34a1.95 1.95 0 100-3.91 1.95 1.95 0 000 3.9zM27.35 194.34a1.95 1.95 0 100-3.91 1.95 1.95 0 000 3.9zM22.27 194.34a1.95 1.95 0 100-3.91 1.95 1.95 0 000 3.9zM17.19 194.34a1.95 1.95 0 100-3.91 1.95 1.95 0 000 3.9zM12.11 194.34a1.95 1.95 0 100-3.91 1.95 1.95 0 000 3.9z" fill="#D6D6D6"/>
  <path d="M200.05 187.77a1.95 1.95 0 100-3.9 1.95 1.95 0 000 3.9zM194.97 187.77a1.95 1.95 0 100-3.9 1.95 1.95 0 000 3.9zM189.89 187.77a1.95 1.95 0 100-3.9 1.95 1.95 0 000 3.9zM184.81 187.77a1.95 1.95 0 100-3.9 1.95 1.95 0 000 3.9zM179.73 187.77a1.95 1.95 0 100-3.9 1.95 1.95 0 000 3.9zM174.65 187.77a1.95 1.95 0 100-3.9 1.95 1.95 0 000 3.9zM169.57 187.77a1.95 1.95 0 100-3.9 1.95 1.95 0 000 3.9zM164.5 187.77a1.95 1.95 0 10-.01-3.9 1.95 1.95 0 000 3.9zM159.41 187.77a1.95 1.95 0 100-3.9 1.95 1.95 0 000 3.9zM154.33 187.77a1.95 1.95 0 100-3.9 1.95 1.95 0 000 3.9zM149.26 187.77a1.95 1.95 0 100-3.9 1.95 1.95 0 000 3.9zM144.18 187.77a1.95 1.95 0 100-3.9 1.95 1.95 0 000 3.9zM139.1 187.77a1.95 1.95 0 100-3.9 1.95 1.95 0 000 3.9zM134.02 187.77a1.95 1.95 0 100-3.9 1.95 1.95 0 000 3.9zM128.94 187.77a1.95 1.95 0 100-3.9 1.95 1.95 0 000 3.9zM123.86 187.77a1.95 1.95 0 100-3.9 1.95 1.95 0 000 3.9zM118.78 187.77a1.95 1.95 0 100-3.9 1.95 1.95 0 000 3.9zM113.7 187.77a1.95 1.95 0 100-3.9 1.95 1.95 0 000 3.9zM108.62 187.77a1.95 1.95 0 100-3.9 1.95 1.95 0 000 3.9z" fill="#3E1D85"/>
  <path d="M67.98 187.77a1.95 1.95 0 100-3.9 1.95 1.95 0 000 3.9zM62.9 187.77a1.95 1.95 0 100-3.9 1.95 1.95 0 000 3.9zM57.83 187.77a1.95 1.95 0 100-3.9 1.95 1.95 0 000 3.9zM52.75 187.77a1.95 1.95 0 100-3.9 1.95 1.95 0 000 3.9zM47.67 187.77a1.95 1.95 0 100-3.9 1.95 1.95 0 000 3.9zM42.59 187.77a1.95 1.95 0 100-3.9 1.95 1.95 0 000 3.9zM37.5 187.77a1.95 1.95 0 100-3.9 1.95 1.95 0 000 3.9zM32.43 187.77a1.95 1.95 0 100-3.9 1.95 1.95 0 000 3.9zM27.35 187.77a1.95 1.95 0 100-3.9 1.95 1.95 0 000 3.9zM22.27 187.77a1.95 1.95 0 100-3.9 1.95 1.95 0 000 3.9zM17.19 187.77a1.95 1.95 0 100-3.9 1.95 1.95 0 000 3.9z" fill="#D6D6D6"/>
  <path d="M194.97 181.2a1.95 1.95 0 100-3.9 1.95 1.95 0 000 3.9zM189.89 181.2a1.95 1.95 0 100-3.9 1.95 1.95 0 000 3.9zM184.81 181.2a1.95 1.95 0 100-3.9 1.95 1.95 0 000 3.9zM174.65 181.2a1.95 1.95 0 100-3.9 1.95 1.95 0 000 3.9zM169.57 181.2a1.95 1.95 0 100-3.9 1.95 1.95 0 000 3.9zM164.5 181.2a1.95 1.95 0 10-.01-3.9 1.95 1.95 0 000 3.9zM159.41 181.2a1.95 1.95 0 100-3.9 1.95 1.95 0 000 3.9zM154.33 181.2a1.95 1.95 0 100-3.9 1.95 1.95 0 000 3.9zM149.26 181.2a1.95 1.95 0 100-3.9 1.95 1.95 0 000 3.9zM144.18 181.2a1.95 1.95 0 100-3.9 1.95 1.95 0 000 3.9zM139.1 181.2a1.95 1.95 0 100-3.9 1.95 1.95 0 000 3.9zM134.02 181.2a1.95 1.95 0 100-3.9 1.95 1.95 0 000 3.9zM128.94 181.2a1.95 1.95 0 100-3.9 1.95 1.95 0 000 3.9zM123.86 181.2a1.95 1.95 0 100-3.9 1.95 1.95 0 000 3.9zM118.78 181.2a1.95 1.95 0 100-3.9 1.95 1.95 0 000 3.9zM113.7 181.2a1.95 1.95 0 100-3.9 1.95 1.95 0 000 3.9zM108.62 181.2a1.95 1.95 0 100-3.9 1.95 1.95 0 000 3.9zM103.54 181.2a1.95 1.95 0 100-3.9 1.95 1.95 0 000 3.9zM98.46 181.2a1.95 1.95 0 100-3.9 1.95 1.95 0 000 3.9z" fill="#3E1D85"/>
  <path d="M73.06 181.2a1.95 1.95 0 100-3.9 1.95 1.95 0 000 3.9zM67.98 181.2a1.95 1.95 0 100-3.9 1.95 1.95 0 000 3.9zM62.9 181.2a1.95 1.95 0 100-3.9 1.95 1.95 0 000 3.9zM57.83 181.2a1.95 1.95 0 100-3.9 1.95 1.95 0 000 3.9zM52.75 181.2a1.95 1.95 0 100-3.9 1.95 1.95 0 000 3.9zM47.67 181.2a1.95 1.95 0 100-3.9 1.95 1.95 0 000 3.9zM42.59 181.2a1.95 1.95 0 100-3.9 1.95 1.95 0 000 3.9zM37.5 181.2a1.95 1.95 0 100-3.9 1.95 1.95 0 000 3.9zM32.43 181.2a1.95 1.95 0 100-3.9 1.95 1.95 0 000 3.9zM27.35 181.2a1.95 1.95 0 100-3.9 1.95 1.95 0 000 3.9zM22.27 181.2a1.95 1.95 0 100-3.9 1.95 1.95 0 000 3.9z" fill="#D6D6D6"/>
  <path d="M179.73 174.64a1.95 1.95 0 100-3.91 1.95 1.95 0 000 3.9zM174.65 174.64a1.95 1.95 0 100-3.91 1.95 1.95 0 000 3.9zM169.57 174.64a1.95 1.95 0 100-3.91 1.95 1.95 0 000 3.9zM164.5 174.64a1.95 1.95 0 10-.01-3.91 1.95 1.95 0 000 3.9zM159.41 174.64a1.95 1.95 0 100-3.91 1.95 1.95 0 000 3.9zM154.33 174.64a1.95 1.95 0 100-3.91 1.95 1.95 0 000 3.9zM149.26 174.64a1.95 1.95 0 100-3.91 1.95 1.95 0 000 3.9zM144.18 174.64a1.95 1.95 0 100-3.91 1.95 1.95 0 000 3.9zM139.1 174.64a1.95 1.95 0 100-3.91 1.95 1.95 0 000 3.9zM134.02 174.64a1.95 1.95 0 100-3.91 1.95 1.95 0 000 3.9zM128.94 174.64a1.95 1.95 0 100-3.91 1.95 1.95 0 000 3.9zM123.86 174.64a1.95 1.95 0 100-3.91 1.95 1.95 0 000 3.9zM118.78 174.64a1.95 1.95 0 100-3.91 1.95 1.95 0 000 3.9zM113.7 174.64a1.95 1.95 0 100-3.91 1.95 1.95 0 000 3.9zM108.62 174.64a1.95 1.95 0 100-3.91 1.95 1.95 0 000 3.9zM103.54 174.64a1.95 1.95 0 100-3.91 1.95 1.95 0 000 3.9zM98.46 174.64a1.95 1.95 0 100-3.91 1.95 1.95 0 000 3.9z" fill="#3E1D85"/>
  <path d="M73.06 174.64a1.95 1.95 0 100-3.91 1.95 1.95 0 000 3.9zM67.98 174.64a1.95 1.95 0 100-3.91 1.95 1.95 0 000 3.9zM62.9 174.64a1.95 1.95 0 100-3.91 1.95 1.95 0 000 3.9zM57.83 174.64a1.95 1.95 0 100-3.91 1.95 1.95 0 000 3.9zM52.75 174.64a1.95 1.95 0 100-3.91 1.95 1.95 0 000 3.9zM47.67 174.64a1.95 1.95 0 100-3.91 1.95 1.95 0 000 3.9zM42.59 174.64a1.95 1.95 0 100-3.91 1.95 1.95 0 000 3.9zM37.5 174.64a1.95 1.95 0 100-3.91 1.95 1.95 0 000 3.9zM32.43 174.64a1.95 1.95 0 100-3.91 1.95 1.95 0 000 3.9zM27.35 174.64a1.95 1.95 0 100-3.91 1.95 1.95 0 000 3.9zM22.27 174.64a1.95 1.95 0 100-3.91 1.95 1.95 0 000 3.9zM12.11 174.64a1.95 1.95 0 100-3.91 1.95 1.95 0 000 3.9z" fill="#D6D6D6"/>
  <path d="M174.65 168.07a1.95 1.95 0 100-3.9 1.95 1.95 0 000 3.9zM169.57 168.07a1.95 1.95 0 100-3.9 1.95 1.95 0 000 3.9zM164.5 168.07a1.95 1.95 0 10-.01-3.9 1.95 1.95 0 000 3.9zM159.41 168.07a1.95 1.95 0 100-3.9 1.95 1.95 0 000 3.9zM154.33 168.07a1.95 1.95 0 100-3.9 1.95 1.95 0 000 3.9zM149.26 168.07a1.95 1.95 0 100-3.9 1.95 1.95 0 000 3.9zM144.18 168.07a1.95 1.95 0 100-3.9 1.95 1.95 0 000 3.9zM139.1 168.07a1.95 1.95 0 100-3.9 1.95 1.95 0 000 3.9zM134.02 168.07a1.95 1.95 0 100-3.9 1.95 1.95 0 000 3.9zM128.94 168.07a1.95 1.95 0 100-3.9 1.95 1.95 0 000 3.9zM123.86 168.07a1.95 1.95 0 100-3.9 1.95 1.95 0 000 3.9zM103.54 168.07a1.95 1.95 0 100-3.9 1.95 1.95 0 000 3.9zM98.46 168.07a1.95 1.95 0 100-3.9 1.95 1.95 0 000 3.9z" fill="#3E1D85"/>
  <path d="M73.06 168.07a1.95 1.95 0 100-3.9 1.95 1.95 0 000 3.9zM67.98 168.07a1.95 1.95 0 100-3.9 1.95 1.95 0 000 3.9zM62.9 168.07a1.95 1.95 0 100-3.9 1.95 1.95 0 000 3.9zM57.83 168.07a1.95 1.95 0 100-3.9 1.95 1.95 0 000 3.9zM52.75 168.07a1.95 1.95 0 100-3.9 1.95 1.95 0 000 3.9zM47.67 168.07a1.95 1.95 0 100-3.9 1.95 1.95 0 000 3.9zM42.59 168.07a1.95 1.95 0 100-3.9 1.95 1.95 0 000 3.9zM37.5 168.07a1.95 1.95 0 100-3.9 1.95 1.95 0 000 3.9zM32.43 168.07a1.95 1.95 0 100-3.9 1.95 1.95 0 000 3.9zM27.35 168.07a1.95 1.95 0 100-3.9 1.95 1.95 0 000 3.9zM22.27 168.07a1.95 1.95 0 100-3.9 1.95 1.95 0 000 3.9zM17.19 168.07a1.95 1.95 0 100-3.9 1.95 1.95 0 000 3.9zM12.11 168.07a1.95 1.95 0 100-3.9 1.95 1.95 0 000 3.9zM7.03 168.07a1.95 1.95 0 100-3.9 1.95 1.95 0 000 3.9z" fill="#D6D6D6"/>
  <path d="M174.65 161.5a1.95 1.95 0 100-3.9 1.95 1.95 0 000 3.9zM169.57 161.5a1.95 1.95 0 100-3.9 1.95 1.95 0 000 3.9zM164.5 161.5a1.95 1.95 0 10-.01-3.9 1.95 1.95 0 000 3.9zM159.41 161.5a1.95 1.95 0 100-3.9 1.95 1.95 0 000 3.9zM154.33 161.5a1.95 1.95 0 100-3.9 1.95 1.95 0 000 3.9zM149.26 161.5a1.95 1.95 0 100-3.9 1.95 1.95 0 000 3.9zM144.18 161.5a1.95 1.95 0 100-3.9 1.95 1.95 0 000 3.9zM139.1 161.5a1.95 1.95 0 100-3.9 1.95 1.95 0 000 3.9zM134.02 161.5a1.95 1.95 0 100-3.9 1.95 1.95 0 000 3.9zM128.94 161.5a1.95 1.95 0 100-3.9 1.95 1.95 0 000 3.9zM123.86 161.5a1.95 1.95 0 100-3.9 1.95 1.95 0 000 3.9z" fill="#3E1D85"/>
  <path d="M73.06 161.5a1.95 1.95 0 100-3.9 1.95 1.95 0 000 3.9zM67.98 161.5a1.95 1.95 0 100-3.9 1.95 1.95 0 000 3.9zM62.9 161.5a1.95 1.95 0 100-3.9 1.95 1.95 0 000 3.9zM57.83 161.5a1.95 1.95 0 100-3.9 1.95 1.95 0 000 3.9zM52.75 161.5a1.95 1.95 0 100-3.9 1.95 1.95 0 000 3.9zM47.67 161.5a1.95 1.95 0 100-3.9 1.95 1.95 0 000 3.9zM42.59 161.5a1.95 1.95 0 100-3.9 1.95 1.95 0 000 3.9zM37.5 161.5a1.95 1.95 0 100-3.9 1.95 1.95 0 000 3.9zM32.43 161.5a1.95 1.95 0 100-3.9 1.95 1.95 0 000 3.9zM27.35 161.5a1.95 1.95 0 100-3.9 1.95 1.95 0 000 3.9zM22.27 161.5a1.95 1.95 0 100-3.9 1.95 1.95 0 000 3.9zM17.19 161.5a1.95 1.95 0 100-3.9 1.95 1.95 0 000 3.9zM12.11 161.5a1.95 1.95 0 100-3.9 1.95 1.95 0 000 3.9zM7.03 161.5a1.95 1.95 0 100-3.9 1.95 1.95 0 000 3.9z" fill="#D6D6D6"/>
  <path d="M169.57 154.94a1.95 1.95 0 100-3.91 1.95 1.95 0 000 3.9zM164.5 154.94a1.95 1.95 0 10-.01-3.91 1.95 1.95 0 000 3.9zM159.41 154.94a1.95 1.95 0 100-3.91 1.95 1.95 0 000 3.9zM154.33 154.94a1.95 1.95 0 100-3.91 1.95 1.95 0 000 3.9zM149.26 154.94a1.95 1.95 0 100-3.91 1.95 1.95 0 000 3.9zM144.18 154.94a1.95 1.95 0 100-3.91 1.95 1.95 0 000 3.9zM139.1 154.94a1.95 1.95 0 100-3.91 1.95 1.95 0 000 3.9zM134.02 154.94a1.95 1.95 0 100-3.91 1.95 1.95 0 000 3.9zM128.94 154.94a1.95 1.95 0 100-3.91 1.95 1.95 0 000 3.9zM123.86 154.94a1.95 1.95 0 100-3.91 1.95 1.95 0 000 3.9z" fill="#3E1D85"/>
  <path d="M67.98 154.94a1.95 1.95 0 100-3.91 1.95 1.95 0 000 3.9zM62.9 154.94a1.95 1.95 0 100-3.91 1.95 1.95 0 000 3.9zM57.83 154.94a1.95 1.95 0 100-3.91 1.95 1.95 0 000 3.9zM52.75 154.94a1.95 1.95 0 100-3.91 1.95 1.95 0 000 3.9zM47.67 154.94a1.95 1.95 0 100-3.91 1.95 1.95 0 000 3.9zM42.59 154.94a1.95 1.95 0 100-3.91 1.95 1.95 0 000 3.9zM37.5 154.94a1.95 1.95 0 100-3.91 1.95 1.95 0 000 3.9zM32.43 154.94a1.95 1.95 0 100-3.91 1.95 1.95 0 000 3.9zM27.35 154.94a1.95 1.95 0 100-3.91 1.95 1.95 0 000 3.9zM22.27 154.94a1.95 1.95 0 100-3.91 1.95 1.95 0 000 3.9zM17.19 154.94a1.95 1.95 0 100-3.91 1.95 1.95 0 000 3.9zM12.11 154.94a1.95 1.95 0 100-3.91 1.95 1.95 0 000 3.9z" fill="#D6D6D6"/>
  <path d="M169.57 148.37a1.95 1.95 0 100-3.9 1.95 1.95 0 000 3.9zM164.5 148.37a1.95 1.95 0 10-.01-3.9 1.95 1.95 0 000 3.9zM159.41 148.37a1.95 1.95 0 100-3.9 1.95 1.95 0 000 3.9zM154.33 148.37a1.95 1.95 0 100-3.9 1.95 1.95 0 000 3.9zM149.26 148.37a1.95 1.95 0 100-3.9 1.95 1.95 0 000 3.9zM144.18 148.37a1.95 1.95 0 100-3.9 1.95 1.95 0 000 3.9zM139.1 148.37a1.95 1.95 0 100-3.9 1.95 1.95 0 000 3.9zM134.02 148.37a1.95 1.95 0 100-3.9 1.95 1.95 0 000 3.9zM128.94 148.37a1.95 1.95 0 100-3.9 1.95 1.95 0 000 3.9zM118.78 148.37a1.95 1.95 0 100-3.9 1.95 1.95 0 000 3.9zM98.46 148.37a1.95 1.95 0 100-3.9 1.95 1.95 0 000 3.9z" fill="#3E1D85"/>
  <path d="M73.06 148.37a1.95 1.95 0 100-3.9 1.95 1.95 0 000 3.9zM67.98 148.37a1.95 1.95 0 100-3.9 1.95 1.95 0 000 3.9zM62.9 148.37a1.95 1.95 0 100-3.9 1.95 1.95 0 000 3.9zM57.83 148.37a1.95 1.95 0 100-3.9 1.95 1.95 0 000 3.9zM52.75 148.37a1.95 1.95 0 100-3.9 1.95 1.95 0 000 3.9zM47.67 148.37a1.95 1.95 0 100-3.9 1.95 1.95 0 000 3.9zM42.59 148.37a1.95 1.95 0 100-3.9 1.95 1.95 0 000 3.9zM37.5 148.37a1.95 1.95 0 100-3.9 1.95 1.95 0 000 3.9zM32.43 148.37a1.95 1.95 0 100-3.9 1.95 1.95 0 000 3.9zM27.35 148.37a1.95 1.95 0 100-3.9 1.95 1.95 0 000 3.9zM22.27 148.37a1.95 1.95 0 100-3.9 1.95 1.95 0 000 3.9zM17.19 148.37a1.95 1.95 0 100-3.9 1.95 1.95 0 000 3.9zM12.11 148.37a1.95 1.95 0 100-3.9 1.95 1.95 0 000 3.9zM7.03 148.37a1.95 1.95 0 100-3.9 1.95 1.95 0 000 3.9z" fill="#D6D6D6"/>
  <path d="M164.5 141.8a1.95 1.95 0 10-.01-3.9 1.95 1.95 0 000 3.9zM159.41 141.8a1.95 1.95 0 100-3.9 1.95 1.95 0 000 3.9zM154.33 141.8a1.95 1.95 0 100-3.9 1.95 1.95 0 000 3.9zM149.26 141.8a1.95 1.95 0 100-3.9 1.95 1.95 0 000 3.9zM144.18 141.8a1.95 1.95 0 100-3.9 1.95 1.95 0 000 3.9zM139.1 141.8a1.95 1.95 0 100-3.9 1.95 1.95 0 000 3.9zM134.02 141.8a1.95 1.95 0 100-3.9 1.95 1.95 0 000 3.9zM128.94 141.8a1.95 1.95 0 100-3.9 1.95 1.95 0 000 3.9zM123.86 141.8a1.95 1.95 0 100-3.9 1.95 1.95 0 000 3.9zM118.78 141.8a1.95 1.95 0 100-3.9 1.95 1.95 0 000 3.9zM98.46 141.8a1.95 1.95 0 100-3.9 1.95 1.95 0 000 3.9z" fill="#3E1D85"/>
  <path d="M83.23 141.8a1.95 1.95 0 100-3.9 1.95 1.95 0 000 3.9zM78.14 141.8a1.95 1.95 0 100-3.9 1.95 1.95 0 000 3.9zM73.06 141.8a1.95 1.95 0 100-3.9 1.95 1.95 0 000 3.9zM67.98 141.8a1.95 1.95 0 100-3.9 1.95 1.95 0 000 3.9zM62.9 141.8a1.95 1.95 0 100-3.9 1.95 1.95 0 000 3.9zM57.83 141.8a1.95 1.95 0 100-3.9 1.95 1.95 0 000 3.9zM52.75 141.8a1.95 1.95 0 100-3.9 1.95 1.95 0 000 3.9zM47.67 141.8a1.95 1.95 0 100-3.9 1.95 1.95 0 000 3.9zM42.59 141.8a1.95 1.95 0 100-3.9 1.95 1.95 0 000 3.9zM37.5 141.8a1.95 1.95 0 100-3.9 1.95 1.95 0 000 3.9zM27.35 141.8a1.95 1.95 0 100-3.9 1.95 1.95 0 000 3.9zM22.27 141.8a1.95 1.95 0 100-3.9 1.95 1.95 0 000 3.9zM17.19 141.8a1.95 1.95 0 100-3.9 1.95 1.95 0 000 3.9zM12.11 141.8a1.95 1.95 0 100-3.9 1.95 1.95 0 000 3.9zM7.03 141.8a1.95 1.95 0 100-3.9 1.95 1.95 0 000 3.9zM159.41 135.24a1.95 1.95 0 100-3.91 1.95 1.95 0 000 3.9zM154.33 135.24a1.95 1.95 0 100-3.91 1.95 1.95 0 000 3.9zM149.26 135.24a1.95 1.95 0 100-3.91 1.95 1.95 0 000 3.9zM144.18 135.24a1.95 1.95 0 100-3.9 1.95 1.95 0 000 3.9zM139.1 135.24a1.95 1.95 0 100-3.91 1.95 1.95 0 000 3.9zM134.02 135.24a1.95 1.95 0 100-3.91 1.95 1.95 0 000 3.9zM128.94 135.24a1.95 1.95 0 100-3.91 1.95 1.95 0 000 3.9zM123.86 135.24a1.95 1.95 0 100-3.91 1.95 1.95 0 000 3.9zM118.78 135.24a1.95 1.95 0 100-3.9 1.95 1.95 0 000 3.9zM113.7 135.24a1.95 1.95 0 100-3.9 1.95 1.95 0 000 3.9zM83.23 135.24a1.95 1.95 0 100-3.91 1.95 1.95 0 000 3.9zM78.14 135.24a1.95 1.95 0 100-3.91 1.95 1.95 0 000 3.9zM73.06 135.24a1.95 1.95 0 100-3.91 1.95 1.95 0 000 3.9zM67.98 135.24a1.95 1.95 0 100-3.91 1.95 1.95 0 000 3.9zM62.9 135.24a1.95 1.95 0 100-3.91 1.95 1.95 0 000 3.9zM57.83 135.24a1.95 1.95 0 100-3.91 1.95 1.95 0 000 3.9zM52.75 135.24a1.95 1.95 0 100-3.91 1.95 1.95 0 000 3.9zM47.67 135.24a1.95 1.95 0 100-3.91 1.95 1.95 0 000 3.9zM42.59 135.24a1.95 1.95 0 100-3.91 1.95 1.95 0 000 3.9zM37.5 135.24a1.95 1.95 0 100-3.91 1.95 1.95 0 000 3.9zM149.26 128.67a1.95 1.95 0 100-3.9 1.95 1.95 0 000 3.9zM144.18 128.67a1.95 1.95 0 100-3.9 1.95 1.95 0 000 3.9zM139.1 128.67a1.95 1.95 0 100-3.9 1.95 1.95 0 000 3.9zM134.02 128.67a1.95 1.95 0 100-3.9 1.95 1.95 0 000 3.9zM128.94 128.67a1.95 1.95 0 100-3.9 1.95 1.95 0 000 3.9zM123.86 128.67a1.95 1.95 0 100-3.9 1.95 1.95 0 000 3.9zM118.78 128.67a1.95 1.95 0 100-3.9 1.95 1.95 0 000 3.9zM108.62 128.67a1.95 1.95 0 100-3.9 1.95 1.95 0 000 3.9zM103.54 128.67a1.95 1.95 0 100-3.9 1.95 1.95 0 000 3.9zM98.46 128.67a1.95 1.95 0 100-3.9 1.95 1.95 0 000 3.9zM78.14 128.67a1.95 1.95 0 100-3.9 1.95 1.95 0 000 3.9zM73.06 128.67a1.95 1.95 0 100-3.9 1.95 1.95 0 000 3.9zM67.98 128.67a1.95 1.95 0 100-3.9 1.95 1.95 0 000 3.9zM62.9 128.67a1.95 1.95 0 100-3.9 1.95 1.95 0 000 3.9zM57.83 128.67a1.95 1.95 0 100-3.9 1.95 1.95 0 000 3.9zM52.75 128.67a1.95 1.95 0 100-3.9 1.95 1.95 0 000 3.9zM47.67 128.67a1.95 1.95 0 100-3.9 1.95 1.95 0 000 3.9zM42.59 128.67a1.95 1.95 0 100-3.9 1.95 1.95 0 000 3.9zM37.5 128.67a1.95 1.95 0 100-3.9 1.95 1.95 0 000 3.9zM32.43 128.67a1.95 1.95 0 100-3.9 1.95 1.95 0 000 3.9zM149.26 122.1a1.95 1.95 0 100-3.9 1.95 1.95 0 000 3.9zM144.18 122.1a1.95 1.95 0 100-3.9 1.95 1.95 0 000 3.9zM139.1 122.1a1.95 1.95 0 100-3.9 1.95 1.95 0 000 3.9zM134.02 122.1a1.95 1.95 0 100-3.9 1.95 1.95 0 000 3.9zM128.94 122.1a1.95 1.95 0 100-3.9 1.95 1.95 0 000 3.9zM123.86 122.1a1.95 1.95 0 100-3.9 1.95 1.95 0 000 3.9zM118.78 122.1a1.95 1.95 0 100-3.9 1.95 1.95 0 000 3.9zM113.7 122.1a1.95 1.95 0 100-3.9 1.95 1.95 0 000 3.9zM108.62 122.1a1.95 1.95 0 100-3.9 1.95 1.95 0 000 3.9zM103.54 122.1a1.95 1.95 0 100-3.9 1.95 1.95 0 000 3.9zM98.46 122.1a1.95 1.95 0 100-3.9 1.95 1.95 0 000 3.9zM93.38 122.1a1.95 1.95 0 100-3.9 1.95 1.95 0 000 3.9zM88.3 122.1a1.95 1.95 0 100-3.9 1.95 1.95 0 000 3.9zM73.06 122.1a1.95 1.95 0 100-3.9 1.95 1.95 0 000 3.9zM67.98 122.1a1.95 1.95 0 100-3.9 1.95 1.95 0 000 3.9zM62.9 122.1a1.95 1.95 0 100-3.9 1.95 1.95 0 000 3.9zM57.83 122.1a1.95 1.95 0 100-3.9 1.95 1.95 0 000 3.9zM52.75 122.1a1.95 1.95 0 100-3.9 1.95 1.95 0 000 3.9zM47.67 122.1a1.95 1.95 0 100-3.9 1.95 1.95 0 000 3.9zM42.59 122.1a1.95 1.95 0 100-3.9 1.95 1.95 0 000 3.9zM37.5 122.1a1.95 1.95 0 100-3.9 1.95 1.95 0 000 3.9zM144.18 115.54a1.95 1.95 0 100-3.9 1.95 1.95 0 000 3.9zM139.1 115.54a1.95 1.95 0 100-3.91 1.95 1.95 0 000 3.9zM134.02 115.54a1.95 1.95 0 100-3.91 1.95 1.95 0 000 3.9zM128.94 115.54a1.95 1.95 0 100-3.91 1.95 1.95 0 000 3.9zM123.86 115.54a1.95 1.95 0 100-3.91 1.95 1.95 0 000 3.9zM118.78 115.54a1.95 1.95 0 100-3.9 1.95 1.95 0 000 3.9zM113.7 115.54a1.95 1.95 0 100-3.9 1.95 1.95 0 000 3.9zM108.62 115.54a1.95 1.95 0 100-3.91 1.95 1.95 0 000 3.9zM103.54 115.54a1.95 1.95 0 100-3.91 1.95 1.95 0 000 3.9zM98.46 115.54a1.95 1.95 0 100-3.91 1.95 1.95 0 000 3.9zM93.38 115.54a1.95 1.95 0 100-3.91 1.95 1.95 0 000 3.9zM78.14 115.54a1.95 1.95 0 100-3.91 1.95 1.95 0 000 3.9zM67.98 115.54a1.95 1.95 0 100-3.91 1.95 1.95 0 000 3.9zM57.83 115.54a1.95 1.95 0 100-3.91 1.95 1.95 0 000 3.9zM52.75 115.54a1.95 1.95 0 100-3.91 1.95 1.95 0 000 3.9zM47.67 115.54a1.95 1.95 0 100-3.91 1.95 1.95 0 000 3.9zM144.18 108.97a1.95 1.95 0 100-3.9 1.95 1.95 0 000 3.9zM139.1 108.97a1.95 1.95 0 100-3.9 1.95 1.95 0 000 3.9zM134.02 108.97a1.95 1.95 0 100-3.9 1.95 1.95 0 000 3.9zM128.94 108.97a1.95 1.95 0 100-3.9 1.95 1.95 0 000 3.9zM123.86 108.97a1.95 1.95 0 100-3.9 1.95 1.95 0 000 3.9zM118.78 108.97a1.95 1.95 0 100-3.9 1.95 1.95 0 000 3.9zM113.7 108.97a1.95 1.95 0 100-3.9 1.95 1.95 0 000 3.9zM108.62 108.97a1.95 1.95 0 100-3.9 1.95 1.95 0 000 3.9zM103.54 108.97a1.95 1.95 0 100-3.9 1.95 1.95 0 000 3.9zM98.46 108.97a1.95 1.95 0 100-3.9 1.95 1.95 0 000 3.9zM88.3 108.97a1.95 1.95 0 100-3.9 1.95 1.95 0 000 3.9zM83.23 108.97a1.95 1.95 0 100-3.9 1.95 1.95 0 000 3.9zM78.14 108.97a1.95 1.95 0 100-3.9 1.95 1.95 0 000 3.9zM139.1 102.4a1.95 1.95 0 100-3.9 1.95 1.95 0 000 3.9zM134.02 102.4a1.95 1.95 0 100-3.9 1.95 1.95 0 000 3.9zM128.94 102.4a1.95 1.95 0 100-3.9 1.95 1.95 0 000 3.9zM123.86 102.4a1.95 1.95 0 100-3.9 1.95 1.95 0 000 3.9zM118.78 102.4a1.95 1.95 0 100-3.9 1.95 1.95 0 000 3.9zM113.7 102.4a1.95 1.95 0 100-3.9 1.95 1.95 0 000 3.9zM108.62 102.4a1.95 1.95 0 100-3.9 1.95 1.95 0 000 3.9zM103.54 102.4a1.95 1.95 0 100-3.9 1.95 1.95 0 000 3.9zM98.46 102.4a1.95 1.95 0 100-3.9 1.95 1.95 0 000 3.9zM93.38 102.4a1.95 1.95 0 100-3.9 1.95 1.95 0 000 3.9zM83.23 102.4a1.95 1.95 0 100-3.9 1.95 1.95 0 000 3.9zM73.06 102.4a1.95 1.95 0 100-3.9 1.95 1.95 0 000 3.9zM67.98 102.4a1.95 1.95 0 100-3.9 1.95 1.95 0 000 3.9zM134.02 95.84a1.95 1.95 0 100-3.91 1.95 1.95 0 000 3.9zM128.94 95.84a1.95 1.95 0 100-3.91 1.95 1.95 0 000 3.9zM123.86 95.84a1.95 1.95 0 100-3.91 1.95 1.95 0 000 3.9zM118.78 95.84a1.95 1.95 0 100-3.9 1.95 1.95 0 000 3.9zM113.7 95.84a1.95 1.95 0 100-3.9 1.95 1.95 0 000 3.9zM108.62 95.84a1.95 1.95 0 100-3.91 1.95 1.95 0 000 3.9zM103.54 95.84a1.95 1.95 0 100-3.91 1.95 1.95 0 000 3.9zM98.46 95.84a1.95 1.95 0 100-3.9 1.95 1.95 0 000 3.9zM93.38 95.84a1.95 1.95 0 100-3.9 1.95 1.95 0 000 3.9zM88.3 95.84a1.95 1.95 0 100-3.9 1.95 1.95 0 000 3.9zM83.23 95.84a1.95 1.95 0 100-3.9 1.95 1.95 0 000 3.9zM78.14 95.84a1.95 1.95 0 100-3.9 1.95 1.95 0 000 3.9zM73.06 95.84a1.95 1.95 0 100-3.9 1.95 1.95 0 000 3.9zM123.86 89.27a1.95 1.95 0 100-3.9 1.95 1.95 0 000 3.9zM118.78 89.27a1.95 1.95 0 100-3.9 1.95 1.95 0 000 3.9zM113.7 89.27a1.95 1.95 0 100-3.9 1.95 1.95 0 000 3.9zM108.62 89.27a1.95 1.95 0 100-3.9 1.95 1.95 0 000 3.9zM103.54 89.27a1.95 1.95 0 100-3.9 1.95 1.95 0 000 3.9zM98.46 89.27a1.95 1.95 0 100-3.9 1.95 1.95 0 000 3.9zM93.38 89.27a1.95 1.95 0 100-3.9 1.95 1.95 0 000 3.9zM88.3 89.27a1.95 1.95 0 100-3.9 1.95 1.95 0 000 3.9zM83.23 89.27a1.95 1.95 0 100-3.9 1.95 1.95 0 000 3.9zM78.14 89.27a1.95 1.95 0 100-3.9 1.95 1.95 0 000 3.9zM123.86 82.7a1.95 1.95 0 100-3.9 1.95 1.95 0 000 3.9zM118.78 82.7a1.95 1.95 0 100-3.9 1.95 1.95 0 000 3.9zM113.7 82.7a1.95 1.95 0 100-3.9 1.95 1.95 0 000 3.9zM108.62 82.7a1.95 1.95 0 100-3.9 1.95 1.95 0 000 3.9zM103.54 82.7a1.95 1.95 0 100-3.9 1.95 1.95 0 000 3.9zM98.46 82.7a1.95 1.95 0 100-3.9 1.95 1.95 0 000 3.9zM93.38 82.7a1.95 1.95 0 100-3.9 1.95 1.95 0 000 3.9zM88.3 82.7a1.95 1.95 0 100-3.9 1.95 1.95 0 000 3.9zM83.23 82.7a1.95 1.95 0 100-3.9 1.95 1.95 0 000 3.9zM78.14 82.7a1.95 1.95 0 100-3.9 1.95 1.95 0 000 3.9zM73.06 82.7a1.95 1.95 0 100-3.9 1.95 1.95 0 000 3.9zM57.83 82.7a1.95 1.95 0 100-3.9 1.95 1.95 0 000 3.9zM128.94 76.14a1.95 1.95 0 100-3.9 1.95 1.95 0 000 3.9zM123.86 76.14a1.95 1.95 0 100-3.9 1.95 1.95 0 000 3.9zM118.78 76.14a1.95 1.95 0 100-3.9 1.95 1.95 0 000 3.9zM113.7 76.14a1.95 1.95 0 100-3.9 1.95 1.95 0 000 3.9zM108.62 76.14a1.95 1.95 0 100-3.9 1.95 1.95 0 000 3.9zM103.54 76.14a1.95 1.95 0 100-3.9 1.95 1.95 0 000 3.9zM98.46 76.14a1.95 1.95 0 100-3.9 1.95 1.95 0 000 3.9zM93.38 76.14a1.95 1.95 0 100-3.9 1.95 1.95 0 000 3.9zM88.3 76.14a1.95 1.95 0 100-3.9 1.95 1.95 0 000 3.9zM83.23 76.14a1.95 1.95 0 100-3.9 1.95 1.95 0 000 3.9zM78.14 76.14a1.95 1.95 0 100-3.9 1.95 1.95 0 000 3.9zM73.06 76.14a1.95 1.95 0 100-3.9 1.95 1.95 0 000 3.9zM62.9 76.14a1.95 1.95 0 100-3.9 1.95 1.95 0 000 3.9zM134.02 69.57a1.95 1.95 0 100-3.9 1.95 1.95 0 000 3.9zM128.94 69.57a1.95 1.95 0 100-3.9 1.95 1.95 0 000 3.9zM123.86 69.57a1.95 1.95 0 100-3.9 1.95 1.95 0 000 3.9zM118.78 69.57a1.95 1.95 0 100-3.9 1.95 1.95 0 000 3.9zM113.7 69.57a1.95 1.95 0 100-3.9 1.95 1.95 0 000 3.9zM108.62 69.57a1.95 1.95 0 100-3.9 1.95 1.95 0 000 3.9zM103.54 69.57a1.95 1.95 0 100-3.9 1.95 1.95 0 000 3.9zM98.46 69.57a1.95 1.95 0 100-3.9 1.95 1.95 0 000 3.9zM93.38 69.57a1.95 1.95 0 100-3.9 1.95 1.95 0 000 3.9zM88.3 69.57a1.95 1.95 0 100-3.9 1.95 1.95 0 000 3.9zM83.23 69.57a1.95 1.95 0 100-3.9 1.95 1.95 0 000 3.9zM78.14 69.57a1.95 1.95 0 100-3.9 1.95 1.95 0 000 3.9zM73.06 69.57a1.95 1.95 0 100-3.9 1.95 1.95 0 000 3.9zM67.98 69.57a1.95 1.95 0 100-3.9 1.95 1.95 0 000 3.9zM139.1 63a1.95 1.95 0 100-3.9 1.95 1.95 0 000 3.9zM134.02 63a1.95 1.95 0 100-3.9 1.95 1.95 0 000 3.9zM128.94 63a1.95 1.95 0 100-3.9 1.95 1.95 0 000 3.9zM123.86 63a1.95 1.95 0 100-3.9 1.95 1.95 0 000 3.9zM118.78 63a1.95 1.95 0 100-3.9 1.95 1.95 0 000 3.9zM113.7 63a1.95 1.95 0 100-3.9 1.95 1.95 0 000 3.9zM108.62 63a1.95 1.95 0 100-3.9 1.95 1.95 0 000 3.9zM103.54 63a1.95 1.95 0 100-3.9 1.95 1.95 0 000 3.9zM98.46 63a1.95 1.95 0 100-3.9 1.95 1.95 0 000 3.9zM93.38 63a1.95 1.95 0 100-3.9 1.95 1.95 0 000 3.9zM88.3 63a1.95 1.95 0 100-3.9 1.95 1.95 0 000 3.9zM83.23 63a1.95 1.95 0 100-3.9 1.95 1.95 0 000 3.9zM78.14 63a1.95 1.95 0 100-3.9 1.95 1.95 0 000 3.9zM73.06 63a1.95 1.95 0 100-3.9 1.95 1.95 0 000 3.9zM52.75 63a1.95 1.95 0 100-3.9 1.95 1.95 0 000 3.9zM139.1 56.44a1.95 1.95 0 100-3.9 1.95 1.95 0 000 3.9zM134.02 56.44a1.95 1.95 0 100-3.9 1.95 1.95 0 000 3.9zM128.94 56.44a1.95 1.95 0 100-3.9 1.95 1.95 0 000 3.9zM123.86 56.44a1.95 1.95 0 100-3.9 1.95 1.95 0 000 3.9zM118.78 56.44a1.95 1.95 0 100-3.9 1.95 1.95 0 000 3.9zM113.7 56.44a1.95 1.95 0 100-3.9 1.95 1.95 0 000 3.9zM108.62 56.44a1.95 1.95 0 100-3.9 1.95 1.95 0 000 3.9zM103.54 56.44a1.95 1.95 0 100-3.9 1.95 1.95 0 000 3.9zM98.46 56.44a1.95 1.95 0 100-3.9 1.95 1.95 0 000 3.9zM93.38 56.44a1.95 1.95 0 100-3.9 1.95 1.95 0 000 3.9zM88.3 56.44a1.95 1.95 0 100-3.9 1.95 1.95 0 000 3.9zM83.23 56.44a1.95 1.95 0 100-3.9 1.95 1.95 0 000 3.9zM78.14 56.44a1.95 1.95 0 100-3.9 1.95 1.95 0 000 3.9zM73.06 56.44a1.95 1.95 0 100-3.9 1.95 1.95 0 000 3.9zM67.98 56.44a1.95 1.95 0 100-3.9 1.95 1.95 0 000 3.9zM62.9 56.44a1.95 1.95 0 100-3.9 1.95 1.95 0 000 3.9zM52.75 56.44a1.95 1.95 0 100-3.9 1.95 1.95 0 000 3.9zM139.1 49.87a1.95 1.95 0 100-3.9 1.95 1.95 0 000 3.9zM134.02 49.87a1.95 1.95 0 100-3.9 1.95 1.95 0 000 3.9zM128.94 49.87a1.95 1.95 0 100-3.9 1.95 1.95 0 000 3.9zM123.86 49.87a1.95 1.95 0 100-3.9 1.95 1.95 0 000 3.9zM118.78 49.87a1.95 1.95 0 100-3.9 1.95 1.95 0 000 3.9zM113.7 49.87a1.95 1.95 0 100-3.9 1.95 1.95 0 000 3.9zM103.54 49.87a1.95 1.95 0 100-3.9 1.95 1.95 0 000 3.9zM98.46 49.87a1.95 1.95 0 100-3.9 1.95 1.95 0 000 3.9zM93.38 49.87a1.95 1.95 0 100-3.9 1.95 1.95 0 000 3.9zM88.3 49.87a1.95 1.95 0 100-3.9 1.95 1.95 0 000 3.9zM83.23 49.87a1.95 1.95 0 100-3.9 1.95 1.95 0 000 3.9zM78.14 49.87a1.95 1.95 0 100-3.9 1.95 1.95 0 000 3.9zM73.06 49.87a1.95 1.95 0 100-3.9 1.95 1.95 0 000 3.9zM67.98 49.87a1.95 1.95 0 100-3.9 1.95 1.95 0 000 3.9zM52.75 49.87a1.95 1.95 0 100-3.9 1.95 1.95 0 000 3.9zM108.62 43.3a1.95 1.95 0 100-3.9 1.95 1.95 0 000 3.9zM103.54 43.3a1.95 1.95 0 100-3.9 1.95 1.95 0 000 3.9zM98.46 43.3a1.95 1.95 0 100-3.9 1.95 1.95 0 000 3.9zM93.38 43.3a1.95 1.95 0 100-3.9 1.95 1.95 0 000 3.9zM88.3 43.3a1.95 1.95 0 100-3.9 1.95 1.95 0 000 3.9zM83.23 43.3a1.95 1.95 0 100-3.9 1.95 1.95 0 000 3.9zM78.14 43.3a1.95 1.95 0 100-3.9 1.95 1.95 0 000 3.9zM62.9 43.3a1.95 1.95 0 100-3.9 1.95 1.95 0 000 3.9zM57.83 43.3a1.95 1.95 0 100-3.9 1.95 1.95 0 000 3.9zM113.7 36.74a1.95 1.95 0 100-3.9 1.95 1.95 0 000 3.9zM108.62 36.74a1.95 1.95 0 100-3.9 1.95 1.95 0 000 3.9zM103.54 36.74a1.95 1.95 0 100-3.9 1.95 1.95 0 000 3.9zM98.46 36.74a1.95 1.95 0 100-3.9 1.95 1.95 0 000 3.9zM93.38 36.74a1.95 1.95 0 100-3.9 1.95 1.95 0 000 3.9zM88.3 36.74a1.95 1.95 0 100-3.9 1.95 1.95 0 000 3.9zM83.23 36.74a1.95 1.95 0 100-3.9 1.95 1.95 0 000 3.9zM67.98 36.74a1.95 1.95 0 100-3.9 1.95 1.95 0 000 3.9zM62.9 36.74a1.95 1.95 0 100-3.9 1.95 1.95 0 000 3.9zM57.83 36.74a1.95 1.95 0 100-3.9 1.95 1.95 0 000 3.9zM118.78 30.17a1.95 1.95 0 100-3.9 1.95 1.95 0 000 3.9zM113.7 30.17a1.95 1.95 0 100-3.9 1.95 1.95 0 000 3.9zM108.62 30.17a1.95 1.95 0 100-3.9 1.95 1.95 0 000 3.9zM103.54 30.17a1.95 1.95 0 100-3.9 1.95 1.95 0 000 3.9zM98.46 30.17a1.95 1.95 0 100-3.9 1.95 1.95 0 000 3.9zM93.38 30.17a1.95 1.95 0 100-3.9 1.95 1.95 0 000 3.9zM88.3 30.17a1.95 1.95 0 100-3.9 1.95 1.95 0 000 3.9zM73.06 30.17a1.95 1.95 0 100-3.9 1.95 1.95 0 000 3.9zM67.98 30.17a1.95 1.95 0 100-3.9 1.95 1.95 0 000 3.9zM62.9 30.17a1.95 1.95 0 100-3.9 1.95 1.95 0 000 3.9zM118.78 23.6a1.95 1.95 0 100-3.9 1.95 1.95 0 000 3.9zM113.7 23.6a1.95 1.95 0 100-3.9 1.95 1.95 0 000 3.9zM108.62 23.6a1.95 1.95 0 100-3.9 1.95 1.95 0 000 3.9zM103.54 23.6a1.95 1.95 0 100-3.9 1.95 1.95 0 000 3.9zM98.46 23.6a1.95 1.95 0 100-3.9 1.95 1.95 0 000 3.9zM93.38 23.6a1.95 1.95 0 100-3.9 1.95 1.95 0 000 3.9zM88.3 23.6a1.95 1.95 0 100-3.9 1.95 1.95 0 000 3.9zM123.86 17.04a1.95 1.95 0 100-3.9 1.95 1.95 0 000 3.9zM118.78 17.04a1.95 1.95 0 100-3.9 1.95 1.95 0 000 3.9zM128.94 10.47a1.95 1.95 0 100-3.9 1.95 1.95 0 000 3.9zM123.86 10.47a1.95 1.95 0 100-3.9 1.95 1.95 0 000 3.9zM118.78 10.47a1.95 1.95 0 100-3.9 1.95 1.95 0 000 3.9zM134.02 3.9a1.95 1.95 0 100-3.9 1.95 1.95 0 000 3.9zM128.94 3.9a1.95 1.95 0 100-3.9 1.95 1.95 0 000 3.9zM123.86 3.9a1.95 1.95 0 100-3.9 1.95 1.95 0 000 3.9z" fill="#D6D6D6"/>
</svg>
