<svg width="282" height="236" viewBox="0 0 282 236" fill="none" xmlns="http://www.w3.org/2000/svg">
<rect x="91.6446" y="111.297" width="96.0752" height="63.9432" fill="#BCBCBC"/>
<rect x="183.489" y="94.2841" width="26.2132" height="76.055" rx="13.1066" fill="#A0A0A0"/>
<rect x="69.3116" y="94.249" width="26.2132" height="76.055" rx="13.1066" fill="#A0A0A0"/>
<path fill-rule="evenodd" clip-rule="evenodd" d="M163.5 45.5253L143.71 52.4745C141.623 80.6969 134.835 171.087 150.869 213.42L187.681 216.511C192.667 176.355 162.252 73.7105 163.5 45.5253Z" fill="#2F3676"/>
<path fill-rule="evenodd" clip-rule="evenodd" d="M115.772 45.5255L135.561 52.4746C137.649 80.697 144.437 171.088 128.402 213.42L88.8088 207.922C83.8235 167.766 117.019 73.7106 115.772 45.5255Z" fill="#2F3676"/>
<path d="M282 0H0V114.694H282V0Z" fill="#E4E4E4"/>
<path d="M207.347 200.971C207.347 217.908 176.907 236 139.357 236C101.806 236 71.366 217.908 71.366 200.971C71.366 140.045 101.806 170.304 139.357 170.304C176.907 170.304 207.347 137.319 207.347 200.971Z" fill="#5C5C5C"/>
<g clip-path="url(#clip0)">
<rect x="96.4486" y="74.9595" width="82.626" height="35.1588" rx="2.70743" fill="#4C4C4C"/>
<path d="M150.45 79.0165H147.395C146.91 79.0165 146.517 79.408 146.517 79.8908V82.9364C146.517 83.4192 146.91 83.8107 147.395 83.8107H150.45C150.935 83.8107 151.328 83.4192 151.328 82.9364V79.8908C151.328 79.4078 150.935 79.0165 150.45 79.0165Z" fill="#616161"/>
<path d="M139.957 98.6448H143.013C143.498 98.6448 143.89 98.2534 143.89 97.7706V94.7249C143.89 94.2422 143.498 93.8507 143.013 93.8507H139.957C139.473 93.8507 139.08 94.2422 139.08 94.7249V97.7706C139.08 98.2535 139.473 98.6448 139.957 98.6448Z" fill="#616161"/>
<path d="M147.395 98.6447H150.45C150.935 98.6447 151.328 98.2533 151.328 97.7705V94.7248C151.328 94.2421 150.935 93.8506 150.45 93.8506H147.395C146.91 93.8506 146.517 94.2421 146.517 94.7248V97.7705C146.517 98.2534 146.91 98.6447 147.395 98.6447Z" fill="#616161"/>
<path d="M143.013 86.4334H139.957C139.473 86.4334 139.08 86.8248 139.08 87.3076V90.3533C139.08 90.836 139.473 91.2275 139.957 91.2275H143.013C143.498 91.2275 143.89 90.836 143.89 90.3533V87.3076C143.89 86.8247 143.498 86.4334 143.013 86.4334Z" fill="#616161"/>
<path d="M135.568 79.0165H132.512C132.028 79.0165 131.635 79.408 131.635 79.8908V82.9364C131.635 83.4192 132.028 83.8107 132.512 83.8107H135.568C136.053 83.8107 136.445 83.4192 136.445 82.9364V79.8908C136.445 79.4078 136.053 79.0165 135.568 79.0165Z" fill="#616161"/>
<path d="M135.568 86.4336H132.512C132.028 86.4336 131.635 86.825 131.635 87.3078V90.3535C131.635 90.8362 132.028 91.2277 132.512 91.2277H135.568C136.053 91.2277 136.445 90.8362 136.445 90.3535V87.3078C136.445 86.8249 136.053 86.4336 135.568 86.4336Z" fill="#616161"/>
<path d="M132.512 98.6447H135.568C136.053 98.6447 136.445 98.2533 136.445 97.7705V94.7248C136.445 94.2421 136.053 93.8506 135.568 93.8506H132.512C132.028 93.8506 131.635 94.2421 131.635 94.7248V97.7705C131.635 98.2534 132.028 98.6447 132.512 98.6447Z" fill="#616161"/>
<path d="M162.279 106.062H165.335C165.82 106.062 166.212 105.67 166.212 105.187V102.142C166.212 101.659 165.82 101.268 165.335 101.268H162.279C161.795 101.268 161.402 101.659 161.402 102.142V105.187C161.402 105.67 161.795 106.062 162.279 106.062Z" fill="#616161"/>
<path d="M113.241 79.0165H110.186C109.701 79.0165 109.308 79.408 109.308 79.8908V82.9364C109.308 83.4192 109.701 83.8107 110.186 83.8107H113.241C113.726 83.8107 114.119 83.4192 114.119 82.9364V79.8908C114.119 79.4078 113.726 79.0165 113.241 79.0165Z" fill="#616161"/>
<path d="M128.125 86.4336H125.069C124.585 86.4336 124.192 86.825 124.192 87.3078V90.3535C124.192 90.8362 124.585 91.2277 125.069 91.2277H128.125C128.61 91.2277 129.002 90.8362 129.002 90.3535V87.3078C129.002 86.8249 128.61 86.4336 128.125 86.4336Z" fill="#616161"/>
<path d="M162.279 91.2275H172.778C173.262 91.2275 173.655 90.836 173.655 90.3533V87.3076C173.655 86.8248 173.262 86.4334 172.778 86.4334H162.279C161.795 86.4334 161.402 86.8248 161.402 87.3076V90.3533C161.402 90.836 161.795 91.2275 162.279 91.2275Z" fill="#616161"/>
<path d="M157.894 79.0165H154.838C154.353 79.0165 153.961 79.408 153.961 79.8908V82.9364C153.961 83.4192 154.353 83.8107 154.838 83.8107H157.894C158.378 83.8107 158.771 83.4192 158.771 82.9364V79.8908C158.771 79.4078 158.378 79.0165 157.894 79.0165Z" fill="#616161"/>
<path d="M154.838 91.2277H157.894C158.378 91.2277 158.771 90.8362 158.771 90.3535V87.3078C158.771 86.825 158.378 86.4336 157.894 86.4336H154.838C154.353 86.4336 153.961 86.825 153.961 87.3078V90.3535C153.961 90.8362 154.353 91.2277 154.838 91.2277Z" fill="#616161"/>
<path d="M161.402 79.8908V82.9364C161.402 83.4192 161.795 83.8107 162.279 83.8107H165.335C165.82 83.8107 166.212 83.4192 166.212 82.9364V79.8908C166.212 79.408 165.82 79.0165 165.335 79.0165H162.279C161.795 79.0165 161.402 79.4078 161.402 79.8908Z" fill="#616161"/>
<path d="M150.45 86.4336H147.395C146.91 86.4336 146.517 86.825 146.517 87.3078V90.3535C146.517 90.8362 146.91 91.2277 147.395 91.2277H150.45C150.935 91.2277 151.328 90.8362 151.328 90.3535V87.3078C151.328 86.8249 150.935 86.4336 150.45 86.4336Z" fill="#616161"/>
<path d="M143.013 79.0165H139.957C139.473 79.0165 139.08 79.408 139.08 79.8908V82.9364C139.08 83.4192 139.473 83.8107 139.957 83.8107H143.013C143.498 83.8107 143.89 83.4192 143.89 82.9364V79.8908C143.89 79.4078 143.498 79.0165 143.013 79.0165Z" fill="#616161"/>
<path d="M172.778 93.8506H154.838C154.353 93.8506 153.961 94.2421 153.961 94.7248V97.7705C153.961 98.2533 154.353 98.6447 154.838 98.6447H172.779C173.263 98.6447 173.656 98.2533 173.656 97.7705V94.7248C173.656 94.2421 173.263 93.8506 172.778 93.8506Z" fill="#616161"/>
<path d="M169.721 83.8107H172.778C173.262 83.8107 173.655 83.4192 173.655 82.9364V79.8908C173.655 79.408 173.262 79.0165 172.778 79.0165H169.721C169.237 79.0165 168.844 79.408 168.844 79.8908V82.9364C168.844 83.4192 169.237 83.8107 169.721 83.8107Z" fill="#616161"/>
<path d="M125.069 98.6447H128.125C128.61 98.6447 129.002 98.2533 129.002 97.7705V94.7248C129.002 94.2421 128.609 93.8506 128.125 93.8506H125.069C124.585 93.8506 124.192 94.2421 124.192 94.7248V97.7705C124.192 98.2534 124.585 98.6447 125.069 98.6447Z" fill="#616161"/>
<path d="M106.678 82.9364V79.8908C106.678 79.408 106.285 79.0165 105.801 79.0165H102.744C102.259 79.0165 101.867 79.408 101.867 79.8908V82.9364C101.867 83.4192 102.259 83.8107 102.744 83.8107H105.801C106.285 83.8107 106.678 83.4192 106.678 82.9364Z" fill="#616161"/>
<path d="M168.844 102.142V105.187C168.844 105.67 169.237 106.062 169.721 106.062H172.778C173.262 106.062 173.655 105.67 173.655 105.187V102.142C173.655 101.659 173.262 101.268 172.778 101.268H169.721C169.237 101.267 168.844 101.659 168.844 102.142Z" fill="#616161"/>
<path d="M105.801 101.268H102.744C102.259 101.268 101.867 101.659 101.867 102.142V105.188C101.867 105.67 102.259 106.062 102.744 106.062H105.801C106.285 106.062 106.678 105.67 106.678 105.188V102.142C106.678 101.659 106.285 101.268 105.801 101.268Z" fill="#616161"/>
<path d="M150.451 101.268H125.069C124.585 101.268 124.192 101.659 124.192 102.142V105.188C124.192 105.67 124.585 106.062 125.069 106.062H150.451C150.935 106.062 151.328 105.67 151.328 105.188V102.142C151.328 101.659 150.935 101.268 150.451 101.268Z" fill="#616161"/>
<path d="M157.894 101.268H154.838C154.353 101.268 153.961 101.659 153.961 102.142V105.188C153.961 105.67 154.353 106.062 154.838 106.062H157.894C158.378 106.062 158.771 105.67 158.771 105.188V102.142C158.771 101.659 158.378 101.268 157.894 101.268Z" fill="#616161"/>
<path d="M120.687 101.268H117.631C117.147 101.268 116.754 101.659 116.754 102.142V105.187C116.754 105.67 117.147 106.062 117.631 106.062H120.687C121.172 106.062 121.564 105.67 121.564 105.187V102.142C121.564 101.659 121.172 101.268 120.687 101.268Z" fill="#616161"/>
<path d="M120.687 79.0165H117.631C117.147 79.0165 116.754 79.408 116.754 79.8908V82.9364C116.754 83.4192 117.147 83.8107 117.631 83.8107H120.687C121.172 83.8107 121.564 83.4192 121.564 82.9364V79.8908C121.564 79.4078 121.172 79.0165 120.687 79.0165Z" fill="#616161"/>
<path d="M128.125 79.0165H125.069C124.585 79.0165 124.192 79.408 124.192 79.8908V82.9364C124.192 83.4192 124.585 83.8107 125.069 83.8107H128.125C128.61 83.8107 129.002 83.4192 129.002 82.9364V79.8908C129.002 79.4078 128.61 79.0165 128.125 79.0165Z" fill="#616161"/>
<path d="M117.631 91.2275H120.687C121.172 91.2275 121.564 90.836 121.564 90.3533V87.3076C121.564 86.8248 121.172 86.4334 120.687 86.4334H117.631C117.147 86.4334 116.754 86.8248 116.754 87.3076V90.3533C116.754 90.836 117.147 91.2275 117.631 91.2275V91.2275Z" fill="#616161"/>
<path d="M114.119 105.187V102.142C114.119 101.659 113.726 101.268 113.241 101.268H110.186C109.701 101.268 109.308 101.659 109.308 102.142V105.187C109.308 105.67 109.701 106.062 110.186 106.062H113.241C113.726 106.062 114.119 105.67 114.119 105.187Z" fill="#616161"/>
<path d="M102.744 91.2277H113.243C113.727 91.2277 114.12 90.8362 114.12 90.3535V87.3078C114.12 86.825 113.727 86.4336 113.243 86.4336H102.744C102.259 86.4336 101.867 86.825 101.867 87.3078V90.3535C101.866 90.8362 102.259 91.2277 102.744 91.2277Z" fill="#616161"/>
<path d="M120.684 93.8506H102.744C102.259 93.8506 101.867 94.2421 101.867 94.7248V97.7705C101.867 98.2533 102.259 98.6447 102.744 98.6447H120.685C121.169 98.6447 121.562 98.2533 121.562 97.7705V94.7248C121.562 94.2421 121.169 93.8506 120.684 93.8506V93.8506Z" fill="#616161"/>
</g>
<rect width="17.7118" height="28.2204" rx="8.85592" transform="matrix(0.98822 0.153038 -0.153538 0.988143 188.324 80.8719)" fill="#B7B7B7"/>
<path fill-rule="evenodd" clip-rule="evenodd" d="M187.056 132.648C187.056 132.648 189.23 116.901 187.355 113.315C185.48 109.728 185.805 99.91 188.069 99.1078C190.144 98.3727 190.399 106.839 191.617 104.841C193.367 100.81 193.005 87.7278 195.346 87.1575C198.81 86.3139 207.995 91.9746 208.285 96.7893C208.895 106.915 206.504 109.794 202.774 120.321C200.824 125.826 199.903 132.609 200.01 140.67L187.056 132.648Z" fill="#D4A181"/>
<path fill-rule="evenodd" clip-rule="evenodd" d="M157.399 206.037C167.494 181.453 183.676 162.644 186.601 122.654L202.073 125.734C207.738 158.121 203.09 178.2 192.342 204.351C188.32 209.019 172.332 209.484 164.494 215.447L157.399 206.037Z" fill="#C5CFD6"/>
<path fill-rule="evenodd" clip-rule="evenodd" d="M106.776 133.007L111.876 116.5C118.131 110.234 120.958 103.462 119.2 101.827C116.716 99.5181 113.984 107.998 113.661 105.68C113.661 101.287 119.201 89.4261 117.279 87.9739C114.437 85.8254 103.754 87.3753 101.572 91.6784C96.9808 100.728 98.0288 104.318 97.2603 115.459C96.8585 121.284 95.0037 127.873 91.696 135.228L106.776 133.007Z" fill="#D4A181"/>
<path fill-rule="evenodd" clip-rule="evenodd" d="M98.6114 205.187C91.7415 178.473 96.8326 155.641 112.33 118.649L97.1336 114.415C77.4166 140.748 71.6886 147.032 69.435 175.209C70.5157 196.99 82.9912 209.474 92.2557 211.608L98.6114 205.187Z" fill="#C5CFD6"/>
<path d="M97.7926 163.518C115.842 152.584 169.333 154.523 179.982 164.064C190.631 173.604 200.188 192.959 190.631 207.134C181.074 221.309 99.1862 217.19 88.5087 210.133C77.8313 203.075 88.5087 169.142 97.7926 163.518Z" fill="#DDE3E9"/>
<ellipse cx="141.146" cy="193.988" rx="24.0965" ry="31.7543" fill="#D4A181"/>
<path fill-rule="evenodd" clip-rule="evenodd" d="M155.39 216.518C158.504 203.155 167.373 194.046 166.019 188.074C165.116 184.092 162.709 181.616 158.798 180.645C156.775 172.751 150.251 169.394 139.227 170.573C122.69 172.341 112.597 178.966 116.956 193.544C120.963 193.544 125.8 192.146 132.488 194.541C134.61 195.301 136.128 197.658 137.042 201.611H140.064C142.998 196.92 145.89 195.196 148.741 196.439C151.593 197.683 152.241 200.703 150.686 205.5L152.175 216.518H155.39Z" fill="#191847"/>
<path fill-rule="evenodd" clip-rule="evenodd" d="M126.677 216.518C123.564 203.155 114.694 194.046 116.049 188.074C116.952 184.092 119.359 181.616 123.27 180.645C125.292 172.751 131.816 169.394 142.84 170.573C159.377 172.341 169.47 178.966 165.111 193.544C161.105 193.544 156.268 192.146 149.579 194.541C147.457 195.301 145.939 197.658 145.026 201.611H142.003C139.07 196.92 136.178 195.196 133.326 196.439C130.475 197.683 129.827 200.703 131.382 205.5L129.893 216.518H126.677Z" fill="#191847"/>
<path d="M165.257 192.194C165.257 215.45 154.399 226.367 141.005 226.367C127.611 226.367 116.753 214.403 116.753 192.194C116.753 176.851 127.611 184.777 141.005 184.777C154.399 184.777 165.257 176.851 165.257 192.194Z" fill="#191847"/>
<rect width="82.5889" height="45.6099" rx="2.70743" transform="matrix(0.978568 0.205927 -0.207294 0.978279 142.492 17.4598)" fill="#4C4C4C"/>
<path d="M194.361 33.3688L191.373 32.7402C190.899 32.6405 190.439 32.9196 190.345 33.3633L189.751 36.1627C189.657 36.6064 189.965 37.0471 190.439 37.1467L193.427 37.7753C193.901 37.875 194.361 37.5959 194.455 37.1522L195.048 34.3528C195.143 33.909 194.835 33.4685 194.361 33.3688Z" fill="#616161"/>
<path d="M180.276 49.2387L183.265 49.8673C183.738 49.967 184.199 49.6879 184.293 49.2442L184.886 46.4448C184.98 46.0011 184.672 45.5605 184.199 45.4608L181.21 44.8322C180.737 44.7325 180.276 45.0116 180.182 45.4553L179.589 48.2547C179.495 48.6986 179.803 49.139 180.276 49.2387Z" fill="#616161"/>
<path d="M187.558 50.7737L190.546 51.4023C191.02 51.5019 191.48 51.2229 191.574 50.7792L192.168 47.9798C192.262 47.536 191.954 47.0954 191.48 46.9958L188.492 46.3672C188.018 46.2675 187.558 46.5465 187.464 46.9903L186.87 49.7897C186.776 50.2335 187.084 50.674 187.558 50.7737Z" fill="#616161"/>
<path d="M185.641 38.6473L182.653 38.0187C182.179 37.9191 181.719 38.1981 181.624 38.6418L181.031 41.4412C180.937 41.885 181.245 42.3256 181.719 42.4252L184.707 43.0538C185.181 43.1535 185.641 42.8745 185.735 42.4307L186.328 39.6313C186.422 39.1874 186.115 38.747 185.641 38.6473Z" fill="#616161"/>
<path d="M179.801 30.2994L176.813 29.6707C176.339 29.5711 175.879 29.8501 175.785 30.2938L175.192 33.0933C175.098 33.537 175.405 33.9776 175.879 34.0772L178.867 34.7059C179.341 34.8055 179.801 34.5265 179.896 34.0828L180.489 31.2833C180.583 30.8395 180.275 30.399 179.801 30.2994Z" fill="#616161"/>
<path d="M178.359 37.1119L175.371 36.4833C174.897 36.3836 174.437 36.6626 174.343 37.1064L173.749 39.9058C173.655 40.3495 173.963 40.7901 174.437 40.8898L177.425 41.5184C177.899 41.6181 178.359 41.339 178.453 40.8953L179.047 38.0959C179.141 37.652 178.833 37.2115 178.359 37.1119Z" fill="#616161"/>
<path d="M172.995 47.7037L175.983 48.3323C176.457 48.432 176.917 48.153 177.011 47.7092L177.604 44.9098C177.698 44.4661 177.391 44.0255 176.917 43.9258L173.929 43.2972C173.455 43.1975 172.995 43.4766 172.901 43.9203L172.307 46.7197C172.213 47.1636 172.521 47.604 172.995 47.7037Z" fill="#616161"/>
<path d="M200.679 60.6566L203.667 61.2852C204.141 61.3849 204.601 61.1059 204.695 60.6621L205.289 57.8627C205.383 57.4188 205.075 56.9784 204.601 56.8787L201.613 56.2501C201.139 56.1505 200.679 56.4295 200.585 56.8732L199.992 59.6726C199.898 60.1165 200.205 60.557 200.679 60.6566Z" fill="#616161"/>
<path d="M157.952 25.694L154.964 25.0653C154.49 24.9657 154.03 25.2447 153.936 25.6884L153.343 28.4878C153.249 28.9316 153.556 29.3722 154.03 29.4718L157.018 30.1005C157.492 30.2001 157.952 29.9211 158.046 29.4774L158.64 26.6779C158.734 26.2341 158.426 25.7936 157.952 25.694Z" fill="#616161"/>
<path d="M171.078 35.5764L168.089 34.9478C167.615 34.8481 167.155 35.1272 167.061 35.5709L166.468 38.3703C166.374 38.814 166.681 39.2546 167.155 39.3543L170.143 39.9829C170.617 40.0826 171.077 39.8035 171.172 39.3598L171.765 36.5604C171.859 36.1165 171.551 35.6761 171.078 35.5764Z" fill="#616161"/>
<path d="M203.56 47.0329L213.83 49.1938C214.304 49.2935 214.764 49.0144 214.858 48.5704L215.452 45.7693C215.546 45.3253 215.238 44.8844 214.764 44.7847L204.494 42.6237C204.02 42.524 203.56 42.8032 203.466 43.2472L202.872 46.0483C202.778 46.4923 203.086 46.9332 203.56 47.0329Z" fill="#616161"/>
<path d="M201.643 34.9043L198.654 34.2757C198.181 34.176 197.72 34.455 197.626 34.8988L197.033 37.6982C196.939 38.1419 197.247 38.5825 197.72 38.6822L200.709 39.3108C201.182 39.4104 201.643 39.1314 201.737 38.6877L202.33 35.8883C202.424 35.4444 202.116 35.0039 201.643 34.9043Z" fill="#616161"/>
<path d="M196.278 45.4947L199.266 46.1233C199.74 46.2229 200.2 45.9439 200.294 45.5002L200.888 42.7008C200.982 42.257 200.674 41.8164 200.2 41.7168L197.212 41.0882C196.738 40.9885 196.278 41.2675 196.184 41.7113L195.591 44.5107C195.497 44.9544 195.804 45.395 196.278 45.4947Z" fill="#616161"/>
<path d="M204.908 36.4337L204.315 39.2331C204.22 39.6769 204.528 40.1175 205.002 40.2171L207.99 40.8458C208.464 40.9454 208.924 40.6664 209.018 40.2227L209.612 37.4232C209.706 36.9795 209.398 36.5389 208.924 36.4393L205.936 35.8106C205.462 35.711 205.002 35.9898 204.908 36.4337Z" fill="#616161"/>
<path d="M192.923 40.1818L189.934 39.5532C189.46 39.4535 189 39.7326 188.906 40.1763L188.313 42.9757C188.219 43.4194 188.527 43.8601 189 43.9597L191.989 44.5883C192.462 44.688 192.923 44.409 193.017 43.9652L193.61 41.1658C193.704 40.722 193.396 40.2815 192.923 40.1818Z" fill="#616161"/>
<path d="M187.079 31.8343L184.091 31.2057C183.617 31.1061 183.157 31.3851 183.063 31.8288L182.469 34.6282C182.375 35.072 182.683 35.5126 183.157 35.6122L186.145 36.2408C186.619 36.3405 187.079 36.0615 187.173 35.6177L187.767 32.8183C187.861 32.3744 187.553 31.934 187.079 31.8343Z" fill="#616161"/>
<path d="M213.321 51.597L195.771 47.9028C195.297 47.8031 194.836 48.0823 194.742 48.5265L194.148 51.3287C194.054 51.7728 194.362 52.2139 194.836 52.3136L212.387 56.0078C212.861 56.1076 213.322 55.8283 213.416 55.3841L214.009 52.582C214.103 52.1378 213.795 51.6967 213.321 51.597Z" fill="#616161"/>
<path d="M212.284 41.7516L215.273 42.3804C215.747 42.4801 216.207 42.2011 216.301 41.7573L216.894 38.9579C216.989 38.5142 216.681 38.0736 216.207 37.9739L213.218 37.3451C212.744 37.2455 212.284 37.5245 212.19 37.9682L211.596 40.7676C211.502 41.2114 211.81 41.652 212.284 41.7516Z" fill="#616161"/>
<path d="M165.713 46.1687L168.701 46.7974C169.175 46.897 169.635 46.618 169.729 46.1743L170.323 43.3749C170.417 42.9311 170.109 42.4905 169.635 42.3909L166.647 41.7622C166.173 41.6626 165.713 41.9416 165.619 42.3853L165.025 45.1848C164.931 45.6286 165.239 46.0691 165.713 46.1687Z" fill="#616161"/>
<path d="M150.766 27.9421L151.359 25.1427C151.453 24.699 151.145 24.2583 150.672 24.1587L147.682 23.5299C147.209 23.4302 146.748 23.7092 146.654 24.153L146.061 26.9524C145.967 27.3961 146.275 27.8367 146.748 27.9364L149.738 28.5652C150.212 28.6649 150.672 28.3858 150.766 27.9421Z" fill="#616161"/>
<path d="M207.867 58.4077L207.273 61.2071C207.179 61.6508 207.487 62.0915 207.961 62.1911L210.95 62.8199C211.424 62.9196 211.884 62.6406 211.978 62.1968L212.572 59.3974C212.666 58.9535 212.358 58.5131 211.884 58.4134L208.895 57.7846C208.421 57.6848 207.961 57.9638 207.867 58.4077Z" fill="#616161"/>
<path d="M146.353 44.5982L143.363 43.9694C142.89 43.8697 142.429 44.1487 142.335 44.5925L141.742 47.3919C141.648 47.8356 141.956 48.2762 142.429 48.3758L145.419 49.0047C145.893 49.1044 146.353 48.8253 146.447 48.3816L147.04 45.5822C147.134 45.1384 146.827 44.6979 146.353 44.5982Z" fill="#616161"/>
<path d="M190.04 53.8032L165.209 48.5755C164.735 48.4757 164.275 48.7551 164.181 49.1993L163.587 52.0022C163.493 52.4465 163.801 52.8877 164.275 52.9874L189.106 58.2152C189.58 58.3149 190.041 58.0356 190.135 57.5913L190.728 54.7884C190.822 54.3441 190.515 53.903 190.04 53.8032Z" fill="#616161"/>
<path d="M188.575 60.7237L163.747 55.4995C163.273 55.3998 162.813 55.679 162.719 56.123L160.891 64.746C160.797 65.19 161.105 65.6309 161.579 65.7306L186.407 70.9548C186.881 71.0545 187.341 70.7753 187.435 70.3313L189.263 61.7083C189.357 61.2643 189.049 60.8234 188.575 60.7237Z" fill="#616161"/>
<path d="M197.32 55.3438L194.331 54.7151C193.858 54.6155 193.397 54.8945 193.303 55.3382L192.71 58.1377C192.616 58.5814 192.924 59.022 193.397 59.1216L196.386 59.7503C196.859 59.8499 197.32 59.5709 197.414 59.1272L198.007 56.3277C198.101 55.884 197.793 55.4434 197.32 55.3438Z" fill="#616161"/>
<path d="M160.915 47.6684L157.927 47.0398C157.453 46.9401 156.993 47.2192 156.899 47.6629L156.305 50.4623C156.211 50.906 156.519 51.3466 156.993 51.4463L159.981 52.0749C160.455 52.1745 160.915 51.8955 161.009 51.4518L161.602 48.6524C161.697 48.2086 161.389 47.7681 160.915 47.6684Z" fill="#616161"/>
<path d="M165.238 27.2294L162.25 26.6008C161.776 26.5011 161.316 26.7802 161.222 27.2239L160.628 30.0233C160.534 30.467 160.842 30.9076 161.316 31.0073L164.304 31.6359C164.778 31.7355 165.238 31.4565 165.332 31.0128L165.925 28.2134C166.019 27.7695 165.712 27.3291 165.238 27.2294Z" fill="#616161"/>
<path d="M172.52 28.7639L169.531 28.1353C169.058 28.0356 168.597 28.3146 168.503 28.7584L167.91 31.5578C167.816 32.0015 168.124 32.4421 168.597 32.5418L171.586 33.1704C172.06 33.2701 172.52 32.991 172.614 32.5473L173.207 29.7479C173.301 29.304 172.994 28.8636 172.52 28.7639Z" fill="#616161"/>
<path d="M159.873 37.8198L162.862 38.4484C163.335 38.548 163.796 38.269 163.89 37.8253L164.483 35.0259C164.577 34.5822 164.269 34.1415 163.796 34.0419L160.807 33.4133C160.334 33.3137 159.873 33.5927 159.779 34.0364L159.186 36.8358C159.092 37.2796 159.4 37.7201 159.873 37.8198V37.8198Z" fill="#616161"/>
<path d="M153.728 49.9173L154.321 47.1179C154.415 46.674 154.107 46.2336 153.633 46.1339L150.645 45.5053C150.171 45.4056 149.711 45.6847 149.617 46.1284L149.024 48.9278C148.93 49.3715 149.237 49.8122 149.711 49.9118L152.699 50.5404C153.173 50.6401 153.633 50.3612 153.728 49.9173Z" fill="#616161"/>
<path d="M145.306 34.7521L155.576 36.9131C156.05 37.0129 156.511 36.7337 156.605 36.2897L157.198 33.4886C157.292 33.0446 156.985 32.6037 156.511 32.504L146.241 30.343C145.767 30.2433 145.306 30.5225 145.212 30.9665L144.619 33.7675C144.524 34.2115 144.832 34.6524 145.306 34.7521Z" fill="#616161"/>
<path d="M162.353 40.8512L144.803 37.157C144.329 37.0573 143.868 37.3366 143.774 37.7807L143.18 40.5829C143.086 41.027 143.394 41.4681 143.868 41.5678L161.419 45.262C161.893 45.3618 162.354 45.0825 162.448 44.6383L163.041 41.8362C163.135 41.392 162.827 40.951 162.353 40.8512V40.8512Z" fill="#616161"/>
<rect width="6.61102" height="82.6166" rx="2.24902" transform="matrix(-0.207019 0.978337 -0.97851 -0.206201 224.908 26.9273)" fill="#4C4C4C"/>
<path d="M208.71 28.8764L208.075 31.873C207.975 32.348 208.277 32.8141 208.751 32.9138L211.74 33.5434C212.214 33.6432 212.68 33.3389 212.78 32.8639L213.415 29.8674C213.515 29.3924 213.213 28.9263 212.739 28.8265L209.75 28.197C209.276 28.0972 208.81 28.4013 208.71 28.8764Z" fill="#4C4C4C"/>
<path d="M151.875 16.8947L151.24 19.8912C151.14 20.3662 151.442 20.8323 151.916 20.9321L154.905 21.5616C155.379 21.6614 155.845 21.3572 155.946 20.8822L156.58 17.8856C156.681 17.4106 156.378 16.9445 155.904 16.8448L152.915 16.2152C152.441 16.1154 151.975 16.4195 151.875 16.8947Z" fill="#4C4C4C"/>
<rect width="30.2835" height="40.9422" rx="2.34906" transform="matrix(0.249082 0.968483 -0.968785 0.247905 104.765 12.3907)" fill="#B7B7B7"/>
<rect width="6.77408" height="112.22" rx="2.34906" transform="matrix(0.248942 0.968518 -0.968749 0.248044 141.009 9.91434)" fill="#4C4C4C"/>
<defs>
<clipPath id="clip0">
<rect width="82.626" height="35.1588" fill="white" transform="translate(96.4439 74.9601)"/>
</clipPath>
</defs>
</svg>
