<svg width="247" height="217" fill="none" xmlns="http://www.w3.org/2000/svg">
  <g clip-path="url(#clip0)">
    <path d="M221.66 173.9s-11.09 1.96-10.78 17.98l-3.28-.73v-9.12s2.84-12.27 14.89-9.53l-.84 1.4z" fill="#80C56E"/>
    <path d="M246.91 181.58a.93.93 0 00-.31-.63c-1.85-1.63-4.35-2.66-6.5-3.3-.97-.29-.85-1.67.14-1.8 1.25-.17 2.4-.26 3.4-.32a.92.92 0 00.76-1.38 30.52 30.52 0 00-6.68-7.9.93.93 0 00-.58-.22c-2.7-.03-5.72.6-7.86 1.17-.9.23-1.55-.83-.93-1.51.82-.9 1.63-1.68 2.38-2.34a.92.92 0 00-.26-1.54 22.67 22.67 0 00-4-1.23c-2.05-.42-3.8-1.54-6.78 4.92a113.68 113.68 0 00-2.22 5.08c-.37.94.08 2 1.02 2.38 4.58 1.9 17.9 8.24 24.02 20.01a.93.93 0 001.67-.01c1.15-2.38 3-6.95 2.73-11.38zm-13.73-6.7c-1.8 0-3.24-.92-3.24-2.04s1.45-2.03 3.24-2.03c1.79 0 3.23.91 3.23 2.03 0 1.12-1.44 2.03-3.23 2.03z" fill="#66AD66"/>
    <path opacity=".05" d="M243.64 175.53c-1 .06-2.15.15-3.4.32h-.02a.9.9 0 00-.13-.41 30.48 30.48 0 00-6.67-7.9.91.91 0 00-.58-.21c-2.7-.04-5.72.6-7.86 1.16a.93.93 0 01-.93-1.51c.81-.9 1.62-1.68 2.37-2.33a.92.92 0 00-.25-1.55 22.74 22.74 0 00-4-1.22l-.34-.08c1.79-2.21 3.13-1.53 4.64-1.22 1.38.29 2.72.7 4 1.23.64.26.77 1.1.25 1.54-.74.66-1.56 1.43-2.37 2.34-.62.68.03 1.74.93 1.5a31 31 0 017.86-1.16c.22 0 .42.09.58.22a30.5 30.5 0 016.68 7.9.92.92 0 01-.76 1.38zM244.18 192.96a.93.93 0 01-1.67.01c-.38-.73-.78-1.44-1.21-2.12a20.99 20.99 0 001.31-7.98.92.92 0 00-.31-.63c-1.85-1.62-4.36-2.66-6.5-3.3-.97-.29-.86-1.67.14-1.8a46.29 46.29 0 013.5-.32c.01.35.23.7.66.83 2.15.64 4.65 1.67 6.5 3.3.18.16.3.39.32.63.27 4.43-1.59 9-2.74 11.38z" fill="#000"/>
    <path d="M203.72 163.91c2.2 15.32 1.87 35.13 1.87 35.13h6.56c0-15.33-3.84-29.47-4.47-35.13h-3.96z" fill="#66AD66"/>
    <path d="M207.68 163.91h-3.96c.56 3.94.96 8.18 1.24 12.3a30.85 30.85 0 004.34-3.14c-.74-3.94-1.39-7.1-1.62-9.16z" fill="#66AD66"/>
    <mask id="a" maskUnits="userSpaceOnUse" x="171" y="128" width="46" height="50">
      <path d="M216.92 149.07a.92.92 0 00-.8-.9c-2.52-.37-7.1-.76-11.6.28-.97.22-1.58-.97-.83-1.6 2.76-2.32 6.97-5.1 10.87-4.59a.92.92 0 001-1.21c-1-2.83-2.55-5.06-4.73-5.64-9.17-2.42-13.53 2.46-13.53 2.46s-1.34-6.38-10.51-8.8c-5.48-1.45-12.82 8.16-14.28 13.6-.42 1.56-.73 3.09-.94 4.57a.93.93 0 00.95 1.04c4.28-.12 7.75 1.4 10.2 2.99.88.57.3 1.91-.72 1.67a48 48 0 00-9.8-1.11.93.93 0 00-.95.95c.05 1.8.25 3.51.6 5.15.11.55.7.86 1.23.66 4.86-1.78 9.7-.64 12.6.43.84.3.8 1.5-.07 1.75a27.17 27.17 0 00-9.68 5.3.92.92 0 00-.18 1.22c2.85 4.3 6.8 7.58 11.06 9.7 8.72.47 18.43-2.92 24.68-11.88.2-.29.22-.67.04-.98-2.29-3.9-7.3-6.02-11.26-7.13-1.02-.28-.84-1.76.22-1.8a32.41 32.41 0 0113.83 2.34.93.93 0 001.25-.55c.3-.88.58-1.79.84-2.74.37-1.4.55-3.22.5-5.18zm-28.75-5.04c-1.3 1.75-3.67 1.07-5.96-.6-2.29-1.68-4.14-3.05-2.32-5.48 1.81-2.44 3.67-1.08 5.96.6 2.28 1.68 3.74 3.57 2.32 5.48zm11.72 19.15c2.17 1.26 3.46 3.1 2.86 4.12-.6 1.02-2.85.82-5.02-.44-2.18-1.25-3.46-3.1-2.86-4.11.6-1.02 2.84-.82 5.02.43z" fill="#80C56E"/>
    </mask>
    <g mask="url(#a)">
      <path d="M216.92 149.07a.92.92 0 00-.8-.9c-2.52-.37-7.1-.76-11.6.28-.97.22-1.58-.97-.83-1.6 2.76-2.32 6.97-5.1 10.87-4.59a.92.92 0 001-1.21c-1-2.83-2.55-5.06-4.73-5.64-9.17-2.42-13.53 2.46-13.53 2.46s-1.34-6.38-10.51-8.8c-5.48-1.45-12.82 8.16-14.28 13.6-.42 1.56-.73 3.09-.94 4.57a.93.93 0 00.95 1.04c4.28-.12 7.75 1.4 10.2 2.99.88.57.3 1.91-.72 1.67a48 48 0 00-9.8-1.11.93.93 0 00-.95.95c.05 1.8.25 3.51.6 5.15.11.55.7.86 1.23.66 4.86-1.78 9.7-.64 12.6.43.84.3.8 1.5-.07 1.75a27.17 27.17 0 00-9.68 5.3.92.92 0 00-.18 1.22c2.85 4.3 6.8 7.58 11.06 9.7 8.72.47 18.43-2.92 24.68-11.88.2-.29.22-.67.04-.98-2.29-3.9-7.3-6.02-11.26-7.13-1.02-.28-.84-1.76.22-1.8a32.41 32.41 0 0113.83 2.34.93.93 0 001.25-.55c.3-.88.58-1.79.84-2.74.37-1.4.55-3.22.5-5.18zm-28.75-5.04c-1.3 1.75-3.67 1.07-5.96-.6-2.29-1.68-4.14-3.05-2.32-5.48 1.81-2.44 3.67-1.08 5.96.6 2.28 1.68 3.74 3.57 2.32 5.48zm11.72 19.15c2.17 1.26 3.46 3.1 2.86 4.12-.6 1.02-2.85.82-5.02-.44-2.18-1.25-3.46-3.1-2.86-4.11.6-1.02 2.84-.82 5.02.43z" fill="#80C56E"/>
      <path d="M272 149.92l15.95-45.8-115.22 16.79-17.4 127.86c21.55 49.12 61.3 138.15 72.07 56.25 10.78-81.9 36.24-141.28 44.6-155.1z" fill="#fff" fill-opacity=".1"/>
    </g>
    <path d="M208.31 198.78h-12.69l2.83 16.57c.13.77.71 1.32 1.39 1.32H216.79c.68 0 1.25-.55 1.39-1.32l2.82-16.57h-12.69z" fill="#69A1AC"/>
    <path d="M218.18 215.35l2.82-16.57h-7.35v17.89h3.14c.68 0 1.25-.55 1.39-1.32z" fill="#000" fill-opacity=".05"/>
    <path d="M222.44 193.55h-28.26c-.78 0-1.41.73-1.41 1.64v3.27c0 .9.63 1.63 1.41 1.63h28.26c.79 0 1.42-.73 1.42-1.63v-3.27c0-.9-.63-1.64-1.42-1.64z" fill="#89C5CC"/>
    <path d="M223.86 198.46v-3.27c0-.9-.64-1.64-1.42-1.64h-8.78v6.54h8.78c.78 0 1.42-.73 1.42-1.63z" fill="#000" fill-opacity=".05"/>
  </g>
  <g clip-path="url(#clip1)">
    <path d="M187.93 3.14c-.13.34-1.49 4.31 1.3 9a5.85 5.85 0 004.51 3.04c.15-.2 1.6-2.33.42-5.42-1.94-5.1-5.9-6.5-6.23-6.62z" fill="#80C56E"/>
    <path d="M187.92 3.14l5.82 12.04a5.85 5.85 0 01-4.51-3.04c-2.79-4.69-1.43-8.66-1.3-9z" fill="#66AD66"/>
    <path d="M193.92 15.56l-.18-.38.01-.02.17.4z" fill="#fff" stroke="#000" stroke-width="2.73" stroke-miterlimit="10" stroke-linecap="round" stroke-linejoin="round"/>
    <path d="M204.45 3.14c.12.34 1.48 4.31-1.3 9a5.85 5.85 0 01-4.52 3.04 5.83 5.83 0 01-.42-5.42c1.94-5.1 5.9-6.5 6.24-6.62z" fill="#80C56E"/>
    <path d="M198.21 9.76c1.94-5.1 5.9-6.5 6.24-6.62a180.07 180.07 0 00-5.83 12.02c-.2-.3-1.55-2.39-.4-5.4z" fill="#66AD66"/>
    <path d="M196.19.69c.41.4 5.2 5.25 4.44 14.07-.46 5.35-4.08 7.44-4.44 7.64-.36-.2-3.99-2.29-4.45-7.64-.76-8.82 4.03-13.67 4.45-14.07z" fill="#80C56E"/>
    <path d="M196.19.69v21.7c-.36-.19-3.99-2.28-4.45-7.63-.76-8.82 4.03-13.67 4.45-14.07z" fill="#66AD66"/>
    <path d="M185.92 14.18c-.9-3.1-.6-5.97-.6-5.97s1.74.77 6.1 3.59c3.4 2.19 4.45 6.03 4.77 7.07h-4c-2.9 0-5.46-1.9-6.27-4.69z" fill="#80C56E"/>
    <path d="M185.32 8.2s4.5 8.86 10.87 10.67h-4c-2.9 0-5.46-1.9-6.27-4.69-.9-3.1-.6-5.97-.6-5.97z" fill="#66AD66"/>
    <path d="M206.45 14.18c.9-3.1.6-5.97.6-5.97s-1.74.77-6.1 3.59c-3.4 2.19-4.45 6.03-4.77 7.07h4c2.9 0 5.46-1.9 6.27-4.69z" fill="#80C56E"/>
    <path d="M196.18 18.87c.32-1.04 1.37-4.88 4.76-7.07 4.37-2.82 6.1-3.6 6.1-3.6s-4.48 8.86-10.86 10.67z" fill="#66AD66"/>
    <path d="M196.24 21.8h8.45l-1.88 9.53a.94.94 0 01-.92.76h-11.3a.94.94 0 01-.92-.76l-1.88-9.52h8.45z" fill="#9CBDE6"/>
    <path d="M189.67 31.33l-1.88-9.52h8.45v10.28h-5.65a.94.94 0 01-.92-.76z" fill="#629ADA"/>
    <path d="M186.83 18.8h18.82c.52 0 .94.42.94.94v1.88c0 .52-.42.94-.94.94h-18.82a.94.94 0 01-.94-.94v-1.88c0-.52.42-.94.94-.94z" fill="#B6D3F2"/>
    <path d="M185.89 21.62v-1.88c0-.52.42-.94.94-.94h9.41v3.76h-9.41a.94.94 0 01-.94-.94z" fill="#9CBDE6"/>
  </g>
  <rect width="73.2" height="4.72" rx="1" transform="matrix(-1 0 0 1 233.48 31.75)" fill="#EAA14E"/>
  <path fill-rule="evenodd" clip-rule="evenodd" d="M164.09 80.7l1.52.21c.66.12 1.27-.35 1.38-1.02l8.55-56.64a1.21 1.21 0 00-1.02-1.38l-1.52-.22a1.22 1.22 0 00-1.39 1.02l-8.55 56.64c-.08.66.36 1.27 1.03 1.38z" fill="#393939"/>
  <path fill-rule="evenodd" clip-rule="evenodd" d="M172.85 21.64l.97 1.32-.22.2h.72l-8.5 56.68h.2l-.28 1.09h-4.07l-.19-.66h-.63l9.05-55.91h-1.35v-2.72h4.3z" fill="#393939"/>
  <path d="M163.26 90.65h13.64a3.72 3.72 0 003.49-5L169.3 55.23c-.08-.22-.33-.33-.52-.25-.23.08-.34.3-.25.52l11.07 30.41c.33.89.22 1.85-.33 2.65a2.83 2.83 0 01-2.38 1.25h-13.64c-.22 0-.42.2-.42.41 0 .22.2.42.42.42z" fill="#A8A8A8"/>
  <path d="M168.94 54.96l.38.92c3.45 9.22 9.8 27.63 10.34 30.15.55 2.52-1.18 3.62-2.11 3.86a4.56 4.56 0 001.1-3.86L167.5 54.96h1.45z" fill="#A8A8A8"/>
  <path d="M161.84 90.65h13.65a3.72 3.72 0 003.48-5L167.9 55.23c-.08-.22-.33-.33-.53-.25-.22.08-.33.3-.25.52l11.08 30.41c.33.89.22 1.85-.33 2.65a2.83 2.83 0 01-2.38 1.25h-13.65c-.22 0-.41.2-.41.41 0 .22.2.42.41.42z" fill="#BFBFBF"/>
  <path fill-rule="evenodd" clip-rule="evenodd" d="M159.87 80.7l1.53.21c.66.12 1.27-.35 1.38-1.02l8.55-56.64a1.21 1.21 0 00-1.02-1.38l-1.53-.22a1.21 1.21 0 00-1.38 1.02l-8.55 56.64c-.08.66.36 1.27 1.02 1.38z" fill="#4C4C4C"/>
  <path fill-rule="evenodd" clip-rule="evenodd" d="M106.62 79.94c6.15-.82 10.45-.06 15.28 1.58 1.2.4 5.8 3.55.52 3.44a33.22 33.22 0 00-3.34-.5h-.06c-1.5-.14-2.64-.05-3.45.17-3.69.37-8.65 1.87-12.96 1.8l-21.67.25-.97-9.84L102 80.05l4.62-.1z" fill="#BA8B72"/>
  <path fill-rule="evenodd" clip-rule="evenodd" d="M107.52 81.4c6.11-1.14 10.45-.58 15.34.8 1.22.36 5.97 3.27.7 3.41a34.41 34.41 0 00-3.36-.32l-.06-.01c-1.51-.05-2.64.1-3.43.35-3.68.56-8.56 2.3-12.87 2.44l-21-1.67-1.54-6.95 20.67 2.89 5.55-.94zM36.93 25.17c-2.54-3.56-4.08-7.8-3.34-12.3 2.08-13.02 20.1-8.5 23.07-1.56 2.97 6.93 1.03 23.67-3.67 24.44-1.86.31-5.66-1.18-9.41-3.93l.9 17.83-14.7-1.3 7.15-23.18z" fill="#D4A181"/>
  <path fill-rule="evenodd" clip-rule="evenodd" d="M45.76 15.4c-.14 7.9 1 11.96 3.4 12.18 3.62.3 6.9-1.7 8.5-1.55 1.14.09.77 1.54-.09 2.54-.72.84-3.88 1.41-4 2.78-.13 1.37 2.4.52 2.34 1.34-.13 1.34.07 3.92-2.26 3.7-2.39-.22-9.09-1.69-9.95-5.31-.55-2.34-.61-7.08-.2-14.25a3.7 3.7 0 00-4.45 3.3c-.1 1.04.25 2 .87 2.72a69.56 69.56 0 01-3.25 3.5c-3.89-2.84-6.27-10.32-1.65-16.87 1.4-3.3 4.09-4.88 7.13-5.45 2.5-.8 5-.69 7.05.1 4.1.73 7.68 2.3 8.66 3.16-.35 3.92-1.2 5-7.67 4.3-1.63.7-2.98 2.02-4.43 3.82z" fill="#191847"/>
  <path fill-rule="evenodd" clip-rule="evenodd" d="M121.83 151.53c-.18 13.15-1.08 32.29-2.72 57.43l-7.93.5c-3.84-19.18-5.97-33-6.4-41.5-.75-14.57-.93-27.28-.65-31.95.43-7.33 7.4-8.6 12.32-6.93" fill="#BA8B72"/>
  <path fill-rule="evenodd" clip-rule="evenodd" d="M108.28 200.05l-7.44-63.51c.72-11.23 19.82-16.39 21.7-3.13 1.9 13.27 0 34.28-2.62 65.13l-11.64 1.51z" fill="#191847"/>
  <path fill-rule="evenodd" clip-rule="evenodd" d="M108.68 206.61c-.75 1.85-1.18 3.25-1.18 4.17-.03 1.12.12 2.79.4 4.98 1.3.03 13.13.44 35.45 1.15 1.02-3 .56-4.67-1.42-4.95l-4.93-.8-16.22-7.86a.6.6 0 00-.83.31l-1.15 2.54c-1.86.8-3.34 1.17-4.52 1.14a9.96 9.96 0 01-3.84-1.24c-.62-.3-1.4-.06-1.67.56-.06-.06-.1-.06-.1 0z" fill="#232746"/>
  <path fill-rule="evenodd" clip-rule="evenodd" d="M114.25 124.23c3.44.99 6.32 3.4 6.32 5.94-.03 13.3-12.17 75.88-12.79 79.84-.62 3.96-7.43 5-7.8 0-.5-6.22-1.3-24.34-1.08-38.04l15.35-47.74z" fill="#D4A181"/>
  <path fill-rule="evenodd" clip-rule="evenodd" d="M98.37 207.69c-.71 1.89-1.05 3.28-1.05 4.2 0 1.15.18 2.79.55 4.95h35.45c.93-3.03.4-4.67-1.6-4.91-2-.25-3.63-.47-4.96-.65l-16.47-7.33c-.31-.16-.68 0-.84.3v.04l-1.05 2.56c-1.83.87-3.34 1.3-4.49 1.3-.93 0-2.23-.37-3.87-1.14a1.3 1.3 0 00-1.67.62c.03.03.03.06 0 .06z" fill="#393D64"/>
  <path fill-rule="evenodd" clip-rule="evenodd" d="M121.34 135.58c-2.01 18.82-7.43 47.88-10.37 58.54H98.55c-4.92-40.34-.65-52.23-1.36-52.63-1.08-.56-41.85-2.85-54.92-2.85-18.82 0-27.95-8.29-23.74-25.05l33.8-6.34c7.71.45 39.6 5.4 61.58 14.97 6.19 2.17 7.43 8.78 7.43 13.36z" fill="#2F3676"/>
  <path fill-rule="evenodd" clip-rule="evenodd" d="M24.98 53.53l3.68-5.42C48.5 62.03 71.21 74.8 98.7 78.02l.48 5.1c-20.68 1.93-39.79 7.58-55.6-2.89-5.3-3.5-14.68-20.73-18.6-26.7z" fill="#C5CFD6"/>
  <path fill-rule="evenodd" clip-rule="evenodd" d="M46.34 39.09c6.4 29.14 9.37 34.75 53.49 41.43l.78 8.1c-14.5 5.61-34.93 4.7-43.98 4.7 0 12 6.24 34.26-16.77 34.26H18.55c-5.28-17.92-2-65.16 8.4-85.2.4-.77 1.67-3.3 3.67-3.3l15.72-.02v.03z" fill="#DDE3E9"/>
  <path d="M99.45 90.65h111.2v5.07H99.46v-5.07z" fill="#C4C4C4"/>
  <path fill-rule="evenodd" clip-rule="evenodd" d="M171.16 98.26l-16.07 5.35-16.1-5.35v-2.54h32.17v2.54z" fill="#A8A8A8"/>
  <path d="M152.33 95.72h5.51v120.29h-5.5V95.72z" fill="#A8A8A8"/>
  <path fill-rule="evenodd" clip-rule="evenodd" d="M203.26 216.88h-96.34a1.94 1.94 0 01-1.95-1.95c0-1.08.87-1.95 1.95-1.95h96.34c1.09 0 1.95.87 1.95 1.95a1.98 1.98 0 01-1.95 1.95z" fill="#A8A8A8"/>
  <path fill-rule="evenodd" clip-rule="evenodd" d="M138.99 213.47l16.1-5.31 16.07 5.31v2.54h-32.17v-2.53z" fill="#A8A8A8"/>
  <path fill-rule="evenodd" clip-rule="evenodd" d="M141.47 90.67v-6.86h-5.5l-31.05 3.95v2.9h36.55z" fill="#4C4C4C"/>
  <path d="M47.26 140.22h5.51v58.1h-5.5v-58.1z" fill="#969696"/>
  <path fill-rule="evenodd" clip-rule="evenodd" d="M14.6 208.43l35.42-4.33 35.42 4.33v-2.5l-35.42-8.63-35.42 8.63v2.5z" fill="#969696"/>
  <path d="M81.6 207.6h1.52v3.7H81.6v-3.7zM49.28 207.6h1.51v3.7h-1.51v-3.7zM16.95 207.6h1.52v3.7h-1.52v-3.7z" fill="#969696"/>
  <path fill-rule="evenodd" clip-rule="evenodd" d="M48.35 208.46h3.28l1.08-9.12h-5.45l1.09 9.12z" fill="#969696"/>
  <path d="M37.73 145.78l-23.9-1.85C5.07 143.25.2 133.9 5 126.93c3.22-4.74 6.19-9.69 7.49-13.46.25-.68-.31-1.4-1.09-1.4h-1.3c-.46 0-.86.29-1.05.69a77.49 77.49 0 01-6.87 12.58c-5.7 8.63.34 19.92 11.02 20.66l24.36 1.7c.56.03 1.06-.37 1.06-.93 0-.55-.37-.95-.9-.99z" fill="#C4C4C4"/>
  <path d="M20.86 144.18l68.01 6.37a4.2 4.2 0 004.58-4.15v-3.37a4.18 4.18 0 00-3.4-4.11L71 135.33a170.36 170.36 0 00-31.2-2.9H21.2a3.56 3.56 0 00-3.56 3.55v4.64a3.54 3.54 0 003.22 3.56z" fill="#A8A8A8"/>
  <path d="M53.86 121.36l-7-.93-11.92 25.79a1.1 1.1 0 00.84 1.54l4.02.53c.9.12 1.77-.37 2.17-1.17l11.89-25.76z" fill="#C4C4C4"/>
  <path fill-rule="evenodd" clip-rule="evenodd" d="M9.4 130.3a2.3 2.3 0 001.92-.87c2.39-2.97 9.45-12.93 10.25-26.6.96-16.2-10.83-46.38-9.94-68.86a1.11 1.11 0 00-1.05-1.18l-1.2-.06a1.15 1.15 0 00-1.21 1.08C8 39.84 7.48 68.05 11.73 87.5c3.65 16.82-2.64 32.9-5.73 39.45a2.29 2.29 0 001.95 3.28l1.45.06z" fill="#A8A8A8"/>
  <path d="M67.82 95.72L56.98 94.3l-16.8 35.9a1.7 1.7 0 001.3 2.38l6.21.8a3.2 3.2 0 003.35-1.85l16.78-35.81z" fill="#969696"/>
  <path d="M49.46 97.64h37.27A1.2 1.2 0 0087.85 96l-.44-1.08a2.76 2.76 0 00-2.57-1.74H47.57a1.2 1.2 0 00-1.12 1.64l.44 1.09a2.79 2.79 0 002.57 1.73z" fill="#A8A8A8"/>
  <path d="M82.34 217a4.07 4.07 0 01-4.06-4.05 4.07 4.07 0 014.06-4.05 4.05 4.05 0 110 8.1zM50 217a4.07 4.07 0 01-4.06-4.05 4.07 4.07 0 014.05-4.05 4.05 4.05 0 110 8.1zM17.7 217a4.07 4.07 0 01-4.06-4.05 4.07 4.07 0 014.06-4.05 4.05 4.05 0 110 8.1z" fill="#4C4C4C"/>
  <path fill="#DEDEDE" d="M147.38 75.84h-12.5v14.8h12.5z"/>
  <path d="M139.34 85.78h-.68v-.66h-.42v1.72h.42v-.7h.68v.7h.4v-1.72h-.4v.66zM140.64 85.55a.65.65 0 00-.68.66.65.65 0 00.68.65c.2 0 .36-.06.48-.18.13-.13.2-.29.2-.47a.65.65 0 00-.68-.66zm.22.88a.27.27 0 01-.21.09.27.27 0 01-.21-.09.33.33 0 01-.08-.22c0-.09.03-.15.08-.21a.27.27 0 01.2-.09c.1 0 .17.03.22.09.05.06.08.13.08.21 0 .09-.03.16-.08.22zM142.03 85.5c0-.04.01-.08.04-.1a.14.14 0 01.09-.05c.05 0 .1 0 .14.02l.1-.3a.78.78 0 00-.3-.06c-.15 0-.26.04-.35.14-.08.08-.12.2-.12.35v.1h-.22v.34h.22v.9h.4v-.91h.35v-.35h-.35v-.08zM143.48 85.6l-.31.75-.33-.76h-.43l.56 1.22-.22.54h.4l.75-1.76h-.42zM143.82 86.88a.19.19 0 100-.37c-.1 0-.19.08-.19.18 0 .1.09.19.19.19z" fill="#252525"/>
  <path d="M141.65 80.7c0 .27-.24.48-.53.48-.29 0-.52-.21-.52-.48v-1.5a2.2 2.2 0 011.05.02v1.48zM140.6 82.28c0-.27.23-.48.52-.48.3 0 .53.21.53.48v1.32a2.18 2.18 0 01-1.05.03v-1.35zM139.62 79.66a3.9 3.9 0 01-.06 3.45 2.24 2.24 0 01-.77-1.7c0-.7.32-1.34.83-1.75zM142.65 83.04a3.92 3.92 0 01-.06-3.32 2.25 2.25 0 01.06 3.32z" fill="#3E1D85"/>
  <path fill="#D2D2D2" d="M147.38 75.84h-2.73v14.8h2.73z"/>
  <path opacity=".5" fill="#fff" d="M139.54 75.85h-2.73v14.8h2.73z"/>
  <path d="M134.88 87.95a4.71 4.71 0 110-9.4v1.3a3.4 3.4 0 100 6.78v1.32z" fill="#DEDEDE"/>
  <path d="M134.88 87.13a3.89 3.89 0 110-7.76v.5a3.38 3.38 0 100 6.75v.5z" fill="#D2D2D2"/>
  <defs>
    <clipPath id="clip0">
      <path fill="#fff" transform="translate(171.15 128.83)" d="M0 0h75.85v87.84H0z"/>
    </clipPath>
    <clipPath id="clip1">
      <path fill="#fff" transform="matrix(-1 0 0 1 211.36 0)" d="M0 0h32.13v32.09H0z"/>
    </clipPath>
  </defs>
</svg>
