<svg width="289" height="231" viewBox="0 0 289 231" fill="none" xmlns="http://www.w3.org/2000/svg">
<path d="M265.981 112.518C265.981 85.0623 243.723 62.8052 216.268 62.8052H60.3315C32.8759 62.8052 10.6189 85.0623 10.6189 112.518V112.518C10.6189 139.973 32.876 162.23 60.3315 162.23H216.268C243.723 162.23 265.981 139.973 265.981 112.518V112.518Z" fill="#C4C4C4"/>
<rect width="239.149" height="36.2453" transform="matrix(-1 0 0 1 266.125 142.842)" fill="#969696"/>
<path d="M78.1624 98.2101C79.3345 97.5316 80.7675 98.5229 80.5461 99.8589L80.3396 101.106C79.5056 106.139 81.3101 111.2 82.7012 116.108C83.5521 119.111 83.7766 122.357 83.5776 125.714C83.5635 125.951 83.5521 126.188 83.5427 126.424C83.3105 132.228 83.2305 138.438 85.0295 143.961L85.371 145.01C85.8204 146.39 84.6871 147.77 83.2463 147.598V147.598C74.6376 146.57 65.758 148.651 57.0908 148.437C56.4336 148.421 55.7708 148.392 55.1031 148.352C53.661 148.267 52.2487 148.176 50.8745 148.021C46.0896 147.481 41.0859 146.932 36.5036 148.412V148.412C35.7054 148.67 34.9229 147.976 35.0789 147.152V147.152C35.8296 143.186 34.3899 139.199 32.3353 135.725C30.0048 131.784 28.7892 127.245 29.0714 122.483C29.114 121.765 29.1891 121.056 29.2953 120.357C30.263 113.99 31.6414 107.301 29.3757 101.273V101.273C29.0185 100.323 29.7991 99.3328 30.8067 99.4588L32.4873 99.6688C39.3968 100.532 46.503 98.9663 53.4662 98.9336C54.8864 98.9269 56.3367 98.9855 57.8079 99.0727C60.0375 99.2049 62.19 99.3256 64.2367 99.6282C68.9297 100.322 74.0566 100.587 78.1624 98.2101V98.2101Z" fill="white"/>
<path d="M257.191 126.03C258.315 121.141 263.144 117.631 268.745 117.631H277.489C284.115 117.631 289.281 122.745 288.586 128.616L282.663 178.657C281.876 185.306 275.583 190.354 268.08 190.354H20.5681C13.0655 190.354 6.77213 185.306 5.98514 178.657L0.0627612 128.616C-0.632082 122.745 4.53317 117.631 11.1591 117.631H19.9032C25.5042 117.631 30.3333 121.141 31.4577 126.03L36.1364 146.36C39.3073 160.138 51.5722 169.9 65.7101 169.9H222.938C237.076 169.9 249.341 160.138 252.512 146.36L257.191 126.03Z" fill="#A8A8A8"/>
<path d="M263.332 189.87H250.548L253.389 225.948H260.491L263.332 189.87Z" fill="#969696"/>
<path d="M27.1909 189.87H39.9742L37.1335 225.948H30.0317L27.1909 189.87Z" fill="#969696"/>
<path d="M180.656 222.01L187.902 149.612L191.593 129.108L168.582 127.39L171.829 221.216L180.656 222.01Z" fill="#B28B67"/>
<path d="M169.427 210.849H184.434C189.136 176.742 192.638 147.203 195.405 122.235H165.457C165.815 146.496 167.14 175.351 169.427 210.849Z" fill="#69A1AC"/>
<path fill-rule="evenodd" clip-rule="evenodd" d="M183.22 219.713C184.015 221.844 184.433 223.433 184.433 224.478C184.433 225.774 184.224 227.655 183.806 230.079C182.301 230.079 168.924 230.079 143.677 230.079C142.632 226.61 143.217 224.77 145.474 224.478C147.732 224.185 149.571 223.934 151.076 223.725L169.719 215.407C170.095 215.24 170.513 215.407 170.638 215.783L171.851 218.709C173.941 219.671 175.613 220.172 176.908 220.172C177.953 220.172 179.416 219.754 181.297 218.877C182.008 218.542 182.844 218.877 183.178 219.587C183.178 219.629 183.22 219.671 183.22 219.713Z" fill="#232746"/>
<path fill-rule="evenodd" clip-rule="evenodd" d="M227.785 31.3723C229.698 27.5655 230.564 23.269 229.186 19.04C225.215 6.85531 208.475 13.9274 206.647 21.0325C204.819 28.1377 209.181 43.9171 213.84 43.944C215.697 43.9548 219.146 41.9341 222.368 38.7277L224.147 55.987L238.181 52.4878L227.785 31.3723Z" fill="#B28B67"/>
<path fill-rule="evenodd" clip-rule="evenodd" d="M206.025 24.1737C205.961 23.3276 206.076 22.3417 206.159 21.5057C206.266 20.4278 206.578 19.4022 206.957 18.4144C207.671 16.5548 208.644 14.7935 209.815 13.2409C211.956 10.4048 215.057 8.30365 218.514 7.87291C220.26 7.65541 222.065 7.88592 223.731 8.60316C225.236 9.25121 226.806 10.3661 228.47 10.0596C230.279 9.72602 231.524 7.75955 232.714 6.44024C234.055 4.95285 235.572 3.73437 237.379 2.95727C240.406 1.6556 243.633 1.97317 246.448 3.99689C249.443 6.15044 252.123 9.73532 251.506 13.7321C251.391 14.4751 251.169 15.1327 250.764 15.7326C250.393 16.2828 249.777 16.9234 249.755 17.6603C249.731 18.4435 250.582 19.2343 250.985 19.8352C251.563 20.6961 252.091 21.6193 252.248 22.6726C252.505 24.4023 251.836 26.2816 250.982 27.6736C250.113 29.0901 248.859 30.0909 247.421 30.7666C246.46 31.2178 245.455 31.5852 244.41 31.7663C243.891 31.8562 243.407 31.828 242.885 31.8395C242.378 31.8507 242.141 32.044 241.799 32.4066C240.209 34.0909 238.291 35.0674 236.061 35.4319C234.179 35.7394 231.943 35.8264 230.126 34.9491C228.109 33.9748 227.664 32.0485 227.546 29.9013C227.181 30.2097 226.06 30.6237 226.545 29.6365C226.738 29.2455 227.22 28.9856 227.523 28.7084C227.875 28.3856 228.218 27.9965 228.444 27.5568C229.359 25.7814 227.329 23.1383 225.601 23.0502C223.034 22.9193 223.334 26.3972 221.846 27.6871C220.991 28.4287 219.797 28.0042 218.89 27.4929C217.675 26.8079 216.698 25.7428 215.807 24.6332C215.073 23.7195 214.369 22.7829 213.627 21.8766C213.28 21.4533 212.157 20.2927 212.416 19.6519C210.623 19.7403 208.895 20.9188 207.653 22.2089C207.14 22.7423 206.781 23.2787 206.624 24.0333C206.591 24.195 206.547 24.6618 206.361 24.7268C206.015 24.8478 206.041 24.3863 206.025 24.1737Z" fill="#191847"/>
<path fill-rule="evenodd" clip-rule="evenodd" d="M189.512 98.728L170.536 113.109C165.347 114.599 161.022 116.417 157.561 118.561C156.747 119.325 155.775 120.86 159.197 120.538C162.619 120.216 166.233 120.03 166.726 121.185C167.219 122.339 165.17 123.766 166.153 125.319C166.809 126.354 169.773 123.678 175.046 117.292L193.943 109.106L189.512 98.728Z" fill="#B28B67"/>
<path fill-rule="evenodd" clip-rule="evenodd" d="M226.612 45.97L221.386 45.1716C202.344 62.1276 194.96 94.1925 171.558 111.519L177.385 118.454C218.407 112.672 227.916 73.5516 226.612 45.97Z" fill="#191847"/>
<path fill-rule="evenodd" clip-rule="evenodd" d="M250.465 120.018C229.572 120.383 214.204 114.36 204.36 114.532C202.254 114.569 202.598 108.839 202.876 107.306C206.083 89.6161 219.471 70.0739 219.033 44.9796L232.296 42.6724C243.603 60.0841 247.785 90.9774 250.465 120.018Z" fill="#DDE3E9"/>
<path fill-rule="evenodd" clip-rule="evenodd" d="M235.97 138.927C223.253 149.185 168.664 131.114 167.374 131.705C166.8 131.967 156.502 156.629 140.407 193.907L133.887 190.764C145.671 145.66 155.497 116.249 159.437 114.312C165.079 111.538 180.522 118.073 231.061 122.972L235.97 138.927Z" fill="#B28B67"/>
<path fill-rule="evenodd" clip-rule="evenodd" d="M147.295 180.976L136.848 175.66C140.04 140.849 148.029 117.233 157.18 110.944C163.071 106.895 170.322 107.013 220.259 113.275L254.139 121.736C281.367 174.721 171.874 136.725 170.046 137.125C168.218 137.524 163.154 155.164 147.295 180.976Z" fill="#89C5CC"/>
<path d="M257.268 126.03C258.39 121.141 263.207 117.631 268.794 117.631H277.517C284.127 117.631 289.279 122.746 288.586 128.617L282.678 178.657C281.893 185.307 275.615 190.354 268.131 190.354L259.377 181.801C251.811 174.409 248.64 163.613 251.007 153.304L257.268 126.03Z" fill="#A8A8A8"/>
<path fill-rule="evenodd" clip-rule="evenodd" d="M145.444 188.708C146.676 190.433 147.42 191.771 147.675 192.723C147.985 193.881 148.245 195.622 148.454 197.947C147.111 198.307 135.04 201.541 112.241 207.65C110.467 204.791 110.56 202.966 112.521 202.175C114.482 201.383 116.106 200.708 117.394 200.149L132.215 188.135C132.5 187.904 132.918 187.948 133.15 188.233C133.153 188.238 133.157 188.243 133.161 188.248L134.946 190.582C137.058 190.955 138.7 190.984 139.874 190.67C140.827 190.414 142.041 189.677 143.514 188.456L143.514 188.456C144.08 187.988 144.918 188.067 145.386 188.632C145.406 188.657 145.426 188.682 145.444 188.708Z" fill="#393D64"/>
<rect x="142.461" y="61.3067" width="3.23514" height="48.7292" rx="1.61757" transform="rotate(-25 142.461 61.3067)" fill="#616161"/>
<path d="M163.476 106.081C163.591 104.768 164.748 103.796 166.062 103.911L166.504 103.95L211.639 107.899C212.339 107.96 212.642 108.818 212.134 109.305V109.305C210.005 111.348 207.097 112.373 204.157 112.115L165.639 108.745C164.325 108.631 163.354 107.473 163.469 106.159L163.476 106.081Z" fill="#616161"/>
<rect x="168.395" y="105.536" width="13.3449" height="2.02196" transform="rotate(5 168.395 105.536)" fill="#4C4C4C"/>
<rect x="185.515" y="107.034" width="4.24612" height="2.02196" transform="rotate(5 185.515 107.034)" fill="#4C4C4C"/>
<rect x="190.954" y="107.51" width="4.24612" height="2.02196" transform="rotate(5 190.954 107.51)" fill="#4C4C4C"/>
<rect x="199.008" y="108.215" width="2.02196" height="2.02196" rx="1.01098" transform="rotate(5 199.008 108.215)" fill="#4C4C4C"/>
<path d="M253.752 55.5547C252.66 57.599 251.153 58.9142 249.231 59.5004C264.833 80.118 273.855 111.322 267.501 122.365C261.148 133.409 218.515 113.278 218.515 113.278C212.924 99.9023 216.689 83.3748 227.931 42.884L232.09 42.575C232.463 42.5123 232.875 42.477 233.325 42.4691C241.601 42.3247 246.177 38.9904 251.399 40.4792C256.621 41.968 258.461 46.7424 253.752 55.5547Z" fill="#2F3676"/>
<path fill-rule="evenodd" clip-rule="evenodd" d="M249.943 105.281C242.205 99.6475 237.09 94.6626 234.598 90.3264L228.026 102.083C234.33 102.733 241.636 103.799 249.943 105.281V105.281Z" fill="black" fill-opacity="0.2"/>
<path fill-rule="evenodd" clip-rule="evenodd" d="M210.037 101.012C203.337 99.7313 198.567 100.325 193.187 101.818C191.846 102.196 186.617 105.37 192.405 105.56C193.709 105.371 194.824 105.281 195.835 105.225C195.904 105.209 196.024 105.193 196.092 105.228C196.092 105.228 196.127 105.229 196.161 105.212C197.823 105.164 199.055 105.333 199.925 105.617C203.96 106.249 209.316 108.198 214.042 108.375L238.574 113.932L240.294 106.295L210.037 101.012Z" fill="#B28B67"/>
<path d="M219.866 112.542L234.593 118.923L253.395 106.035C253.395 106.035 219.609 98.9926 220.97 102.233C223.548 108.368 219.866 112.542 219.866 112.542Z" fill="#2F3676"/>
</svg>
