<svg width="281" height="222" fill="none" xmlns="http://www.w3.org/2000/svg">
  <rect y="2.2" width="31.61" height="31.61" rx="5" fill="#F5F5F7" fill-opacity=".75"/>
  <path d="M9.8 26.5l5.75-1 5.75 1M8.8 9l1.7 9.36A2 2 0 0012.48 20h8.83" stroke="#3E1D85" stroke-width="2" stroke-linecap="round" stroke-linejoin="round"/>
  <path d="M15.8 21v5" stroke="#3E1D85" stroke-width="2"/>
  <path d="M18.37 18.27l.97-.24-.97.24zM10.3 17h5.16v-2H10.3v2zm7.1 1.51l.43 1.73 1.94-.48-.43-1.73-1.94.48zM15.46 17a2 2 0 011.94 1.51l1.94-.48A4 4 0 0015.46 15v2z" fill="#3E1D85"/>
  <rect opacity=".5" x="51.61" width="225.95" height="5" rx="2.5" fill="#B7B6BB"/>
  <rect x="51.61" width="128.57" height="5" rx="2.5" fill="#3E1D85"/>
  <path d="M119.65 19.57V18.2h-7.07V28h7.05v-1.39h-5.55v-2.94h4.85v-1.31h-4.85v-2.79h5.57zm3.54 2.51v-1.12h-1.47V28h1.47v-3.18c0-1 .21-1.7.63-2.12.42-.42 1.01-.57 1.78-.46v-1.36a2.4 2.4 0 00-1.46.2c-.42.23-.74.56-.95 1zm9.25-1.12v.99a2.91 2.91 0 00-2.48-1.18 3.4 3.4 0 00-3.51 3.57 3.5 3.5 0 001 2.55c.66.69 1.5 1.03 2.51 1.03a2.9 2.9 0 002.48-1.2v1.04c-.01.62-.2 1.14-.56 1.53-.36.4-.87.6-1.51.6-.97 0-1.67-.36-2.1-1.08l-1.29.48c.68 1.22 1.8 1.83 3.36 1.83 1.06 0 1.93-.31 2.58-.95a3.2 3.2 0 00.99-2.42v-6.8h-1.47zm-2.25 5.64c-.67 0-1.22-.21-1.65-.64a2.18 2.18 0 01-.65-1.62c0-.65.22-1.19.65-1.6.43-.42.98-.63 1.65-.63.65 0 1.2.2 1.64.63.44.43.66.96.66 1.6 0 .65-.22 1.19-.66 1.62-.45.43-1 .64-1.64.64zm9.38 1.58a3.64 3.64 0 003.74-3.7 3.64 3.64 0 00-3.74-3.7 3.63 3.63 0 00-3.74 3.7 3.63 3.63 0 003.74 3.71zm0-1.33c-.68 0-1.23-.22-1.66-.68a2.35 2.35 0 01-.65-1.68c0-.69.22-1.25.65-1.7a2.2 2.2 0 011.66-.68c.67 0 1.22.22 1.66.67.43.46.65 1.02.65 1.7 0 .68-.22 1.24-.65 1.69-.44.46-.99.68-1.66.68zm9.55-6.08c-1.03 0-1.85.41-2.43 1.23v-1.04h-1.47V28h1.47v-3.5c0-.71.19-1.28.55-1.7.37-.44.86-.65 1.48-.65.57 0 1 .18 1.3.52.3.35.44.85.44 1.47V28h1.45v-4.13c0-.96-.24-1.71-.72-2.27-.49-.55-1.18-.83-2.07-.83zm8.4 7.41a3.64 3.64 0 003.73-3.7 3.64 3.64 0 00-3.74-3.7 3.63 3.63 0 00-3.73 3.7 3.63 3.63 0 003.74 3.71zm0-1.33c-.68 0-1.24-.22-1.67-.68a2.34 2.34 0 01-.65-1.68c0-.69.22-1.25.65-1.7a2.2 2.2 0 011.66-.68c.68 0 1.23.22 1.67.67.43.46.64 1.02.64 1.7 0 .68-.21 1.24-.64 1.69-.44.46-1 .68-1.67.68zm13.96-6.08c-1.11 0-1.93.4-2.46 1.2-.42-.8-1.15-1.2-2.17-1.2-.94 0-1.68.4-2.22 1.17v-.98h-1.47V28h1.47v-3.55c0-.72.17-1.28.49-1.69a1.6 1.6 0 011.33-.61c.5 0 .88.17 1.14.5.25.34.38.81.38 1.42V28h1.46v-3.68c0-.67.15-1.2.47-1.58.32-.4.75-.6 1.29-.6.53 0 .92.18 1.18.51.27.34.4.81.4 1.42V28h1.47v-4.21c0-.94-.25-1.68-.75-2.22-.5-.53-1.17-.8-2-.8zm5.82-.96c.26 0 .48-.09.66-.26a.87.87 0 00.26-.65.87.87 0 00-.26-.63.9.9 0 00-.66-.26.9.9 0 00-.66.26.86.86 0 00-.26.63c0 .26.08.48.26.65.18.17.4.26.66.26zm-.75 8.19h1.46v-7.04h-1.46V28zm7.13.18c.88 0 1.62-.22 2.22-.67.59-.45.96-.96 1.1-1.53l-1.35-.37c-.1.35-.34.64-.7.89a2.2 2.2 0 01-1.27.37 2.1 2.1 0 01-1.63-.72 2.43 2.43 0 01-.64-1.68c0-.66.21-1.23.64-1.69.41-.45.96-.69 1.63-.69.48 0 .9.13 1.27.4.36.25.6.55.7.9L187 23a2.88 2.88 0 00-1.13-1.55 3.6 3.6 0 00-2.22-.68 3.6 3.6 0 00-3.68 3.7 3.61 3.61 0 003.7 3.71zm12.45 0c.88 0 1.62-.22 2.21-.67.6-.45.97-.96 1.12-1.53l-1.36-.37c-.1.35-.34.64-.7.89-.36.24-.79.37-1.27.37a2.1 2.1 0 01-1.64-.72 2.43 2.43 0 01-.63-1.68c0-.66.21-1.23.63-1.69.42-.45.97-.69 1.64-.69.48 0 .9.13 1.27.4.36.25.6.55.7.9l1.36-.39a2.87 2.87 0 00-1.13-1.55 3.6 3.6 0 00-2.22-.68 3.6 3.6 0 00-3.68 3.7 3.61 3.61 0 003.7 3.71zm9.07-7.4c-1.04 0-1.85.4-2.43 1.22v-4.22h-1.47V28h1.47v-3.5c0-.71.18-1.28.55-1.7.37-.44.86-.65 1.48-.65.57 0 1 .18 1.3.52.3.35.44.85.44 1.47V28h1.45v-4.13c0-.96-.24-1.71-.72-2.27-.49-.55-1.18-.83-2.07-.83zm8.16 7.4c1.1 0 1.94-.41 2.53-1.25V28h1.46v-7.04h-1.46v1.07a2.92 2.92 0 00-2.53-1.26c-1 0-1.84.36-2.5 1.06-.67.7-1 1.59-1 2.64a3.7 3.7 0 001 2.66c.66.7 1.5 1.05 2.5 1.05zm.23-1.31c-.67 0-1.21-.23-1.64-.69a2.39 2.39 0 01-.65-1.71c0-.7.22-1.26.65-1.7a2.2 2.2 0 011.64-.68c.65 0 1.2.23 1.66.68.44.45.67 1.02.67 1.7a2.33 2.33 0 01-2.33 2.4zm6.88-7.06c.26 0 .48-.09.65-.26a.87.87 0 00.27-.65.86.86 0 00-.27-.63.9.9 0 00-.65-.26.89.89 0 00-.66.26.86.86 0 00-.27.63.91.91 0 00.92.9zm-.75 8.19h1.46v-7.04h-1.46V28zm5.33-5.92v-1.12h-1.47V28h1.47v-3.18c0-1 .21-1.7.63-2.12.42-.42 1.01-.57 1.78-.46v-1.36c-.56-.08-1.04-.01-1.46.2-.41.23-.74.56-.95 1z" fill="#252525"/>
  <path d="M55.83 20.76c-.82 0-1.54.2-2.12.59l.26-3.14h4.7V17.2H53l-.44 5.06.84.26a3.53 3.53 0 012.3-.81c.75 0 1.34.2 1.76.62.42.42.63.95.63 1.6 0 .64-.22 1.17-.66 1.6-.44.43-1.02.64-1.73.64a2.47 2.47 0 01-2.5-1.86l-1.02.26c.2.75.61 1.37 1.22 1.87.6.5 1.39.75 2.34.75.99 0 1.8-.3 2.46-.93.65-.62.97-1.39.97-2.3 0-.95-.32-1.71-.94-2.3a3.33 3.33 0 00-2.4-.9zm8.43-.23c-.36 0-.69.06-.97.17l2.34-3.5h-1.26l-2.94 4.4c-.53.8-.8 1.56-.8 2.25 0 .94.33 1.73.99 2.38.66.64 1.5.96 2.52.96 1.03 0 1.87-.32 2.52-.96a3.2 3.2 0 00.99-2.38c0-.94-.32-1.72-.95-2.35a3.4 3.4 0 00-2.44-.97zm-.1 5.63c-.72 0-1.31-.22-1.76-.66a2.2 2.2 0 01-.68-1.64c0-.67.23-1.22.68-1.67a2.38 2.38 0 011.74-.66c.72 0 1.3.23 1.75.67.45.45.68 1 .68 1.66 0 .67-.23 1.22-.67 1.66-.45.43-1.03.65-1.74.65v-.01zm5.77.94c.22 0 .4-.08.56-.23a.76.76 0 00.22-.56.7.7 0 00-.22-.53.78.78 0 00-.56-.22.78.78 0 00-.56.22.7.7 0 00-.23.53c0 .23.08.41.23.56.15.15.33.23.56.23zm5-10.08c-1.03 0-1.87.32-2.52.96a3.2 3.2 0 00-.98 2.37c0 .94.31 1.72.94 2.35.63.63 1.44.95 2.44.96.36 0 .69-.05.97-.17L73.44 27h1.26l2.94-4.4c.54-.8.8-1.56.8-2.25 0-.94-.33-1.73-.98-2.37a3.48 3.48 0 00-2.52-.96h-.02zm.02 5.63c-.72 0-1.3-.22-1.76-.65a2.2 2.2 0 01-.67-1.65c0-.66.22-1.22.67-1.66a2.4 2.4 0 011.75-.65c.71 0 1.3.22 1.75.65.45.44.67 1 .67 1.66 0 .65-.22 1.2-.67 1.65-.44.44-1.02.66-1.73.66h-.01zm8.02-.31a2.63 2.63 0 001.92-4.5 2.63 2.63 0 00-1.92-.75 2.63 2.63 0 100 5.25zM82.9 27h1.02l6.35-9.8h-1.02L82.9 27zm.07-5.54c-.5 0-.91-.17-1.25-.52a1.7 1.7 0 01-.5-1.22c0-.49.16-.9.49-1.23.32-.34.74-.5 1.25-.5.5 0 .92.16 1.26.5.33.33.5.74.5 1.23 0 .47-.17.88-.5 1.22a1.7 1.7 0 01-1.27.52h.02zm7.21 5.65a2.6 2.6 0 002.68-2.61 2.6 2.6 0 00-2.68-2.62c-.74 0-1.37.25-1.89.76a2.5 2.5 0 00-.78 1.86c0 .74.26 1.36.78 1.86.52.51 1.15.76 1.9.76v-.01zm0-.87a1.7 1.7 0 01-1.74-1.74c0-.48.16-.9.5-1.23.33-.33.75-.5 1.26-.5a1.7 1.7 0 011.74 1.74c0 .47-.17.88-.5 1.23-.34.34-.76.5-1.26.5z" fill="#B7B6BB"/>
  <rect y="64.2" width="31.61" height="31.61" rx="5" fill="#F5F5F7" fill-opacity=".75"/>
  <path d="M8.8 87v-7M23.8 87v-7M18.8 87v-7M18.8 87h5M6.8 80h19M12.8 73h6v4h-6z" stroke="#3E1D85" stroke-width="2" stroke-linecap="round" stroke-linejoin="round"/>
  <rect opacity=".5" x="51.61" y="62" width="225.95" height="5" rx="2.5" fill="#B7B6BB"/>
  <rect x="51.61" y="62" width="89.02" height="5" rx="2.5" fill="#3E1D85"/>
  <path d="M119.21 80.2v4.12h-5.1V80.2h-1.52V90h1.52v-4.31h5.1V90h1.51v-9.8h-1.51zm7.19 9.98a3.58 3.58 0 003.37-2l-1.34-.4c-.3.62-.96 1.14-2 1.14-1.44 0-2.25-.82-2.35-1.99h5.73c.03-.2.04-.37.04-.58 0-2-1.3-3.57-3.58-3.57-2.19 0-3.63 1.6-3.63 3.7 0 2.23 1.56 3.7 3.75 3.7zm-2.32-4.23c.1-1 .93-1.91 2.19-1.91 1.29 0 2.06.82 2.14 1.9l-4.33.01zm8.45-4.14a.9.9 0 100-1.8.9.9 0 100 1.8zM131.8 90h1.46v-7.04h-1.46V90zm9.42-7.04v1a3 3 0 00-2.48-1.18 3.41 3.41 0 00-3.51 3.57 3.45 3.45 0 003.5 3.57c1.09 0 1.94-.45 2.49-1.2v1.04c-.02 1.2-.73 2.13-2.08 2.13-1 0-1.67-.38-2.1-1.08l-1.28.48c.59 1.05 1.66 1.83 3.36 1.83 2.14 0 3.57-1.41 3.57-3.37v-6.8h-1.47zm-2.26 5.64c-1.35 0-2.3-.95-2.3-2.25s.94-2.24 2.3-2.24c1.3 0 2.3.93 2.3 2.24 0 1.3-1 2.25-2.3 2.25zm9.97-5.82c-1.12 0-1.93.53-2.42 1.23v-4.23h-1.47V90h1.47v-3.5c0-1.41.8-2.35 2.03-2.35 1.15 0 1.74.75 1.74 1.99V90h1.45v-4.13c0-1.9-1-3.1-2.8-3.1zm9.05 5.8c-.33.15-.58.22-.93.22-.67 0-1-.4-1-1.08v-3.46h2.23v-1.3h-2.24V80.6h-1.45v2.35h-1.3v1.3h1.3v3.46c0 1.44.68 2.4 2.2 2.4.56 0 1.02-.12 1.55-.34l-.37-1.2zm1.93-2.29h5.04v-1.22h-5.04v1.22zm10.4 3.9c1.13 0 2-.5 2.53-1.25V90h1.46v-7.04h-1.46v1.06a2.98 2.98 0 00-2.53-1.24c-2 0-3.5 1.58-3.5 3.7s1.5 3.7 3.5 3.7zm.23-1.32c-1.34 0-2.3-1.01-2.3-2.4 0-1.38.96-2.38 2.3-2.38 1.3 0 2.33 1.01 2.33 2.38 0 1.39-1.04 2.4-2.33 2.4zm11.71-9.09v4.24a2.98 2.98 0 00-2.53-1.24c-2 0-3.5 1.58-3.5 3.7s1.5 3.7 3.5 3.7c1.13 0 2-.49 2.53-1.24V90h1.46V79.78h-1.46zm-2.3 9.09c-1.34 0-2.3-1.01-2.3-2.4 0-1.38.96-2.38 2.3-2.38 1.3 0 2.33 1.01 2.33 2.38 0 1.39-1.04 2.4-2.33 2.4zm6.87-7.06a.9.9 0 100-1.8.9.9 0 100 1.8zm-.75 8.74c0 .8-.3 1.33-.99 1.33-.24 0-.53-.09-.71-.21l-.34 1.17c.34.16.78.28 1.23.28 1.57 0 2.27-1.03 2.27-2.67v-7.5h-1.46v7.6zm9.03-7.6v3.5c0 1.42-.81 2.36-2.03 2.36-1.15 0-1.74-.76-1.74-1.99v-3.86h-1.47v4.13c0 1.9 1.01 3.1 2.8 3.1 1.12 0 1.95-.54 2.44-1.25V90h1.46v-7.04h-1.46zm6.5 7.23c1.73 0 2.95-.95 2.95-2.21 0-1.19-.86-1.64-1.85-1.92l-1.88-.54c-.47-.16-.75-.35-.75-.7 0-.42.49-.86 1.23-.86.88 0 1.5.45 1.76.98l1.3-.38c-.41-1.02-1.52-1.77-3.05-1.77-1.5 0-2.68.92-2.68 2.04 0 1 .74 1.53 1.68 1.8l1.89.57c.63.18.9.4.9.84 0 .5-.57.95-1.46.95-1.01 0-1.78-.59-2.03-1.33l-1.33.39c.35 1.15 1.65 2.14 3.31 2.14zm8.74-1.6c-.33.15-.58.22-.93.22-.67 0-1-.4-1-1.08v-3.46h2.23v-1.3h-2.24V80.6h-1.45v2.35h-1.29v1.3h1.29v3.46c0 1.44.68 2.4 2.2 2.4.56 0 1.02-.12 1.55-.34l-.36-1.2zm4.87 1.6c1.14 0 2-.49 2.54-1.24V90h1.45v-7.04h-1.45v1.06a2.98 2.98 0 00-2.54-1.24c-1.98 0-3.5 1.58-3.5 3.7s1.52 3.7 3.5 3.7zm.24-1.31c-1.34 0-2.3-1.01-2.3-2.4 0-1.38.96-2.38 2.3-2.38 1.29 0 2.32 1.01 2.32 2.38 0 1.39-1.03 2.4-2.32 2.4zm10.1-6.1c-1.12 0-2 .5-2.52 1.25v-4.24h-1.47V90h1.47v-1.06c.53.75 1.4 1.24 2.52 1.24 1.99 0 3.51-1.58 3.51-3.7s-1.53-3.7-3.51-3.7zm-.24 6.1c-1.29 0-2.33-1.01-2.33-2.4a2.31 2.31 0 012.33-2.38c1.34 0 2.3 1 2.3 2.38 0 1.39-.96 2.4-2.3 2.4zm5.66 1.13h1.47V79.78h-1.47V90zm7.15.18a3.58 3.58 0 003.37-2l-1.34-.4c-.3.62-.96 1.14-2 1.14-1.43 0-2.25-.82-2.34-1.99h5.72c.03-.2.04-.37.04-.58 0-2-1.3-3.57-3.58-3.57-2.18 0-3.63 1.6-3.63 3.7 0 2.23 1.56 3.7 3.76 3.7zm-2.31-4.23c.1-1 .92-1.91 2.18-1.91 1.29 0 2.06.82 2.14 1.9l-4.32.01zM253 79.78v4.24a2.98 2.98 0 00-2.53-1.24c-1.99 0-3.5 1.58-3.5 3.7s1.51 3.7 3.5 3.7c1.14 0 2-.49 2.53-1.24V90h1.46V79.78h-1.46zm-2.3 9.09c-1.34 0-2.29-1.01-2.29-2.4 0-1.38.96-2.38 2.3-2.38 1.29 0 2.32 1.01 2.32 2.38 0 1.39-1.03 2.4-2.32 2.4zm9.43 1.31a3.58 3.58 0 003.38-2l-1.35-.4c-.3.62-.95 1.14-2 1.14-1.43 0-2.24-.82-2.34-1.99h5.73c.03-.2.04-.37.04-.58 0-2-1.3-3.57-3.58-3.57-2.19 0-3.63 1.6-3.63 3.7 0 2.23 1.55 3.7 3.75 3.7zm-2.3-4.23c.09-1 .92-1.91 2.18-1.91 1.28 0 2.05.82 2.14 1.9l-4.33.01zm10.34 4.23c1.74 0 2.96-.95 2.96-2.21 0-1.19-.86-1.64-1.85-1.92l-1.88-.54c-.47-.16-.75-.35-.75-.7 0-.42.49-.86 1.23-.86.88 0 1.5.45 1.76.98l1.3-.38c-.41-1.02-1.52-1.77-3.05-1.77-1.5 0-2.68.92-2.68 2.04 0 1 .74 1.53 1.68 1.8l1.89.57c.63.18.9.4.9.84 0 .5-.57.95-1.46.95-1.01 0-1.78-.59-2.03-1.33l-1.33.39c.35 1.15 1.65 2.14 3.31 2.14zm9.72-.18h1.68l-3.13-3.99 2.81-3.05h-1.74l-2.94 3.2v-6.38h-1.46V90h1.46v-1.97l.94-1.01L277.9 90z" fill="#252525"/>
  <path d="M56.15 84.05l2.64-3.03v-.82h-6.42v1h4.97l-2.83 3.37.2.74c.38-.25.8-.38 1.28-.38.64 0 1.14.2 1.52.6.39.38.58.88.58 1.49 0 .6-.21 1.12-.64 1.54-.42.43-1 .64-1.73.64a2.59 2.59 0 01-2.62-2.04l-1.01.28a3.5 3.5 0 003.66 2.77c.98 0 1.8-.3 2.45-.93.65-.62.98-1.37.98-2.26 0-.88-.27-1.6-.83-2.15a3 3 0 00-2.2-.82zM64 80.02c-1.03 0-1.87.32-2.52.96a3.2 3.2 0 00-.98 2.37c0 .94.32 1.71.94 2.34.63.64 1.45.96 2.45.97.36 0 .68-.04.97-.16L62.52 90h1.27l2.94-4.4c.53-.8.8-1.56.8-2.25 0-.94-.33-1.74-.99-2.37a3.5 3.5 0 00-2.53-.96zm.02 5.64a2.4 2.4 0 01-1.75-.66c-.46-.43-.68-.99-.68-1.65 0-.66.22-1.21.68-1.66a2.37 2.37 0 011.73-.65c.72 0 1.3.22 1.75.65.45.45.67 1 .67 1.66 0 .65-.22 1.2-.67 1.65-.44.44-1.02.66-1.73.66zm4.16 4.44c.23 0 .41-.08.56-.23a.73.73 0 00.23-.55c0-.22-.08-.4-.23-.54a.78.78 0 00-.56-.22.75.75 0 00-.55.22.72.72 0 00-.23.54c0 .22.08.4.23.55.14.15.33.23.55.23zm9.9-3.28h-1.34v-2.47h-1.1v2.47h-3.78l3.56-6.62h-1.21L70.56 87v.83h5.09V90h1.1v-2.17h1.34v-1zm3.42-1.48a2.63 2.63 0 002.68-2.62c0-.74-.25-1.36-.77-1.87a2.66 2.66 0 00-1.91-.75c-.75 0-1.38.25-1.9.75a2.5 2.5 0 00-.78 1.87c0 .74.26 1.36.78 1.86s1.15.76 1.9.76zM81.43 90h1.03l6.34-9.8h-1L81.42 90zm.08-5.54c-.5 0-.91-.17-1.25-.52a1.7 1.7 0 01-.5-1.22c0-.49.16-.9.5-1.23.33-.34.74-.5 1.25-.5a1.72 1.72 0 011.76 1.73c0 .47-.16.88-.5 1.22a1.7 1.7 0 01-1.26.52zm7.23 5.65c.76 0 1.4-.25 1.9-.77.52-.5.78-1.12.78-1.85s-.26-1.35-.77-1.86a2.6 2.6 0 00-1.9-.76 2.63 2.63 0 00-2.68 2.62c0 .73.26 1.35.78 1.85.51.52 1.15.77 1.9.77zm0-.88c-.5 0-.92-.17-1.25-.52-.34-.34-.5-.75-.5-1.22 0-.48.16-.9.5-1.23.33-.33.75-.5 1.26-.5a1.7 1.7 0 011.74 1.73c0 .48-.16.89-.5 1.22-.33.35-.75.52-1.25.52z" fill="#B7B6BB"/>
  <rect y="126.2" width="31.61" height="31.61" rx="5" fill="#F5F5F7" fill-opacity=".75"/>
  <g clip-path="url(#clip0)" stroke="#3E1D85" stroke-width="2" stroke-linecap="round" stroke-linejoin="round">
    <path d="M9.97 142.46a9.17 9.17 0 0111.74 0M6.99 139.5a13.33 13.33 0 0117.63 0M12.91 145.43a5 5 0 015.8 0M15.8 148.67h.01"/>
  </g>
  <rect opacity=".5" x="51.61" y="124" width="225.95" height="5" rx="2.5" fill="#B7B6BB"/>
  <rect x="51.61" y="124" width="56.04" height="5" rx="2.5" fill="#3E1D85"/>
  <path d="M123.79 142.2l-2.27 7.67-2.27-7.67h-1.37l-2.27 7.69-2.27-7.69h-1.6l3.03 9.8h1.6l2.2-7.28 2.18 7.28h1.6l3.03-9.8h-1.6zm3.68 1.61a.9.9 0 100-1.8.9.9 0 100 1.8zm-.74 8.19h1.45v-7.04h-1.45V152zm10.81-8.41v-1.39h-6.95v9.8h1.52v-4.13h4.72v-1.34h-4.72v-2.94h5.43zm2.4.22a.9.9 0 100-1.8.9.9 0 100 1.8zm-.74 8.19h1.46v-7.04h-1.46V152zm8.57-8.19a.9.9 0 100-1.8.9.9 0 100 1.8zm-.74 8.19h1.46v-7.04h-1.46V152zm12.18-7.22c-1.2 0-2.02.53-2.47 1.2-.4-.77-1.15-1.2-2.17-1.2-1 0-1.75.49-2.21 1.16v-.98h-1.47V152h1.47v-3.56c0-1.41.69-2.3 1.8-2.3 1.04 0 1.53.75 1.53 1.93V152h1.46v-3.68c0-1.33.67-2.17 1.76-2.17 1.08 0 1.58.74 1.58 1.92V152h1.47v-4.21c0-1.92-1.09-3.01-2.75-3.01zm9.03 0c-1.12 0-1.99.49-2.52 1.24v-1.06h-1.47v9.98h1.47v-4c.53.75 1.4 1.24 2.52 1.24 1.99 0 3.51-1.58 3.51-3.7s-1.52-3.7-3.5-3.7zm-.24 6.09c-1.28 0-2.32-1.01-2.32-2.4a2.31 2.31 0 012.32-2.38c1.35 0 2.3 1 2.3 2.38 0 1.39-.95 2.4-2.3 2.4zm7.13-4.8v-1.11h-1.47V152h1.47v-3.18c0-2.04.91-2.8 2.4-2.57v-1.38c-1.15-.15-1.98.35-2.4 1.2zm7 6.11c2.15 0 3.73-1.6 3.73-3.7s-1.58-3.7-3.74-3.7a3.63 3.63 0 00-3.74 3.7 3.63 3.63 0 003.74 3.7zm0-1.33a2.27 2.27 0 01-2.32-2.36c0-1.36.97-2.38 2.31-2.38 1.35 0 2.31 1.02 2.31 2.38 0 1.34-.96 2.36-2.3 2.36zm10.43-5.9l-2.21 5.45-2.2-5.44h-1.6l2.99 7.04h1.63l2.99-7.04h-1.6zm6.14 7.23a3.58 3.58 0 003.37-2l-1.34-.4c-.3.62-.95 1.14-2 1.14-1.43 0-2.24-.82-2.34-1.99h5.73c.02-.2.04-.37.04-.58 0-2-1.3-3.57-3.59-3.57-2.18 0-3.62 1.6-3.62 3.7 0 2.23 1.55 3.7 3.75 3.7zm-2.31-4.23c.1-1 .92-1.91 2.18-1.91 1.3 0 2.06.82 2.15 1.9l-4.33.01zm16-3.17c-1.2 0-2.02.53-2.47 1.2-.4-.77-1.15-1.2-2.17-1.2-1 0-1.75.49-2.21 1.16v-.98h-1.47V152h1.47v-3.56c0-1.41.68-2.3 1.8-2.3 1.04 0 1.53.75 1.53 1.93V152h1.45v-3.68c0-1.33.68-2.17 1.77-2.17 1.08 0 1.58.74 1.58 1.92V152h1.47v-4.21c0-1.92-1.1-3.01-2.76-3.01zm8.36 7.4a3.58 3.58 0 003.37-2l-1.34-.4c-.3.62-.96 1.14-2 1.14-1.43 0-2.25-.82-2.34-1.99h5.72c.03-.2.04-.37.04-.58 0-2-1.3-3.57-3.58-3.57-2.18 0-3.63 1.6-3.63 3.7 0 2.23 1.56 3.7 3.76 3.7zm-2.31-4.23c.1-1 .92-1.91 2.18-1.91 1.29 0 2.06.82 2.14 1.9l-4.32.01zm11.56-3.17c-1.12 0-1.93.53-2.42 1.23v-1.05h-1.47V152h1.47v-3.5c0-1.41.8-2.35 2.03-2.35 1.15 0 1.74.75 1.74 1.99V152h1.46v-4.13c0-1.9-1-3.1-2.8-3.1zm9.05 5.8c-.33.15-.58.22-.93.22-.67 0-1-.4-1-1.08v-3.46h2.23v-1.3h-2.23v-2.35h-1.46v2.35h-1.29v1.3h1.29v3.46c0 1.44.69 2.4 2.2 2.4.56 0 1.02-.12 1.55-.34l-.36-1.2z" fill="#252525"/>
  <path d="M53.86 149.97l3.01-2.87c.64-.6 1.1-1.12 1.4-1.58.3-.46.45-.97.45-1.54 0-.92-.3-1.63-.9-2.16a3.4 3.4 0 00-2.33-.79 3.24 3.24 0 00-3.27 2.66l1 .28c.14-.59.4-1.05.8-1.4.41-.35.9-.52 1.5-.52.65 0 1.17.18 1.54.53.38.35.57.82.57 1.43 0 .4-.12.78-.37 1.13-.25.35-.63.78-1.17 1.29l-3.9 3.76v.83h6.72V150l-5.05-.02zm13.73-2.15h-1.34v-2.47h-1.11v2.47h-3.78l3.57-6.62H63.7l-3.66 6.8v.83h5.09V151h1.1v-2.17h1.35v-1zm2.28 3.28c.23 0 .41-.08.56-.23a.76.76 0 00.23-.56.71.71 0 00-.23-.53.78.78 0 00-.56-.22.78.78 0 00-.56.22.71.71 0 00-.22.53c0 .22.07.41.22.56.15.15.34.23.56.23zm7.95-5.4c.44-.22.78-.5 1.03-.87a2.3 2.3 0 00-.5-3.06 3.43 3.43 0 00-2.3-.74c-.95 0-1.72.25-2.3.74a2.3 2.3 0 00.52 3.92c-.56.23-1 .57-1.33 1.01-.32.45-.49.96-.49 1.55 0 .85.33 1.55 1 2.1.66.56 1.53.84 2.6.84a3.9 3.9 0 002.6-.83c.65-.56.98-1.26.98-2.1 0-.6-.16-1.1-.48-1.55a2.94 2.94 0 00-1.34-1l.01-.02zm-1.78-3.72c.64 0 1.14.15 1.52.47.38.31.56.7.56 1.2 0 .48-.19.88-.57 1.2a2.3 2.3 0 01-1.51.46 2.3 2.3 0 01-1.54-.47 1.5 1.5 0 01-.55-1.2c0-.48.19-.88.55-1.2a2.3 2.3 0 011.54-.46zm0 8.23c-.76 0-1.36-.2-1.82-.57a1.79 1.79 0 01-.67-1.44c0-.58.22-1.05.67-1.42a2.77 2.77 0 011.82-.55c.74 0 1.34.18 1.79.55.45.37.67.85.67 1.43a1.8 1.8 0 01-.67 1.43c-.45.38-1.05.57-1.79.57zm8-3.87a2.63 2.63 0 001.91-4.5 2.63 2.63 0 00-1.91-.75 2.63 2.63 0 100 5.25zm-.08 4.66H85l6.34-9.8h-1.01l-6.36 9.8zm.08-5.54c-.5 0-.92-.18-1.25-.52a1.7 1.7 0 01-.5-1.22 1.68 1.68 0 011.74-1.74c.5 0 .92.17 1.25.5.34.34.5.75.5 1.24 0 .47-.16.88-.5 1.22a1.7 1.7 0 01-1.26.52h.02zm7.21 5.65a2.61 2.61 0 100-5.23 2.6 2.6 0 00-1.9.76 2.5 2.5 0 00-.77 1.87c0 .73.26 1.35.78 1.85.52.51 1.14.76 1.89.76v-.01zm0-.87a1.71 1.71 0 01-1.74-1.74c0-.48.16-.9.5-1.23.33-.33.75-.5 1.25-.5s.93.17 1.25.5c.33.34.5.75.5 1.23s-.17.9-.5 1.24c-.34.34-.76.5-1.26.5z" fill="#B7B6BB"/>
  <rect y="188.2" width="31.61" height="31.61" rx="5" fill="#F5F5F7" fill-opacity=".75"/>
  <path d="M11.52 210l8.57.03M8.98 197.97h13.64v9.09H8.98z" stroke="#3E1D85" stroke-width="2" stroke-linecap="round" stroke-linejoin="round"/>
  <rect opacity=".5" x="51.61" y="186" width="225.95" height="5" rx="2.5" fill="#B7B6BB"/>
  <rect x="51.61" y="186" width="51.74" height="5" rx="2.5" fill="#3E1D85"/>
  <path d="M120.9 204.2l-3.43 4.93-3.43-4.93h-1.46v9.8h1.54v-7.17l3.34 4.7 3.36-4.7V214h1.53v-9.8h-1.46zm7.11 9.99a3.64 3.64 0 003.74-3.72 3.64 3.64 0 00-3.74-3.7 3.63 3.63 0 00-3.74 3.7 3.63 3.63 0 003.74 3.71zm0-1.34c-.68 0-1.23-.22-1.66-.68a2.35 2.35 0 01-.65-1.68c0-.69.22-1.25.65-1.7a2.2 2.2 0 011.66-.68c.67 0 1.22.22 1.66.67.43.46.65 1.02.65 1.7 0 .68-.22 1.24-.65 1.69-.44.46-.99.68-1.66.68zm9.55-6.08c-1.03 0-1.85.41-2.43 1.23v-1.04h-1.47V214h1.47v-3.5c0-.71.19-1.28.55-1.7.37-.44.86-.65 1.48-.65.57 0 1 .18 1.3.53.3.34.44.84.44 1.46V214h1.45v-4.13a3.3 3.3 0 00-.72-2.27c-.49-.55-1.18-.83-2.07-.83zm5.86-.96c.26 0 .48-.09.66-.26a.87.87 0 00.26-.65.86.86 0 00-.27-.63.9.9 0 00-.65-.26.9.9 0 00-.66.26.86.86 0 00-.26.63c0 .26.09.48.26.65.18.17.4.26.66.26zm-.75 8.19h1.46v-7.04h-1.46V214zm7.81-1.43c-.3.15-.61.23-.92.23-.68 0-1.01-.37-1.01-1.08v-3.46h2.24v-1.3h-2.24v-2.35h-1.46v2.35h-1.28v1.3h1.28v3.46c0 .74.19 1.33.55 1.75.36.43.92.64 1.66.64.5 0 1.01-.11 1.55-.34l-.37-1.2zm5.12 1.62a3.64 3.64 0 003.74-3.72 3.64 3.64 0 00-3.74-3.7 3.63 3.63 0 00-3.74 3.7 3.63 3.63 0 003.74 3.71zm0-1.34c-.68 0-1.23-.22-1.66-.68a2.34 2.34 0 01-.65-1.68c0-.69.22-1.25.65-1.7a2.2 2.2 0 011.66-.68c.67 0 1.22.22 1.66.67.43.46.65 1.02.65 1.7 0 .68-.22 1.24-.65 1.69-.44.46-.99.68-1.66.68zm7.12-4.77v-1.12h-1.47V214h1.47v-3.18c0-1 .21-1.7.63-2.13.42-.41 1.01-.56 1.78-.45v-1.36c-.56-.08-1.04-.01-1.46.2-.42.23-.74.56-.95 1z" fill="#252525"/>
  <path d="M53.86 211.97l3.01-2.87c.64-.6 1.1-1.12 1.4-1.58.3-.46.45-.97.45-1.54 0-.92-.3-1.63-.9-2.16a3.4 3.4 0 00-2.33-.79 3.24 3.24 0 00-3.27 2.66l1 .28c.14-.59.4-1.05.8-1.4.41-.35.9-.52 1.5-.52.65 0 1.17.18 1.54.53.38.35.57.82.57 1.43 0 .4-.12.78-.37 1.13-.25.35-.63.78-1.17 1.29l-3.9 3.76v.83h6.72V212l-5.05-.02zm8.43 0l3-2.87c.64-.6 1.1-1.12 1.4-1.58.3-.46.46-.97.46-1.54 0-.92-.3-1.63-.9-2.16a3.4 3.4 0 00-2.33-.79 3.24 3.24 0 00-3.28 2.66l1.01.28c.13-.59.4-1.05.8-1.4.4-.35.9-.52 1.49-.52.65 0 1.17.18 1.55.53.37.35.57.82.57 1.43 0 .4-.13.78-.37 1.13-.25.35-.64.78-1.17 1.29l-3.9 3.76v.83h6.71V212l-5.04-.02zm7.86 1.13c.22 0 .4-.08.56-.23a.76.76 0 00.22-.56.71.71 0 00-.22-.53.78.78 0 00-.56-.22.78.78 0 00-.56.22.71.71 0 00-.23.53c0 .22.08.41.23.56.15.15.33.23.56.23zm5-10.08c-1.03 0-1.88.32-2.53.96a3.19 3.19 0 00-.97 2.37c0 .94.31 1.72.94 2.35.63.63 1.44.95 2.44.96.36 0 .68-.05.97-.17l-2.34 3.5h1.26l2.94-4.4c.53-.8.8-1.56.8-2.25 0-.94-.33-1.74-.98-2.37a3.48 3.48 0 00-2.53-.96v.01zm.02 5.63c-.72 0-1.3-.22-1.76-.65a2.2 2.2 0 01-.68-1.65c0-.66.23-1.22.68-1.66a2.4 2.4 0 011.74-.65c.72 0 1.3.22 1.75.65.46.44.68 1 .68 1.66 0 .66-.22 1.2-.67 1.65-.44.44-1.02.66-1.74.66zm8.02-.31a2.63 2.63 0 001.91-4.5 2.63 2.63 0 00-1.91-.75 2.62 2.62 0 100 5.25zm-.08 4.66h1.03l6.34-9.8h-1L83.1 213zm.08-5.54c-.5 0-.92-.18-1.25-.52a1.7 1.7 0 01-.5-1.22 1.7 1.7 0 011.74-1.74c.5 0 .92.17 1.25.5.34.34.51.75.51 1.24 0 .47-.17.88-.5 1.22a1.7 1.7 0 01-1.27.52h.02zm7.21 5.65a2.61 2.61 0 100-5.23c-.74 0-1.37.25-1.9.76a2.5 2.5 0 00-.77 1.87c0 .73.26 1.35.78 1.85.52.51 1.15.76 1.9.76v-.01zm0-.87a1.71 1.71 0 01-1.74-1.74c0-.48.16-.9.5-1.23.33-.33.75-.5 1.26-.5a1.7 1.7 0 011.74 1.74c0 .47-.17.88-.5 1.22-.34.35-.76.52-1.26.52z" fill="#B7B6BB"/>
  <defs>
    <clipPath id="clip0">
      <path fill="#fff" transform="translate(5.8 132)" d="M0 0h20v20H0z"/>
    </clipPath>
  </defs>
</svg>
